<svg xmlns="http://www.w3.org/2000/svg" viewBox="0 0 569.78 846.7"><defs><style>.cls-1{fill:#ffb0cf;}</style></defs><title>Asset 1</title><g id="Layer_2" data-name="Layer 2"><g id="Layer_1-2" data-name="Layer 1"><path class="cls-1" d="M40,20.24c-7.29-.17-11.56,6.1-14.15,12.15-2.36,5.51-6.71,14.9-1.51,20,4.57,4.49,12.49,3.74,17.92,1.5A22.83,22.83,0,0,0,56.13,37.69C59.1,23,45,13.34,31.66,18c-7.12,2.49-12.17,8.71-15.11,15.44-2.69,6.15-5.52,15-1.43,21.12,8.26,12.36,27.22,5.15,34.73-4,8.46-10.27,9-29.48-7.85-30.83-7.39-.59-14.8,3.7-19.18,9.47-4,5.24-5.32,13.49.37,18.14,5.27,4.3,12.88,2.13,17.19-2.43,3.78-4,9.36-13.48,4.85-18.67C35.91,15.54,17.15,37.85,24.47,48,33.16,60,54.2,35.13,44.89,28.61c-9.13-6.39-31.21,11.72-19.14,19.88,5.62,3.8,14.44,2,19-2.74,4.18-4.33,4.32-11.63-2-13.8-5.88-2-13.28.92-16.53,6.11-3.44,5.48.11,12,6.44,12.74,5.67.69,14.56-4.83,14-11.27-.66-7.49-9.47-5.17-12.84-1.1S32.9,48.94,38.66,48c5.43-.93,8.4-8.44,3.25-11.82-4.24-2.78-10.32,1.67-8.07,6.53,2.69,5.8,9.86,3,12.48-1.18s4.59-15-3.22-14.72c-5.44.19-11.66,6.68-10.85,12.17,2.19,14.78,28.1-2.71,16.05-9.75-6.33-3.7-15,1-19.46,5.5-4.12,4.16-2.76,10.4,3.18,11.94S44.34,42,46.25,36.83c2.16-5.89-3-9.34-8.37-7.12-5.85,2.44-8.49,8.84-7.27,14.8a2.69,2.69,0,0,0,3.24,1.84c5.56-1,8.58-6.23,7.31-11.59a2.7,2.7,0,0,0-2.54-1.93A15.14,15.14,0,0,0,21.8,49.75a2.73,2.73,0,0,0,1.93,2.54,15,15,0,0,0,15.4-4.77c2.89-3.5,4.39-9.62.23-12.79-8.19-6.24-23.49,11.58-13,17.64,4,2.31,8.51-.9,8.82-5.22.43-5.82-6-9-11-8.31-4.53.65-9,5.14-6.63,9.94a5.55,5.55,0,0,0,9.91.12A2.67,2.67,0,0,0,25.9,45C14.75,41.9,20.64,62.2,28.61,56.69a2.67,2.67,0,0,0,.94-3.6,6.43,6.43,0,0,0-5.46-3.21c-2.82-.3-3.26,3.58-1.33,4.9,8.81,6,20.68-3.12,25.83-10.12s8.24-18.36-.05-24.42a2.64,2.64,0,0,0-3.6.94,20.7,20.7,0,0,0-2.13,9l5.17-.7-.66-2.41c-.89-3.26-6-1.88-5.07,1.4l.66,2.41a2.64,2.64,0,0,0,5.17-.7,14.52,14.52,0,0,1,1.41-6.36l-3.6.94C56.75,32.72,35.5,57.13,25.42,50.24l-1.33,4.9.92.6.94-3.6a5.62,5.62,0,0,0-1.46-2l-1.57-3.87q.73-3.35,4.17-2.11,1.79,6.12,1.69-.24c.85-1.66,6.31-7.21,7.75-2.36.53,1.8-3.36,4.49-4.6,5.09a9.57,9.57,0,0,1-6.8.59l1.93,2.54c-.79-7.21,4.35-12.4,11.56-11.66l-2.54-1.93c.62,2.64-1.18,4.67-3.64,5.11l3.24,1.84c-.57-2.76.5-6.86,3.39-8.15,4.4-2,.06,3.39-1.19,4.58-1.51,1.44-4.05,3.43-5.13.64-.84-2.18.14-2.32,2.25-3.84,1.7-1.22,12.35-6.26,10-.31-.81,2.08-7.74,5.52-7.5.86.13-2.57,6.16-7.31,5.5-1-.31,2.93-2.84,4.25-5.1,5.63,3.77-2.3,2.38,0,.94,1.75-1.21,1.48-4.36,2.93-6.24,2.23-5.22-1.93-1.52-5.79.42-7.12,1.63-1.12,6.76-3,8.72-1.14,3.6,3.48-4.18,7.24-6.34,7.71-4.87,1.06-10.28-1.34-5.22-7,1.32-1.48,7.93-6.41,9.81-5.26,1.47.89.61,3.49.29,4.48-.47,1.45-1.84,2.85-2.81,4a21.54,21.54,0,0,1-2.8,2.8c-1.58,1.26-5.11,1.47-6.63-.42-1.8-2.22,2.49-8.4,4-10.2a13.14,13.14,0,0,1,3.93-3.26c3.55-1.8,5.73,1.91,4.28,5.21-2,4.53-10.36,14.65-15,6.58-3.91-6.78,5.46-14.31,10.94-16.12s12.64-.05,14.25,6.15c1.56,6-2.11,13-6.26,17.08a22.63,22.63,0,0,1-14.07,6.76c-5.67.37-12-2.22-11.83-8.72.21-11,8.26-24.84,20.31-25,6.41-.06,12,3.82,12.58,10.5.6,7-4.12,13.44-10.33,16.25a16.55,16.55,0,0,1-8.39,1.55c-2.28-.25-4.82-.87-5.38-3.65-.26-1.27.69-3.92,1-5.17C29.7,36,32.77,25.34,40,25.51c3.39.08,3.39-5.18,0-5.26Z"/><path class="cls-1" d="M65.35,27.94a40.23,40.23,0,0,1-8,33.13c-9,11.07-23.83,15-33.8,25.13-9.43,9.62-15.57,22.08-19.24,34.94C.79,133.35-1.64,147.3,1.35,159.87c3.25,13.67,15.14,23.22,29.44,21.83,15.27-1.49,26.17-12.81,34.73-24.58,9.6-13.21,17.18-28,25.36-42.13C99,101.05,108,87.27,114.35,72.45c5.65-13.07,9-27.35,5.4-41.46C116.84,19.55,109.43,8.22,98.51,3,87.75-2,72.4-1.39,65.58,9.86c-3.91,6.45-2.36,13.54.69,19.95,2.88,6.05,4.42,11.64,3,18.38-3,14.45-14.29,24.7-25,34-11,9.53-22.55,19.07-29.56,32.06a66.92,66.92,0,0,0-7,21.77c-1.14,7.36-3.22,16.18-.54,23.37,5.55,14.9,24.21,13.78,34.87,5.78a58.34,58.34,0,0,0,21.78-35.94c1.17-6.68,1.77-13.92-1.12-20.25a15.78,15.78,0,0,0-16.94-9.32C33,101.67,18.7,118,22.4,131.38c1.87,6.75,7.92,12,15.09,11.64,7.37-.36,13.34-6.38,16.27-12.75A28.26,28.26,0,0,0,55,109.61a8.06,8.06,0,0,0-9.71-5.51C28.83,108.21,20.54,128.53,29.18,143A7.85,7.85,0,0,0,36,146.95a17.3,17.3,0,0,0,14.61-25c-1.36-2.85-5.9-4.82-8.91-3.63C28.88,123.34,20.19,135,20.36,149c.06,5,5,9.08,10,7.61,11.69-3.45,16-21.24,4.52-27.95-6.32-3.7-14.45,2.79-17.71,7.94A20.76,20.76,0,0,0,15,154.7c2.19,5.94,8.37,7.31,13.19,3.48C37.89,150.47,44,139.52,50.26,129c6.93-11.55,14.7-22.57,21.79-34C86.52,71.68,97.3,45.85,93.38,17.92l-9.71,9.71c8.7,3.09,6.61,15.38,4.46,21.92-3.24,9.88-8.74,19-14.17,27.78s-11,17.29-15.81,26.37c-4.08,7.78-11.15,20.12-2.48,27.46,4.16,3.52,9.24,2.74,12.4-1.6C85,106.32,90,77.36,103,52.16H89.37c4.55,5.91-4.37,17.35-7.5,22.41a143.77,143.77,0,0,1-18.61,23.9l9.57-1.23a26.78,26.78,0,0,0-24.2-3.08l9.71,9.71a13.93,13.93,0,0,0-3.54-13.53c-2.6-2.8-6.39-2.62-9.57-1.23-7.28,3.17-8.24,13.58-2.65,18.7l1.6-12.4A14.51,14.51,0,0,0,36.7,105c-2.49,9.85,12.73,14.06,15.22,4.2q-.77.16.21-.13c4.4-2.28,5.23-9.07,1.6-12.4l-.55,6.1-9.57-1.23-.52-1.83c-1.34,5.42,3.8,11.87,9.71,9.71a12.07,12.07,0,0,1,12,1.49c2.81,1.93,7.28,1.15,9.57-1.23a162.19,162.19,0,0,0,23.7-31.49c5.55-9.69,12.92-23.51,4.89-34-3.33-4.33-10.61-5.83-13.63,0-13,25.18-18.05,54.22-34.93,77.41l12.4-1.6c2.25,1.91-.38,2.15.72.76a16.76,16.76,0,0,0,1.21-3c1.17-2.58,2.48-5.11,3.82-7.61,2.56-4.76,5.37-9.39,8.22-14,5.85-9.42,12-18.72,16.83-28.7s9.26-20.77,8-31.94C104.43,24.91,98,16,87.86,12.41c-6.33-2.25-10.46,4.35-9.71,9.71,3.44,24.51-9,48-21.64,68-6.41,10.14-13.27,20-19.47,30.28C31.24,130,26,139.9,17,147l13.19,3.48c-1-2.84-.48-6.33,2.8-7.39l-7.68-2c1.11.88.27.5.85.33l10,7.61c-.08-6.48,3.47-13,9.73-15.52L37,129.88c.11.23-.72,1.27-1,1.29l6.82,3.91c-3.54-5.95,0-14.1,6.67-15.75l-9.71-5.51c1.3,4,1.29,8.56-1.56,11.94.45-.53-1.94,1.75-1.91,1.64l1.34.14q.49.46,0-.35s0-1.14.05-1.28a11.88,11.88,0,0,1,2.54-4.29,27.55,27.55,0,0,1,4.7-4.74c.58-.43,2.81-2.11,3.68-1.81-.52-.17-.43-.11-.12.27,2,2.48.3,9.41-.28,12.05-2.2,9.94-7.86,20.33-16.62,26-2.13,1.37-6.38,3.52-8.83,1.34-1.57-1.39-.89-4.06-.72-6,.3-3.43.69-6.89,1.27-10.29A53.9,53.9,0,0,1,38,109.31c7.84-8.26,17-15.1,25.22-23,16-15.29,28.8-37.9,18.88-60.07-1-2.17-4.41-6.57-2.56-8.84,2.12-2.61,7.23-2,9.9-1.11C96.87,18.85,101.76,26,104,33.24,110.64,55,94.61,77.07,84.26,94.92q-10,17.28-20.05,34.57c-5.8,10-11.59,20.32-19.89,28.49-5.89,5.79-17.37,12.5-24.49,4.69-5.44-6-4.36-16.6-3.26-23.88,1.72-11.34,5-22.64,11.12-32.44A51.61,51.61,0,0,1,37.94,94.29c4.93-4.23,10.94-7,16.44-10.35C75,71.27,85.63,47.56,80.57,23.74c-2.11-9.93-17.33-5.73-15.22,4.2Z"/><path class="cls-1" d="M81,155.49c-3.65,11.45-10.25,20.8-19,28.9-8.53,7.88-17.1,17.24-15.7,29.78,1.58,14.11,15.15,18.48,27.29,14.16,10.69-3.81,19.2-12.24,24-22.43,5.45-11.49,7.07-24.34,8.24-36.87.56-6,.42-12.63-3.13-17.81-4.15-6-12.27-6.16-17.5-1.49-8.77,7.82-8.52,22-14.48,31.64a104,104,0,0,1-10.19,13.21c-3.66,4.24-9,9-11,14.33-2.63,7.23,2,14.3,9.75,14.65,6.24.28,12.43-2.75,17.19-6.55,11.17-8.92,14.57-22.92,16.94-36.34.74-4.19-1.13-8.51-5.51-9.71-3.81-1-9,1.29-9.71,5.51-1.29,7.32-2.45,15.13-6.15,21.68-1.85,3.27-7.88,11.15-12.29,9.43l3.48,2-.78-.76,2,3.48-.36-1.21v4.2c.34-2,2.49-3.73,3.77-5.24,1.77-2.08,3.58-4.13,5.36-6.22a130.29,130.29,0,0,0,10.19-13.18,60.05,60.05,0,0,0,6.8-14.29c.78-2.41,2.72-14,5.26-14.61h-4.2l.55.23L89,159.2c3,4.21.78,12.09.18,16.84a88.94,88.94,0,0,1-4.08,18.85c-2.83,8-11.35,20.76-21.53,19.38-1.7-.23-1.91-.91-1.79-3.24.14-2.72,1.72-5.41,3.32-7.53,3.54-4.69,8.56-8.21,12.62-12.43a80.32,80.32,0,0,0,18.43-31.39C99.28,150,84,145.83,81,155.49Z"/><path class="cls-1" d="M27.94,202.21c-8.58-2.49-18.11,2.58-22.7,10.24s-4.94,17.24-3.16,26a10.87,10.87,0,0,0,1.34,3.82c1.48,2.28,4.35,3.28,7.06,3.45,8,.52,15.58-5.05,19.17-12.24s3.78-15.64,2.51-23.58C29,190.27,2.81,220,3.93,231.86c.34,3.56,2.21,7.46,5.69,8.24,2.48.55,5-.66,7.09-2.14a26.81,26.81,0,0,0,10.08-27.84c-.16-.62-.42-1.32-1-1.54a2,2,0,0,0-1.52.27,18,18,0,0,0-9.83,15c0,.89,1.06,2.07,1.39,1.24a6.83,6.83,0,0,1-2.5,3.61"/><path class="cls-1" d="M15.17,375c4.68,7.86,13.86,15.41,22.16,11.53,3.19-1.49,5.46-4.42,7.21-7.47,9.12-15.9,6.73-35.61,9.93-53.66,1.83-10.33,5.54-20.25,7.36-30.58s1.51-21.62-4.12-30.47c-3.61-5.66-12-11.13-18.8-7.87A20.57,20.57,0,0,0,33.28,261q-4.95,5.1-9.79,10.3C12,283.64,2.07,298,2.32,315.22,2.6,335.4,4.63,357.31,15.17,375Z"/><path class="cls-1" d="M115.24,203.15c-20.75,28.55-52.67,56.16-44.74,95.48,1.62,8,5.64,18.13,13.29,22.16,7.91,4.17,17.15,1,23.49-4.49,12.92-11.27,12.31-30,18.24-44.72,3.21-8,9.3-14.42,13.93-21.56A55.37,55.37,0,0,0,148.37,223c.44-7.67-1.39-16.13-7.35-21.41-6.69-5.93-16.12-4.69-22.45,1-6,5.43-9.17,13.62-13.49,20.31-5.09,7.88-10.78,15.37-15.74,23.34C79.75,261.65,72.57,280.8,77.71,299c1.39,5,3.76,10.42,9.09,12.1s10.8-.8,14.71-4.4c7.47-6.88,10.37-18.07,14-27.19l26.82-66.35c1.05-2.6-.27-5.78-2-7.68-6.93-7.48-17.1-3.55-22.24,3.69-5.6,7.86-9.91,17.06-14.38,25.59a579.53,579.53,0,0,0-25.07,54.93c-1.57,4,1.72,8.67,5.51,9.71,4.49,1.23,8.13-1.53,9.71-5.51q8.31-20.93,18.34-41.09,5-10.11,10.47-20,2.49-4.54,5.07-9c.9-1.57,1.76-3.2,2.75-4.71q.44-.75.9-1.48,2.12-1.66-2.24-.91l-2-7.68-19.37,47.92-9.68,24c-1.82,4.49-4.14,14.33-9.75,15.36h4.2l-.79-.39,2.83,2.83c-5.8-8.57-2.27-22.27,1.25-31,4.3-10.69,11.47-20.08,18-29.5,3.16-4.58,6.27-9.21,9-14,1.67-2.92,3.86-9.09,7.17-10.66.86-.41.51-.66,1.22.62a12.65,12.65,0,0,1,1.38,4.39c.74,5.56-.87,12-3.1,17-4.33,9.78-12.6,17.21-17.11,26.91-4.39,9.42-5.74,19.6-8.79,29.44-1.34,4.35-8.93,21.31-14.32,12.48-5.28-8.66-5-20-2.63-29.48,6.26-25.25,27.42-43.41,42.21-63.76,2.51-3.45.59-8.8-2.83-10.8-4-2.33-8.29-.63-10.8,2.83Z"/><path class="cls-1" d="M139.23,62.56C130.44,66.89,125.16,75.3,121.4,84c-2.1,4.87-4,9.83-5.94,14.76-2.27,5.73-5.1,11.52-6.6,17.51-2.9,11.55,2.65,20.5,5.13,31.4,2.17,9.54-.78,19.24,1.39,28.63,2.6,11.2,12.75,14,22.88,11.53,10.71-2.66,20.14-7.12,25.9-17,5.36-9.17,7.86-20.44,10-30.73a205,205,0,0,0,4.3-34.79c.4-11.05,1-23.66-4.25-33.77-4.81-9.36-15-15.12-25.54-12.61-10.72,2.57-17.45,11.6-22.17,20.93-5.07,10-8.94,20.51-9.84,31.78-.94,11.83,1.57,23.76,3.46,35.39L123,164.72c.87,5.36,1.85,10.61,7.16,13.27,11.15,5.59,20.1-10.68,23.85-18.76,4.61-9.94,7.44-20.63,9.44-31.38,2.35-12.66,3.92-26,3.16-38.89-.29-5-1.48-10.36-5.18-14a12.94,12.94,0,0,0-15.5-1.85c-5.1,3-7.49,8.46-9.64,13.67a87.28,87.28,0,0,0-5.23,17.66,97.4,97.4,0,0,0,.66,38.23c1.56,7.24,10.78,7,14.43,1.89,10.5-14.58,13.93-32.74,10.62-50.27-1.1-5.85-9.34-7.59-13.19-3.48a60.93,60.93,0,0,0-14,59.19,8,8,0,0,0,13.19,3.48,46.91,46.91,0,0,0,13.83-36.17c-.54-8.27-10-10.15-14.71-4a49.36,49.36,0,0,0-9.61,35.71c1,7.63,10.06,10.91,14.71,4,5.1-7.6,6.41-16.37,4.78-25.27-1.19-6.48-9-6.77-13.19-3.48-6,4.78-8.08,12.75-6.19,20,2.54,9.83,17.77,5.66,15.22-4.2-.58-2.26.41-3.32,2.13-4.68L136.56,132c.88,4.78-.54,9.15-3.19,13.1l14.71,4a36.64,36.64,0,0,1,7.46-27.74l-14.71-4a31.47,31.47,0,0,1-9.21,25l13.19,3.48A44.85,44.85,0,0,1,154.74,102l-13.19-3.48c2.55,13.51-1.07,27-9,38.1l14.43,1.89a78,78,0,0,1,.65-35.84,83.88,83.88,0,0,1,2.62-8.38c.7-1.87,3.15-5.15,3.25-7l.48-.56q-4.42-2.3-3.64-.45c-.16.42.52,1.24.42,1.7-.48,2.37.18,5.68.15,8.14a166.6,166.6,0,0,1-4.82,37.58,105.51,105.51,0,0,1-5.14,16.39c-1.89,4.4-4.93,11.63-9.28,14.16l4-1.08-1.48.13,4,1.08,1,1.27q-.24-1.07-.4-2.16c-.28-1.63-.53-3.27-.8-4.9l-1.43-8.83c-1.1-6.75-2.32-13.5-3.24-20.28-1.59-11.74-1-22.7,3.35-33.79,2.64-6.68,8.17-21.74,17.32-21.54,10.32.23,9,19.08,8.91,25.58A181.62,181.62,0,0,1,159.16,135q-1.71,8.31-4.15,16.44c-1.47,4.88-3,10.22-6.36,14.2s-8.21,5.27-13,6.54c-1.46.39-3.9,1.56-5.42,1,1.4.48.32-1.21.24-2.78-.24-4.48.62-9,.47-13.49a69,69,0,0,0-2.89-17.76c-1.64-5.39-5.15-11.15-4.4-16.95.84-6.52,4.61-13.22,7-19.29,3.68-9.31,6.79-22,16.51-26.8,9.11-4.49,1.12-18.11-8-13.63Z"/><path class="cls-1" d="M151.35,267.08a21.57,21.57,0,0,0-13.79,11.33c-3.22,6.22-3.25,13.07-4.21,19.84a48.55,48.55,0,0,1-14.66,28.25c-9.16,8.72-21.06,11.27-32.35,16.09C74.86,347.49,66,355.48,61.63,367.39c-8.18,22.52,2.5,58.32,31.76,53.72,27.8-4.37,40.43-33.33,49.25-56.49,11-28.95,29.15-57.26,24.16-89.46-.68-4.38-5.94-6.33-9.71-5.51-8.68,1.88-13.08,10.24-14.54,18.35-1.51,8.39-2.21,16.83-4.28,25.14-2,7.9-4.73,15.79-9.66,22.37-5.26,7-12.72,10.65-20.75,13.64-9.06,3.38-18.46,6.66-25.29,13.84-6.25,6.57-10.34,15.46-8.73,24.63,1.67,9.51,9.85,16.92,19.74,15.81,10.71-1.2,16.77-9.95,20.33-19.28,2-5.15,3.71-10.91-.06-15.73s-10.29-4.77-15.54-2.56c-10.12,4.25-16.21,14-16.91,24.72-.2,3.1,2.57,7.12,5.79,7.61,17.49,2.65,35.58-11.55,33.64-30.18-.41-3.93-3.3-8.32-7.89-7.89-11,1-19.89,9.62-19.42,21.07.17,4.07,3.48,8.16,7.89,7.89,15.58-.93,27.43-12.74,28.89-28.18.45-4.72-5.47-9.48-10-7.61-6.42,2.65-10.24,7.29-10.54,14.4-.26,6.16,6.85,9.6,11.88,6.82a21.92,21.92,0,0,0,10.65-13.58c1.87-6.65-5.67-12.36-11.6-8.91-7.86,4.57-11.3,12.46-15.41,20.13-1.36,2.55-2.93,5.84-5.63,7.25-4.7,2.45-11.45.38-16.61,1.93-9.74,2.94-17.76,15.27-9.16,23.92,7.54,7.59,19.61,4.35,23.45-5a7.6,7.6,0,0,0-2-7.68c-6.6-5.38-15.4-2.17-17.16,6.23-1.86,8.9,7.28,14.15,15.07,12.52,13.78-2.9,25.22-20.21,19.67-33.73l-9.71,9.71a16.2,16.2,0,0,0,19.51-7.89c4.61-9-9-17-13.63-8-.77,1.5-.33,1.1-1.68.63-5.3-1.84-12,4.2-9.71,9.71,1.39,3.39.84,6.11-1.33,9.07A16.76,16.76,0,0,1,93.29,394c-.76.6-2,1-2.64,1.61s-.86-.33-.2.14l2.83,2.83.13.19V403q-.4,0-.23.35l-3.48,2,.75-.27h-4.2l.74.1-3.48-2,.67.55-2-7.68c-.12.29,1.21-2.52,2.14-2.4,2.42.31,1.23,3.63,1.59,3.74.17,0,1-.8,1.4-.83,1.93-.15,3.79-.47,5.78-.52,7.08-.17,13.49-1.26,18.85-6.19,3.84-3.54,6.33-8.26,8.66-12.86,2.08-4.11,4-8.92,8.14-11.33l-11.6-8.91a6,6,0,0,1-3.4,4.15l11.88,6.82a1.35,1.35,0,0,1-1,.83l-10-7.61c-.62,6.51-6.7,12-13.11,12.39l7.89,7.89c-.09-2.27.94-5,3.63-5.28L105.07,368c.76,7.31-5.4,16.21-13.66,15l5.79,7.61a12.08,12.08,0,0,1,2.69-6.8,11.89,11.89,0,0,1,2.38-2.24,14.28,14.28,0,0,1,1.8-1.07q1.58-.44-.4-.46l-2.83-2.83.54,1.09-1.08-4c.24,3.15-4.48,15-9,13.63-5.21-1.57-.39-10.45,1.42-12.68,4.81-5.93,12.42-8.3,19.31-10.87,7.3-2.72,14.33-5.64,20.47-10.5,11-8.69,17.13-21.87,20.61-35.14a167.76,167.76,0,0,0,3.72-19.85c.44-3.24.39-13.13,4.43-14l-9.71-5.51c3.57,23-9.39,45.34-18.06,65.76-8.22,19.36-13.62,44.87-32.92,56.62-4,2.45-9.25,4.74-14.08,4.05-4.62-.66-7.5-4.51-9.25-8.54a34.53,34.53,0,0,1-.1-26.46c4.19-9.52,13.47-13.28,22.66-16.56,10.12-3.6,19.58-7.52,27.82-14.59A64.53,64.53,0,0,0,146.2,312c2-5.57,2.67-11.32,3.29-17.16.47-4.37.9-11.29,6.06-12.58,9.85-2.47,5.68-17.7-4.2-15.22Z"/><path class="cls-1" d="M40,445.43c-7.29-.17-11.56,6.1-14.15,12.15-2.36,5.51-6.71,14.9-1.51,20,4.57,4.49,12.49,3.74,17.92,1.5a22.83,22.83,0,0,0,13.88-16.21c3-14.67-11.15-24.35-24.47-19.7-7.12,2.49-12.17,8.71-15.11,15.44-2.69,6.15-5.52,15-1.43,21.12,8.26,12.36,27.22,5.15,34.73-4C58.3,465.5,58.86,446.3,42,445c-7.39-.59-14.8,3.7-19.18,9.47-4,5.24-5.32,13.49.37,18.14,5.27,4.3,12.88,2.13,17.19-2.43,3.78-4,9.36-13.48,4.85-18.67-9.31-10.73-28.07,11.58-20.76,21.7,8.69,12,29.73-12.84,20.42-19.36-9.13-6.39-31.21,11.72-19.14,19.88,5.62,3.8,14.44,2,19-2.74,4.18-4.33,4.32-11.63-2-13.8-5.88-2-13.28.92-16.53,6.11-3.44,5.48.11,12,6.44,12.74,5.67.69,14.56-4.83,14-11.27-.66-7.49-9.47-5.17-12.84-1.1s-.85,10.51,4.9,9.53c5.43-.93,8.4-8.44,3.25-11.82-4.24-2.78-10.32,1.67-8.07,6.53,2.69,5.8,9.86,3,12.48-1.18s4.59-15-3.22-14.72c-5.44.19-11.66,6.68-10.85,12.17,2.19,14.78,28.1-2.71,16.05-9.75-6.33-3.7-15,1-19.46,5.5C24.73,464,26.08,470.26,32,471.8s12.32-4.58,14.23-9.79c2.16-5.89-3-9.34-8.37-7.12-5.85,2.44-8.49,8.84-7.27,14.8a2.69,2.69,0,0,0,3.24,1.84c5.56-1,8.58-6.23,7.31-11.59A2.7,2.7,0,0,0,38.63,458,15.14,15.14,0,0,0,21.8,474.93a2.73,2.73,0,0,0,1.93,2.54,15,15,0,0,0,15.4-4.77c2.89-3.5,4.39-9.62.23-12.79-8.19-6.24-23.49,11.58-13,17.64,4,2.31,8.51-.9,8.82-5.22.43-5.82-6-9-11-8.31-4.53.65-9,5.14-6.63,9.94a5.55,5.55,0,0,0,9.91.12,2.67,2.67,0,0,0-1.57-3.87c-11.14-3.13-5.26,17.17,2.72,11.66a2.67,2.67,0,0,0,.94-3.6,6.43,6.43,0,0,0-5.46-3.21c-2.82-.3-3.26,3.58-1.33,4.9,8.81,6,20.68-3.12,25.83-10.12s8.24-18.36-.05-24.42a2.64,2.64,0,0,0-3.6.94,20.7,20.7,0,0,0-2.13,9l5.17-.7-.66-2.41c-.89-3.26-6-1.88-5.07,1.4l.66,2.41a2.64,2.64,0,0,0,5.17-.7A14.52,14.52,0,0,1,49.49,449l-3.6.94c10.85,7.93-10.39,32.34-20.47,25.45l-1.33,4.9.92.6.94-3.6a5.62,5.62,0,0,0-1.46-2l-1.57-3.87q.73-3.35,4.17-2.11,1.79,6.12,1.69-.24c.85-1.66,6.31-7.21,7.75-2.36.53,1.8-3.36,4.49-4.6,5.09a9.57,9.57,0,0,1-6.8.59l1.93,2.54c-.79-7.21,4.35-12.4,11.56-11.66l-2.54-1.93c.62,2.64-1.18,4.67-3.64,5.11l3.24,1.84c-.57-2.76.5-6.86,3.39-8.15,4.4-2,.06,3.39-1.19,4.58-1.51,1.44-4.05,3.43-5.13.64-.84-2.18.14-2.32,2.25-3.84,1.7-1.22,12.35-6.26,10-.31-.81,2.08-7.74,5.52-7.5.86.13-2.57,6.16-7.31,5.5-1-.31,2.93-2.84,4.25-5.1,5.63,3.77-2.3,2.38,0,.94,1.75-1.21,1.48-4.36,2.93-6.24,2.23-5.22-1.93-1.52-5.79.42-7.12,1.63-1.12,6.76-3,8.72-1.14,3.6,3.48-4.18,7.24-6.34,7.71-4.87,1.06-10.28-1.34-5.22-7,1.32-1.48,7.93-6.41,9.81-5.26,1.47.89.61,3.49.29,4.48-.47,1.45-1.84,2.85-2.81,4a21.54,21.54,0,0,1-2.8,2.8c-1.58,1.26-5.11,1.47-6.63-.42-1.8-2.22,2.49-8.4,4-10.2a13.14,13.14,0,0,1,3.93-3.26c3.55-1.8,5.73,1.91,4.28,5.21-2,4.53-10.36,14.65-15,6.58-3.91-6.78,5.46-14.31,10.94-16.12s12.64-.05,14.25,6.15c1.56,6-2.11,13-6.26,17.08a22.63,22.63,0,0,1-14.07,6.76c-5.67.37-12-2.22-11.83-8.72.21-11,8.26-24.84,20.31-25,6.41-.06,12,3.82,12.58,10.5.6,7-4.12,13.44-10.33,16.25a16.55,16.55,0,0,1-8.39,1.55c-2.28-.25-4.82-.87-5.38-3.65-.26-1.27.69-3.92,1-5.17,1.52-5.56,4.59-16.19,11.82-16,3.39.08,3.39-5.18,0-5.26Z"/><path class="cls-1" d="M65.35,453.12a40.23,40.23,0,0,1-8,33.13c-9,11.07-23.83,15-33.8,25.13C14.09,521,7.95,533.46,4.28,546.31c-3.49,12.22-5.92,26.17-2.93,38.74,3.25,13.67,15.14,23.22,29.44,21.83C46.06,605.4,57,594.07,65.52,582.3c9.6-13.21,17.18-28,25.36-42.13C99,526.24,108,512.46,114.35,497.64c5.65-13.07,9-27.35,5.4-41.46-2.91-11.45-10.32-22.78-21.25-27.95C87.75,423.14,72.4,423.8,65.58,435c-3.91,6.45-2.36,13.54.69,19.95,2.88,6.05,4.42,11.64,3,18.38-3,14.45-14.29,24.7-25,34-11,9.53-22.55,19.07-29.56,32.06a66.92,66.92,0,0,0-7,21.77c-1.14,7.36-3.22,16.18-.54,23.37,5.55,14.9,24.21,13.78,34.87,5.78A58.34,58.34,0,0,0,63.89,554.4c1.17-6.68,1.77-13.92-1.12-20.25a15.78,15.78,0,0,0-16.94-9.32c-12.8,2-27.13,18.35-23.43,31.73,1.87,6.75,7.92,12,15.09,11.64,7.37-.36,13.34-6.38,16.27-12.75A28.26,28.26,0,0,0,55,534.79a8.06,8.06,0,0,0-9.71-5.51c-16.46,4.11-24.74,24.43-16.11,38.94A7.85,7.85,0,0,0,36,572.13a17.3,17.3,0,0,0,14.61-25c-1.36-2.85-5.9-4.82-8.91-3.63-12.81,5.06-21.49,16.72-21.32,30.74.06,5,5,9.08,10,7.61,11.69-3.45,16-21.24,4.52-27.95-6.32-3.7-14.45,2.79-17.71,7.94A20.76,20.76,0,0,0,15,579.89c2.19,5.94,8.37,7.31,13.19,3.48,9.73-7.72,15.82-18.66,22.1-29.14,6.93-11.55,14.7-22.57,21.79-34C86.52,496.87,97.3,471,93.38,443.11l-9.71,9.71c8.7,3.09,6.61,15.38,4.46,21.92-3.24,9.88-8.74,19-14.17,27.78s-11,17.29-15.81,26.37C54.07,536.67,47,549,55.67,556.35c4.16,3.52,9.24,2.74,12.4-1.6C85,531.51,90,502.55,103,477.34H89.37c4.55,5.91-4.37,17.35-7.5,22.41a143.77,143.77,0,0,1-18.61,23.9l9.57-1.23a26.78,26.78,0,0,0-24.2-3.08L58.33,529a13.93,13.93,0,0,0-3.54-13.53c-2.6-2.8-6.39-2.62-9.57-1.23-7.28,3.17-8.24,13.58-2.65,18.7l1.6-12.4a14.51,14.51,0,0,0-7.47,9.57c-2.49,9.85,12.73,14.06,15.22,4.2q-.77.16.21-.13c4.4-2.28,5.23-9.07,1.6-12.4l-.55,6.1-9.57-1.23-.52-1.83c-1.34,5.42,3.8,11.87,9.71,9.71a12.07,12.07,0,0,1,12,1.49c2.81,1.93,7.28,1.15,9.57-1.23a162.19,162.19,0,0,0,23.7-31.49c5.55-9.69,12.92-23.51,4.89-34-3.33-4.33-10.61-5.83-13.63,0-13,25.18-18.05,54.22-34.93,77.41l12.4-1.6c2.25,1.91-.38,2.15.72.76a16.76,16.76,0,0,0,1.21-3c1.17-2.58,2.48-5.11,3.82-7.61,2.56-4.76,5.37-9.39,8.22-14,5.85-9.42,12-18.72,16.83-28.7s9.26-20.77,8-31.94c-1.2-10.63-7.6-19.53-17.76-23.14-6.33-2.25-10.46,4.35-9.71,9.71,3.44,24.51-9,48-21.64,68-6.41,10.14-13.27,20-19.47,30.28C31.24,555.21,26,565.09,17,572.21l13.19,3.48c-1-2.84-.48-6.33,2.8-7.39l-7.68-2c1.11.88.27.5.85.33l10,7.61c-.08-6.48,3.47-13,9.73-15.52L37,555.06c.11.23-.72,1.27-1,1.29l6.82,3.91c-3.54-5.95,0-14.1,6.67-15.75L39.77,539c1.3,4,1.29,8.56-1.56,11.94.45-.53-1.94,1.75-1.91,1.64l1.34.14q.49.46,0-.35s0-1.14.05-1.28a11.88,11.88,0,0,1,2.54-4.29,27.55,27.55,0,0,1,4.7-4.74c.58-.43,2.81-2.11,3.68-1.81-.52-.17-.43-.11-.12.27,2,2.48.3,9.41-.28,12.05-2.2,9.94-7.86,20.33-16.62,26-2.13,1.37-6.38,3.52-8.83,1.34-1.57-1.39-.89-4.06-.72-6,.3-3.43.69-6.89,1.27-10.29A53.9,53.9,0,0,1,38,534.49c7.84-8.26,17-15.1,25.22-23,16-15.29,28.8-37.9,18.88-60.07-1-2.17-4.41-6.57-2.56-8.84,2.12-2.61,7.23-2,9.9-1.11,7.44,2.52,12.33,9.67,14.55,16.92,6.66,21.78-9.37,43.83-19.72,61.67q-10,17.28-20.05,34.57c-5.8,10-11.59,20.32-19.89,28.49-5.89,5.79-17.37,12.5-24.49,4.69-5.44-6-4.36-16.6-3.26-23.88,1.72-11.34,5-22.64,11.12-32.44a51.61,51.61,0,0,1,10.26-12.06c4.93-4.23,10.94-7,16.44-10.35C75,496.46,85.63,472.74,80.57,448.92c-2.11-9.93-17.33-5.73-15.22,4.2Z"/><path class="cls-1" d="M81,580.67c-3.65,11.45-10.25,20.8-19,28.9-8.53,7.88-17.1,17.24-15.7,29.78,1.58,14.11,15.15,18.48,27.29,14.16,10.69-3.81,19.2-12.24,24-22.43,5.45-11.49,7.07-24.34,8.24-36.87.56-6,.42-12.63-3.13-17.81-4.15-6-12.27-6.16-17.5-1.49-8.77,7.82-8.52,22-14.48,31.64a104,104,0,0,1-10.19,13.21c-3.66,4.24-9,9-11,14.33-2.63,7.23,2,14.3,9.75,14.65,6.24.28,12.43-2.75,17.19-6.55,11.17-8.92,14.57-22.92,16.94-36.34.74-4.19-1.13-8.51-5.51-9.71-3.81-1-9,1.29-9.71,5.51-1.29,7.32-2.45,15.13-6.15,21.68-1.85,3.27-7.88,11.15-12.29,9.43l3.48,2-.78-.76,2,3.48-.36-1.21v4.2c.34-2,2.49-3.73,3.77-5.24,1.77-2.08,3.58-4.13,5.36-6.22a130.29,130.29,0,0,0,10.19-13.18,60.05,60.05,0,0,0,6.8-14.29c.78-2.41,2.72-14,5.26-14.61h-4.2l.55.23L89,584.38c3,4.21.78,12.09.18,16.84a88.94,88.94,0,0,1-4.08,18.85c-2.83,8-11.35,20.76-21.53,19.38-1.7-.23-1.91-.91-1.79-3.24.14-2.72,1.72-5.41,3.32-7.53,3.54-4.69,8.56-8.21,12.62-12.43a80.32,80.32,0,0,0,18.43-31.39C99.28,575.17,84,571,81,580.67Z"/><path class="cls-1" d="M27.94,627.39C19.36,624.9,9.83,630,5.24,637.63s-4.94,17.24-3.16,26a10.87,10.87,0,0,0,1.34,3.82c1.48,2.28,4.35,3.28,7.06,3.45,8,.52,15.58-5.05,19.17-12.24s3.78-15.64,2.51-23.58C29,615.46,2.81,645.23,3.93,657c.34,3.56,2.21,7.46,5.69,8.24,2.48.55,5-.66,7.09-2.14A26.81,26.81,0,0,0,26.78,635.3c-.16-.62-.42-1.32-1-1.54a2,2,0,0,0-1.52.27,18,18,0,0,0-9.83,15c0,.89,1.06,2.07,1.39,1.24a6.83,6.83,0,0,1-2.5,3.61"/><path class="cls-1" d="M15.17,800.17C19.85,808,29,815.58,37.32,811.71c3.19-1.49,5.46-4.42,7.21-7.47,9.12-15.9,6.73-35.61,9.93-53.66C56.29,740.25,60,730.32,61.82,720s1.51-21.62-4.12-30.47c-3.61-5.66-12-11.13-18.8-7.87a20.57,20.57,0,0,0-5.61,4.55q-4.95,5.1-9.79,10.3C12,708.83,2.07,723.19,2.32,740.41,2.6,760.58,4.63,782.49,15.17,800.17Z"/><path class="cls-1" d="M115.24,628.34c-20.75,28.55-52.67,56.16-44.74,95.48,1.62,8,5.64,18.13,13.29,22.16,7.91,4.17,17.15,1,23.49-4.49,12.92-11.27,12.31-30,18.24-44.72,3.21-8,9.3-14.42,13.93-21.56a55.37,55.37,0,0,0,8.92-27.07c.44-7.67-1.39-16.13-7.35-21.41-6.69-5.93-16.12-4.69-22.45,1-6,5.43-9.17,13.62-13.49,20.31C100,656,94.3,663.46,89.34,671.43,79.75,686.83,72.57,706,77.71,724.21c1.39,5,3.76,10.42,9.09,12.1s10.8-.8,14.71-4.4c7.47-6.88,10.37-18.07,14-27.19l26.82-66.35c1.05-2.6-.27-5.78-2-7.68-6.93-7.48-17.1-3.55-22.24,3.69-5.6,7.86-9.91,17.06-14.38,25.59A579.53,579.53,0,0,0,78.66,714.9c-1.57,4,1.72,8.67,5.51,9.71,4.49,1.23,8.13-1.53,9.71-5.51q8.31-20.93,18.34-41.09,5-10.11,10.47-20,2.49-4.54,5.07-9c.9-1.57,1.76-3.2,2.75-4.71q.44-.75.9-1.48,2.12-1.66-2.24-.91l-2-7.68L107.79,682.1l-9.68,24c-1.82,4.49-4.14,14.33-9.75,15.36h4.2l-.79-.39,2.83,2.83c-5.8-8.57-2.27-22.27,1.25-31,4.3-10.69,11.47-20.08,18-29.5,3.16-4.58,6.27-9.21,9-14,1.67-2.92,3.86-9.09,7.17-10.66.86-.41.51-.66,1.22.62a12.65,12.65,0,0,1,1.38,4.39c.74,5.56-.87,12-3.1,17-4.33,9.78-12.6,17.21-17.11,26.91-4.39,9.42-5.74,19.6-8.79,29.44-1.34,4.35-8.93,21.31-14.32,12.48-5.28-8.66-5-20-2.63-29.48,6.26-25.25,27.42-43.41,42.21-63.76,2.51-3.45.59-8.8-2.83-10.8-4-2.33-8.29-.63-10.8,2.83Z"/><path class="cls-1" d="M139.23,487.74c-8.8,4.34-14.07,12.74-17.83,21.48-2.1,4.87-4,9.83-5.94,14.76-2.27,5.73-5.1,11.52-6.6,17.51C106,553,111.51,562,114,572.88c2.17,9.54-.78,19.24,1.39,28.63,2.6,11.2,12.75,14,22.88,11.53,10.71-2.66,20.14-7.12,25.9-17,5.36-9.17,7.86-20.44,10-30.73a205,205,0,0,0,4.3-34.79c.4-11.05,1-23.66-4.25-33.77-4.81-9.36-15-15.12-25.54-12.61-10.72,2.57-17.45,11.6-22.17,20.93-5.07,10-8.94,20.51-9.84,31.78-.94,11.83,1.57,23.76,3.46,35.39L123,589.91c.87,5.36,1.85,10.61,7.16,13.27,11.15,5.59,20.1-10.68,23.85-18.76,4.61-9.94,7.44-20.63,9.44-31.38,2.35-12.66,3.92-26,3.16-38.89-.29-5-1.48-10.36-5.18-14a12.94,12.94,0,0,0-15.5-1.85c-5.1,3-7.49,8.46-9.64,13.67a87.28,87.28,0,0,0-5.23,17.66,97.4,97.4,0,0,0,.66,38.23c1.56,7.24,10.78,7,14.43,1.89,10.5-14.58,13.93-32.74,10.62-50.27-1.1-5.85-9.34-7.59-13.19-3.48a60.93,60.93,0,0,0-14,59.19,8,8,0,0,0,13.19,3.48,46.91,46.91,0,0,0,13.83-36.17c-.54-8.27-10-10.15-14.71-4a49.36,49.36,0,0,0-9.61,35.71c1,7.63,10.06,10.91,14.71,4,5.1-7.6,6.41-16.37,4.78-25.27-1.19-6.48-9-6.77-13.19-3.48-6,4.78-8.08,12.75-6.19,20,2.54,9.83,17.77,5.66,15.22-4.2-.58-2.26.41-3.32,2.13-4.68l-13.19-3.48c.88,4.78-.54,9.15-3.19,13.1l14.71,4a36.64,36.64,0,0,1,7.46-27.74l-14.71-4a31.47,31.47,0,0,1-9.21,25L144.82,571a44.85,44.85,0,0,1,9.92-43.83l-13.19-3.48c2.55,13.51-1.07,27-9,38.1l14.43,1.89a78,78,0,0,1,.65-35.84,83.88,83.88,0,0,1,2.62-8.38c.7-1.87,3.15-5.15,3.25-7l.48-.56q-4.42-2.3-3.64-.45c-.16.42.52,1.24.42,1.7-.48,2.37.18,5.68.15,8.14a166.6,166.6,0,0,1-4.82,37.58,105.51,105.51,0,0,1-5.14,16.39c-1.89,4.4-4.93,11.63-9.28,14.16l4-1.08-1.48.13,4,1.08,1,1.27q-.24-1.07-.4-2.16c-.28-1.63-.53-3.27-.8-4.9l-1.43-8.83c-1.1-6.75-2.32-13.5-3.24-20.28-1.59-11.74-1-22.7,3.35-33.79,2.64-6.68,8.17-21.74,17.32-21.54,10.32.23,9,19.08,8.91,25.58a181.62,181.62,0,0,1-3.67,35.33q-1.71,8.31-4.15,16.44c-1.47,4.88-3,10.22-6.36,14.2s-8.21,5.27-13,6.54c-1.46.39-3.9,1.56-5.42,1,1.4.48.32-1.21.24-2.78-.24-4.48.62-9,.47-13.49a69,69,0,0,0-2.89-17.76c-1.64-5.39-5.15-11.15-4.4-16.95.84-6.52,4.61-13.22,7-19.29,3.68-9.31,6.79-22,16.51-26.8,9.11-4.49,1.12-18.11-8-13.63Z"/><path class="cls-1" d="M151.35,692.27a21.57,21.57,0,0,0-13.79,11.33c-3.22,6.22-3.25,13.07-4.21,19.84a48.55,48.55,0,0,1-14.66,28.25c-9.16,8.72-21.06,11.27-32.35,16.09C74.86,772.68,66,780.67,61.63,792.58c-8.18,22.52,2.5,58.32,31.76,53.72,27.8-4.37,40.43-33.33,49.25-56.49,11-28.95,29.15-57.26,24.16-89.46-.68-4.38-5.94-6.33-9.71-5.51-8.68,1.88-13.08,10.24-14.54,18.35-1.51,8.39-2.21,16.83-4.28,25.14-2,7.9-4.73,15.79-9.66,22.37-5.26,7-12.72,10.65-20.75,13.64-9.06,3.38-18.46,6.66-25.29,13.84-6.25,6.57-10.34,15.46-8.73,24.63,1.67,9.51,9.85,16.92,19.74,15.81,10.71-1.2,16.77-9.95,20.33-19.28,2-5.15,3.71-10.91-.06-15.73s-10.29-4.77-15.54-2.56c-10.12,4.25-16.21,14-16.91,24.72-.2,3.1,2.57,7.12,5.79,7.61,17.49,2.65,35.58-11.55,33.64-30.18-.41-3.93-3.3-8.32-7.89-7.89-11,1-19.89,9.62-19.42,21.07.17,4.07,3.48,8.16,7.89,7.89,15.58-.93,27.43-12.74,28.89-28.18.45-4.72-5.47-9.48-10-7.61-6.42,2.65-10.24,7.29-10.54,14.4-.26,6.16,6.85,9.6,11.88,6.82a21.92,21.92,0,0,0,10.65-13.58c1.87-6.65-5.67-12.36-11.6-8.91-7.86,4.57-11.3,12.46-15.41,20.13-1.36,2.55-2.93,5.84-5.63,7.25C95,807,88.24,805,83.09,806.51c-9.74,2.94-17.76,15.27-9.16,23.92,7.54,7.59,19.61,4.35,23.45-5a7.6,7.6,0,0,0-2-7.68c-6.6-5.38-15.4-2.17-17.16,6.23-1.86,8.9,7.28,14.15,15.07,12.52,13.78-2.9,25.22-20.21,19.67-33.73l-9.71,9.71a16.2,16.2,0,0,0,19.51-7.89c4.61-9-9-17-13.63-8-.77,1.5-.33,1.1-1.68.63-5.3-1.84-12,4.2-9.71,9.71,1.39,3.39.84,6.11-1.33,9.07a16.76,16.76,0,0,1-3.08,3.17c-.76.6-2,1-2.64,1.61s-.86-.33-.2.14l2.83,2.83.13.19v4.2q-.4,0-.23.35l-3.48,2,.75-.27h-4.2l.74.1-3.48-2,.67.55-2-7.68c-.12.29,1.21-2.52,2.14-2.4,2.42.31,1.23,3.63,1.59,3.74.17,0,1-.8,1.4-.83,1.93-.15,3.79-.47,5.78-.52,7.08-.17,13.49-1.26,18.85-6.19,3.84-3.54,6.33-8.26,8.66-12.86,2.08-4.11,4-8.92,8.14-11.33l-11.6-8.91a6,6,0,0,1-3.4,4.15l11.88,6.82a1.35,1.35,0,0,1-1,.83l-10-7.61c-.62,6.51-6.7,12-13.11,12.39l7.89,7.89c-.09-2.27.94-5,3.63-5.28l-7.89-7.89c.76,7.31-5.4,16.21-13.66,15l5.79,7.61A12.08,12.08,0,0,1,99.9,809a11.89,11.89,0,0,1,2.38-2.24,14.28,14.28,0,0,1,1.8-1.07q1.58-.44-.4-.46l-2.83-2.83.54,1.09-1.08-4c.24,3.15-4.48,15-9,13.63-5.21-1.57-.39-10.45,1.42-12.68,4.81-5.93,12.42-8.3,19.31-10.87,7.3-2.72,14.33-5.64,20.47-10.5,11-8.69,17.13-21.87,20.61-35.14a167.76,167.76,0,0,0,3.72-19.85c.44-3.24.39-13.13,4.43-14l-9.71-5.51c3.57,23-9.39,45.34-18.06,65.76-8.22,19.36-13.62,44.87-32.92,56.62-4,2.45-9.25,4.74-14.08,4.05-4.62-.66-7.5-4.51-9.25-8.54a34.53,34.53,0,0,1-.1-26.46c4.19-9.52,13.47-13.28,22.66-16.56,10.12-3.6,19.58-7.52,27.82-14.59a64.53,64.53,0,0,0,18.54-27.6c2-5.57,2.67-11.32,3.29-17.16.47-4.37.9-11.29,6.06-12.58,9.85-2.47,5.68-17.7-4.2-15.22Z"/><path class="cls-1" d="M166.35,391.53c-17.8,6.17-23.42,25.16-22.44,42.45.51,9,5.47,15,14.22,17.35a37.41,37.41,0,0,0,25-1.93c14.95-7,18.75-25,14.81-39.81-2.16-8.11-6.57-15.7-14.44-19.3-7.23-3.31-15.67-3.15-23.43-2.34-9.83,1-15.71,6.67-20.15,15.18-4.16,8-7.33,17.68-6.79,26.78,1,17.23,20.49,24.45,35.45,24.17,8.32-.15,16.1-3.87,19.82-11.6,4-8.37,2.22-17.64-1.07-25.92-3-7.52-7.49-14.75-16.19-16s-16.2,3.88-21,10.7c-5,7.17-11.11,19.15-3.44,26.59,6.36,6.16,19.5,5,26.41.52,7.74-5,11.28-17,3.43-23.58-9.14-7.62-19.65,3.91-23.43,11.8-2.37,4.95.42,11.37,6.48,11.29,11.16-.15,18.5-12.7,12.68-22.41-5-8.27-17.93-.74-13,7.57-.11-.18.17-.16.27-.16l6.48,11.29c1.14-2.37,3.16-6.54,6-7.15h-4q-2.15-.69-2-2.28.08-.78-.46.52c-1.29.48-1.75,1.15-3.31,1.45-1.38.26-3.11-.29-4.38.12-.77.25-.87-.33-.84-.26l1,3.79c-.53-4,5.56-16.47,11-15,2.4.68,3.54,4.59,4.34,6.69,1.37,3.61,2.95,7.85,2.14,11.77-1.5,7.23-10.41,5.37-15.71,4.1-7.13-1.71-12.6-4.31-11.64-12.51a43.84,43.84,0,0,1,3.44-12.4c1.34-3,3.48-8.2,6.7-9.71,2.84-1.34,7.67-.88,10.72-.85,3.25,0,7,.23,9.66,2.27,5.11,3.87,6.29,13.48,5.55,19.4-.82,6.5-4.73,11.48-11.23,12.94a22.73,22.73,0,0,1-11.64-.44c-3.81-1.25-2.68-5.09-2.57-8.62.26-8.28,2.59-19,11.47-22.06,9.06-3.14,5.17-17.64-4-14.46Z"/><path class="cls-1" d="M225.81,20.24c-7.29-.17-11.56,6.1-14.15,12.15-2.36,5.51-6.71,14.9-1.51,20,4.57,4.49,12.49,3.74,17.92,1.5a22.83,22.83,0,0,0,13.88-16.21c3-14.67-11.15-24.35-24.47-19.7-7.12,2.49-12.17,8.71-15.11,15.44-2.69,6.15-5.52,15-1.43,21.12,8.26,12.36,27.22,5.15,34.73-4,8.46-10.27,9-29.48-7.85-30.83-7.39-.59-14.8,3.7-19.18,9.47-4,5.24-5.32,13.49.37,18.14,5.27,4.3,12.88,2.13,17.19-2.43,3.78-4,9.36-13.48,4.85-18.67C221.72,15.54,203,37.85,210.27,48,219,60,240,35.13,230.7,28.61c-9.13-6.39-31.21,11.72-19.14,19.88,5.62,3.8,14.44,2,19-2.74,4.18-4.33,4.32-11.63-2-13.8-5.88-2-13.28.92-16.53,6.11-3.44,5.48.11,12,6.44,12.74,5.67.69,14.56-4.83,14-11.27-.66-7.49-9.47-5.17-12.84-1.1s-.85,10.51,4.9,9.53c5.43-.93,8.4-8.44,3.25-11.82-4.24-2.78-10.32,1.67-8.07,6.53,2.69,5.8,9.86,3,12.48-1.18s4.59-15-3.22-14.72c-5.44.19-11.66,6.68-10.85,12.17,2.19,14.78,28.1-2.71,16.05-9.75-6.33-3.7-15,1-19.46,5.5-4.12,4.16-2.76,10.4,3.18,11.94s12.32-4.58,14.23-9.79c2.16-5.89-3-9.34-8.37-7.12-5.85,2.44-8.49,8.84-7.27,14.8a2.69,2.69,0,0,0,3.24,1.84c5.56-1,8.58-6.23,7.31-11.59a2.7,2.7,0,0,0-2.54-1.93,15.14,15.14,0,0,0-16.82,16.92,2.73,2.73,0,0,0,1.93,2.54,15,15,0,0,0,15.4-4.77c2.89-3.5,4.39-9.62.23-12.79-8.19-6.24-23.49,11.58-13,17.64,4,2.31,8.51-.9,8.82-5.22.43-5.82-6-9-11-8.31-4.53.65-9,5.14-6.63,9.94a5.55,5.55,0,0,0,9.91.12A2.67,2.67,0,0,0,211.7,45c-11.14-3.13-5.26,17.17,2.72,11.66a2.67,2.67,0,0,0,.94-3.6,6.43,6.43,0,0,0-5.46-3.21c-2.82-.3-3.26,3.58-1.33,4.9,8.81,6,20.68-3.12,25.83-10.12s8.24-18.36-.05-24.42a2.64,2.64,0,0,0-3.6.94,20.7,20.7,0,0,0-2.13,9l5.17-.7-.66-2.41c-.89-3.26-6-1.88-5.07,1.4l.66,2.41a2.64,2.64,0,0,0,5.17-.7,14.52,14.52,0,0,1,1.41-6.36l-3.6.94c10.85,7.93-10.39,32.34-20.47,25.45l-1.33,4.9.92.6.94-3.6a5.62,5.62,0,0,0-1.46-2l-1.57-3.87q.73-3.35,4.17-2.11,1.79,6.12,1.69-.24c.85-1.66,6.31-7.21,7.75-2.36.53,1.8-3.36,4.49-4.6,5.09a9.57,9.57,0,0,1-6.8.59l1.93,2.54c-.79-7.21,4.35-12.4,11.56-11.66l-2.54-1.93c.62,2.64-1.18,4.67-3.64,5.11l3.24,1.84c-.57-2.76.5-6.86,3.39-8.15,4.4-2,.06,3.39-1.19,4.58-1.51,1.44-4.05,3.43-5.13.64-.84-2.18.14-2.32,2.25-3.84,1.7-1.22,12.35-6.26,10-.31-.81,2.08-7.74,5.52-7.5.86.13-2.57,6.16-7.31,5.5-1-.31,2.93-2.84,4.25-5.1,5.63,3.77-2.3,2.38,0,.94,1.75-1.21,1.48-4.36,2.93-6.24,2.23-5.22-1.93-1.52-5.79.42-7.12,1.63-1.12,6.76-3,8.72-1.14,3.6,3.48-4.18,7.24-6.34,7.71-4.87,1.06-10.28-1.34-5.22-7,1.32-1.48,7.93-6.41,9.81-5.26,1.47.89.61,3.49.29,4.48-.47,1.45-1.84,2.85-2.81,4a21.54,21.54,0,0,1-2.8,2.8c-1.58,1.26-5.11,1.47-6.63-.42-1.8-2.22,2.49-8.4,4-10.2a13.14,13.14,0,0,1,3.93-3.26c3.55-1.8,5.73,1.91,4.28,5.21-2,4.53-10.36,14.65-15,6.58-3.91-6.78,5.46-14.31,10.94-16.12s12.64-.05,14.25,6.15c1.56,6-2.11,13-6.26,17.08A22.63,22.63,0,0,1,216,55.71c-5.67.37-12-2.22-11.83-8.72.21-11,8.26-24.84,20.31-25,6.41-.06,12,3.82,12.58,10.5.6,7-4.12,13.44-10.33,16.25a16.55,16.55,0,0,1-8.39,1.55c-2.28-.25-4.82-.87-5.38-3.65-.26-1.27.69-3.92,1-5.17,1.52-5.56,4.59-16.19,11.82-16,3.39.08,3.39-5.18,0-5.26Z"/><path class="cls-1" d="M251.16,27.94a40.23,40.23,0,0,1-8,33.13c-9,11.07-23.83,15-33.8,25.13-9.43,9.62-15.57,22.08-19.24,34.94-3.49,12.22-5.92,26.17-2.93,38.74,3.25,13.67,15.14,23.22,29.44,21.83,15.27-1.49,26.17-12.81,34.73-24.58,9.6-13.21,17.18-28,25.36-42.13,8.08-13.93,17.08-27.71,23.48-42.53,5.65-13.07,9-27.35,5.4-41.46C302.65,19.55,295.23,8.22,284.31,3,273.56-2,258.2-1.39,251.39,9.86c-3.91,6.45-2.36,13.54.69,19.95,2.88,6.05,4.42,11.64,3,18.38-3,14.45-14.29,24.7-25,34-11,9.53-22.55,19.07-29.56,32.06a66.92,66.92,0,0,0-7,21.77c-1.14,7.36-3.22,16.18-.54,23.37,5.55,14.9,24.21,13.78,34.87,5.78a58.34,58.34,0,0,0,21.78-35.94c1.17-6.68,1.77-13.92-1.12-20.25a15.78,15.78,0,0,0-16.94-9.32c-12.8,2-27.13,18.35-23.43,31.73,1.87,6.75,7.92,12,15.09,11.64,7.37-.36,13.34-6.38,16.27-12.75a28.26,28.26,0,0,0,1.24-20.66,8.06,8.06,0,0,0-9.71-5.51C214.63,108.21,206.35,128.53,215,143a7.85,7.85,0,0,0,6.82,3.91,17.3,17.3,0,0,0,14.61-25c-1.36-2.85-5.9-4.82-8.91-3.63C214.68,123.34,206,135,206.17,149c.06,5,5,9.08,10,7.61,11.69-3.45,16-21.24,4.52-27.95-6.32-3.7-14.45,2.79-17.71,7.94a20.76,20.76,0,0,0-2.19,18.08c2.19,5.94,8.37,7.31,13.19,3.48,9.73-7.72,15.82-18.66,22.1-29.14,6.93-11.55,14.7-22.57,21.79-34,14.46-23.34,25.25-49.17,21.32-77.1l-9.71,9.71c8.7,3.09,6.61,15.38,4.46,21.92-3.24,9.88-8.74,19-14.17,27.78s-11,17.29-15.81,26.37c-4.08,7.78-11.15,20.12-2.48,27.46,4.16,3.52,9.24,2.74,12.4-1.6,16.92-23.25,21.88-52.21,34.93-77.41H275.17c4.55,5.91-4.37,17.35-7.5,22.41a143.77,143.77,0,0,1-18.61,23.9l9.57-1.23a26.78,26.78,0,0,0-24.2-3.08l9.71,9.71a13.93,13.93,0,0,0-3.54-13.53c-2.6-2.8-6.39-2.62-9.57-1.23-7.28,3.17-8.24,13.58-2.65,18.7l1.6-12.4a14.51,14.51,0,0,0-7.47,9.57c-2.49,9.85,12.73,14.06,15.22,4.2q-.77.16.21-.13c4.4-2.28,5.23-9.07,1.6-12.4l-.55,6.1-9.57-1.23-.52-1.83c-1.34,5.42,3.8,11.87,9.71,9.71a12.07,12.07,0,0,1,12,1.49c2.81,1.93,7.28,1.15,9.57-1.23a162.19,162.19,0,0,0,23.7-31.49c5.55-9.69,12.92-23.51,4.89-34-3.33-4.33-10.61-5.83-13.63,0-13,25.18-18.05,54.22-34.93,77.41l12.4-1.6c2.25,1.91-.38,2.15.72.76a16.76,16.76,0,0,0,1.21-3c1.17-2.58,2.48-5.11,3.82-7.61,2.56-4.76,5.37-9.39,8.22-14,5.85-9.42,12-18.72,16.83-28.7s9.26-20.77,8-31.94c-1.2-10.63-7.6-19.53-17.76-23.14-6.33-2.25-10.46,4.35-9.71,9.71,3.44,24.51-9,48-21.64,68-6.41,10.14-13.27,20-19.47,30.28C217,130,211.78,139.9,202.81,147L216,150.51c-1-2.84-.48-6.33,2.8-7.39l-7.68-2c1.11.88.27.5.85.33L222,149c-.08-6.48,3.47-13,9.73-15.52l-8.91-3.63c.11.23-.72,1.27-1,1.29l6.82,3.91c-3.54-5.95,0-14.1,6.67-15.75l-9.71-5.51c1.3,4,1.29,8.56-1.56,11.94.45-.53-1.94,1.75-1.91,1.64l1.34.14q.49.46,0-.35s0-1.14.05-1.28a11.88,11.88,0,0,1,2.54-4.29,27.55,27.55,0,0,1,4.7-4.74c.58-.43,2.81-2.11,3.68-1.81-.52-.17-.43-.11-.12.27,2,2.48.3,9.41-.28,12.05-2.2,9.94-7.86,20.33-16.62,26-2.13,1.37-6.38,3.52-8.83,1.34-1.57-1.39-.89-4.06-.72-6,.3-3.43.69-6.89,1.27-10.29a53.9,53.9,0,0,1,14.7-29.14c7.84-8.26,17-15.1,25.22-23,16-15.29,28.8-37.9,18.88-60.07-1-2.17-4.41-6.57-2.56-8.84,2.12-2.61,7.23-2,9.9-1.11,7.44,2.52,12.33,9.67,14.55,16.92,6.66,21.78-9.37,43.83-19.72,61.67Q260,112.2,250,129.49c-5.8,10-11.59,20.32-19.89,28.49-5.89,5.79-17.37,12.5-24.49,4.69-5.44-6-4.36-16.6-3.26-23.88,1.72-11.34,5-22.64,11.12-32.44a51.61,51.61,0,0,1,10.26-12.06c4.93-4.23,10.94-7,16.44-10.35,20.64-12.66,31.24-36.37,26.19-60.19-2.11-9.93-17.33-5.73-15.22,4.2Z"/><path class="cls-1" d="M266.77,155.49c-3.65,11.45-10.25,20.8-19,28.9-8.53,7.88-17.1,17.24-15.7,29.78,1.58,14.11,15.15,18.48,27.29,14.16,10.69-3.81,19.2-12.24,24-22.43,5.45-11.49,7.07-24.34,8.24-36.87.56-6,.42-12.63-3.13-17.81-4.15-6-12.27-6.16-17.5-1.49-8.77,7.82-8.52,22-14.48,31.64a104,104,0,0,1-10.19,13.21c-3.66,4.24-9,9-11,14.33-2.63,7.23,2,14.3,9.75,14.65,6.24.28,12.43-2.75,17.19-6.55,11.17-8.92,14.57-22.92,16.94-36.34.74-4.19-1.13-8.51-5.51-9.71-3.81-1-9,1.29-9.71,5.51-1.29,7.32-2.45,15.13-6.15,21.68-1.85,3.27-7.88,11.15-12.29,9.43l3.48,2-.78-.76,2,3.48-.36-1.21v4.2c.34-2,2.49-3.73,3.77-5.24,1.77-2.08,3.58-4.13,5.36-6.22a130.29,130.29,0,0,0,10.19-13.18,60.05,60.05,0,0,0,6.8-14.29c.78-2.41,2.72-14,5.26-14.61h-4.2l.55.23-2.83-2.83c3,4.21.78,12.09.18,16.84A88.94,88.94,0,0,1,271,194.9c-2.83,8-11.35,20.76-21.53,19.38-1.7-.23-1.91-.91-1.79-3.24.14-2.72,1.72-5.41,3.32-7.53,3.54-4.69,8.56-8.21,12.62-12.43A80.32,80.32,0,0,0,282,159.69c3.1-9.7-12.14-13.85-15.22-4.2Z"/><path class="cls-1" d="M213.75,202.21c-8.58-2.49-18.11,2.58-22.7,10.24s-4.94,17.24-3.16,26a10.87,10.87,0,0,0,1.34,3.82c1.48,2.28,4.35,3.28,7.06,3.45,8,.52,15.58-5.05,19.17-12.24s3.78-15.64,2.51-23.58c-3.15-19.62-29.34,10.15-28.22,22,.34,3.56,2.21,7.46,5.69,8.24,2.48.55,5-.66,7.09-2.14a26.81,26.81,0,0,0,10.08-27.84c-.16-.62-.42-1.32-1-1.54a2,2,0,0,0-1.52.27,18,18,0,0,0-9.83,15c0,.89,1.06,2.07,1.39,1.24a6.83,6.83,0,0,1-2.5,3.61"/><path class="cls-1" d="M201,375c4.68,7.86,13.86,15.41,22.16,11.53,3.19-1.49,5.46-4.42,7.21-7.47,9.12-15.9,6.73-35.61,9.93-53.66,1.83-10.33,5.54-20.25,7.36-30.58s1.51-21.62-4.12-30.47c-3.61-5.66-12-11.13-18.8-7.87a20.57,20.57,0,0,0-5.61,4.55q-4.95,5.1-9.79,10.3c-11.48,12.33-21.42,26.69-21.18,43.91C188.41,335.4,190.44,357.31,201,375Z"/><path class="cls-1" d="M301,203.15c-20.75,28.55-52.67,56.16-44.74,95.48,1.62,8,5.64,18.13,13.29,22.16,7.91,4.17,17.15,1,23.49-4.49,12.92-11.27,12.31-30,18.24-44.72,3.21-8,9.3-14.42,13.93-21.56A55.37,55.37,0,0,0,334.17,223c.44-7.67-1.39-16.13-7.35-21.41-6.69-5.93-16.12-4.69-22.45,1-6,5.43-9.17,13.62-13.49,20.31-5.09,7.88-10.78,15.37-15.74,23.34-9.59,15.41-16.77,34.56-11.64,52.79,1.39,5,3.76,10.42,9.09,12.1s10.8-.8,14.71-4.4c7.47-6.88,10.37-18.07,14-27.19l26.82-66.35c1.05-2.6-.27-5.78-2-7.68-6.93-7.48-17.1-3.55-22.24,3.69-5.6,7.86-9.91,17.06-14.38,25.59a579.53,579.53,0,0,0-25.07,54.93c-1.57,4,1.72,8.67,5.51,9.71,4.49,1.23,8.13-1.53,9.71-5.51Q288,273,298,252.82q5-10.11,10.47-20,2.49-4.54,5.07-9c.9-1.57,1.76-3.2,2.75-4.71q.44-.75.9-1.48,2.12-1.66-2.24-.91L313,209,293.6,256.91l-9.68,24c-1.82,4.49-4.14,14.33-9.75,15.36h4.2l-.79-.39,2.83,2.83c-5.8-8.57-2.27-22.27,1.25-31,4.3-10.69,11.47-20.08,18-29.5,3.16-4.58,6.27-9.21,9-14,1.67-2.92,3.86-9.09,7.17-10.66.86-.41.51-.66,1.22.62a12.65,12.65,0,0,1,1.38,4.39c.74,5.56-.87,12-3.1,17-4.33,9.78-12.6,17.21-17.11,26.91-4.39,9.42-5.74,19.6-8.79,29.44-1.34,4.35-8.93,21.31-14.32,12.48-5.28-8.66-5-20-2.63-29.48,6.26-25.25,27.42-43.41,42.21-63.76,2.51-3.45.59-8.8-2.83-10.8-4-2.33-8.29-.63-10.8,2.83Z"/><path class="cls-1" d="M325,62.56C316.24,66.89,311,75.3,307.21,84c-2.1,4.87-4,9.83-5.94,14.76-2.27,5.73-5.1,11.52-6.6,17.51-2.9,11.55,2.65,20.5,5.13,31.4,2.17,9.54-.78,19.24,1.39,28.63,2.6,11.2,12.75,14,22.88,11.53,10.71-2.66,20.14-7.12,25.9-17,5.36-9.17,7.86-20.44,10-30.73a205,205,0,0,0,4.3-34.79c.4-11.05,1-23.66-4.25-33.77-4.81-9.36-15-15.12-25.54-12.61-10.72,2.57-17.45,11.6-22.17,20.93-5.07,10-8.94,20.51-9.84,31.78-.94,11.83,1.57,23.76,3.46,35.39l2.86,17.65c.87,5.36,1.85,10.61,7.16,13.27,11.15,5.59,20.1-10.68,23.85-18.76,4.61-9.94,7.44-20.63,9.44-31.38,2.35-12.66,3.92-26,3.16-38.89-.29-5-1.48-10.36-5.18-14a12.94,12.94,0,0,0-15.5-1.85c-5.1,3-7.49,8.46-9.64,13.67a87.28,87.28,0,0,0-5.23,17.66,97.4,97.4,0,0,0,.66,38.23c1.56,7.24,10.78,7,14.43,1.89,10.5-14.58,13.93-32.74,10.62-50.27-1.1-5.85-9.34-7.59-13.19-3.48a60.93,60.93,0,0,0-14,59.19,8,8,0,0,0,13.19,3.48,46.91,46.91,0,0,0,13.83-36.17c-.54-8.27-10-10.15-14.71-4a49.36,49.36,0,0,0-9.61,35.71c1,7.63,10.06,10.91,14.71,4,5.1-7.6,6.41-16.37,4.78-25.27-1.19-6.48-9-6.77-13.19-3.48-6,4.78-8.08,12.75-6.19,20,2.54,9.83,17.77,5.66,15.22-4.2-.58-2.26.41-3.32,2.13-4.68L322.37,132c.88,4.78-.54,9.15-3.19,13.1l14.71,4a36.64,36.64,0,0,1,7.46-27.74l-14.71-4a31.47,31.47,0,0,1-9.21,25l13.19,3.48A44.85,44.85,0,0,1,340.55,102l-13.19-3.48c2.55,13.51-1.07,27-9,38.1l14.43,1.89a78,78,0,0,1,.65-35.84A83.88,83.88,0,0,1,336,94.29c.7-1.87,3.15-5.15,3.25-7l.48-.56q-4.42-2.3-3.64-.45c-.16.42.52,1.24.42,1.7-.48,2.37.18,5.68.15,8.14a166.6,166.6,0,0,1-4.82,37.58,105.51,105.51,0,0,1-5.14,16.39c-1.89,4.4-4.93,11.63-9.28,14.16l4-1.08-1.48.13,4,1.08,1,1.27q-.24-1.07-.4-2.16c-.28-1.63-.53-3.27-.8-4.9l-1.43-8.83c-1.1-6.75-2.32-13.5-3.24-20.28-1.59-11.74-1-22.7,3.35-33.79C325,89,330.57,73.92,339.72,74.13c10.32.23,9,19.08,8.91,25.58A181.62,181.62,0,0,1,345,135q-1.71,8.31-4.15,16.44c-1.47,4.88-3,10.22-6.36,14.2s-8.21,5.27-13,6.54c-1.46.39-3.9,1.56-5.42,1,1.4.48.32-1.21.24-2.78-.24-4.48.62-9,.47-13.49a69,69,0,0,0-2.89-17.76c-1.64-5.39-5.15-11.15-4.4-16.95.84-6.52,4.61-13.22,7-19.29,3.68-9.31,6.79-22,16.51-26.8,9.11-4.49,1.12-18.11-8-13.63Z"/><path class="cls-1" d="M337.16,267.08a21.57,21.57,0,0,0-13.79,11.33c-3.22,6.22-3.25,13.07-4.21,19.84A48.55,48.55,0,0,1,304.5,326.5c-9.16,8.72-21.06,11.27-32.35,16.09-11.49,4.91-20.39,12.89-24.71,24.81-8.18,22.52,2.5,58.32,31.76,53.72,27.8-4.37,40.43-33.33,49.25-56.49,11-28.95,29.15-57.26,24.16-89.46-.68-4.38-5.94-6.33-9.71-5.51-8.68,1.88-13.08,10.24-14.54,18.35-1.51,8.39-2.21,16.83-4.28,25.14-2,7.9-4.73,15.79-9.66,22.37-5.26,7-12.72,10.65-20.75,13.64-9.06,3.38-18.46,6.66-25.29,13.84-6.25,6.57-10.34,15.46-8.73,24.63,1.67,9.51,9.85,16.92,19.74,15.81,10.71-1.2,16.77-9.95,20.33-19.28,2-5.15,3.71-10.91-.06-15.73s-10.29-4.77-15.54-2.56c-10.12,4.25-16.21,14-16.91,24.72-.2,3.1,2.57,7.12,5.79,7.61,17.49,2.65,35.58-11.55,33.64-30.18-.41-3.93-3.3-8.32-7.89-7.89-11,1-19.89,9.62-19.42,21.07.17,4.07,3.48,8.16,7.89,7.89,15.58-.93,27.43-12.74,28.89-28.18.45-4.72-5.47-9.48-10-7.61-6.42,2.65-10.24,7.29-10.54,14.4-.26,6.16,6.85,9.6,11.88,6.82a21.92,21.92,0,0,0,10.65-13.58c1.87-6.65-5.67-12.36-11.6-8.91-7.86,4.57-11.3,12.46-15.41,20.13-1.36,2.55-2.93,5.84-5.63,7.25-4.7,2.45-11.45.38-16.61,1.93-9.74,2.94-17.76,15.27-9.16,23.92,7.54,7.59,19.61,4.35,23.45-5a7.6,7.6,0,0,0-2-7.68c-6.6-5.38-15.4-2.17-17.16,6.23-1.86,8.9,7.28,14.15,15.07,12.52,13.78-2.9,25.22-20.21,19.67-33.73L289,387.28a16.2,16.2,0,0,0,19.51-7.89c4.61-9-9-17-13.63-8-.77,1.5-.33,1.1-1.68.63-5.3-1.84-12,4.2-9.71,9.71,1.39,3.39.84,6.11-1.33,9.07A16.76,16.76,0,0,1,279.1,394c-.76.6-2,1-2.64,1.61s-.86-.33-.2.14l2.83,2.83.13.19V403q-.4,0-.23.35l-3.48,2,.75-.27h-4.2l.74.1-3.48-2,.67.55L268,396c-.12.29,1.21-2.52,2.14-2.4,2.42.31,1.23,3.63,1.59,3.74.17,0,1-.8,1.4-.83,1.93-.15,3.79-.47,5.78-.52,7.08-.17,13.49-1.26,18.85-6.19,3.84-3.54,6.33-8.26,8.66-12.86,2.08-4.11,4-8.92,8.14-11.33l-11.6-8.91a6,6,0,0,1-3.4,4.15l11.88,6.82a1.35,1.35,0,0,1-1,.83l-10-7.61c-.62,6.51-6.7,12-13.11,12.39l7.89,7.89c-.09-2.27.94-5,3.63-5.28L290.88,368c.76,7.31-5.4,16.21-13.66,15l5.79,7.61a12.08,12.08,0,0,1,2.69-6.8,11.89,11.89,0,0,1,2.38-2.24,14.28,14.28,0,0,1,1.8-1.07q1.58-.44-.4-.46l-2.83-2.83.54,1.09-1.08-4c.24,3.15-4.48,15-9,13.63-5.21-1.57-.39-10.45,1.42-12.68,4.81-5.93,12.42-8.3,19.31-10.87,7.3-2.72,14.33-5.64,20.47-10.5,11-8.69,17.13-21.87,20.61-35.14a167.76,167.76,0,0,0,3.72-19.85c.44-3.24.39-13.13,4.43-14l-9.71-5.51c3.57,23-9.39,45.34-18.06,65.76-8.22,19.36-13.62,44.87-32.92,56.62-4,2.45-9.25,4.74-14.08,4.05-4.62-.66-7.5-4.51-9.25-8.54a34.53,34.53,0,0,1-.1-26.46c4.19-9.52,13.47-13.28,22.66-16.56,10.12-3.6,19.58-7.52,27.82-14.59A64.53,64.53,0,0,0,332,312c2-5.57,2.67-11.32,3.29-17.16.47-4.37.9-11.29,6.06-12.58,9.85-2.47,5.68-17.7-4.2-15.22Z"/><path class="cls-1" d="M225.81,445.43c-7.29-.17-11.56,6.1-14.15,12.15-2.36,5.51-6.71,14.9-1.51,20,4.57,4.49,12.49,3.74,17.92,1.5a22.83,22.83,0,0,0,13.88-16.21c3-14.67-11.15-24.35-24.47-19.7-7.12,2.49-12.17,8.71-15.11,15.44-2.69,6.15-5.52,15-1.43,21.12,8.26,12.36,27.22,5.15,34.73-4,8.46-10.27,9-29.48-7.85-30.83-7.39-.59-14.8,3.7-19.18,9.47-4,5.24-5.32,13.49.37,18.14,5.27,4.3,12.88,2.13,17.19-2.43,3.78-4,9.36-13.48,4.85-18.67-9.31-10.73-28.07,11.58-20.76,21.7,8.69,12,29.73-12.84,20.42-19.36-9.13-6.39-31.21,11.72-19.14,19.88,5.62,3.8,14.44,2,19-2.74,4.18-4.33,4.32-11.63-2-13.8-5.88-2-13.28.92-16.53,6.11-3.44,5.48.11,12,6.44,12.74,5.67.69,14.56-4.83,14-11.27-.66-7.49-9.47-5.17-12.84-1.1s-.85,10.51,4.9,9.53c5.43-.93,8.4-8.44,3.25-11.82-4.24-2.78-10.32,1.67-8.07,6.53,2.69,5.8,9.86,3,12.48-1.18s4.59-15-3.22-14.72c-5.44.19-11.66,6.68-10.85,12.17,2.19,14.78,28.1-2.71,16.05-9.75-6.33-3.7-15,1-19.46,5.5-4.12,4.16-2.76,10.4,3.18,11.94s12.32-4.58,14.23-9.79c2.16-5.89-3-9.34-8.37-7.12-5.85,2.44-8.49,8.84-7.27,14.8a2.69,2.69,0,0,0,3.24,1.84c5.56-1,8.58-6.23,7.31-11.59a2.7,2.7,0,0,0-2.54-1.93,15.14,15.14,0,0,0-16.82,16.92,2.73,2.73,0,0,0,1.93,2.54,15,15,0,0,0,15.4-4.77c2.89-3.5,4.39-9.62.23-12.79-8.19-6.24-23.49,11.58-13,17.64,4,2.31,8.51-.9,8.82-5.22.43-5.82-6-9-11-8.31-4.53.65-9,5.14-6.63,9.94a5.55,5.55,0,0,0,9.91.12,2.67,2.67,0,0,0-1.57-3.87c-11.14-3.13-5.26,17.17,2.72,11.66a2.67,2.67,0,0,0,.94-3.6,6.43,6.43,0,0,0-5.46-3.21c-2.82-.3-3.26,3.58-1.33,4.9,8.81,6,20.68-3.12,25.83-10.12s8.24-18.36-.05-24.42a2.64,2.64,0,0,0-3.6.94,20.7,20.7,0,0,0-2.13,9l5.17-.7-.66-2.41c-.89-3.26-6-1.88-5.07,1.4l.66,2.41a2.64,2.64,0,0,0,5.17-.7A14.52,14.52,0,0,1,235.3,449l-3.6.94c10.85,7.93-10.39,32.34-20.47,25.45l-1.33,4.9.92.6.94-3.6a5.62,5.62,0,0,0-1.46-2l-1.57-3.87q.73-3.35,4.17-2.11,1.79,6.12,1.69-.24c.85-1.66,6.31-7.21,7.75-2.36.53,1.8-3.36,4.49-4.6,5.09a9.57,9.57,0,0,1-6.8.59l1.93,2.54c-.79-7.21,4.35-12.4,11.56-11.66l-2.54-1.93c.62,2.64-1.18,4.67-3.64,5.11l3.24,1.84c-.57-2.76.5-6.86,3.39-8.15,4.4-2,.06,3.39-1.19,4.58-1.51,1.44-4.05,3.43-5.13.64-.84-2.18.14-2.32,2.25-3.84,1.7-1.22,12.35-6.26,10-.31-.81,2.08-7.74,5.52-7.5.86.13-2.57,6.16-7.31,5.5-1-.31,2.93-2.84,4.25-5.1,5.63,3.77-2.3,2.38,0,.94,1.75-1.21,1.48-4.36,2.93-6.24,2.23-5.22-1.93-1.52-5.79.42-7.12,1.63-1.12,6.76-3,8.72-1.14,3.6,3.48-4.18,7.24-6.34,7.71-4.87,1.06-10.28-1.34-5.22-7,1.32-1.48,7.93-6.41,9.81-5.26,1.47.89.61,3.49.29,4.48-.47,1.45-1.84,2.85-2.81,4a21.54,21.54,0,0,1-2.8,2.8c-1.58,1.26-5.11,1.47-6.63-.42-1.8-2.22,2.49-8.4,4-10.2a13.14,13.14,0,0,1,3.93-3.26c3.55-1.8,5.73,1.91,4.28,5.21-2,4.53-10.36,14.65-15,6.58-3.91-6.78,5.46-14.31,10.94-16.12s12.64-.05,14.25,6.15c1.56,6-2.11,13-6.26,17.08A22.63,22.63,0,0,1,216,480.9c-5.67.37-12-2.22-11.83-8.72.21-11,8.26-24.84,20.31-25,6.41-.06,12,3.82,12.58,10.5.6,7-4.12,13.44-10.33,16.25a16.55,16.55,0,0,1-8.39,1.55c-2.28-.25-4.82-.87-5.38-3.65-.26-1.27.69-3.92,1-5.17,1.52-5.56,4.59-16.19,11.82-16,3.39.08,3.39-5.18,0-5.26Z"/><path class="cls-1" d="M251.16,453.12a40.23,40.23,0,0,1-8,33.13c-9,11.07-23.83,15-33.8,25.13-9.43,9.62-15.57,22.08-19.24,34.94-3.49,12.22-5.92,26.17-2.93,38.74,3.25,13.67,15.14,23.22,29.44,21.83,15.27-1.49,26.17-12.81,34.73-24.58,9.6-13.21,17.18-28,25.36-42.13,8.08-13.93,17.08-27.71,23.48-42.53,5.65-13.07,9-27.35,5.4-41.46-2.91-11.45-10.32-22.78-21.25-27.95-10.76-5.09-26.11-4.44-32.92,6.81-3.91,6.45-2.36,13.54.69,19.95,2.88,6.05,4.42,11.64,3,18.38-3,14.45-14.29,24.7-25,34-11,9.53-22.55,19.07-29.56,32.06a66.92,66.92,0,0,0-7,21.77c-1.14,7.36-3.22,16.18-.54,23.37,5.55,14.9,24.21,13.78,34.87,5.78A58.34,58.34,0,0,0,249.7,554.4c1.17-6.68,1.77-13.92-1.12-20.25a15.78,15.78,0,0,0-16.94-9.32c-12.8,2-27.13,18.35-23.43,31.73,1.87,6.75,7.92,12,15.09,11.64,7.37-.36,13.34-6.38,16.27-12.75a28.26,28.26,0,0,0,1.24-20.66,8.06,8.06,0,0,0-9.71-5.51c-16.46,4.11-24.74,24.43-16.11,38.94a7.85,7.85,0,0,0,6.82,3.91,17.3,17.3,0,0,0,14.61-25c-1.36-2.85-5.9-4.82-8.91-3.63-12.81,5.06-21.49,16.72-21.32,30.74.06,5,5,9.08,10,7.61,11.69-3.45,16-21.24,4.52-27.95-6.32-3.7-14.45,2.79-17.71,7.94a20.76,20.76,0,0,0-2.19,18.08c2.19,5.94,8.37,7.31,13.19,3.48,9.73-7.72,15.82-18.66,22.1-29.14,6.93-11.55,14.7-22.57,21.79-34,14.46-23.34,25.25-49.17,21.32-77.1l-9.71,9.71c8.7,3.09,6.61,15.38,4.46,21.92-3.24,9.88-8.74,19-14.17,27.78s-11,17.29-15.81,26.37c-4.08,7.78-11.15,20.12-2.48,27.46,4.16,3.52,9.24,2.74,12.4-1.6,16.92-23.25,21.88-52.21,34.93-77.41H275.17c4.55,5.91-4.37,17.35-7.5,22.41a143.77,143.77,0,0,1-18.61,23.9l9.57-1.23a26.78,26.78,0,0,0-24.2-3.08l9.71,9.71a13.93,13.93,0,0,0-3.54-13.53c-2.6-2.8-6.39-2.62-9.57-1.23-7.28,3.17-8.24,13.58-2.65,18.7l1.6-12.4a14.51,14.51,0,0,0-7.47,9.57c-2.49,9.85,12.73,14.06,15.22,4.2q-.77.16.21-.13c4.4-2.28,5.23-9.07,1.6-12.4l-.55,6.1-9.57-1.23-.52-1.83c-1.34,5.42,3.8,11.87,9.71,9.71a12.07,12.07,0,0,1,12,1.49c2.81,1.93,7.28,1.15,9.57-1.23a162.19,162.19,0,0,0,23.7-31.49c5.55-9.69,12.92-23.51,4.89-34-3.33-4.33-10.61-5.83-13.63,0-13,25.18-18.05,54.22-34.93,77.41l12.4-1.6c2.25,1.91-.38,2.15.72.76a16.76,16.76,0,0,0,1.21-3c1.17-2.58,2.48-5.11,3.82-7.61,2.56-4.76,5.37-9.39,8.22-14,5.85-9.42,12-18.72,16.83-28.7s9.26-20.77,8-31.94c-1.2-10.63-7.6-19.53-17.76-23.14-6.33-2.25-10.46,4.35-9.71,9.71,3.44,24.51-9,48-21.64,68-6.41,10.14-13.27,20-19.47,30.28-5.81,9.64-11.08,19.52-20.05,26.64L216,575.69c-1-2.84-.48-6.33,2.8-7.39l-7.68-2c1.11.88.27.5.85.33l10,7.61c-.08-6.48,3.47-13,9.73-15.52l-8.91-3.63c.11.23-.72,1.27-1,1.29l6.82,3.91c-3.54-5.95,0-14.1,6.67-15.75L225.58,539c1.3,4,1.29,8.56-1.56,11.94.45-.53-1.94,1.75-1.91,1.64l1.34.14q.49.46,0-.35s0-1.14.05-1.28A11.88,11.88,0,0,1,226,546.8a27.55,27.55,0,0,1,4.7-4.74c.58-.43,2.81-2.11,3.68-1.81-.52-.17-.43-.11-.12.27,2,2.48.3,9.41-.28,12.05-2.2,9.94-7.86,20.33-16.62,26-2.13,1.37-6.38,3.52-8.83,1.34-1.57-1.39-.89-4.06-.72-6,.3-3.43.69-6.89,1.27-10.29a53.9,53.9,0,0,1,14.7-29.14c7.84-8.26,17-15.1,25.22-23,16-15.29,28.8-37.9,18.88-60.07-1-2.17-4.41-6.57-2.56-8.84,2.12-2.61,7.23-2,9.9-1.11,7.44,2.52,12.33,9.67,14.55,16.92,6.66,21.78-9.37,43.83-19.72,61.67Q260,537.39,250,554.67c-5.8,10-11.59,20.32-19.89,28.49-5.89,5.79-17.37,12.5-24.49,4.69-5.44-6-4.36-16.6-3.26-23.88,1.72-11.34,5-22.64,11.12-32.44a51.61,51.61,0,0,1,10.26-12.06c4.93-4.23,10.94-7,16.44-10.35,20.64-12.66,31.24-36.37,26.19-60.19-2.11-9.93-17.33-5.73-15.22,4.2Z"/><path class="cls-1" d="M266.77,580.67c-3.65,11.45-10.25,20.8-19,28.9-8.53,7.88-17.1,17.24-15.7,29.78,1.58,14.11,15.15,18.48,27.29,14.16,10.69-3.81,19.2-12.24,24-22.43,5.45-11.49,7.07-24.34,8.24-36.87.56-6,.42-12.63-3.13-17.81-4.15-6-12.27-6.16-17.5-1.49-8.77,7.82-8.52,22-14.48,31.64a104,104,0,0,1-10.19,13.21c-3.66,4.24-9,9-11,14.33-2.63,7.23,2,14.3,9.75,14.65,6.24.28,12.43-2.75,17.19-6.55,11.17-8.92,14.57-22.92,16.94-36.34.74-4.19-1.13-8.51-5.51-9.71-3.81-1-9,1.29-9.71,5.51-1.29,7.32-2.45,15.13-6.15,21.68-1.85,3.27-7.88,11.15-12.29,9.43l3.48,2-.78-.76,2,3.48-.36-1.21v4.2c.34-2,2.49-3.73,3.77-5.24,1.77-2.08,3.58-4.13,5.36-6.22a130.29,130.29,0,0,0,10.19-13.18,60.05,60.05,0,0,0,6.8-14.29c.78-2.41,2.72-14,5.26-14.61h-4.2l.55.23-2.83-2.83c3,4.21.78,12.09.18,16.84A88.94,88.94,0,0,1,271,620.08c-2.83,8-11.35,20.76-21.53,19.38-1.7-.23-1.91-.91-1.79-3.24.14-2.72,1.72-5.41,3.32-7.53,3.54-4.69,8.56-8.21,12.62-12.43A80.32,80.32,0,0,0,282,584.87c3.1-9.7-12.14-13.85-15.22-4.2Z"/><path class="cls-1" d="M213.75,627.39c-8.58-2.49-18.11,2.58-22.7,10.24s-4.94,17.24-3.16,26a10.87,10.87,0,0,0,1.34,3.82c1.48,2.28,4.35,3.28,7.06,3.45,8,.52,15.58-5.05,19.17-12.24S219.23,643,218,635.08c-3.15-19.62-29.34,10.15-28.22,22,.34,3.56,2.21,7.46,5.69,8.24,2.48.55,5-.66,7.09-2.14a26.81,26.81,0,0,0,10.08-27.84c-.16-.62-.42-1.32-1-1.54A2,2,0,0,0,210,634a18,18,0,0,0-9.83,15c0,.89,1.06,2.07,1.39,1.24a6.83,6.83,0,0,1-2.5,3.61"/><path class="cls-1" d="M201,800.17c4.68,7.86,13.86,15.41,22.16,11.53,3.19-1.49,5.46-4.42,7.21-7.47,9.12-15.9,6.73-35.61,9.93-53.66,1.83-10.33,5.54-20.25,7.36-30.58s1.51-21.62-4.12-30.47c-3.61-5.66-12-11.13-18.8-7.87a20.57,20.57,0,0,0-5.61,4.55q-4.95,5.1-9.79,10.3c-11.48,12.33-21.42,26.69-21.18,43.91C188.41,760.58,190.44,782.49,201,800.17Z"/><path class="cls-1" d="M301,628.34c-20.75,28.55-52.67,56.16-44.74,95.48,1.62,8,5.64,18.13,13.29,22.16,7.91,4.17,17.15,1,23.49-4.49,12.92-11.27,12.31-30,18.24-44.72,3.21-8,9.3-14.42,13.93-21.56a55.37,55.37,0,0,0,8.92-27.07c.44-7.67-1.39-16.13-7.35-21.41-6.69-5.93-16.12-4.69-22.45,1-6,5.43-9.17,13.62-13.49,20.31-5.09,7.88-10.78,15.37-15.74,23.34-9.59,15.41-16.77,34.56-11.64,52.79,1.39,5,3.76,10.42,9.09,12.1s10.8-.8,14.71-4.4c7.47-6.88,10.37-18.07,14-27.19l26.82-66.35c1.05-2.6-.27-5.78-2-7.68-6.93-7.48-17.1-3.55-22.24,3.69-5.6,7.86-9.91,17.06-14.38,25.59a579.53,579.53,0,0,0-25.07,54.93c-1.57,4,1.72,8.67,5.51,9.71,4.49,1.23,8.13-1.53,9.71-5.51Q288,698.17,298,678q5-10.11,10.47-20,2.49-4.54,5.07-9c.9-1.57,1.76-3.2,2.75-4.71q.44-.75.9-1.48,2.12-1.66-2.24-.91l-2-7.68L293.6,682.1l-9.68,24c-1.82,4.49-4.14,14.33-9.75,15.36h4.2l-.79-.39,2.83,2.83c-5.8-8.57-2.27-22.27,1.25-31,4.3-10.69,11.47-20.08,18-29.5,3.16-4.58,6.27-9.21,9-14,1.67-2.92,3.86-9.09,7.17-10.66.86-.41.51-.66,1.22.62a12.65,12.65,0,0,1,1.38,4.39c.74,5.56-.87,12-3.1,17-4.33,9.78-12.6,17.21-17.11,26.91-4.39,9.42-5.74,19.6-8.79,29.44-1.34,4.35-8.93,21.31-14.32,12.48-5.28-8.66-5-20-2.63-29.48,6.26-25.25,27.42-43.41,42.21-63.76,2.51-3.45.59-8.8-2.83-10.8-4-2.33-8.29-.63-10.8,2.83Z"/><path class="cls-1" d="M325,487.74c-8.8,4.34-14.07,12.74-17.83,21.48-2.1,4.87-4,9.83-5.94,14.76-2.27,5.73-5.1,11.52-6.6,17.51-2.9,11.55,2.65,20.5,5.13,31.4,2.17,9.54-.78,19.24,1.39,28.63,2.6,11.2,12.75,14,22.88,11.53,10.71-2.66,20.14-7.12,25.9-17,5.36-9.17,7.86-20.44,10-30.73a205,205,0,0,0,4.3-34.79c.4-11.05,1-23.66-4.25-33.77-4.81-9.36-15-15.12-25.54-12.61-10.72,2.57-17.45,11.6-22.17,20.93-5.07,10-8.94,20.51-9.84,31.78-.94,11.83,1.57,23.76,3.46,35.39l2.86,17.65c.87,5.36,1.85,10.61,7.16,13.27,11.15,5.59,20.1-10.68,23.85-18.76,4.61-9.94,7.44-20.63,9.44-31.38,2.35-12.66,3.92-26,3.16-38.89-.29-5-1.48-10.36-5.18-14a12.94,12.94,0,0,0-15.5-1.85c-5.1,3-7.49,8.46-9.64,13.67a87.28,87.28,0,0,0-5.23,17.66,97.4,97.4,0,0,0,.66,38.23c1.56,7.24,10.78,7,14.43,1.89,10.5-14.58,13.93-32.74,10.62-50.27-1.1-5.85-9.34-7.59-13.19-3.48a60.93,60.93,0,0,0-14,59.19,8,8,0,0,0,13.19,3.48,46.91,46.91,0,0,0,13.83-36.17c-.54-8.27-10-10.15-14.71-4a49.36,49.36,0,0,0-9.61,35.71c1,7.63,10.06,10.91,14.71,4,5.1-7.6,6.41-16.37,4.78-25.27-1.19-6.48-9-6.77-13.19-3.48-6,4.78-8.08,12.75-6.19,20,2.54,9.83,17.77,5.66,15.22-4.2-.58-2.26.41-3.32,2.13-4.68l-13.19-3.48c.88,4.78-.54,9.15-3.19,13.1l14.71,4a36.64,36.64,0,0,1,7.46-27.74l-14.71-4a31.47,31.47,0,0,1-9.21,25L330.62,571a44.85,44.85,0,0,1,9.92-43.83l-13.19-3.48c2.55,13.51-1.07,27-9,38.1l14.43,1.89a78,78,0,0,1,.65-35.84,83.88,83.88,0,0,1,2.62-8.38c.7-1.87,3.15-5.15,3.25-7l.48-.56q-4.42-2.3-3.64-.45c-.16.42.52,1.24.42,1.7-.48,2.37.18,5.68.15,8.14a166.6,166.6,0,0,1-4.82,37.58,105.51,105.51,0,0,1-5.14,16.39c-1.89,4.4-4.93,11.63-9.28,14.16l4-1.08-1.48.13,4,1.08,1,1.27q-.24-1.07-.4-2.16c-.28-1.63-.53-3.27-.8-4.9l-1.43-8.83c-1.1-6.75-2.32-13.5-3.24-20.28-1.59-11.74-1-22.7,3.35-33.79,2.64-6.68,8.17-21.74,17.32-21.54,10.32.23,9,19.08,8.91,25.58A181.62,181.62,0,0,1,345,560.22q-1.71,8.31-4.15,16.44c-1.47,4.88-3,10.22-6.36,14.2s-8.21,5.27-13,6.54c-1.46.39-3.9,1.56-5.42,1,1.4.48.32-1.21.24-2.78-.24-4.48.62-9,.47-13.49a69,69,0,0,0-2.89-17.76c-1.64-5.39-5.15-11.15-4.4-16.95.84-6.52,4.61-13.22,7-19.29,3.68-9.31,6.79-22,16.51-26.8,9.11-4.49,1.12-18.11-8-13.63Z"/><path class="cls-1" d="M337.16,692.27a21.57,21.57,0,0,0-13.79,11.33c-3.22,6.22-3.25,13.07-4.21,19.84a48.55,48.55,0,0,1-14.66,28.25c-9.16,8.72-21.06,11.27-32.35,16.09-11.49,4.91-20.39,12.89-24.71,24.81-8.18,22.52,2.5,58.32,31.76,53.72,27.8-4.37,40.43-33.33,49.25-56.49,11-28.95,29.15-57.26,24.16-89.46-.68-4.38-5.94-6.33-9.71-5.51-8.68,1.88-13.08,10.24-14.54,18.35-1.51,8.39-2.21,16.83-4.28,25.14-2,7.9-4.73,15.79-9.66,22.37-5.26,7-12.72,10.65-20.75,13.64-9.06,3.38-18.46,6.66-25.29,13.84-6.25,6.57-10.34,15.46-8.73,24.63,1.67,9.51,9.85,16.92,19.74,15.81,10.71-1.2,16.77-9.95,20.33-19.28,2-5.15,3.71-10.91-.06-15.73s-10.29-4.77-15.54-2.56c-10.12,4.25-16.21,14-16.91,24.72-.2,3.1,2.57,7.12,5.79,7.61,17.49,2.65,35.58-11.55,33.64-30.18-.41-3.93-3.3-8.32-7.89-7.89-11,1-19.89,9.62-19.42,21.07.17,4.07,3.48,8.16,7.89,7.89,15.58-.93,27.43-12.74,28.89-28.18.45-4.72-5.47-9.48-10-7.61-6.42,2.65-10.24,7.29-10.54,14.4-.26,6.16,6.85,9.6,11.88,6.82a21.92,21.92,0,0,0,10.65-13.58c1.87-6.65-5.67-12.36-11.6-8.91-7.86,4.57-11.3,12.46-15.41,20.13-1.36,2.55-2.93,5.84-5.63,7.25-4.7,2.45-11.45.38-16.61,1.93-9.74,2.94-17.76,15.27-9.16,23.92,7.54,7.59,19.61,4.35,23.45-5a7.6,7.6,0,0,0-2-7.68c-6.6-5.38-15.4-2.17-17.16,6.23-1.86,8.9,7.28,14.15,15.07,12.52,13.78-2.9,25.22-20.21,19.67-33.73L289,812.47a16.2,16.2,0,0,0,19.51-7.89c4.61-9-9-17-13.63-8-.77,1.5-.33,1.1-1.68.63-5.3-1.84-12,4.2-9.71,9.71,1.39,3.39.84,6.11-1.33,9.07a16.76,16.76,0,0,1-3.08,3.17c-.76.6-2,1-2.64,1.61s-.86-.33-.2.14l2.83,2.83.13.19v4.2q-.4,0-.23.35l-3.48,2,.75-.27h-4.2l.74.1-3.48-2,.67.55-2-7.68c-.12.29,1.21-2.52,2.14-2.4,2.42.31,1.23,3.63,1.59,3.74.17,0,1-.8,1.4-.83,1.93-.15,3.79-.47,5.78-.52,7.08-.17,13.49-1.26,18.85-6.19,3.84-3.54,6.33-8.26,8.66-12.86,2.08-4.11,4-8.92,8.14-11.33l-11.6-8.91a6,6,0,0,1-3.4,4.15l11.88,6.82a1.35,1.35,0,0,1-1,.83l-10-7.61c-.62,6.51-6.7,12-13.11,12.39l7.89,7.89c-.09-2.27.94-5,3.63-5.28l-7.89-7.89c.76,7.31-5.4,16.21-13.66,15l5.79,7.61a12.08,12.08,0,0,1,2.69-6.8,11.89,11.89,0,0,1,2.38-2.24,14.28,14.28,0,0,1,1.8-1.07q1.58-.44-.4-.46l-2.83-2.83.54,1.09-1.08-4c.24,3.15-4.48,15-9,13.63-5.21-1.57-.39-10.45,1.42-12.68,4.81-5.93,12.42-8.3,19.31-10.87,7.3-2.72,14.33-5.64,20.47-10.5,11-8.69,17.13-21.87,20.61-35.14a167.76,167.76,0,0,0,3.72-19.85c.44-3.24.39-13.13,4.43-14l-9.71-5.51c3.57,23-9.39,45.34-18.06,65.76-8.22,19.36-13.62,44.87-32.92,56.62-4,2.45-9.25,4.74-14.08,4.05-4.62-.66-7.5-4.51-9.25-8.54A34.53,34.53,0,0,1,263,796c4.19-9.52,13.47-13.28,22.66-16.56,10.12-3.6,19.58-7.52,27.82-14.59A64.53,64.53,0,0,0,332,737.23c2-5.57,2.67-11.32,3.29-17.16.47-4.37.9-11.29,6.06-12.58,9.85-2.47,5.68-17.7-4.2-15.22Z"/><path class="cls-1" d="M352.16,391.53c-17.8,6.17-23.42,25.16-22.44,42.45.51,9,5.47,15,14.22,17.35a37.41,37.41,0,0,0,25-1.93c14.95-7,18.75-25,14.81-39.81-2.16-8.11-6.57-15.7-14.44-19.3-7.23-3.31-15.67-3.15-23.43-2.34-9.83,1-15.71,6.67-20.15,15.18-4.16,8-7.33,17.68-6.79,26.78,1,17.23,20.49,24.45,35.45,24.17,8.32-.15,16.1-3.87,19.82-11.6,4-8.37,2.22-17.64-1.07-25.92-3-7.52-7.49-14.75-16.19-16s-16.2,3.88-21,10.7c-5,7.17-11.11,19.15-3.44,26.59,6.36,6.16,19.5,5,26.41.52,7.74-5,11.28-17,3.43-23.58-9.14-7.62-19.65,3.91-23.43,11.8-2.37,4.95.42,11.37,6.48,11.29,11.16-.15,18.5-12.7,12.68-22.41-5-8.27-17.93-.74-13,7.57-.11-.18.17-.16.27-.16l6.48,11.29c1.14-2.37,3.16-6.54,6-7.15h-4q-2.15-.69-2-2.28.08-.78-.46.52c-1.29.48-1.75,1.15-3.31,1.45-1.38.26-3.11-.29-4.38.12-.77.25-.87-.33-.84-.26l1,3.79c-.53-4,5.56-16.47,11-15,2.4.68,3.54,4.59,4.34,6.69,1.37,3.61,2.95,7.85,2.14,11.77-1.5,7.23-10.41,5.37-15.71,4.1-7.13-1.71-12.6-4.31-11.64-12.51a43.84,43.84,0,0,1,3.44-12.4c1.34-3,3.48-8.2,6.7-9.71,2.84-1.34,7.67-.88,10.72-.85,3.25,0,7,.23,9.66,2.27,5.11,3.87,6.29,13.48,5.55,19.4-.82,6.5-4.73,11.48-11.23,12.94a22.73,22.73,0,0,1-11.64-.44c-3.81-1.25-2.68-5.09-2.57-8.62.26-8.28,2.59-19,11.47-22.06,9.06-3.14,5.17-17.64-4-14.46Z"/><path class="cls-1" d="M410.42,20.24c-7.29-.17-11.56,6.1-14.15,12.15-2.36,5.51-6.71,14.9-1.51,20,4.57,4.49,12.49,3.74,17.92,1.5a22.83,22.83,0,0,0,13.88-16.21c3-14.67-11.15-24.35-24.47-19.7-7.12,2.49-12.17,8.71-15.11,15.44-2.69,6.15-5.52,15-1.43,21.12,8.26,12.36,27.22,5.15,34.73-4,8.46-10.27,9-29.48-7.85-30.83-7.39-.59-14.8,3.7-19.18,9.47-4,5.24-5.32,13.49.37,18.14,5.27,4.3,12.88,2.13,17.19-2.43,3.78-4,9.36-13.48,4.85-18.67-9.31-10.73-28.07,11.58-20.76,21.7,8.69,12,29.73-12.84,20.42-19.36-9.13-6.39-31.21,11.72-19.14,19.88,5.62,3.8,14.44,2,19-2.74,4.18-4.33,4.32-11.63-2-13.8-5.88-2-13.28.92-16.53,6.11-3.44,5.48.11,12,6.44,12.74,5.67.69,14.56-4.83,14-11.27-.66-7.49-9.47-5.17-12.84-1.1s-.85,10.51,4.9,9.53c5.43-.93,8.4-8.44,3.25-11.82-4.24-2.78-10.32,1.67-8.07,6.53,2.69,5.8,9.86,3,12.48-1.18s4.59-15-3.22-14.72c-5.44.19-11.66,6.68-10.85,12.17,2.19,14.78,28.1-2.71,16.05-9.75-6.33-3.7-15,1-19.46,5.5-4.12,4.16-2.76,10.4,3.18,11.94s12.32-4.58,14.23-9.79c2.16-5.89-3-9.34-8.37-7.12-5.85,2.44-8.49,8.84-7.27,14.8a2.69,2.69,0,0,0,3.24,1.84c5.56-1,8.58-6.23,7.31-11.59A2.7,2.7,0,0,0,409,32.83a15.14,15.14,0,0,0-16.82,16.92,2.73,2.73,0,0,0,1.93,2.54,15,15,0,0,0,15.4-4.77c2.89-3.5,4.39-9.62.23-12.79-8.19-6.24-23.49,11.58-13,17.64,4,2.31,8.51-.9,8.82-5.22.43-5.82-6-9-11-8.31-4.53.65-9,5.14-6.63,9.94a5.55,5.55,0,0,0,9.91.12A2.67,2.67,0,0,0,396.31,45C385.17,41.9,391,62.2,399,56.69a2.67,2.67,0,0,0,.94-3.6,6.43,6.43,0,0,0-5.46-3.21c-2.82-.3-3.26,3.58-1.33,4.9,8.81,6,20.68-3.12,25.83-10.12s8.24-18.36-.05-24.42a2.64,2.64,0,0,0-3.6.94,20.7,20.7,0,0,0-2.13,9l5.17-.7-.66-2.41c-.89-3.26-6-1.88-5.07,1.4l.66,2.41a2.64,2.64,0,0,0,5.17-.7,14.52,14.52,0,0,1,1.41-6.36l-3.6.94c10.85,7.93-10.39,32.34-20.47,25.45l-1.33,4.9.92.6.94-3.6a5.62,5.62,0,0,0-1.46-2l-1.57-3.87q.73-3.35,4.17-2.11,1.79,6.12,1.69-.24c.85-1.66,6.31-7.21,7.75-2.36.53,1.8-3.36,4.49-4.6,5.09a9.57,9.57,0,0,1-6.8.59l1.93,2.54c-.79-7.21,4.35-12.4,11.56-11.66l-2.54-1.93c.62,2.64-1.18,4.67-3.64,5.11l3.24,1.84c-.57-2.76.5-6.86,3.39-8.15,4.4-2,.06,3.39-1.19,4.58-1.51,1.44-4.05,3.43-5.13.64-.84-2.18.14-2.32,2.25-3.84,1.7-1.22,12.35-6.26,10-.31-.81,2.08-7.74,5.52-7.5.86.13-2.57,6.16-7.31,5.5-1-.31,2.93-2.84,4.25-5.1,5.63,3.77-2.3,2.38,0,.94,1.75-1.21,1.48-4.36,2.93-6.24,2.23-5.22-1.93-1.52-5.79.42-7.12,1.63-1.12,6.76-3,8.72-1.14,3.6,3.48-4.18,7.24-6.34,7.71-4.87,1.06-10.28-1.34-5.22-7,1.32-1.48,7.93-6.41,9.81-5.26,1.47.89.61,3.49.29,4.48-.47,1.45-1.84,2.85-2.81,4a21.54,21.54,0,0,1-2.8,2.8c-1.58,1.26-5.11,1.47-6.63-.42-1.8-2.22,2.49-8.4,4-10.2a13.14,13.14,0,0,1,3.93-3.26c3.55-1.8,5.73,1.91,4.28,5.21-2,4.53-10.36,14.65-15,6.58-3.91-6.78,5.46-14.31,10.94-16.12s12.64-.05,14.25,6.15c1.56,6-2.11,13-6.26,17.08a22.63,22.63,0,0,1-14.07,6.76c-5.67.37-12-2.22-11.83-8.72C389,36,397,22.16,409.08,22c6.41-.06,12,3.82,12.58,10.5.6,7-4.12,13.44-10.33,16.25a16.55,16.55,0,0,1-8.39,1.55c-2.28-.25-4.82-.87-5.38-3.65-.26-1.27.69-3.92,1-5.17,1.52-5.56,4.59-16.19,11.82-16,3.39.08,3.39-5.18,0-5.26Z"/><path class="cls-1" d="M435.76,27.94a40.23,40.23,0,0,1-8,33.13c-9,11.07-23.83,15-33.8,25.13-9.43,9.62-15.57,22.08-19.24,34.94-3.49,12.22-5.92,26.17-2.93,38.74,3.25,13.67,15.14,23.22,29.44,21.83,15.27-1.49,26.17-12.81,34.73-24.58,9.6-13.21,17.18-28,25.36-42.13,8.08-13.93,17.08-27.71,23.48-42.53,5.65-13.07,9-27.35,5.4-41.46C487.25,19.55,479.84,8.22,468.92,3,458.16-2,442.81-1.39,436,9.86c-3.91,6.45-2.36,13.54.69,19.95,2.88,6.05,4.42,11.64,3,18.38-3,14.45-14.29,24.7-25,34-11,9.53-22.55,19.07-29.56,32.06a66.92,66.92,0,0,0-7,21.77c-1.14,7.36-3.22,16.18-.54,23.37,5.55,14.9,24.21,13.78,34.87,5.78a58.34,58.34,0,0,0,21.78-35.94c1.17-6.68,1.77-13.92-1.12-20.25a15.78,15.78,0,0,0-16.94-9.32c-12.8,2-27.13,18.35-23.43,31.73,1.87,6.75,7.92,12,15.09,11.64,7.37-.36,13.34-6.38,16.27-12.75a28.26,28.26,0,0,0,1.24-20.66,8.06,8.06,0,0,0-9.71-5.51C399.24,108.21,391,128.53,399.59,143a7.85,7.85,0,0,0,6.82,3.91,17.3,17.3,0,0,0,14.61-25c-1.36-2.85-5.9-4.82-8.91-3.63C399.29,123.34,390.6,135,390.78,149c.06,5,5,9.08,10,7.61,11.69-3.45,16-21.24,4.52-27.95-6.32-3.7-14.45,2.79-17.71,7.94a20.76,20.76,0,0,0-2.19,18.08c2.19,5.94,8.37,7.31,13.19,3.48,9.73-7.72,15.82-18.66,22.1-29.14,6.93-11.55,14.7-22.57,21.79-34,14.46-23.34,25.25-49.17,21.32-77.1l-9.71,9.71c8.7,3.09,6.61,15.38,4.46,21.92-3.24,9.88-8.74,19-14.17,27.78s-11,17.29-15.81,26.37c-4.08,7.78-11.15,20.12-2.48,27.46,4.16,3.52,9.24,2.74,12.4-1.6,16.92-23.25,21.88-52.21,34.93-77.41H459.78c4.55,5.91-4.37,17.35-7.5,22.41a143.77,143.77,0,0,1-18.61,23.9l9.57-1.23A26.78,26.78,0,0,0,419,94.16l9.71,9.71a13.93,13.93,0,0,0-3.54-13.53c-2.6-2.8-6.39-2.62-9.57-1.23-7.28,3.17-8.24,13.58-2.65,18.7l1.6-12.4a14.51,14.51,0,0,0-7.47,9.57c-2.49,9.85,12.73,14.06,15.22,4.2q-.77.16.21-.13c4.4-2.28,5.23-9.07,1.6-12.4l-.55,6.1L414,101.5l-.52-1.83c-1.34,5.42,3.8,11.87,9.71,9.71a12.07,12.07,0,0,1,12,1.49c2.81,1.93,7.28,1.15,9.57-1.23a162.19,162.19,0,0,0,23.7-31.49c5.55-9.69,12.92-23.51,4.89-34-3.33-4.33-10.61-5.83-13.63,0-13,25.18-18.05,54.22-34.93,77.41l12.4-1.6c2.25,1.91-.38,2.15.72.76a16.76,16.76,0,0,0,1.21-3c1.17-2.58,2.48-5.11,3.82-7.61,2.56-4.76,5.37-9.39,8.22-14,5.85-9.42,12-18.72,16.83-28.7s9.26-20.77,8-31.94c-1.2-10.63-7.6-19.53-17.76-23.14-6.33-2.25-10.46,4.35-9.71,9.71,3.44,24.51-9,48-21.64,68-6.41,10.14-13.27,20-19.47,30.28C401.65,130,396.38,139.9,387.41,147l13.19,3.48c-1-2.84-.48-6.33,2.8-7.39l-7.68-2c1.11.88.27.5.85.33l10,7.61c-.08-6.48,3.47-13,9.73-15.52l-8.91-3.63c.11.23-.72,1.27-1,1.29l6.82,3.91c-3.54-5.95,0-14.1,6.67-15.75l-9.71-5.51c1.3,4,1.29,8.56-1.56,11.94.45-.53-1.94,1.75-1.91,1.64l1.34.14q.49.46,0-.35s0-1.14.05-1.28a11.88,11.88,0,0,1,2.54-4.29,27.55,27.55,0,0,1,4.7-4.74c.58-.43,2.81-2.11,3.68-1.81-.52-.17-.43-.11-.12.27,2,2.48.3,9.41-.28,12.05-2.2,9.94-7.86,20.33-16.62,26-2.13,1.37-6.38,3.52-8.83,1.34-1.57-1.39-.89-4.06-.72-6,.3-3.43.69-6.89,1.27-10.29a53.9,53.9,0,0,1,14.7-29.14c7.84-8.26,17-15.1,25.22-23,16-15.29,28.8-37.9,18.88-60.07-1-2.17-4.41-6.57-2.56-8.84,2.12-2.61,7.23-2,9.9-1.11,7.44,2.52,12.33,9.67,14.55,16.92C481,55,465,77.07,454.67,94.92q-10,17.28-20.05,34.57c-5.8,10-11.59,20.32-19.89,28.49-5.89,5.79-17.37,12.5-24.49,4.69-5.44-6-4.36-16.6-3.26-23.88,1.72-11.34,5-22.64,11.12-32.44a51.61,51.61,0,0,1,10.26-12.06c4.93-4.23,10.94-7,16.44-10.35C445.44,71.27,456,47.56,451,23.74c-2.11-9.93-17.33-5.73-15.22,4.2Z"/><path class="cls-1" d="M451.38,155.49c-3.65,11.45-10.25,20.8-19,28.9-8.53,7.88-17.1,17.24-15.7,29.78,1.58,14.11,15.15,18.48,27.29,14.16,10.69-3.81,19.2-12.24,24-22.43,5.45-11.49,7.07-24.34,8.24-36.87.56-6,.42-12.63-3.13-17.81-4.15-6-12.27-6.16-17.5-1.49-8.77,7.82-8.52,22-14.48,31.64a104,104,0,0,1-10.19,13.21c-3.66,4.24-9,9-11,14.33-2.63,7.23,2,14.3,9.75,14.65,6.24.28,12.43-2.75,17.19-6.55,11.17-8.92,14.57-22.92,16.94-36.34.74-4.19-1.13-8.51-5.51-9.71-3.81-1-9,1.29-9.71,5.51-1.29,7.32-2.45,15.13-6.15,21.68-1.85,3.27-7.88,11.15-12.29,9.43l3.48,2-.78-.76,2,3.48-.36-1.21v4.2c.34-2,2.49-3.73,3.77-5.24,1.77-2.08,3.58-4.13,5.36-6.22a130.29,130.29,0,0,0,10.19-13.18,60.05,60.05,0,0,0,6.8-14.29c.78-2.41,2.72-14,5.26-14.61h-4.2l.55.23-2.83-2.83c3,4.21.78,12.09.18,16.84a88.94,88.94,0,0,1-4.08,18.85c-2.83,8-11.35,20.76-21.53,19.38-1.7-.23-1.91-.91-1.79-3.24.14-2.72,1.72-5.41,3.32-7.53,3.54-4.69,8.56-8.21,12.62-12.43a80.32,80.32,0,0,0,18.43-31.39c3.1-9.7-12.14-13.85-15.22-4.2Z"/><path class="cls-1" d="M398.35,202.21c-8.58-2.49-18.11,2.58-22.7,10.24s-4.94,17.24-3.16,26a10.87,10.87,0,0,0,1.34,3.82c1.48,2.28,4.35,3.28,7.06,3.45,8,.52,15.58-5.05,19.17-12.24s3.78-15.64,2.51-23.58c-3.15-19.62-29.34,10.15-28.22,22,.34,3.56,2.21,7.46,5.69,8.24,2.48.55,5-.66,7.09-2.14a26.81,26.81,0,0,0,10.08-27.84c-.16-.62-.42-1.32-1-1.54a2,2,0,0,0-1.52.27,18,18,0,0,0-9.83,15c0,.89,1.06,2.07,1.39,1.24a6.83,6.83,0,0,1-2.5,3.61"/><path class="cls-1" d="M385.58,375c4.68,7.86,13.86,15.41,22.16,11.53,3.19-1.49,5.46-4.42,7.21-7.47,9.12-15.9,6.73-35.61,9.93-53.66,1.83-10.33,5.54-20.25,7.36-30.58s1.51-21.62-4.12-30.47c-3.61-5.66-12-11.13-18.8-7.87a20.57,20.57,0,0,0-5.61,4.55q-4.95,5.1-9.79,10.3c-11.48,12.33-21.42,26.69-21.18,43.91C373,335.4,375,357.31,385.58,375Z"/><path class="cls-1" d="M485.65,203.15C464.9,231.7,433,259.31,440.91,298.63c1.62,8,5.64,18.13,13.29,22.16,7.91,4.17,17.15,1,23.49-4.49,12.92-11.27,12.31-30,18.24-44.72,3.21-8,9.3-14.42,13.93-21.56A55.37,55.37,0,0,0,518.78,223c.44-7.67-1.39-16.13-7.35-21.41-6.69-5.93-16.12-4.69-22.45,1-6,5.43-9.17,13.62-13.49,20.31-5.09,7.88-10.78,15.37-15.74,23.34C450.17,261.65,443,280.8,448.12,299c1.39,5,3.76,10.42,9.09,12.1s10.8-.8,14.71-4.4c7.47-6.88,10.37-18.07,14-27.19l26.82-66.35c1.05-2.6-.27-5.78-2-7.68-6.93-7.48-17.1-3.55-22.24,3.69-5.6,7.86-9.91,17.06-14.38,25.59a579.53,579.53,0,0,0-25.07,54.93c-1.57,4,1.72,8.67,5.51,9.71,4.49,1.23,8.13-1.53,9.71-5.51q8.31-20.93,18.34-41.09,5-10.11,10.47-20,2.49-4.54,5.07-9c.9-1.57,1.76-3.2,2.75-4.71q.44-.75.9-1.48,2.12-1.66-2.24-.91l-2-7.68L478.2,256.91l-9.68,24c-1.82,4.49-4.14,14.33-9.75,15.36H463l-.79-.39,2.83,2.83c-5.8-8.57-2.27-22.27,1.25-31,4.3-10.69,11.47-20.08,18-29.5,3.16-4.58,6.27-9.21,9-14,1.67-2.92,3.86-9.09,7.17-10.66.86-.41.51-.66,1.22.62a12.65,12.65,0,0,1,1.38,4.39c.74,5.56-.87,12-3.1,17-4.33,9.78-12.6,17.21-17.11,26.91-4.39,9.42-5.74,19.6-8.79,29.44-1.34,4.35-8.93,21.31-14.32,12.48-5.28-8.66-5-20-2.63-29.48,6.26-25.25,27.42-43.41,42.21-63.76,2.51-3.45.59-8.8-2.83-10.8-4-2.33-8.29-.63-10.8,2.83Z"/><path class="cls-1" d="M509.64,62.56c-8.8,4.34-14.07,12.74-17.83,21.48-2.1,4.87-4,9.83-5.94,14.76-2.27,5.73-5.1,11.52-6.6,17.51-2.9,11.55,2.65,20.5,5.13,31.4,2.17,9.54-.78,19.24,1.39,28.63,2.6,11.2,12.75,14,22.88,11.53,10.71-2.66,20.14-7.12,25.9-17,5.36-9.17,7.86-20.44,10-30.73a205,205,0,0,0,4.3-34.79c.4-11.05,1-23.66-4.25-33.77-4.81-9.36-15-15.12-25.54-12.61-10.72,2.57-17.45,11.6-22.17,20.93-5.07,10-8.94,20.51-9.84,31.78-.94,11.83,1.57,23.76,3.46,35.39l2.86,17.65c.87,5.36,1.85,10.61,7.16,13.27,11.15,5.59,20.1-10.68,23.85-18.76,4.61-9.94,7.44-20.63,9.44-31.38,2.35-12.66,3.92-26,3.16-38.89-.29-5-1.48-10.36-5.18-14a12.94,12.94,0,0,0-15.5-1.85c-5.1,3-7.49,8.46-9.64,13.67a87.28,87.28,0,0,0-5.23,17.66,97.4,97.4,0,0,0,.66,38.23c1.56,7.24,10.78,7,14.43,1.89,10.5-14.58,13.93-32.74,10.62-50.27-1.1-5.85-9.34-7.59-13.19-3.48A60.93,60.93,0,0,0,500,150a8,8,0,0,0,13.19,3.48A46.91,46.91,0,0,0,527,117.34c-.54-8.27-10-10.15-14.71-4a49.36,49.36,0,0,0-9.61,35.71c1,7.63,10.06,10.91,14.71,4,5.1-7.6,6.41-16.37,4.78-25.27-1.19-6.48-9-6.77-13.19-3.48-6,4.78-8.08,12.75-6.19,20,2.54,9.83,17.77,5.66,15.22-4.2-.58-2.26.41-3.32,2.13-4.68L507,132c.88,4.78-.54,9.15-3.19,13.1l14.71,4A36.64,36.64,0,0,1,526,121.32l-14.71-4a31.47,31.47,0,0,1-9.21,25l13.19,3.48A44.85,44.85,0,0,1,525.15,102L512,98.52c2.55,13.51-1.07,27-9,38.1l14.43,1.89a78,78,0,0,1,.65-35.84,83.88,83.88,0,0,1,2.62-8.38c.7-1.87,3.15-5.15,3.25-7l.48-.56q-4.42-2.3-3.64-.45c-.16.42.52,1.24.42,1.7-.48,2.37.18,5.68.15,8.14a166.6,166.6,0,0,1-4.82,37.58,105.51,105.51,0,0,1-5.14,16.39c-1.89,4.4-4.93,11.63-9.28,14.16l4-1.08-1.48.13,4,1.08,1,1.27q-.24-1.07-.4-2.16c-.28-1.63-.53-3.27-.8-4.9l-1.43-8.83c-1.1-6.75-2.32-13.5-3.24-20.28-1.59-11.74-1-22.7,3.35-33.79,2.64-6.68,8.17-21.74,17.32-21.54,10.32.23,9,19.08,8.91,25.58A181.62,181.62,0,0,1,529.57,135q-1.71,8.31-4.15,16.44c-1.47,4.88-3,10.22-6.36,14.2s-8.21,5.27-13,6.54c-1.46.39-3.9,1.56-5.42,1,1.4.48.32-1.21.24-2.78-.24-4.48.62-9,.47-13.49a69,69,0,0,0-2.89-17.76c-1.64-5.39-5.15-11.15-4.4-16.95.84-6.52,4.61-13.22,7-19.29,3.68-9.31,6.79-22,16.51-26.8,9.11-4.49,1.12-18.11-8-13.63Z"/><path class="cls-1" d="M521.77,267.08A21.57,21.57,0,0,0,508,278.41c-3.22,6.22-3.25,13.07-4.21,19.84a48.55,48.55,0,0,1-14.66,28.25c-9.16,8.72-21.06,11.27-32.35,16.09-11.49,4.91-20.39,12.89-24.71,24.81-8.18,22.52,2.5,58.32,31.76,53.72,27.8-4.37,40.43-33.33,49.25-56.49,11-28.95,29.15-57.26,24.16-89.46-.68-4.38-5.94-6.33-9.71-5.51-8.68,1.88-13.08,10.24-14.54,18.35-1.51,8.39-2.21,16.83-4.28,25.14-2,7.9-4.73,15.79-9.66,22.37-5.26,7-12.72,10.65-20.75,13.64-9.06,3.38-18.46,6.66-25.29,13.84-6.25,6.57-10.34,15.46-8.73,24.63,1.67,9.51,9.85,16.92,19.74,15.81,10.71-1.2,16.77-9.95,20.33-19.28,2-5.15,3.71-10.91-.06-15.73s-10.29-4.77-15.54-2.56c-10.12,4.25-16.21,14-16.91,24.72-.2,3.1,2.57,7.12,5.79,7.61,17.49,2.65,35.58-11.55,33.64-30.18-.41-3.93-3.3-8.32-7.89-7.89-11,1-19.89,9.62-19.42,21.07.17,4.07,3.48,8.16,7.89,7.89,15.58-.93,27.43-12.74,28.89-28.18.45-4.72-5.47-9.48-10-7.61-6.42,2.65-10.24,7.29-10.54,14.4-.26,6.16,6.85,9.6,11.88,6.82a21.92,21.92,0,0,0,10.65-13.58c1.87-6.65-5.67-12.36-11.6-8.91-7.86,4.57-11.3,12.46-15.41,20.13-1.36,2.55-2.93,5.84-5.63,7.25-4.7,2.45-11.45.38-16.61,1.93-9.74,2.94-17.76,15.27-9.16,23.92,7.54,7.59,19.61,4.35,23.45-5a7.6,7.6,0,0,0-2-7.68c-6.6-5.38-15.4-2.17-17.16,6.23-1.86,8.9,7.28,14.15,15.07,12.52,13.78-2.9,25.22-20.21,19.67-33.73l-9.71,9.71a16.2,16.2,0,0,0,19.51-7.89c4.61-9-9-17-13.63-8-.77,1.5-.33,1.1-1.68.63-5.3-1.84-12,4.2-9.71,9.71,1.39,3.39.84,6.11-1.33,9.07a16.76,16.76,0,0,1-3.08,3.17c-.76.6-2,1-2.64,1.61s-.86-.33-.2.14l2.83,2.83.13.19V403q-.4,0-.23.35l-3.48,2,.75-.27h-4.2l.74.1-3.48-2,.67.55-2-7.68c-.12.29,1.21-2.52,2.14-2.4,2.42.31,1.23,3.63,1.59,3.74.17,0,1-.8,1.4-.83,1.93-.15,3.79-.47,5.78-.52,7.08-.17,13.49-1.26,18.85-6.19,3.84-3.54,6.33-8.26,8.66-12.86,2.08-4.11,4-8.92,8.14-11.33l-11.6-8.91a6,6,0,0,1-3.4,4.15L496,367.7a1.35,1.35,0,0,1-1,.83l-10-7.61c-.62,6.51-6.7,12-13.11,12.39l7.89,7.89c-.09-2.27.94-5,3.63-5.28L475.48,368c.76,7.31-5.4,16.21-13.66,15l5.79,7.61a12.08,12.08,0,0,1,2.69-6.8,11.89,11.89,0,0,1,2.38-2.24,14.28,14.28,0,0,1,1.8-1.07q1.58-.44-.4-.46l-2.83-2.83.54,1.09-1.08-4c.24,3.15-4.48,15-9,13.63-5.21-1.57-.39-10.45,1.42-12.68,4.81-5.93,12.42-8.3,19.31-10.87,7.3-2.72,14.33-5.64,20.47-10.5,11-8.69,17.13-21.87,20.61-35.14a167.76,167.76,0,0,0,3.72-19.85c.44-3.24.39-13.13,4.43-14L522,279.35c3.57,23-9.39,45.34-18.06,65.76C495.73,364.48,490.32,390,471,401.74c-4,2.45-9.25,4.74-14.08,4.05-4.62-.66-7.5-4.51-9.25-8.54a34.53,34.53,0,0,1-.1-26.46c4.19-9.52,13.47-13.28,22.66-16.56,10.12-3.6,19.58-7.52,27.82-14.59A64.53,64.53,0,0,0,516.61,312c2-5.57,2.67-11.32,3.29-17.16.47-4.37.9-11.29,6.06-12.58,9.85-2.47,5.68-17.7-4.2-15.22Z"/><path class="cls-1" d="M410.42,445.43c-7.29-.17-11.56,6.1-14.15,12.15-2.36,5.51-6.71,14.9-1.51,20,4.57,4.49,12.49,3.74,17.92,1.5a22.83,22.83,0,0,0,13.88-16.21c3-14.67-11.15-24.35-24.47-19.7-7.12,2.49-12.17,8.71-15.11,15.44-2.69,6.15-5.52,15-1.43,21.12,8.26,12.36,27.22,5.15,34.73-4,8.46-10.27,9-29.48-7.85-30.83-7.39-.59-14.8,3.7-19.18,9.47-4,5.24-5.32,13.49.37,18.14,5.27,4.3,12.88,2.13,17.19-2.43,3.78-4,9.36-13.48,4.85-18.67-9.31-10.73-28.07,11.58-20.76,21.7,8.69,12,29.73-12.84,20.42-19.36-9.13-6.39-31.21,11.72-19.14,19.88,5.62,3.8,14.44,2,19-2.74,4.18-4.33,4.32-11.63-2-13.8-5.88-2-13.28.92-16.53,6.11-3.44,5.48.11,12,6.44,12.74,5.67.69,14.56-4.83,14-11.27-.66-7.49-9.47-5.17-12.84-1.1s-.85,10.51,4.9,9.53c5.43-.93,8.4-8.44,3.25-11.82-4.24-2.78-10.32,1.67-8.07,6.53,2.69,5.8,9.86,3,12.48-1.18s4.59-15-3.22-14.72c-5.44.19-11.66,6.68-10.85,12.17,2.19,14.78,28.1-2.71,16.05-9.75-6.33-3.7-15,1-19.46,5.5-4.12,4.16-2.76,10.4,3.18,11.94s12.32-4.58,14.23-9.79c2.16-5.89-3-9.34-8.37-7.12-5.85,2.44-8.49,8.84-7.27,14.8a2.69,2.69,0,0,0,3.24,1.84c5.56-1,8.58-6.23,7.31-11.59A2.7,2.7,0,0,0,409,458a15.14,15.14,0,0,0-16.82,16.92,2.73,2.73,0,0,0,1.93,2.54,15,15,0,0,0,15.4-4.77c2.89-3.5,4.39-9.62.23-12.79-8.19-6.24-23.49,11.58-13,17.64,4,2.31,8.51-.9,8.82-5.22.43-5.82-6-9-11-8.31-4.53.65-9,5.14-6.63,9.94a5.55,5.55,0,0,0,9.91.12,2.67,2.67,0,0,0-1.57-3.87c-11.14-3.13-5.26,17.17,2.72,11.66a2.67,2.67,0,0,0,.94-3.6,6.43,6.43,0,0,0-5.46-3.21c-2.82-.3-3.26,3.58-1.33,4.9,8.81,6,20.68-3.12,25.83-10.12s8.24-18.36-.05-24.42a2.64,2.64,0,0,0-3.6.94,20.7,20.7,0,0,0-2.13,9l5.17-.7-.66-2.41c-.89-3.26-6-1.88-5.07,1.4l.66,2.41a2.64,2.64,0,0,0,5.17-.7,14.52,14.52,0,0,1,1.41-6.36l-3.6.94c10.85,7.93-10.39,32.34-20.47,25.45l-1.33,4.9.92.6.94-3.6a5.62,5.62,0,0,0-1.46-2l-1.57-3.87q.73-3.35,4.17-2.11,1.79,6.12,1.69-.24c.85-1.66,6.31-7.21,7.75-2.36.53,1.8-3.36,4.49-4.6,5.09a9.57,9.57,0,0,1-6.8.59l1.93,2.54c-.79-7.21,4.35-12.4,11.56-11.66l-2.54-1.93c.62,2.64-1.18,4.67-3.64,5.11l3.24,1.84c-.57-2.76.5-6.86,3.39-8.15,4.4-2,.06,3.39-1.19,4.58-1.51,1.44-4.05,3.43-5.13.64-.84-2.18.14-2.32,2.25-3.84,1.7-1.22,12.35-6.26,10-.31-.81,2.08-7.74,5.52-7.5.86.13-2.57,6.16-7.31,5.5-1-.31,2.93-2.84,4.25-5.1,5.63,3.77-2.3,2.38,0,.94,1.75-1.21,1.48-4.36,2.93-6.24,2.23-5.22-1.93-1.52-5.79.42-7.12,1.63-1.12,6.76-3,8.72-1.14,3.6,3.48-4.18,7.24-6.34,7.71-4.87,1.06-10.28-1.34-5.22-7,1.32-1.48,7.93-6.41,9.81-5.26,1.47.89.61,3.49.29,4.48-.47,1.45-1.84,2.85-2.81,4a21.54,21.54,0,0,1-2.8,2.8c-1.58,1.26-5.11,1.47-6.63-.42-1.8-2.22,2.49-8.4,4-10.2a13.14,13.14,0,0,1,3.93-3.26c3.55-1.8,5.73,1.91,4.28,5.21-2,4.53-10.36,14.65-15,6.58-3.91-6.78,5.46-14.31,10.94-16.12s12.64-.05,14.25,6.15c1.56,6-2.11,13-6.26,17.08a22.63,22.63,0,0,1-14.07,6.76c-5.67.37-12-2.22-11.83-8.72.21-11,8.26-24.84,20.31-25,6.41-.06,12,3.82,12.58,10.5.6,7-4.12,13.44-10.33,16.25a16.55,16.55,0,0,1-8.39,1.55c-2.28-.25-4.82-.87-5.38-3.65-.26-1.27.69-3.92,1-5.17,1.52-5.56,4.59-16.19,11.82-16,3.39.08,3.39-5.18,0-5.26Z"/><path class="cls-1" d="M435.76,453.12a40.23,40.23,0,0,1-8,33.13c-9,11.07-23.83,15-33.8,25.13-9.43,9.62-15.57,22.08-19.24,34.94-3.49,12.22-5.92,26.17-2.93,38.74,3.25,13.67,15.14,23.22,29.44,21.83,15.27-1.49,26.17-12.81,34.73-24.58,9.6-13.21,17.18-28,25.36-42.13,8.08-13.93,17.08-27.71,23.48-42.53,5.65-13.07,9-27.35,5.4-41.46-2.91-11.45-10.32-22.78-21.25-27.95-10.76-5.09-26.11-4.44-32.92,6.81-3.91,6.45-2.36,13.54.69,19.95,2.88,6.05,4.42,11.64,3,18.38-3,14.45-14.29,24.7-25,34-11,9.53-22.55,19.07-29.56,32.06a66.92,66.92,0,0,0-7,21.77c-1.14,7.36-3.22,16.18-.54,23.37,5.55,14.9,24.21,13.78,34.87,5.78A58.34,58.34,0,0,0,434.3,554.4c1.17-6.68,1.77-13.92-1.12-20.25a15.78,15.78,0,0,0-16.94-9.32c-12.8,2-27.13,18.35-23.43,31.73,1.87,6.75,7.92,12,15.09,11.64,7.37-.36,13.34-6.38,16.27-12.75a28.26,28.26,0,0,0,1.24-20.66,8.06,8.06,0,0,0-9.71-5.51c-16.46,4.11-24.74,24.43-16.11,38.94a7.85,7.85,0,0,0,6.82,3.91,17.3,17.3,0,0,0,14.61-25c-1.36-2.85-5.9-4.82-8.91-3.63-12.81,5.06-21.49,16.72-21.32,30.74.06,5,5,9.08,10,7.61,11.69-3.45,16-21.24,4.52-27.95-6.32-3.7-14.45,2.79-17.71,7.94a20.76,20.76,0,0,0-2.19,18.08c2.19,5.94,8.37,7.31,13.19,3.48,9.73-7.72,15.82-18.66,22.1-29.14,6.93-11.55,14.7-22.57,21.79-34,14.46-23.34,25.25-49.17,21.32-77.1l-9.71,9.71c8.7,3.09,6.61,15.38,4.46,21.92-3.24,9.88-8.74,19-14.17,27.78s-11,17.29-15.81,26.37c-4.08,7.78-11.15,20.12-2.48,27.46,4.16,3.52,9.24,2.74,12.4-1.6,16.92-23.25,21.88-52.21,34.93-77.41H459.78c4.55,5.91-4.37,17.35-7.5,22.41a143.77,143.77,0,0,1-18.61,23.9l9.57-1.23a26.78,26.78,0,0,0-24.2-3.08l9.71,9.71a13.93,13.93,0,0,0-3.54-13.53c-2.6-2.8-6.39-2.62-9.57-1.23-7.28,3.17-8.24,13.58-2.65,18.7l1.6-12.4a14.51,14.51,0,0,0-7.47,9.57c-2.49,9.85,12.73,14.06,15.22,4.2q-.77.16.21-.13c4.4-2.28,5.23-9.07,1.6-12.4l-.55,6.1L414,526.69l-.52-1.83c-1.34,5.42,3.8,11.87,9.71,9.71a12.07,12.07,0,0,1,12,1.49c2.81,1.93,7.28,1.15,9.57-1.23a162.19,162.19,0,0,0,23.7-31.49c5.55-9.69,12.92-23.51,4.89-34-3.33-4.33-10.61-5.83-13.63,0-13,25.18-18.05,54.22-34.93,77.41l12.4-1.6c2.25,1.91-.38,2.15.72.76a16.76,16.76,0,0,0,1.21-3c1.17-2.58,2.48-5.11,3.82-7.61,2.56-4.76,5.37-9.39,8.22-14,5.85-9.42,12-18.72,16.83-28.7s9.26-20.77,8-31.94c-1.2-10.63-7.6-19.53-17.76-23.14-6.33-2.25-10.46,4.35-9.71,9.71,3.44,24.51-9,48-21.64,68-6.41,10.14-13.27,20-19.47,30.28-5.81,9.64-11.08,19.52-20.05,26.64l13.19,3.48c-1-2.84-.48-6.33,2.8-7.39l-7.68-2c1.11.88.27.5.85.33l10,7.61c-.08-6.48,3.47-13,9.73-15.52l-8.91-3.63c.11.23-.72,1.27-1,1.29l6.82,3.91c-3.54-5.95,0-14.1,6.67-15.75L410.18,539c1.3,4,1.29,8.56-1.56,11.94.45-.53-1.94,1.75-1.91,1.64l1.34.14q.49.46,0-.35s0-1.14.05-1.28a11.88,11.88,0,0,1,2.54-4.29,27.55,27.55,0,0,1,4.7-4.74c.58-.43,2.81-2.11,3.68-1.81-.52-.17-.43-.11-.12.27,2,2.48.3,9.41-.28,12.05-2.2,9.94-7.86,20.33-16.62,26-2.13,1.37-6.38,3.52-8.83,1.34-1.57-1.39-.89-4.06-.72-6,.3-3.43.69-6.89,1.27-10.29a53.9,53.9,0,0,1,14.7-29.14c7.84-8.26,17-15.1,25.22-23,16-15.29,28.8-37.9,18.88-60.07-1-2.17-4.41-6.57-2.56-8.84,2.12-2.61,7.23-2,9.9-1.11,7.44,2.52,12.33,9.67,14.55,16.92C481,480.2,465,502.26,454.67,520.1q-10,17.28-20.05,34.57c-5.8,10-11.59,20.32-19.89,28.49-5.89,5.79-17.37,12.5-24.49,4.69-5.44-6-4.36-16.6-3.26-23.88,1.72-11.34,5-22.64,11.12-32.44a51.61,51.61,0,0,1,10.26-12.06c4.93-4.23,10.94-7,16.44-10.35C445.44,496.46,456,472.74,451,448.92c-2.11-9.93-17.33-5.73-15.22,4.2Z"/><path class="cls-1" d="M451.38,580.67c-3.65,11.45-10.25,20.8-19,28.9-8.53,7.88-17.1,17.24-15.7,29.78,1.58,14.11,15.15,18.48,27.29,14.16,10.69-3.81,19.2-12.24,24-22.43,5.45-11.49,7.07-24.34,8.24-36.87.56-6,.42-12.63-3.13-17.81-4.15-6-12.27-6.16-17.5-1.49-8.77,7.82-8.52,22-14.48,31.64a104,104,0,0,1-10.19,13.21c-3.66,4.24-9,9-11,14.33-2.63,7.23,2,14.3,9.75,14.65,6.24.28,12.43-2.75,17.19-6.55,11.17-8.92,14.57-22.92,16.94-36.34.74-4.19-1.13-8.51-5.51-9.71-3.81-1-9,1.29-9.71,5.51-1.29,7.32-2.45,15.13-6.15,21.68-1.85,3.27-7.88,11.15-12.29,9.43l3.48,2-.78-.76,2,3.48-.36-1.21v4.2c.34-2,2.49-3.73,3.77-5.24,1.77-2.08,3.58-4.13,5.36-6.22a130.29,130.29,0,0,0,10.19-13.18,60.05,60.05,0,0,0,6.8-14.29c.78-2.41,2.72-14,5.26-14.61h-4.2l.55.23-2.83-2.83c3,4.21.78,12.09.18,16.84a88.94,88.94,0,0,1-4.08,18.85c-2.83,8-11.35,20.76-21.53,19.38-1.7-.23-1.91-.91-1.79-3.24.14-2.72,1.72-5.41,3.32-7.53,3.54-4.69,8.56-8.21,12.62-12.43a80.32,80.32,0,0,0,18.43-31.39c3.1-9.7-12.14-13.85-15.22-4.2Z"/><path class="cls-1" d="M398.35,627.39c-8.58-2.49-18.11,2.58-22.7,10.24s-4.94,17.24-3.16,26a10.87,10.87,0,0,0,1.34,3.82c1.48,2.28,4.35,3.28,7.06,3.45,8,.52,15.58-5.05,19.17-12.24s3.78-15.64,2.51-23.58c-3.15-19.62-29.34,10.15-28.22,22,.34,3.56,2.21,7.46,5.69,8.24,2.48.55,5-.66,7.09-2.14A26.81,26.81,0,0,0,397.2,635.3c-.16-.62-.42-1.32-1-1.54a2,2,0,0,0-1.52.27,18,18,0,0,0-9.83,15c0,.89,1.06,2.07,1.39,1.24a6.83,6.83,0,0,1-2.5,3.61"/><path class="cls-1" d="M385.58,800.17c4.68,7.86,13.86,15.41,22.16,11.53,3.19-1.49,5.46-4.42,7.21-7.47,9.12-15.9,6.73-35.61,9.93-53.66,1.83-10.33,5.54-20.25,7.36-30.58s1.51-21.62-4.12-30.47c-3.61-5.66-12-11.13-18.8-7.87a20.57,20.57,0,0,0-5.61,4.55q-4.95,5.1-9.79,10.3c-11.48,12.33-21.42,26.69-21.18,43.91C373,760.58,375,782.49,385.58,800.17Z"/><path class="cls-1" d="M485.65,628.34C464.9,656.89,433,684.5,440.91,723.81c1.62,8,5.64,18.13,13.29,22.16,7.91,4.17,17.15,1,23.49-4.49,12.92-11.27,12.31-30,18.24-44.72,3.21-8,9.3-14.42,13.93-21.56a55.37,55.37,0,0,0,8.92-27.07c.44-7.67-1.39-16.13-7.35-21.41-6.69-5.93-16.12-4.69-22.45,1-6,5.43-9.17,13.62-13.49,20.31-5.09,7.88-10.78,15.37-15.74,23.34C450.17,686.83,443,706,448.12,724.21c1.39,5,3.76,10.42,9.09,12.1s10.8-.8,14.71-4.4c7.47-6.88,10.37-18.07,14-27.19l26.82-66.35c1.05-2.6-.27-5.78-2-7.68-6.93-7.48-17.1-3.55-22.24,3.69-5.6,7.86-9.91,17.06-14.38,25.59a579.53,579.53,0,0,0-25.07,54.93c-1.57,4,1.72,8.67,5.51,9.71,4.49,1.23,8.13-1.53,9.71-5.51q8.31-20.93,18.34-41.09,5-10.11,10.47-20,2.49-4.54,5.07-9c.9-1.57,1.76-3.2,2.75-4.71q.44-.75.9-1.48,2.12-1.66-2.24-.91l-2-7.68L478.2,682.1l-9.68,24c-1.82,4.49-4.14,14.33-9.75,15.36H463l-.79-.39,2.83,2.83c-5.8-8.57-2.27-22.27,1.25-31,4.3-10.69,11.47-20.08,18-29.5,3.16-4.58,6.27-9.21,9-14,1.67-2.92,3.86-9.09,7.17-10.66.86-.41.51-.66,1.22.62a12.65,12.65,0,0,1,1.38,4.39c.74,5.56-.87,12-3.1,17-4.33,9.78-12.6,17.21-17.11,26.91-4.39,9.42-5.74,19.6-8.79,29.44-1.34,4.35-8.93,21.31-14.32,12.48-5.28-8.66-5-20-2.63-29.48,6.26-25.25,27.42-43.41,42.21-63.76,2.51-3.45.59-8.8-2.83-10.8-4-2.33-8.29-.63-10.8,2.83Z"/><path class="cls-1" d="M509.64,487.74c-8.8,4.34-14.07,12.74-17.83,21.48-2.1,4.87-4,9.83-5.94,14.76-2.27,5.73-5.1,11.52-6.6,17.51-2.9,11.55,2.65,20.5,5.13,31.4,2.17,9.54-.78,19.24,1.39,28.63,2.6,11.2,12.75,14,22.88,11.53,10.71-2.66,20.14-7.12,25.9-17,5.36-9.17,7.86-20.44,10-30.73a205,205,0,0,0,4.3-34.79c.4-11.05,1-23.66-4.25-33.77-4.81-9.36-15-15.12-25.54-12.61-10.72,2.57-17.45,11.6-22.17,20.93-5.07,10-8.94,20.51-9.84,31.78-.94,11.83,1.57,23.76,3.46,35.39l2.86,17.65c.87,5.36,1.85,10.61,7.16,13.27,11.15,5.59,20.1-10.68,23.85-18.76,4.61-9.94,7.44-20.63,9.44-31.38,2.35-12.66,3.92-26,3.16-38.89-.29-5-1.48-10.36-5.18-14a12.94,12.94,0,0,0-15.5-1.85c-5.1,3-7.49,8.46-9.64,13.67a87.28,87.28,0,0,0-5.23,17.66,97.4,97.4,0,0,0,.66,38.23c1.56,7.24,10.78,7,14.43,1.89,10.5-14.58,13.93-32.74,10.62-50.27-1.1-5.85-9.34-7.59-13.19-3.48a60.93,60.93,0,0,0-14,59.19,8,8,0,0,0,13.19,3.48A46.91,46.91,0,0,0,527,542.52c-.54-8.27-10-10.15-14.71-4a49.36,49.36,0,0,0-9.61,35.71c1,7.63,10.06,10.91,14.71,4,5.1-7.6,6.41-16.37,4.78-25.27-1.19-6.48-9-6.77-13.19-3.48-6,4.78-8.08,12.75-6.19,20,2.54,9.83,17.77,5.66,15.22-4.2-.58-2.26.41-3.32,2.13-4.68L507,557.15c.88,4.78-.54,9.15-3.19,13.1l14.71,4A36.64,36.64,0,0,1,526,546.5l-14.71-4a31.47,31.47,0,0,1-9.21,25L515.23,571a44.85,44.85,0,0,1,9.92-43.83L512,523.7c2.55,13.51-1.07,27-9,38.1l14.43,1.89a78,78,0,0,1,.65-35.84,83.88,83.88,0,0,1,2.62-8.38c.7-1.87,3.15-5.15,3.25-7l.48-.56q-4.42-2.3-3.64-.45c-.16.42.52,1.24.42,1.7-.48,2.37.18,5.68.15,8.14a166.6,166.6,0,0,1-4.82,37.58,105.51,105.51,0,0,1-5.14,16.39c-1.89,4.4-4.93,11.63-9.28,14.16l4-1.08-1.48.13,4,1.08,1,1.27q-.24-1.07-.4-2.16c-.28-1.63-.53-3.27-.8-4.9l-1.43-8.83c-1.1-6.75-2.32-13.5-3.24-20.28-1.59-11.74-1-22.7,3.35-33.79,2.64-6.68,8.17-21.74,17.32-21.54,10.32.23,9,19.08,8.91,25.58a181.62,181.62,0,0,1-3.67,35.33q-1.71,8.31-4.15,16.44c-1.47,4.88-3,10.22-6.36,14.2s-8.21,5.27-13,6.54c-1.46.39-3.9,1.56-5.42,1,1.4.48.32-1.21.24-2.78-.24-4.48.62-9,.47-13.49a69,69,0,0,0-2.89-17.76c-1.64-5.39-5.15-11.15-4.4-16.95.84-6.52,4.61-13.22,7-19.29,3.68-9.31,6.79-22,16.51-26.8,9.11-4.49,1.12-18.11-8-13.63Z"/><path class="cls-1" d="M521.77,692.27A21.57,21.57,0,0,0,508,703.59c-3.22,6.22-3.25,13.07-4.21,19.84a48.55,48.55,0,0,1-14.66,28.25c-9.16,8.72-21.06,11.27-32.35,16.09-11.49,4.91-20.39,12.89-24.71,24.81-8.18,22.52,2.5,58.32,31.76,53.72,27.8-4.37,40.43-33.33,49.25-56.49,11-28.95,29.15-57.26,24.16-89.46-.68-4.38-5.94-6.33-9.71-5.51-8.68,1.88-13.08,10.24-14.54,18.35-1.51,8.39-2.21,16.83-4.28,25.14-2,7.9-4.73,15.79-9.66,22.37-5.26,7-12.72,10.65-20.75,13.64-9.06,3.38-18.46,6.66-25.29,13.84-6.25,6.57-10.34,15.46-8.73,24.63,1.67,9.51,9.85,16.92,19.74,15.81,10.71-1.2,16.77-9.95,20.33-19.28,2-5.15,3.71-10.91-.06-15.73s-10.29-4.77-15.54-2.56c-10.12,4.25-16.21,14-16.91,24.72-.2,3.1,2.57,7.12,5.79,7.61,17.49,2.65,35.58-11.55,33.64-30.18-.41-3.93-3.3-8.32-7.89-7.89-11,1-19.89,9.62-19.42,21.07.17,4.07,3.48,8.16,7.89,7.89,15.58-.93,27.43-12.74,28.89-28.18.45-4.72-5.47-9.48-10-7.61-6.42,2.65-10.24,7.29-10.54,14.4-.26,6.16,6.85,9.6,11.88,6.82a21.92,21.92,0,0,0,10.65-13.58c1.87-6.65-5.67-12.36-11.6-8.91-7.86,4.57-11.3,12.46-15.41,20.13-1.36,2.55-2.93,5.84-5.63,7.25-4.7,2.45-11.45.38-16.61,1.93-9.74,2.94-17.76,15.27-9.16,23.92,7.54,7.59,19.61,4.35,23.45-5a7.6,7.6,0,0,0-2-7.68c-6.6-5.38-15.4-2.17-17.16,6.23-1.86,8.9,7.28,14.15,15.07,12.52,13.78-2.9,25.22-20.21,19.67-33.73l-9.71,9.71a16.2,16.2,0,0,0,19.51-7.89c4.61-9-9-17-13.63-8-.77,1.5-.33,1.1-1.68.63-5.3-1.84-12,4.2-9.71,9.71,1.39,3.39.84,6.11-1.33,9.07a16.76,16.76,0,0,1-3.08,3.17c-.76.6-2,1-2.64,1.61s-.86-.33-.2.14l2.83,2.83.13.19v4.2q-.4,0-.23.35l-3.48,2,.75-.27h-4.2l.74.1-3.48-2,.67.55-2-7.68c-.12.29,1.21-2.52,2.14-2.4,2.42.31,1.23,3.63,1.59,3.74.17,0,1-.8,1.4-.83,1.93-.15,3.79-.47,5.78-.52C470.55,821,477,820,482.32,815c3.84-3.54,6.33-8.26,8.66-12.86,2.08-4.11,4-8.92,8.14-11.33l-11.6-8.91a6,6,0,0,1-3.4,4.15L496,792.88a1.35,1.35,0,0,1-1,.83l-10-7.61c-.62,6.51-6.7,12-13.11,12.39l7.89,7.89c-.09-2.27.94-5,3.63-5.28l-7.89-7.89c.76,7.31-5.4,16.21-13.66,15l5.79,7.61a12.08,12.08,0,0,1,2.69-6.8,11.89,11.89,0,0,1,2.38-2.24,14.28,14.28,0,0,1,1.8-1.07q1.58-.44-.4-.46l-2.83-2.83.54,1.09-1.08-4c.24,3.15-4.48,15-9,13.63-5.21-1.57-.39-10.45,1.42-12.68,4.81-5.93,12.42-8.3,19.31-10.87,7.3-2.72,14.33-5.64,20.47-10.5,11-8.69,17.13-21.87,20.61-35.14a167.76,167.76,0,0,0,3.72-19.85c.44-3.24.39-13.13,4.43-14L522,704.54c3.57,23-9.39,45.34-18.06,65.76-8.22,19.36-13.62,44.87-32.92,56.62-4,2.45-9.25,4.74-14.08,4.05-4.62-.66-7.5-4.51-9.25-8.54a34.53,34.53,0,0,1-.1-26.46c4.19-9.52,13.47-13.28,22.66-16.56,10.12-3.6,19.58-7.52,27.82-14.59a64.53,64.53,0,0,0,18.54-27.6c2-5.57,2.67-11.32,3.29-17.16.47-4.37.9-11.29,6.06-12.58,9.85-2.47,5.68-17.7-4.2-15.22Z"/><path class="cls-1" d="M536.76,391.53c-17.8,6.17-23.42,25.16-22.44,42.45.51,9,5.47,15,14.22,17.35a37.41,37.41,0,0,0,25-1.93c14.95-7,18.75-25,14.81-39.81-2.16-8.11-6.57-15.7-14.44-19.3-7.23-3.31-15.67-3.15-23.43-2.34-9.83,1-15.71,6.67-20.15,15.18-4.16,8-7.33,17.68-6.79,26.78,1,17.23,20.49,24.45,35.45,24.17,8.32-.15,16.1-3.87,19.82-11.6,4-8.37,2.22-17.64-1.07-25.92-3-7.52-7.49-14.75-16.19-16s-16.2,3.88-21,10.7c-5,7.17-11.11,19.15-3.44,26.59,6.36,6.16,19.5,5,26.41.52,7.74-5,11.28-17,3.43-23.58-9.14-7.62-19.65,3.91-23.43,11.8-2.37,4.95.42,11.37,6.48,11.29,11.16-.15,18.5-12.7,12.68-22.41-5-8.27-17.93-.74-13,7.57-.11-.18.17-.16.27-.16l6.48,11.29c1.14-2.37,3.16-6.54,6-7.15h-4q-2.15-.69-2-2.28.08-.78-.46.52c-1.29.48-1.75,1.15-3.31,1.45-1.38.26-3.11-.29-4.38.12-.77.25-.87-.33-.84-.26l1,3.79c-.53-4,5.56-16.47,11-15,2.4.68,3.54,4.59,4.34,6.69,1.37,3.61,2.95,7.85,2.14,11.77-1.5,7.23-10.41,5.37-15.71,4.1-7.13-1.71-12.6-4.31-11.64-12.51a43.84,43.84,0,0,1,3.44-12.4c1.34-3,3.48-8.2,6.7-9.71,2.84-1.34,7.67-.88,10.72-.85,3.25,0,7,.23,9.66,2.27,5.11,3.87,6.29,13.48,5.55,19.4-.82,6.5-4.73,11.48-11.23,12.94a22.73,22.73,0,0,1-11.64-.44c-3.81-1.25-2.68-5.09-2.57-8.62.26-8.28,2.59-19,11.47-22.06,9.06-3.14,5.17-17.64-4-14.46Z"/></g></g></svg>