<svg xmlns="http://www.w3.org/2000/svg" viewBox="0 0 866 650"><defs><style>.cls-1{fill:#cadeef;}.cls-13,.cls-2{fill:#e2ecf7;}.cls-17,.cls-3{fill:#e11dca;}.cls-4{fill:#d84ece;}.cls-5{fill:#e079d9;}.cls-6{fill:none;}.cls-13,.cls-15,.cls-16,.cls-17,.cls-6{stroke:#3c4858;stroke-miterlimit:10;stroke-width:3.92px;}.cls-16,.cls-7{fill:#1fffe0;}.cls-8{fill:#87f4df;}.cls-9{fill:#baf4e9;}.cls-10,.cls-15{fill:#1fb6ff;}.cls-11{fill:#51c6f4;}.cls-12{fill:#9adff4;}.cls-14{fill:#3c4858;}</style></defs><title>Asset 2</title><g id="Layer_2" data-name="Layer 2"><g id="Layer_1-2" data-name="Layer 1"><rect class="cls-1" width="866" height="650"/><path class="cls-2" d="M168.06,406.37H145.2a25,25,0,1,1,0-50.09h22.87Z"/><rect class="cls-3" x="230.21" y="364.12" width="51.11" height="34.27" transform="translate(637.01 125.49) rotate(90)"/><rect class="cls-4" x="196" y="365.23" width="49.83" height="34.27" transform="translate(603.27 161.45) rotate(90)"/><rect class="cls-5" x="161.09" y="364.99" width="51.11" height="34.27" transform="translate(568.77 195.48) rotate(90)"/><path class="cls-6" d="M272.17,406.37h-127a25,25,0,1,1,0-50.09h127Z"/><line class="cls-6" x1="237.9" y1="357.59" x2="237.9" y2="405.94"/><line class="cls-6" x1="203.2" y1="356.72" x2="203.2" y2="405.06"/><line class="cls-6" x1="168.5" y1="356.28" x2="168.5" y2="404.63"/><circle class="cls-6" cx="143.45" cy="381.33" r="7.62"/><path class="cls-2" d="M179.89,380.35l-16.17,16.17A25,25,0,1,1,128.3,361.1l16.17-16.17Z"/><rect class="cls-7" x="198.58" y="283.44" width="51.11" height="34.27" transform="translate(278.19 -70.45) rotate(45)"/><rect class="cls-8" x="175.42" y="308.73" width="49.46" height="34.27" transform="translate(289.04 -46.08) rotate(45)"/><rect class="cls-9" x="150.33" y="332.93" width="51.11" height="34.27" transform="translate(299.04 -21.84) rotate(45)"/><path class="cls-6" d="M253.5,306.73l-89.78,89.78A25,25,0,1,1,128.3,361.1l89.78-89.78Z"/><line class="cls-6" x1="194.77" y1="296.47" x2="228.96" y2="330.65"/><line class="cls-6" x1="169.62" y1="320.39" x2="203.81" y2="354.58"/><line class="cls-6" x1="144.77" y1="344.62" x2="178.96" y2="378.81"/><circle class="cls-6" cx="144.77" cy="380.04" r="7.62" transform="translate(-226.32 213.68) rotate(-45)"/><path class="cls-2" d="M169.52,358.16V381a25,25,0,1,1-50.09,0V358.16Z"/><rect class="cls-10" x="118.85" y="253.33" width="51.11" height="34.27"/><rect class="cls-11" x="120.59" y="288.18" width="48.63" height="34.27"/><rect class="cls-12" x="119.72" y="322.45" width="51.11" height="34.27"/><path class="cls-6" d="M169.52,254.06V381a25,25,0,1,1-50.09,0v-127Z"/><line class="cls-6" x1="120.73" y1="288.33" x2="169.08" y2="288.33"/><line class="cls-6" x1="119.86" y1="323.03" x2="168.21" y2="323.03"/><line class="cls-6" x1="119.43" y1="357.73" x2="167.78" y2="357.73"/><circle class="cls-6" cx="144.47" cy="382.77" r="7.62"/><path class="cls-6" d="M373.51,336.21S364,263,440.66,263"/><circle class="cls-13" cx="440.66" cy="262.96" r="5.88"/><path class="cls-6" d="M373.51,324.81s-9.51,73.25,67.15,73.25"/><circle class="cls-13" cx="440.66" cy="398.06" r="5.88"/><path class="cls-13" d="M375.9,331.14l45.59-39.49s31.07,23.81,42.11,25v16.55"/><path class="cls-13" d="M375.9,330.26l45.59,39.49s31.07-23.81,42.11-25V332.3"/><line class="cls-6" x1="377.93" y1="330.51" x2="434.85" y2="330.51"/><circle class="cls-14" cx="437.75" cy="330.51" r="5.37"/><polyline class="cls-15" points="499.53 336 499.53 305.51 463.81 317.13 463.81 344.27 499.53 355.89 499.53 325.4"/><circle class="cls-13" cx="373.51" cy="330.51" r="5.88"/><rect class="cls-13" x="599.42" y="258.64" width="143.73" height="143.73" rx="5.29" ry="5.29"/><line class="cls-13" x1="600.91" y1="288.42" x2="742.91" y2="288.42"/><circle class="cls-15" cx="690.5" cy="273.46" r="5.88"/><circle class="cls-16" cx="709.23" cy="273.46" r="5.88"/><circle class="cls-17" cx="727.96" cy="273.46" r="5.88"/><rect class="cls-3" x="607.43" y="297.89" width="59.67" height="5.05" rx="2.52" ry="2.52"/><rect class="cls-10" x="670.44" y="297.89" width="59.67" height="5.05" rx="2.52" ry="2.52"/><rect class="cls-7" x="607.43" y="310.36" width="59.67" height="5.05" rx="2.52" ry="2.52"/><rect class="cls-3" x="670.44" y="310.36" width="29.2" height="5.05" rx="2.52" ry="2.52"/><rect class="cls-7" x="703.76" y="310.36" width="29.2" height="5.05" rx="2.52" ry="2.52"/><rect class="cls-3" x="607.43" y="322.84" width="92.74" height="5.05" rx="2.52" ry="2.52"/><rect class="cls-3" x="607.43" y="335.32" width="35.74" height="5.05" rx="2.52" ry="2.52"/><rect class="cls-10" x="647.36" y="335.32" width="29.2" height="5.05" rx="2.52" ry="2.52"/><rect class="cls-7" x="680.24" y="335.32" width="29.2" height="5.05" rx="2.52" ry="2.52"/><rect class="cls-7" x="607.43" y="347.79" width="81.02" height="5.05" rx="2.52" ry="2.52"/><rect class="cls-10" x="692.32" y="347.79" width="41.52" height="5.05" rx="2.52" ry="2.52"/><rect class="cls-3" x="607.43" y="360.27" width="65.31" height="5.05" rx="2.52" ry="2.52"/><rect class="cls-7" x="676.76" y="360.27" width="38.11" height="5.05" rx="2.52" ry="2.52"/><rect class="cls-10" x="607.43" y="372.74" width="59.67" height="5.05" rx="2.52" ry="2.52"/><rect class="cls-10" x="607.43" y="385.22" width="59.67" height="5.05" rx="2.52" ry="2.52"/><rect class="cls-7" x="672.62" y="385.22" width="29.2" height="5.05" rx="2.52" ry="2.52"/><rect class="cls-3" x="705.94" y="385.22" width="29.2" height="5.05" rx="2.52" ry="2.52"/></g></g></svg>