<?xml version="1.0" encoding="utf-8"?>
<!-- Generator: Adobe Illustrator 20.1.0, SVG Export Plug-In . SVG Version: 6.00 Build 0)  -->
<svg version="1.1" id="purple" xmlns="http://www.w3.org/2000/svg" xmlns:xlink="http://www.w3.org/1999/xlink" x="0px" y="0px"
	 viewBox="0 0 4000 1200" style="enable-background:new 0 0 4000 1200;" xml:space="preserve">
<style type="text/css">
	.st0{fill:none;enable-background:new    ;}
</style>
<image style="overflow:visible;" width="2000" height="600" xlink:href="9E4B3E93B5F071AE.png"  transform="matrix(1 0 0 1 1000 300)">
</image>
<path class="st0" d="z"/>
<image style="overflow:visible;" width="4000" height="1200" xlink:href="9E4B3E93B5F071B2.png" >
</image>
<path class="st0" d="z"/>
<g>
	
		<image style="overflow:visible;" width="1277" height="932" xlink:href="9E4B3E93B5F071B5.png"  transform="matrix(1 0 0 1 11 -242)">
	</image>
	<path class="st0" d="z"/>
</g>
<g id="Layer_8_copy">
	
		<image style="overflow:visible;" width="1277" height="932" xlink:href="9E4B3E93B5F071B6.png"  transform="matrix(1 0 0 1 610 -242)">
	</image>
	<path class="st0" d="z"/>
</g>
<g id="Layer_8_copy_2">
	
		<image style="overflow:visible;" width="1277" height="932" xlink:href="9E4B3E93B5F071B4.png"  transform="matrix(1 0 0 1 1210 -242)">
	</image>
	<path class="st0" d="z"/>
</g>
<g id="Layer_8_copy_3">
	
		<image style="overflow:visible;" width="1277" height="932" xlink:href="9E4B3E93B5F071B3.png"  transform="matrix(1 0 0 1 1809 -242)">
	</image>
	<path class="st0" d="z"/>
</g>
<g id="Layer_8_copy_4">
	
		<image style="overflow:visible;" width="1277" height="932" xlink:href="9E4B3E93B5F071BD.png"  transform="matrix(1 0 0 1 2408 -242)">
	</image>
	<path class="st0" d="z"/>
</g>
<g id="Layer_8_copy_5">
	
		<image style="overflow:visible;" width="1277" height="932" xlink:href="9E4B3E93B5F071BE.png"  transform="matrix(1 0 0 1 3008 -242)">
	</image>
	<path class="st0" d="z"/>
</g>
<g id="Layer_8_copy_6">
	
		<image style="overflow:visible;" width="1277" height="932" xlink:href="9E4B3E93B5F071BC.png"  transform="matrix(1 0 0 1 3607 -242)">
	</image>
	<path class="st0" d="z"/>
</g>
<image style="overflow:visible;" width="1277" height="932" xlink:href="E0E00B594BC06E71.png"  transform="matrix(1 0 0 1 2931 510)">
</image>
<path class="st0" d="z"/>
<g id="Layer_8_copy-2">
	
		<image style="overflow:visible;" width="1277" height="932" xlink:href="E0E00B594BC06E77.png"  transform="matrix(1 0 0 1 2332 510)">
	</image>
	<path class="st0" d="z"/>
</g>
<image style="overflow:visible;" width="1277" height="932" xlink:href="E0E00B594BC06E70.png"  transform="matrix(1 0 0 1 1732 510)">
</image>
<path class="st0" d="z"/>
<g id="Layer_8_copy_3-2">
	
		<image style="overflow:visible;" width="1277" height="932" xlink:href="E0E00B594BC06E73.png"  transform="matrix(1 0 0 1 1133 510)">
	</image>
	<path class="st0" d="z"/>
</g>
<image style="overflow:visible;" width="1277" height="932" xlink:href="E0E00B594BC06E6F.png"  transform="matrix(1 0 0 1 534 510)">
</image>
<path class="st0" d="z"/>
<g id="Layer_8_copy_5-2">
	
		<image style="overflow:visible;" width="1277" height="932" xlink:href="E0E00B594BC06E8F.png"  transform="matrix(1 0 0 1 -66 510)">
	</image>
	<path class="st0" d="z"/>
</g>
<g id="Layer_8_copy_6-2">
	
		<image style="overflow:visible;" width="1277" height="932" xlink:href="E0E00B594BC06E91.png"  transform="matrix(1 0 0 1 -665 510)">
	</image>
	<path class="st0" d="z"/>
</g>
<g>
	
		<image style="overflow:visible;" width="563" height="583" xlink:href="E0E00B594BC06E93.png"  transform="matrix(1 0 0 1 35 291)">
	</image>
	<path class="st0" d="z"/>
</g>
<g id="Layer_9_copy">
	
		<image style="overflow:visible;" width="563" height="583" xlink:href="E0E00B594BC06E90.png"  transform="matrix(1 0 0 1 630 291)">
	</image>
	<path class="st0" d="z"/>
</g>
<g id="Layer_9_copy_2">
	
		<image style="overflow:visible;" width="563" height="583" xlink:href="E0E00B594BC06E97.png"  transform="matrix(1 0 0 1 1228 297)">
	</image>
	<path class="st0" d="z"/>
</g>
<g id="Layer_9_copy_3">
	
		<image style="overflow:visible;" width="563" height="583" xlink:href="E0E00B594BC06EB4.png"  transform="matrix(1 0 0 1 1833 297)">
	</image>
	<path class="st0" d="z"/>
</g>
<g id="Layer_9_copy_4">
	
		<image style="overflow:visible;" width="563" height="583" xlink:href="E0E00B594BC06EB7.png"  transform="matrix(1 0 0 1 2428 297)">
	</image>
	<path class="st0" d="z"/>
</g>
<g id="Layer_9_copy_5">
	
		<image style="overflow:visible;" width="563" height="583" xlink:href="E0E00B594BC06EB5.png"  transform="matrix(1 0 0 1 3032 297)">
	</image>
	<path class="st0" d="z"/>
</g>
<g id="Layer_9_copy_7">
	
		<image style="overflow:visible;" width="563" height="583" xlink:href="E0E00B594BC06EBB.png"  transform="matrix(1 0 0 1 3632 288)">
	</image>
	<path class="st0" d="z"/>
</g>
</svg>
