<svg xmlns="http://www.w3.org/2000/svg" viewBox="0 0 499.7 82.4"><defs><style>.cls-1{fill:#0092ff;}.cls-2{fill:#fff;}.cls-3{fill:#0068ff;}.cls-4{fill:#333;}</style></defs><title>Asset 1</title><g id="Layer_2" data-name="Layer 2"><g id="Presentation"><path class="cls-1" d="M110.1,69S91.82,85.32,54.88,81.94C17.74,76.59,0,55.65,0,55.65L12.07,52l13.82-4.19A94.13,94.13,0,0,1,17.44,39,65.65,65.65,0,0,1,8.18,25.22l9.32-2.64,13.63-3.87c-1.25-2.46-2.28-4.27-3.13-6.37A63.07,63.07,0,0,1,24.15,0H74.79s.62,56,35.3,69Z"/><path class="cls-2" d="M110,69.12"/><path class="cls-3" d="M88.85,66.88h0c0-.05-.2-.11-.41-.17-.06,0,0,0-.08-.05h0l-.84-.23h0a91.68,91.68,0,0,1-31-15.82A109,109,0,0,1,42,35.6l0,0a8.33,8.33,0,0,1-1-1.33l.53-.23h0a.32.32,0,0,0,0,.06s0,0,0,0l.15.19.11.13.43.49s0,0,0,0l.45.5.27.31.63.68.35.38A132.19,132.19,0,0,0,59.47,50.94l.93.7c7.78,5.89,17.28,11.78,28.06,15.06C88.66,66.76,88.85,66.82,88.85,66.88Z"/><path class="cls-3" d="M89.51,66.94l.41.12L89.51,67h0Z"/><path class="cls-3" d="M109.38,69a42.89,42.89,0,0,1-7.56-1.35l-.77-.22c-.54-.15-1.09-.33-1.63-.5s-1.08-.37-1.61-.56a55.48,55.48,0,0,1-7-3.15l-.68-.37c-.69-.37-1.36-.76-2-1.16l-.74-.45q-1.62-1-3.19-2.07c-.4-.27-.78-.54-1.16-.82l-.71-.51-1.39-1c-.7-.53-1.38-1.07-2.06-1.63l-.67-.56-.9-.75-1.1-1c-.44-.38-.87-.77-1.3-1.16L74,51l-.43-.4-.63-.6-.63-.6-1.23-1.21c-.61-.61-1.21-1.22-1.8-1.84l-.59-.61c-.39-.41-.78-.83-1.15-1.24L67,43.91l-1.12-1.25L65.31,42c-1.82-2.08-3.53-4.16-5.12-6.19l-.94-1.21q-1.09-1.42-2.1-2.79l-1-1.34c-.41-.57-.82-1.13-1.2-1.69l-.38-.56a.42.42,0,0,1-.06-.09L53.8,27.1,52.42,25l-.6-.92,0-.07-.58-.9c-2.9-4.53-4.65-7.73-5-8.44l-.06-.11,0,0L31.22,18.88h0l-.06-.14C29.89,16.27,28.86,14.16,28,12l-.06-.17s0,.05,0,0V12h0L52.49,5S73.55,61.6,109.38,69Z"/><path class="cls-3" d="M110,69.13h-.16l0,0H110Z"/><path class="cls-3" d="M110.09,69.11l0,0h0Z"/><path class="cls-3" d="M109.38,69a42.89,42.89,0,0,1-7.56-1.35l-.77-.22c-.54-.15-1.09-.33-1.63-.5s-1.08-.37-1.61-.56a55.48,55.48,0,0,1-7-3.15l-.68-.37c-.69-.37-1.36-.76-2-1.16l-.74-.45q-1.62-1-3.19-2.07c-.4-.27-.78-.54-1.16-.82l-.71-.51-1.39-1c-.7-.53-1.38-1.07-2.06-1.63l-.67-.56-.9-.75-1.1-1c-.44-.38-.87-.77-1.3-1.16L74,51l-.43-.4-.63-.6-.63-.6-1.23-1.21c-.61-.61-1.21-1.22-1.8-1.84l-.59-.61c-.39-.41-.78-.83-1.15-1.24L67,43.91l-1.12-1.25L65.31,42c-1.82-2.08-3.53-4.16-5.12-6.19l-.94-1.21q-1.09-1.42-2.1-2.79l-1-1.34c-.41-.57-.82-1.13-1.2-1.69l-.38-.56a.42.42,0,0,1-.06-.09L53.8,27.1,52.42,25l-.6-.92,0-.07-.58-.9c-2.9-4.53-4.65-7.73-5-8.44l-.06-.11,0,0L31.22,18.88h0l-.06-.14C29.89,16.27,28.86,14.16,28,12l-.06-.17s0,.05,0,0V12h0L52.49,5S73.55,61.6,109.38,69Z"/><path class="cls-3" d="M109.76,69h-.12a.3.3,0,0,1,0,.07l0,0-.05,0c-35.8,7.65-71.83-24.93-71.83-24.93L35,45.06c-2.28-2.16-4.34-4.33-6.18-6.44l-.48-.55,0,0,12.63-4s0-.08,0-.08h.54s0,.06,0,.06l0,.09a1,1,0,0,1,.15.18l.11.12.27.3v0l.16.17.19.22h0l.25.27.27.31.63.68.35.38a0,0,0,0,1,0,0s0,0,0,.07l0,0v0h0V37h0v.09s.17.05.19.08.12.07.15.1.08.06.1.09l.07.09s0,0,0,0a.08.08,0,0,1,0,0s-.28,0-.27,0-.28,0-.28,0h0c2,2,5,4.68,8.37,7.64,1.11,1,2.42,2,3.66,3l.11,0C64.14,55,75.07,62.45,87.5,66.41h.06l.93.29h.17l.57.17h-.39V67h.66v0l.41.1c.7.17,1.38.3,2,.45.9.2,1.77.36,2.62.52s1.61.28,2.38.39H97c1.55.24,3,.41,4.3.52a50.12,50.12,0,0,0,8.34.14h.07s0-.07,0-.06S109.76,69,109.76,69Z"/><path class="cls-3" d="M109.84,69.09l-.11,0h-.06l-.29-.06.43,0Z"/><path class="cls-3" d="M110,69.13h-.18l0,0H110Z"/><path class="cls-3" d="M110,69.11h0S110,69.12,110,69.11Z"/><circle class="cls-3" cx="110.01" cy="69.1" transform="translate(-16.27 99.59) rotate(-45.71)"/><path class="cls-3" d="M108.85,69.13h.57s.06,0,0,0c-35.8,7.65-71.78-24.94-71.78-24.94l-2.75.85-9.06,2.75a92.86,92.86,0,0,1-6.86-7L28.27,38l12.63-4s0-.08,0-.08h.54s0,.06,0,.06l0,.09.9,1,.38.42.11.14,0,0,1,1.07h0s0,0,0,.07l0,0v0h0s0,0,.06,0h-.06s0,0,0,0h0s0,0,0,0l.1,0s.1-.08.12-.05.05-.06.08-.06h0s0,.15,0,.16a1.38,1.38,0,0,1,.08.16,1.27,1.27,0,0,1,.06.13.21.21,0,0,1,0,.05.12.12,0,0,1,0,0s-.28,0-.28,0-.28,0-.28,0h0a2.56,2.56,0,0,1,1.41,1s.17,0,.18,0c1.6,1.48,3.4,3.23,5.42,5.13.51.48,1.07,1,1.61,1.47.92.84,1.93,1.71,3,2.58.17.14.38.28.57.43l0,0,.24.18c8.27,6.82,19.48,14.29,32.14,18.16h0l.15,0h0l0,0s0,.09,0,.09c.17.05.35.22.51.22h0v-.1s-.21,0-.21,0a1.09,1.09,0,0,0-.2,0v-.11h0v.12a.2.2,0,0,1,0,0s0,0,0,0V67h.66v0l.41.1c.7.17,1.38.3,2,.45.9.2,1.77.36,2.62.52s1.61.28,2.38.39H97c1.55.24,3,.41,4.3.52a45.79,45.79,0,0,0,7.72.18C109.12,69.13,108.85,69.13,108.85,69.13Z"/><path class="cls-3" d="M110,69.13h0Z"/><path class="cls-3" d="M110.08,69.05H110a.06.06,0,0,0,0,0h.08Z"/><path class="cls-3" d="M109.56,69h0c-6.76,1-13.34-.29-19.6-2.06-.14,0-.28,0-.41,0V67h0c-.05,0-.11-.06-.16-.07s0-.06,0-.06,0,0-.07-.05l0,0c-11-3.23-20.88-9.19-28.81-15.14l-.93-.71c-1.07-.82-2.1-1.64-3.1-2.44l-.77-.63c-1.69-1.39-3.25-2.75-4.67-4-2.1-1.9-3.89-3.65-5.35-5.13l0,0c-.31-.32-.89-.62-1.16-.91l-.53-.1h0s.28,0,.28,0,.14,0,.14,0,.06,0,.06,0,0,0,0,0,0-.07,0-.09a1.21,1.21,0,0,0-.06-.12s0-.15,0-.15V37h0c-.06,0-.14.09-.17.06s-.15,0-.19,0,0,0,0,0h0s0,0,0,0,0,0,0,0,0,0,0,0,0,0,0,0,0,0,0,0l0,0,0,0h0v-.11c0-.14-.2-.26-.31-.38s-.4-.46-.59-.66l0,0-.11-.13-.38-.44h0L42.12,35s-.27-.06-.27-.09H42s0,0,0-.07l0,0s0,0,0-.06,0,0,0,0l-.17-.21-.09-.11-.11-.12-.15-.18,0,0a.74.74,0,0,1,0-.15L41,34h0L28.29,37.94l0,.07L19,40.82c.74.83,1.52,1.71,2.35,2.57.56.58,1.12,1.17,1.71,1.76.89.87,1.82,1.74,2.8,2.63L34.95,45h0l2.77-1h0s23.7,21.55,51.75,25.57c.48.07,1,.18,1.46.24a58.44,58.44,0,0,0,12.95.26A14.12,14.12,0,0,1,105.3,70h0a20.8,20.8,0,0,0,4.23-.78s0-.1.05-.12S109.58,69,109.56,69Zm.09.13h0Z"/><path class="cls-3" d="M110,69.1h0Z"/><path class="cls-3" d="M110,69.08h0Z"/><path class="cls-3" d="M109.73,69.13h0Z"/><path class="cls-3" d="M110,69.12h0Z"/><path class="cls-3" d="M110,69.11h0Z"/><path class="cls-3" d="M110,69.12h0Z"/><path class="cls-3" d="M110.06,69.12h0Z"/><path class="cls-3" d="M110.09,69.13h0Z"/><path class="cls-3" d="M110,69.12"/><path class="cls-4" d="M116.46,47.84A10.28,10.28,0,0,1,127,37.67a10.51,10.51,0,0,1,6.5,2.25.94.94,0,0,1,.13,1.38,1,1,0,0,1-1.38.17A8.32,8.32,0,1,0,127,56.09a8.6,8.6,0,0,0,5.25-1.79,1,1,0,0,1,1.38.17,1,1,0,0,1-.21,1.46A10.54,10.54,0,0,1,127,58.09,10.3,10.3,0,0,1,116.46,47.84Z"/><path class="cls-4" d="M154.22,45.72c0-3.58-2.92-6-6.5-6s-6.46,2.42-6.46,6v11.5c0,.08,0,.13,0,.17s0,.12-.08.17a1,1,0,0,1-.62.5.15.15,0,0,1-.08,0h-.21a1.14,1.14,0,0,1-.79-.33,1.24,1.24,0,0,1-.17-.33.92.92,0,0,1,0-.33V25a1,1,0,1,1,2,0V40.67a8.44,8.44,0,0,1,6.46-3c4.71,0,8.54,3.33,8.54,8V57.09a1,1,0,0,1-2,0Z"/><path class="cls-4" d="M181.06,38.67V57.09a1,1,0,1,1-2,0v-3a9.53,9.53,0,0,1-7.67,4c-5.38,0-9.67-4.63-9.67-10.21s4.29-10.21,9.67-10.21a9.49,9.49,0,0,1,7.67,4v-3a1,1,0,1,1,2,0Zm-2,9.21a8,8,0,0,0-7.67-8.25c-4.17,0-7.67,3.67-7.67,8.25a7.69,7.69,0,1,0,15.34,0Z"/><path class="cls-4" d="M195.93,37.67c5.38,0,9.67,4.67,9.67,10.21s-4.29,10.21-9.67,10.21-9.67-4.67-9.67-10.21S190.6,37.67,195.93,37.67Zm0,18.42a8,8,0,0,0,7.67-8.21c0-4.54-3.5-8.25-7.67-8.25s-7.67,3.71-7.67,8.25A8,8,0,0,0,195.93,56.09Z"/><path class="cls-4" d="M209.35,53.84a1,1,0,0,1,1.42-.13A10.93,10.93,0,0,0,217,56.09a6.16,6.16,0,0,0,3.88-1.25,3.1,3.1,0,0,0,1.54-2.5,3.22,3.22,0,0,0-1.46-2.5,10.14,10.14,0,0,0-4.33-1.5l-.08,0a11.64,11.64,0,0,1-4.63-1.58A4.26,4.26,0,0,1,209.73,43a5.06,5.06,0,0,1,2.21-4,8.79,8.79,0,0,1,5-1.38A11,11,0,0,1,223,39.88a1.06,1.06,0,0,1,.29,1.42,1,1,0,0,1-1.38.29c-1.5-1-3-2-5-2a6.13,6.13,0,0,0-3.88,1.17A3.07,3.07,0,0,0,211.77,43a2.47,2.47,0,0,0,1.17,2,10.28,10.28,0,0,0,4.17,1.42h.08a14.2,14.2,0,0,1,5,1.67,5.1,5.1,0,0,1,2.29,4.17,5.19,5.19,0,0,1-2.33,4.13A8.33,8.33,0,0,1,217,58.09a12.4,12.4,0,0,1-7.54-2.92A.94.94,0,0,1,209.35,53.84Z"/><path class="cls-4" d="M254.11,39.47a2.22,2.22,0,0,1-2.21,2.21,4,4,0,0,0-2.5.79,6.28,6.28,0,0,0-1.92,2,12.79,12.79,0,0,0-1.71,3.5v7.92a2.27,2.27,0,0,1-2.29,2.21,2.22,2.22,0,0,1-2.21-2.21V39.47a2.19,2.19,0,0,1,2.21-2.17,2.23,2.23,0,0,1,2.29,2.17v.29a5.47,5.47,0,0,1,.87-.83,9.14,9.14,0,0,1,5.25-1.63A2.16,2.16,0,0,1,254.11,39.47Z"/><path class="cls-4" d="M255.2,47.68a10.32,10.32,0,0,1,10.17-10.42,10,10,0,0,1,10,9.67v.21a1.15,1.15,0,0,1,0,.38,2,2,0,0,1-2.17,1.67H259.95a5.46,5.46,0,0,0,1.42,2.75,6.45,6.45,0,0,0,4,1.88,6.81,6.81,0,0,0,4.33-1,2.36,2.36,0,0,1,3.13-.13,1.9,1.9,0,0,1,0,2.71,10.53,10.53,0,0,1-7.46,2.75A10.34,10.34,0,0,1,255.2,47.68Zm4.54-2h11.79c-.42-1.67-2.54-4.13-6.17-4.42A5.82,5.82,0,0,0,259.74,45.63Z"/><path class="cls-4" d="M283,23.85a2.54,2.54,0,0,1,2.33,2.69V55.8a2.31,2.31,0,0,1-4.63,0V26.54A2.54,2.54,0,0,1,283,23.85Z"/><path class="cls-4" d="M292.66,55.05a10.4,10.4,0,0,1-2.88-7.33,10.75,10.75,0,0,1,2.88-7.29,9.73,9.73,0,0,1,7.17-3.17,9.22,9.22,0,0,1,7,3.17,10.41,10.41,0,0,1,2.92,7.29,10.09,10.09,0,0,1-2.92,7.33,9.21,9.21,0,0,1-7,3.17A9.73,9.73,0,0,1,292.66,55.05Zm1.67-7.33a6.74,6.74,0,0,0,1.5,4.42,5.64,5.64,0,0,0,4,1.54,5.46,5.46,0,0,0,3.83-1.54,6.4,6.4,0,0,0,1.63-4.42,6.27,6.27,0,0,0-1.63-4.33,5.89,5.89,0,0,0-3.83-1.58,6.06,6.06,0,0,0-4,1.58A6.59,6.59,0,0,0,294.33,47.72Z"/><path class="cls-4" d="M333.59,47.72v8.17a2.22,2.22,0,0,1-2.21,2.21,2.27,2.27,0,0,1-2.17-1.79,9.47,9.47,0,0,1-5.54,1.79,9.68,9.68,0,0,1-7.08-3,10.67,10.67,0,0,1-2.83-7.33,10.52,10.52,0,0,1,2.83-7.33,9.6,9.6,0,0,1,7.08-3.13,9.5,9.5,0,0,1,5.54,1.83,2.26,2.26,0,0,1,2.17-1.83,2.23,2.23,0,0,1,2.21,2.25Zm-4.42,0a6.13,6.13,0,0,0-1.63-4.29,5.15,5.15,0,0,0-3.88-1.71,5,5,0,0,0-3.88,1.71,6.1,6.1,0,0,0-1.58,4.29A6.25,6.25,0,0,0,319.79,52a5.25,5.25,0,0,0,3.88,1.63A5.39,5.39,0,0,0,327.54,52,6.28,6.28,0,0,0,329.17,47.72Z"/><path class="cls-4" d="M359.8,55.84a2.27,2.27,0,0,1-2.25,2.25,2.24,2.24,0,0,1-2.21-1.79,10.17,10.17,0,0,1-5.67,1.79,10.42,10.42,0,0,1,0-20.84A9.86,9.86,0,0,1,355.26,39V26.49a2.3,2.3,0,1,1,4.54,0V55.84Zm-10.13-14a5.4,5.4,0,0,0-3.92,1.71,6,6,0,0,0,0,8.33,5.4,5.4,0,0,0,3.92,1.71,5.33,5.33,0,0,0,3.92-1.71,6,6,0,0,0,0-8.33A5.33,5.33,0,0,0,349.67,41.8Z"/><path class="cls-4" d="M365.51,47.68a10.32,10.32,0,0,1,10.17-10.42,10,10,0,0,1,10,9.67v.21a1.15,1.15,0,0,1,0,.38,2,2,0,0,1-2.17,1.67H370.26a5.46,5.46,0,0,0,1.42,2.75,6.45,6.45,0,0,0,4,1.88,6.81,6.81,0,0,0,4.33-1,2.36,2.36,0,0,1,3.13-.13,1.9,1.9,0,0,1,0,2.71,10.53,10.53,0,0,1-7.46,2.75A10.34,10.34,0,0,1,365.51,47.68Zm4.54-2h11.79c-.42-1.67-2.54-4.13-6.17-4.42A5.82,5.82,0,0,0,370,45.63Z"/><path class="cls-4" d="M410.39,55.84a2.27,2.27,0,0,1-2.25,2.25,2.24,2.24,0,0,1-2.21-1.79,10.17,10.17,0,0,1-5.67,1.79,10.42,10.42,0,0,1,0-20.84A9.87,9.87,0,0,1,405.85,39V26.49a2.3,2.3,0,1,1,4.54,0V55.84Zm-10.13-14a5.4,5.4,0,0,0-3.92,1.71,6,6,0,0,0,0,8.33,5.4,5.4,0,0,0,3.92,1.71,5.33,5.33,0,0,0,3.92-1.71,6,6,0,0,0,0-8.33A5.33,5.33,0,0,0,400.26,41.8Z"/><path class="cls-4" d="M430.14,25a1,1,0,1,1,2,0V57.09a1,1,0,0,1-2,0Z"/><path class="cls-4" d="M454.86,38.67V57.09a1,1,0,0,1-2,0v-3a9.53,9.53,0,0,1-7.67,4c-5.38,0-9.67-4.63-9.67-10.21s4.29-10.21,9.67-10.21a9.49,9.49,0,0,1,7.67,4v-3a1,1,0,0,1,2,0Zm-2,9.21a8,8,0,0,0-7.67-8.25c-4.17,0-7.67,3.67-7.67,8.25a7.69,7.69,0,1,0,15.34,0Z"/><path class="cls-4" d="M461,48.34V25a1,1,0,1,1,2,0V41.67a9.75,9.75,0,0,1,7.83-4,10.22,10.22,0,0,1,0,20.42,9.71,9.71,0,0,1-7.83-4v3a1,1,0,0,1-2,0Zm2-.42a8,8,0,1,0,0-.33Z"/><path class="cls-4" d="M484.61,53.84a1,1,0,0,1,1.42-.13,10.93,10.93,0,0,0,6.25,2.38,6.16,6.16,0,0,0,3.88-1.25,3.1,3.1,0,0,0,1.54-2.5,3.22,3.22,0,0,0-1.46-2.5,10.14,10.14,0,0,0-4.33-1.5l-.08,0a11.64,11.64,0,0,1-4.63-1.58A4.26,4.26,0,0,1,485,43a5.06,5.06,0,0,1,2.21-4,8.79,8.79,0,0,1,5-1.38,11,11,0,0,1,6.08,2.21,1.06,1.06,0,0,1,.29,1.42,1,1,0,0,1-1.38.29c-1.5-1-3-2-5-2a6.13,6.13,0,0,0-3.88,1.17A3.07,3.07,0,0,0,487,43a2.47,2.47,0,0,0,1.17,2,10.28,10.28,0,0,0,4.17,1.42h.08a14.2,14.2,0,0,1,5,1.67,5.1,5.1,0,0,1,2.29,4.17,5.19,5.19,0,0,1-2.33,4.13,8.33,8.33,0,0,1-5.08,1.63,12.4,12.4,0,0,1-7.54-2.92A.94.94,0,0,1,484.61,53.84Z"/><path class="cls-4" d="M283,23.85a2.54,2.54,0,0,1,2.33,2.69V55.8a2.31,2.31,0,0,1-4.63,0V26.54A2.54,2.54,0,0,1,283,23.85Z"/><path class="cls-4" d="M280.68,55.4V26.14a2.31,2.31,0,0,1,4.63,0V55.4a2.34,2.34,0,1,1-4.63,0Z"/><path class="cls-4" d="M355.21,55.31V26.05a2.31,2.31,0,0,1,4.63,0V55.31a2.34,2.34,0,1,1-4.63,0Z"/><path class="cls-4" d="M405.79,55.34V26.07a2.31,2.31,0,0,1,4.63,0V55.34a2.34,2.34,0,1,1-4.63,0Z"/><path class="cls-4" d="M430.14,24.85a1,1,0,0,1,2,0V56.92a1,1,0,1,1-2,0Z"/><path class="cls-4" d="M461,24.83a1,1,0,0,1,2,0V56.9a1,1,0,1,1-2,0Z"/><path class="cls-4" d="M139.23,25.14a1,1,0,1,1,2,0V57.21a1,1,0,0,1-2,0Z"/></g></g></svg>