<svg xmlns="http://www.w3.org/2000/svg" viewBox="0 0 440.3 287.68"><defs><style>.cls-1,.cls-10,.cls-17{font-size:42.42px;fill:#333;}.cls-1{font-family:Quicksand-Regular, Quicksand;letter-spacing:-0.06em;}.cls-2,.cls-5{letter-spacing:-0.02em;}.cls-3{letter-spacing:0em;}.cls-4,.cls-5,.cls-6,.cls-7{font-family:Quicksand-Bold, Quicksand;}.cls-11,.cls-12,.cls-13,.cls-15,.cls-16,.cls-4,.cls-5,.cls-6,.cls-7{font-weight:700;}.cls-4{letter-spacing:-0.07em;}.cls-6{letter-spacing:-0.03em;}.cls-7{letter-spacing:-0.02em;}.cls-8{fill:#1fb6ff;}.cls-9{font-size:20px;fill:#fff;font-family:GTWalsheimProTrial-Regular, GT Walsheim Pro Trial;}.cls-10{font-family:CircularStd-Bold, Circular Std;}.cls-12{letter-spacing:0em;}.cls-13,.cls-14{letter-spacing:0em;}.cls-14{font-family:CircularStd-Medium, Circular Std;}.cls-15{letter-spacing:0em;}.cls-16,.cls-18{letter-spacing:0em;}.cls-17{font-family:BrandonGrotesque-Bold, Brandon Grotesque;}.cls-18,.cls-19{font-family:BrandonGrotesque-Light, Brandon Grotesque;}</style></defs><title>Asset 1</title><g id="Layer_2" data-name="Layer 2"><g id="Layer_1-2" data-name="Layer 1"><text class="cls-1" transform="translate(47.24 36.06)">c<tspan class="cls-2" x="21.68" y="0">h</tspan><tspan x="46.84" y="0">aos</tspan><tspan class="cls-3" x="112.85" y="0"> </tspan><tspan class="cls-4" x="125.58" y="0">r</tspan><tspan class="cls-5" x="141.23" y="0">eloa</tspan><tspan class="cls-6" x="227.01" y="0">d</tspan><tspan class="cls-7" x="253.53" y="0">ed</tspan><tspan class="cls-2" x="305.67" y="0"> </tspan><tspan x="317.55" y="0">labs</tspan></text><circle class="cls-8" cx="15.25" cy="22.38" r="15.25"/><text class="cls-9" transform="translate(9.28 27.38)">a</text><text class="cls-10" transform="translate(47.24 114.87)"><tspan class="cls-11">ch</tspan><tspan class="cls-12" x="48.11" y="0">a</tspan><tspan class="cls-13" x="70.89" y="0">os</tspan><tspan class="cls-14" x="115.22" y="0"> </tspan><tspan class="cls-12" x="125.75" y="0">r</tspan><tspan class="cls-11" x="142.25" y="0">elo</tspan><tspan class="cls-15" x="202.15" y="0">a</tspan><tspan class="cls-11" x="224.93" y="0">ded </tspan><tspan class="cls-16" x="310.88" y="0">l</tspan><tspan class="cls-11" x="322.42" y="0">abs</tspan></text><circle class="cls-8" cx="15.25" cy="102.09" r="15.25"/><text class="cls-9" transform="translate(9.26 108.03)">b</text><text class="cls-10" transform="translate(47.24 194.57)"><tspan class="cls-11">ch</tspan><tspan class="cls-12" x="48.11" y="0">a</tspan><tspan class="cls-13" x="70.89" y="0">os</tspan><tspan class="cls-14" x="115.22" y="0"> </tspan><tspan class="cls-12" x="125.75" y="0">r</tspan><tspan class="cls-11" x="142.25" y="0">elo</tspan><tspan class="cls-15" x="202.15" y="0">a</tspan><tspan class="cls-11" x="224.93" y="0">ded </tspan><tspan class="cls-16" x="310.88" y="0">l</tspan><tspan class="cls-11" x="322.42" y="0">abs</tspan></text><circle class="cls-8" cx="15.25" cy="181.79" r="15.25"/><text class="cls-9" transform="translate(9.96 187.73)">c</text><text class="cls-17" transform="translate(47.24 271.38)"><tspan class="cls-11">chaos </tspan><tspan class="cls-18" x="102.92" y="0">r</tspan><tspan class="cls-19" x="116.54" y="0">eloaded labs</tspan></text><circle class="cls-8" cx="15.25" cy="261.5" r="15.25"/><text class="cls-9" transform="translate(9.28 267.44)">d</text></g></g></svg>