<svg xmlns="http://www.w3.org/2000/svg" viewBox="0 0 438.79 213.54"><defs><style>.cls-1,.cls-6{fill:none;stroke-miterlimit:10;}.cls-1{stroke:#f8b5b7;}.cls-2{fill:#9b9b9b;}.cls-3{fill:#b6b6b7;}.cls-4{fill:#ddd;}.cls-5{fill:#0092ff;}.cls-6{stroke:#0092ff;}.cls-7{font-size:12px;font-family:OpenSans, Open Sans;}</style></defs><title>Asset 4</title><g id="Layer_2" data-name="Layer 2"><g id="Layer_1-2" data-name="Layer 1"><path id="_Path_" data-name="&lt;Path&gt;" class="cls-1" d="M46.5,160.53"/><path class="cls-2" d="M332.4,184.25c-67-23.85-68.15-135.16-68.15-135.16H166.57S174,101.52,229,148.47C285.84,192,332.4,184.25,332.4,184.25Z"/><path class="cls-3" d="M331.3,184.21C260.32,179.67,207.84,79,207.84,79L134.75,99.75s21.49,48.4,87.34,78.43C288.65,204.46,331.3,184.21,331.3,184.21Z"/><path class="cls-4" d="M332,184.19c-69.4,15.59-154.09-62.41-154.09-62.41l-58.28,36.59s34.23,40.41,105.87,50.72C296.78,215.61,332,184.19,332,184.19Z"/><circle class="cls-5" cx="129.33" cy="179.37" r="3.5"/><path class="cls-6" d="M129.5,180.28s-5,28.75-31.75,27"/><circle class="cls-5" cx="160.98" cy="45.26" r="3.5" transform="translate(-1.35 5.11) rotate(-1.81)"/><path class="cls-6" d="M160.07,45.46s-28.89-4.09-28-30.88"/><circle class="cls-5" cx="295.01" cy="123.79" r="3.5" transform="translate(-23.28 156.17) rotate(-28.57)"/><path class="cls-6" d="M334.63,109.2s-27.64-9.34-38.89,15"/><path class="cls-5" d="M261.81,43.58a3.52,3.52,0,0,1,3.08-3.89,3.47,3.47,0,0,1,3.87,3.06,3.52,3.52,0,0,1-3.08,3.89A3.47,3.47,0,0,1,261.81,43.58Z"/><path class="cls-6" d="M265,42.27s1.72-29.11,28.46-30.53"/><text class="cls-7" transform="translate(4 210.28)">rounded edges</text><text class="cls-7" transform="translate(341 111.78)">repeating rhythm</text><text class="cls-7" transform="translate(53 10.28)">sharp corners</text><circle class="cls-5" cx="123.98" cy="99.26" r="3.5" transform="translate(-3.08 3.97) rotate(-1.81)"/><path class="cls-6" d="M123.94,99.25S100.52,116.67,82.32,97"/><text class="cls-7" transform="translate(0 92.28)">defined layers</text><text class="cls-7" transform="translate(299.5 13.28)">elegant stacking</text></g></g></svg>