<svg xmlns="http://www.w3.org/2000/svg" xmlns:xlink="http://www.w3.org/1999/xlink" viewBox="0 0 684.07 1433.2"><defs><style>.cls-1{fill:none;}.cls-2{fill:#273444;}.cls-3{fill:#1a2938;opacity:0.82;}.cls-4{fill:#465666;}.cls-5{fill:#333;}.cls-6{fill:#c6c4c5;stroke:#a3a2a2;stroke-miterlimit:10;stroke-width:0.25px;}.cls-7{clip-path:url(#clip-path);}</style><clipPath id="clip-path"><rect id="Screen" class="cls-1" x="27.84" y="27.84" width="628.39" height="353.97"/></clipPath></defs><title>chaos-banner</title><g id="Layer_2" data-name="Layer 2"><g id="Layer_1-2" data-name="Layer 1"><path class="cls-2" d="M442.15,563.26H342c-.23.18-100.12,0-100.12,0-5.65-.55-3.62-4.5-2.41-5.31,5.64-3.75,11.22-5.67,22.41-15.42,6.86-6,10-29.22,11.38-47.86,1-12.41,1.13-22.77,1.15-24.64,0-.2,0-.3,0-.3H409.6v.3c0,1.87.21,12.23,1.16,24.64,1.41,18.64,4.53,41.89,11.38,47.86,11.19,9.75,16.77,11.67,22.42,15.42C445.77,558.76,447.81,562.93,442.15,563.26Z"/><path class="cls-3" d="M435,470H409.6c0,1.87.21,12.23,1.16,24.64H273.29c1-12.41,1.13-22.77,1.15-24.64H238.13V459.34H435Z"/><rect class="cls-2" width="684.06" height="470.03" rx="14.46" ry="14.46"/><path id="Screen_Base" data-name="Screen Base" class="cls-4" d="M0,406.42V14.49A14.5,14.5,0,0,1,14.46,0H669.61a14.5,14.5,0,0,1,14.46,14.46V406.42Z"/><circle id="Camera_Large" data-name="Camera Large" class="cls-5" cx="341.55" cy="11.67" r="2.76"/><circle id="Camera_Small" data-name="Camera Small" class="cls-5" cx="333.3" cy="11.67" r="1.32"/><circle id="Logo" class="cls-6" cx="342.03" cy="437.42" r="10.06"/><g class="cls-7"><image width="1440" height="3191" transform="translate(22.03 27.84) scale(0.44)" xlink:href="../../../Dropbox/Portfolio/Website Redesign 2016/mockups/Cell Collective Research v3.png"/><image width="1440" height="3189" transform="translate(27.21 24.43) scale(0.44)" xlink:href="../../../Dropbox/Projects/Projects 2016/Chaos Reloaded Labs/Chaos Website/deliverables/Chaos website/1.1 Home Page.png"/></g></g></g></svg>