<svg xmlns="http://www.w3.org/2000/svg" viewBox="0 0 1090.03 660.3"><defs><style>.cls-1{font-size:45px;font-family:OpenSans, Open Sans;}.cls-1,.cls-3{fill:#0092ff;}.cls-2{fill:#ff9b00;}.cls-4{fill:#ff4c00;}.cls-5{fill:#ff00d1;}.cls-6{fill:#333;}.cls-7{fill:#00ff9b;}.cls-8{font-size:20px;font-family:OpenSans-Semibold, Open Sans;font-weight:700;}.cls-8,.cls-9{fill:#fff;}.cls-10{fill:#0068ff;}.cls-11{fill:#484849;}</style></defs><title>Asset 6</title><g id="Layer_2" data-name="Layer 2"><g id="Presentation"><text class="cls-1" transform="translate(0 322.02)">Thank you for <tspan x="0" y="50">stopping by.</tspan></text><rect class="cls-2" x="428.48" y="219.99" width="220.49" height="220.49"/><rect class="cls-3" x="648.97" y="219.99" width="220.49" height="220.49"/><rect class="cls-4" x="869.54" y="220.32" width="220.49" height="220.49"/><rect class="cls-5" x="428.65" y="439.81" width="220.49" height="220.49"/><rect class="cls-6" x="648.97" y="439.81" width="220.49" height="220.49"/><rect class="cls-7" x="648.97" width="220.49" height="220.49"/><text class="cls-8" transform="translate(704.17 123.5)">SIMPLICITY</text><text class="cls-8" transform="translate(488.83 337.43)">CREATION</text><text class="cls-8" transform="translate(900.68 337.77)">FUNCTIONALITY</text><text class="cls-8" transform="translate(487.25 551.5)">BOLDNESS</text><text class="cls-8" transform="translate(707.82 557.5)">STRENGTH</text><path class="cls-9" d="M782.71,347.79l-.28-.07h0Z"/><path class="cls-9" d="M795.65,349.11c-4.51.13-16.08-.86-25-6-11.5-6.61-20.81-17.82-20.81-17.82l-14.93,4.79-1-1.17a44.34,44.34,0,0,1-6.24-9.3l6.28-1.78,9.18-2.61h0l10.08-2.78v0l0,.07c.26.48,1.44,2.64,3.39,5.69l.39.6,0,0,.4.62.93,1.39.5.73,0,.06.26.37.81,1.14.65.9q.68.93,1.41,1.88l.63.82c1.07,1.36,2.22,2.77,3.45,4.17l.37.42.75.84.39.42.78.84.4.42L770,335.1l.83.81.42.41.43.4.29.27.57.52.87.78.74.64.6.51.45.37c.46.37.92.74,1.39,1.09l.94.71.48.35.78.55q1.06.73,2.15,1.4l.5.3c.45.27.9.53,1.36.78l.46.25a37.74,37.74,0,0,0,4.72,2.12l1.09.38,1.09.34.52.15A29.34,29.34,0,0,0,795.65,349.11Z"/><path class="cls-9" d="M795.7,349.11h0Z"/><path class="cls-9" d="M796.3,349.3S784,360.19,759.1,357.92c-25-3.6-37-17.76-37-17.76l8.13-2.48,9.31-2.84,0,0,8-2.75c27.82,23.09,47.57,17.24,48.16,17.06h.13c-24.14-5-38.33-43.23-38.33-43.23l-16.6,4.62a41.2,41.2,0,0,1-2.49-8.22h34.12s.42,38,23.78,47Z"/><path class="cls-10" d="M782.71,347.79l-.28-.07h0Z"/><path class="cls-11" d="M795.7,349.11h0Z"/><path class="cls-11" d="M782.71,347.79l-.28-.07h0Z"/><path class="cls-11" d="M795.7,349.11h0Z"/></g></g></svg>