<svg xmlns="http://www.w3.org/2000/svg" viewBox="0 0 687.7 90.54"><defs><style>.cls-1{fill:#9b9b9b;}.cls-2{fill:#b6b6b7;}.cls-3{fill:#ddd;}</style></defs><title>Asset 3</title><g id="Layer_2" data-name="Layer 2"><g id="Layer_1-2" data-name="Layer 1"><path class="cls-1" d="M112.25,74.14c-35.36-12.59-36-71.32-36-71.32H24.76s3.9,27.67,33,52.44C87.68,78.24,112.25,74.14,112.25,74.14Z"/><path class="cls-2" d="M111.67,74.12c-37.45-2.4-65.14-55.52-65.14-55.52L8,29.55S19.3,55.09,54,70.94C89.17,84.8,111.67,74.12,111.67,74.12Z"/><path class="cls-3" d="M112.05,74.11C75.44,82.34,30.75,41.18,30.75,41.18L0,60.49S18.06,81.81,55.86,87.25C93.46,90.69,112.05,74.11,112.05,74.11Z"/><polygon class="cls-1" points="674.31 0 687.7 30.56 645.75 21.38 674.31 0"/><polygon class="cls-3" points="639.7 45.3 612.59 4 674.31 0 639.7 45.3"/><polygon class="cls-1" points="639.7 45.3 612.59 4 597 31.06 639.7 45.3"/><path class="cls-1" d="M606,14.78"/><polygon class="cls-1" points="674.31 90.54 687.7 59.98 645.75 69.17 674.31 90.54"/><polygon class="cls-3" points="639.7 45.25 612.59 86.55 674.31 90.54 639.7 45.25"/><polygon class="cls-1" points="639.7 45.25 612.59 86.55 597 59.48 639.7 45.25"/><path class="cls-1" d="M606.14,75.91"/><polygon class="cls-2" points="597 31.06 597 59.48 639.7 45.25 597 31.06"/><polygon class="cls-2" points="362.97 53.28 314.21 53.28 338.59 28.54 362.97 3.8 387.35 28.54 411.73 53.28 362.97 53.28"/><polygon class="cls-3" points="314.34 53.29 317.49 13.83 363.22 3.8 314.34 53.29"/><polygon class="cls-3" points="411.73 53.29 408.58 13.83 362.85 3.8 411.73 53.29"/><polygon class="cls-1" points="314.34 53.29 363.28 86.75 411.73 53.29 314.34 53.29"/></g></g></svg>