<svg xmlns="http://www.w3.org/2000/svg" viewBox="0 0 717.24 231.38"><defs><style>.cls-1{isolation:isolate;}.cls-2{fill:none;stroke:#333;stroke-miterlimit:10;}.cls-3{fill:#ee4044;opacity:0.8;mix-blend-mode:multiply;}.cls-4{fill:#333;}</style></defs><title>Asset 2</title><g class="cls-1"><g id="Layer_2" data-name="Layer 2"><g id="Layer_1-2" data-name="Layer 1"><path class="cls-2" d="M8,54.19c0-10.48,8.63-18.81,19.42-18.81a19.43,19.43,0,0,1,12,4.16,1.74,1.74,0,0,1,.23,2.54,1.9,1.9,0,0,1-2.54.31A15.5,15.5,0,0,0,27.42,39a15.23,15.23,0,1,0,0,30.44,15.9,15.9,0,0,0,9.71-3.31,1.9,1.9,0,0,1,2.54.31,1.83,1.83,0,0,1-.39,2.7,19.49,19.49,0,0,1-11.87,4C16.63,73.15,8,64.83,8,54.19Z"/><path class="cls-2" d="M77.83,50.26c0-6.63-5.4-11.1-12-11.1s-11.95,4.47-11.95,11.1V71.53c0,.15-.08.23-.08.31s-.08.23-.15.31a1.77,1.77,0,0,1-1.16.92.27.27,0,0,1-.15.08h-.39a2.11,2.11,0,0,1-1.46-.62,2.3,2.3,0,0,1-.31-.62,1.69,1.69,0,0,1-.08-.62V12a1.91,1.91,0,1,1,3.78,0V40.93A15.6,15.6,0,0,1,65.8,35.38c8.71,0,15.8,6.17,15.8,14.87v21a1.89,1.89,0,0,1-3.78,0Z"/><path class="cls-2" d="M127.46,37.23V71.3a1.85,1.85,0,1,1-3.7,0V65.67a17.63,17.63,0,0,1-14.18,7.48c-9.94,0-17.88-8.56-17.88-18.88s7.94-18.88,17.88-18.88a17.56,17.56,0,0,1,14.18,7.4V37.23a1.85,1.85,0,1,1,3.7,0Zm-3.7,17c0-8.48-6.4-15.26-14.18-15.26S95.4,45.79,95.4,54.27s6.47,15.18,14.18,15.18S123.76,62.74,123.76,54.27Z"/><path class="cls-2" d="M155,35.38c9.94,0,17.88,8.63,17.88,18.88S164.92,73.15,155,73.15s-17.88-8.63-17.88-18.88S145.11,35.38,155,35.38Zm0,34.07c7.71,0,14.18-6.78,14.18-15.18S162.68,39,155,39s-14.18,6.86-14.18,15.26S147.27,69.45,155,69.45Z"/><path class="cls-2" d="M179.79,65.29a1.84,1.84,0,0,1,2.62-.23C185,67,189.19,69.45,194,69.45a11.39,11.39,0,0,0,7.17-2.31A5.72,5.72,0,0,0,204,62.51c-.08-1.77-.77-3-2.7-4.62-1.62-1.23-4.32-2.16-8-2.77l-.15-.08c-3.39-.62-6.4-1.39-8.56-2.93a7.89,7.89,0,0,1-4.08-6.78,9.36,9.36,0,0,1,4.08-7.4,16.25,16.25,0,0,1,9.25-2.54c4.86,0,8.32,2.23,11.25,4.08a2,2,0,0,1,.54,2.62,1.85,1.85,0,0,1-2.54.54c-2.77-1.85-5.55-3.78-9.25-3.78A11.34,11.34,0,0,0,186.65,41a5.67,5.67,0,0,0-2.39,4.32c0,1.54.69,2.62,2.16,3.78a19,19,0,0,0,7.71,2.62h.15a26.26,26.26,0,0,1,9.17,3.08,9.42,9.42,0,0,1,4.24,7.71c0,3.16-1.77,5.7-4.32,7.63a15.4,15.4,0,0,1-9.4,3,22.93,22.93,0,0,1-14-5.4A1.73,1.73,0,0,1,179.79,65.29Z"/><path class="cls-2" d="M262.56,38.7a4.11,4.11,0,0,1-4.08,4.08,7.37,7.37,0,0,0-4.62,1.46,11.61,11.61,0,0,0-3.55,3.7,23.65,23.65,0,0,0-3.16,6.47V69.06a4.2,4.2,0,0,1-4.24,4.08,4.11,4.11,0,0,1-4.08-4.08V38.7a4,4,0,0,1,4.08-4,4.13,4.13,0,0,1,4.24,4v.54a10.12,10.12,0,0,1,1.62-1.54,16.9,16.9,0,0,1,9.71-3A4,4,0,0,1,262.56,38.7Z"/><path class="cls-2" d="M264.57,53.88c.08-10.48,8.25-19.27,18.81-19.27,10,0,18,7.48,18.57,17.88v.39a2.13,2.13,0,0,1-.08.69c-.23,1.85-1.85,3.08-4,3.08H273.35A10.1,10.1,0,0,0,276,61.74a11.92,11.92,0,0,0,7.4,3.47,12.6,12.6,0,0,0,8-1.93c1.62-1.7,4.78-1.46,5.78-.23a3.52,3.52,0,0,1,0,5,19.48,19.48,0,0,1-13.8,5.09A19.13,19.13,0,0,1,264.57,53.88Zm8.4-3.78h21.81c-.77-3.08-4.7-7.63-11.41-8.17A10.77,10.77,0,0,0,273,50.11Z"/><path class="cls-2" d="M317.44,9.82c2.39,0,4.32,2.26,4.32,5V68.91a4.28,4.28,0,0,1-8.56,0V14.79C313.2,12.08,315.13,9.82,317.44,9.82Z"/><path class="cls-2" d="M333.86,67.52A19.23,19.23,0,0,1,328.54,54a19.89,19.89,0,0,1,5.32-13.49,18,18,0,0,1,13.26-5.86A17,17,0,0,1,360,40.47,19.26,19.26,0,0,1,365.38,54,18.65,18.65,0,0,1,360,67.52a17,17,0,0,1-12.87,5.86A18,18,0,0,1,333.86,67.52ZM336.94,54a12.46,12.46,0,0,0,2.77,8.17,10.43,10.43,0,0,0,7.4,2.85,10.09,10.09,0,0,0,7.09-2.85,11.84,11.84,0,0,0,3-8.17,11.59,11.59,0,0,0-3-8A10.89,10.89,0,0,0,347.11,43a11.21,11.21,0,0,0-7.4,2.93A12.19,12.19,0,0,0,336.94,54Z"/><path class="cls-2" d="M409.54,54V69.06a4.11,4.11,0,0,1-4.08,4.08,4.2,4.2,0,0,1-4-3.31,17.51,17.51,0,0,1-10.25,3.31,17.9,17.9,0,0,1-13.1-5.63A19.73,19.73,0,0,1,372.85,54a19.45,19.45,0,0,1,5.24-13.56,17.75,17.75,0,0,1,13.1-5.78A17.57,17.57,0,0,1,401.45,38a4.19,4.19,0,0,1,4-3.39,4.13,4.13,0,0,1,4.08,4.16Zm-8.17,0a11.33,11.33,0,0,0-3-7.94,9.53,9.53,0,0,0-7.17-3.16A9.29,9.29,0,0,0,384,46,11.29,11.29,0,0,0,381.1,54,11.56,11.56,0,0,0,384,61.9a9.71,9.71,0,0,0,7.17,3,10,10,0,0,0,7.17-3A11.61,11.61,0,0,0,401.37,54Z"/><path class="cls-2" d="M458,69a4.19,4.19,0,0,1-4.16,4.16,4.15,4.15,0,0,1-4.08-3.31,18.8,18.8,0,0,1-10.48,3.31c-10.4,0-18.73-8.79-18.73-19.19,0-10.56,8.32-19.35,18.73-19.35a18.24,18.24,0,0,1,10.33,3.24V14.7c0-2.62,1.85-4.89,4.24-4.89S458,12.08,458,14.7V69ZM439.29,43A10,10,0,0,0,432,46.17a11.18,11.18,0,0,0,0,15.41,10,10,0,0,0,7.25,3.16,9.85,9.85,0,0,0,7.24-3.16,11.17,11.17,0,0,0,0-15.41A9.85,9.85,0,0,0,439.29,43Z"/><path class="cls-2" d="M468.58,53.88c.08-10.48,8.25-19.27,18.81-19.27,10,0,18,7.48,18.57,17.88v.39a2.13,2.13,0,0,1-.08.69c-.23,1.85-1.85,3.08-4,3.08H477.36A10.1,10.1,0,0,0,480,61.74a11.92,11.92,0,0,0,7.4,3.47,12.6,12.6,0,0,0,8-1.93c1.62-1.7,4.78-1.46,5.78-.23a3.52,3.52,0,0,1,0,5,19.48,19.48,0,0,1-13.8,5.09A19.13,19.13,0,0,1,468.58,53.88Zm8.4-3.78h21.81c-.77-3.08-4.7-7.63-11.41-8.17A10.77,10.77,0,0,0,477,50.11Z"/><path class="cls-2" d="M551.58,69a4.19,4.19,0,0,1-4.16,4.16,4.15,4.15,0,0,1-4.08-3.31,18.8,18.8,0,0,1-10.48,3.31c-10.4,0-18.73-8.79-18.73-19.19,0-10.56,8.32-19.35,18.73-19.35a18.24,18.24,0,0,1,10.33,3.24V14.7c0-2.62,1.85-4.89,4.24-4.89s4.16,2.26,4.16,4.89V69ZM532.85,43a10,10,0,0,0-7.25,3.16,11.18,11.18,0,0,0,0,15.41,10,10,0,0,0,7.25,3.16,9.85,9.85,0,0,0,7.24-3.16,11.17,11.17,0,0,0,0-15.41A9.85,9.85,0,0,0,532.85,43Z"/><path class="cls-2" d="M588.11,12a1.91,1.91,0,1,1,3.78,0V71.3a1.89,1.89,0,0,1-3.78,0Z"/><path class="cls-2" d="M633.81,37.23V71.3a1.85,1.85,0,1,1-3.7,0V65.67a17.63,17.63,0,0,1-14.18,7.48c-9.94,0-17.88-8.56-17.88-18.88S606,35.38,615.93,35.38a17.56,17.56,0,0,1,14.18,7.4V37.23a1.85,1.85,0,1,1,3.7,0Zm-3.7,17c0-8.48-6.4-15.26-14.18-15.26s-14.18,6.78-14.18,15.26,6.47,15.18,14.18,15.18S630.12,62.74,630.12,54.27Z"/><path class="cls-2" d="M645.22,55.12V12A1.91,1.91,0,1,1,649,12V42.78a18,18,0,0,1,14.49-7.4c10.17,0,18.27,8.48,18.27,19,0,10.33-8.09,18.81-18.27,18.81A18,18,0,0,1,649,65.83V71.3a1.89,1.89,0,0,1-3.78,0Zm3.78-.77c0,8.32,6.55,15,14.49,15a14.74,14.74,0,0,0,14.49-15c0-8.4-6.47-15.18-14.49-15.18-7.78,0-14.18,6.47-14.49,14.57Z"/><path class="cls-2" d="M688.84,65.29a1.84,1.84,0,0,1,2.62-.23c2.62,1.93,6.78,4.39,11.56,4.39a11.39,11.39,0,0,0,7.17-2.31A5.72,5.72,0,0,0,713,62.51c-.08-1.77-.77-3-2.7-4.62-1.62-1.23-4.32-2.16-8-2.77l-.15-.08c-3.39-.62-6.4-1.39-8.56-2.93a7.89,7.89,0,0,1-4.08-6.78,9.36,9.36,0,0,1,4.08-7.4,16.25,16.25,0,0,1,9.25-2.54c4.86,0,8.32,2.23,11.25,4.08a2,2,0,0,1,.54,2.62,1.85,1.85,0,0,1-2.54.54c-2.77-1.85-5.55-3.78-9.25-3.78A11.34,11.34,0,0,0,695.7,41a5.67,5.67,0,0,0-2.39,4.32c0,1.54.69,2.62,2.16,3.78a19,19,0,0,0,7.71,2.62h.15a26.26,26.26,0,0,1,9.17,3.08,9.42,9.42,0,0,1,4.24,7.71c0,3.16-1.77,5.7-4.32,7.63a15.4,15.4,0,0,1-9.4,3,22.93,22.93,0,0,1-14-5.4A1.73,1.73,0,0,1,688.84,65.29Z"/><rect id="_Rectangle_" data-name="&lt;Rectangle&gt;" class="cls-3" x="81.61" y="56.03" width="18.39" height="18.39" rx="9.2" ry="9.2"/><rect id="_Rectangle_2" data-name="&lt;Rectangle&gt;" class="cls-3" x="590.94" y="56.03" width="18.39" height="18.39" rx="9.2" ry="9.2"/><path id="_Path_" data-name="&lt;Path&gt;" class="cls-3" d="M452.72,21.69h0a9.22,9.22,0,0,1-9.2-9.2h0a9.22,9.22,0,0,1,9.2-9.2h0a9.22,9.22,0,0,1,9.2,9.2h0A9.22,9.22,0,0,1,452.72,21.69Z"/><path id="_Path_2" data-name="&lt;Path&gt;" class="cls-3" d="M546.89,19.06h0a9.22,9.22,0,0,1-9.2-9.2h0a9.22,9.22,0,0,1,9.2-9.2h0a9.22,9.22,0,0,1,9.2,9.2h0A9.22,9.22,0,0,1,546.89,19.06Z"/><path id="_Path_3" data-name="&lt;Path&gt;" class="cls-3" d="M590.56,21.06h0a9.22,9.22,0,0,1-9.2-9.2h0a9.22,9.22,0,0,1,9.2-9.2h0a9.22,9.22,0,0,1,9.2,9.2h0A9.22,9.22,0,0,1,590.56,21.06Z"/><path id="_Path_4" data-name="&lt;Path&gt;" class="cls-3" d="M647.22,18.39h0A9.22,9.22,0,0,1,638,9.2h0a9.22,9.22,0,0,1,9.2-9.2h0a9.22,9.22,0,0,1,9.2,9.2h0A9.22,9.22,0,0,1,647.22,18.39Z"/><path id="_Path_5" data-name="&lt;Path&gt;" class="cls-3" d="M316.66,25.43h0a9.22,9.22,0,0,1-9.2-9.2h0a9.22,9.22,0,0,1,9.2-9.2h0a9.22,9.22,0,0,1,9.2,9.2h0A9.22,9.22,0,0,1,316.66,25.43Z"/><path id="_Path_6" data-name="&lt;Path&gt;" class="cls-3" d="M49.55,20.91h0a9.22,9.22,0,0,1-9.2-9.2h0a9.22,9.22,0,0,1,9.2-9.2h0a9.22,9.22,0,0,1,9.2,9.2h0A9.22,9.22,0,0,1,49.55,20.91Z"/><path class="cls-4" d="M0,212.19c0-10.48,8.63-18.81,19.42-18.81a19.43,19.43,0,0,1,12,4.16,1.74,1.74,0,0,1,.23,2.54,1.9,1.9,0,0,1-2.54.31A15.5,15.5,0,0,0,19.42,197a15.23,15.23,0,1,0,0,30.44,15.9,15.9,0,0,0,9.71-3.31,1.9,1.9,0,0,1,2.54.31,1.83,1.83,0,0,1-.39,2.7,19.49,19.49,0,0,1-11.87,4C8.63,231.15,0,222.83,0,212.19Z"/><path class="cls-4" d="M69.83,208.26c0-6.63-5.4-11.1-12-11.1s-11.95,4.47-11.95,11.1v21.27c0,.15-.08.23-.08.31s-.08.23-.15.31a1.77,1.77,0,0,1-1.16.92.27.27,0,0,1-.15.08h-.39a2.11,2.11,0,0,1-1.46-.62,2.3,2.3,0,0,1-.31-.62,1.69,1.69,0,0,1-.08-.62V170a1.91,1.91,0,1,1,3.78,0v28.94a15.6,15.6,0,0,1,11.95-5.55c8.71,0,15.8,6.17,15.8,14.87v21a1.89,1.89,0,0,1-3.78,0Z"/><path class="cls-4" d="M119.46,195.23V229.3a1.85,1.85,0,0,1-3.7,0v-5.63a17.63,17.63,0,0,1-14.18,7.48c-9.94,0-17.88-8.56-17.88-18.88s7.94-18.88,17.88-18.88a17.56,17.56,0,0,1,14.18,7.4v-5.55a1.85,1.85,0,1,1,3.7,0Zm-3.7,17c0-8.48-6.4-15.26-14.18-15.26S87.4,203.79,87.4,212.27s6.47,15.18,14.18,15.18S115.76,220.74,115.76,212.27Z"/><path class="cls-4" d="M147,193.38c9.94,0,17.88,8.63,17.88,18.88s-7.94,18.88-17.88,18.88-17.88-8.63-17.88-18.88S137.11,193.38,147,193.38Zm0,34.07c7.71,0,14.18-6.78,14.18-15.18S154.68,197,147,197s-14.18,6.86-14.18,15.26S139.27,227.45,147,227.45Z"/><path class="cls-4" d="M171.79,223.29a1.84,1.84,0,0,1,2.62-.23c2.62,1.93,6.78,4.39,11.56,4.39a11.39,11.39,0,0,0,7.17-2.31,5.72,5.72,0,0,0,2.85-4.62c-.08-1.77-.77-3-2.7-4.62-1.62-1.23-4.32-2.16-8-2.77l-.15-.08c-3.39-.62-6.4-1.39-8.56-2.93a7.89,7.89,0,0,1-4.08-6.78,9.36,9.36,0,0,1,4.08-7.4,16.25,16.25,0,0,1,9.25-2.54c4.86,0,8.32,2.23,11.25,4.08a2,2,0,0,1,.54,2.62,1.85,1.85,0,0,1-2.54.54c-2.77-1.85-5.55-3.78-9.25-3.78a11.34,11.34,0,0,0-7.17,2.16,5.67,5.67,0,0,0-2.39,4.32c0,1.54.69,2.62,2.16,3.78a19,19,0,0,0,7.71,2.62h.15a26.26,26.26,0,0,1,9.17,3.08,9.42,9.42,0,0,1,4.24,7.71c0,3.16-1.77,5.7-4.32,7.63a15.4,15.4,0,0,1-9.4,3,22.93,22.93,0,0,1-14-5.4A1.73,1.73,0,0,1,171.79,223.29Z"/><path class="cls-4" d="M254.56,196.7a4.11,4.11,0,0,1-4.08,4.08,7.37,7.37,0,0,0-4.62,1.46,11.61,11.61,0,0,0-3.55,3.7,23.65,23.65,0,0,0-3.16,6.47v14.64a4.2,4.2,0,0,1-4.24,4.08,4.11,4.11,0,0,1-4.08-4.08V196.7a4,4,0,0,1,4.08-4,4.13,4.13,0,0,1,4.24,4v.54a10.12,10.12,0,0,1,1.62-1.54,16.9,16.9,0,0,1,9.71-3A4,4,0,0,1,254.56,196.7Z"/><path class="cls-4" d="M256.57,211.88c.08-10.48,8.25-19.27,18.81-19.27,10,0,18,7.48,18.57,17.88v.39a2.13,2.13,0,0,1-.08.69c-.23,1.85-1.85,3.08-4,3.08H265.35a10.1,10.1,0,0,0,2.62,5.09,11.92,11.92,0,0,0,7.4,3.47,12.6,12.6,0,0,0,8-1.93c1.62-1.7,4.78-1.46,5.78-.23a3.52,3.52,0,0,1,0,5,19.48,19.48,0,0,1-13.8,5.09A19.13,19.13,0,0,1,256.57,211.88Zm8.4-3.78h21.81c-.77-3.08-4.7-7.63-11.41-8.17A10.77,10.77,0,0,0,265,208.11Z"/><path class="cls-4" d="M307.94,167.82c2.39,0,4.32,2.26,4.32,5v54.12a4.28,4.28,0,0,1-8.56,0V172.79C303.7,170.08,305.63,167.82,307.94,167.82Z"/><path class="cls-4" d="M325.86,225.52A19.23,19.23,0,0,1,320.54,212a19.89,19.89,0,0,1,5.32-13.49,18,18,0,0,1,13.26-5.86A17,17,0,0,1,352,198.47a19.26,19.26,0,0,1,5.4,13.49,18.65,18.65,0,0,1-5.4,13.56,17,17,0,0,1-12.87,5.86A18,18,0,0,1,325.86,225.52ZM328.94,212a12.46,12.46,0,0,0,2.77,8.17,10.43,10.43,0,0,0,7.4,2.85,10.09,10.09,0,0,0,7.09-2.85,11.84,11.84,0,0,0,3-8.17,11.59,11.59,0,0,0-3-8,10.89,10.89,0,0,0-7.09-2.93,11.21,11.21,0,0,0-7.4,2.93A12.19,12.19,0,0,0,328.94,212Z"/><path class="cls-4" d="M401.54,212v15.11a4.11,4.11,0,0,1-4.08,4.08,4.2,4.2,0,0,1-4-3.31,17.51,17.51,0,0,1-10.25,3.31,17.9,17.9,0,0,1-13.1-5.63A19.73,19.73,0,0,1,364.85,212a19.45,19.45,0,0,1,5.24-13.56,17.75,17.75,0,0,1,13.1-5.78A17.57,17.57,0,0,1,393.45,196a4.19,4.19,0,0,1,4-3.39,4.13,4.13,0,0,1,4.08,4.16Zm-8.17,0a11.33,11.33,0,0,0-3-7.94,9.53,9.53,0,0,0-7.17-3.16A9.29,9.29,0,0,0,376,204,11.29,11.29,0,0,0,373.1,212,11.56,11.56,0,0,0,376,219.9a9.71,9.71,0,0,0,7.17,3,10,10,0,0,0,7.17-3A11.61,11.61,0,0,0,393.37,212Z"/><path class="cls-4" d="M450,227a4.19,4.19,0,0,1-4.16,4.16,4.15,4.15,0,0,1-4.08-3.31,18.8,18.8,0,0,1-10.48,3.31c-10.4,0-18.73-8.79-18.73-19.19,0-10.56,8.32-19.35,18.73-19.35a18.24,18.24,0,0,1,10.33,3.24V172.7c0-2.62,1.85-4.89,4.24-4.89s4.16,2.26,4.16,4.89V227Zm-18.73-26a10,10,0,0,0-7.25,3.16,11.18,11.18,0,0,0,0,15.41,10,10,0,0,0,7.25,3.16,9.85,9.85,0,0,0,7.24-3.16,11.17,11.17,0,0,0,0-15.41A9.85,9.85,0,0,0,431.29,201Z"/><path class="cls-4" d="M460.58,211.88c.08-10.48,8.25-19.27,18.81-19.27,10,0,18,7.48,18.57,17.88v.39a2.13,2.13,0,0,1-.08.69c-.23,1.85-1.85,3.08-4,3.08H469.36a10.1,10.1,0,0,0,2.62,5.09,11.92,11.92,0,0,0,7.4,3.47,12.6,12.6,0,0,0,8-1.93c1.62-1.7,4.78-1.46,5.78-.23a3.52,3.52,0,0,1,0,5,19.48,19.48,0,0,1-13.8,5.09A19.13,19.13,0,0,1,460.58,211.88Zm8.4-3.78h21.81c-.77-3.08-4.7-7.63-11.41-8.17A10.77,10.77,0,0,0,469,208.11Z"/><path class="cls-4" d="M543.58,227a4.19,4.19,0,0,1-4.16,4.16,4.15,4.15,0,0,1-4.08-3.31,18.8,18.8,0,0,1-10.48,3.31c-10.4,0-18.73-8.79-18.73-19.19,0-10.56,8.32-19.35,18.73-19.35a18.24,18.24,0,0,1,10.33,3.24V172.7c0-2.62,1.85-4.89,4.24-4.89s4.16,2.26,4.16,4.89V227Zm-18.73-26a10,10,0,0,0-7.25,3.16,11.18,11.18,0,0,0,0,15.41,10,10,0,0,0,7.25,3.16,9.85,9.85,0,0,0,7.24-3.16,11.17,11.17,0,0,0,0-15.41A9.85,9.85,0,0,0,524.85,201Z"/><path class="cls-4" d="M580.11,170a1.91,1.91,0,1,1,3.78,0V229.3a1.89,1.89,0,0,1-3.78,0Z"/><path class="cls-4" d="M625.81,195.23V229.3a1.85,1.85,0,0,1-3.7,0v-5.63a17.63,17.63,0,0,1-14.18,7.48c-9.94,0-17.88-8.56-17.88-18.88s7.94-18.88,17.88-18.88a17.56,17.56,0,0,1,14.18,7.4v-5.55a1.85,1.85,0,1,1,3.7,0Zm-3.7,17c0-8.48-6.4-15.26-14.18-15.26s-14.18,6.78-14.18,15.26,6.47,15.18,14.18,15.18S622.12,220.74,622.12,212.27Z"/><path class="cls-4" d="M637.22,213.12V170a1.91,1.91,0,1,1,3.78,0v30.79a18,18,0,0,1,14.49-7.4c10.17,0,18.27,8.48,18.27,19,0,10.33-8.09,18.81-18.27,18.81A18,18,0,0,1,641,223.83v5.47a1.89,1.89,0,0,1-3.78,0Zm3.78-.77c0,8.32,6.55,15,14.49,15a14.74,14.74,0,0,0,14.49-15c0-8.4-6.47-15.18-14.49-15.18-7.78,0-14.18,6.47-14.49,14.57Z"/><path class="cls-4" d="M680.84,223.29a1.84,1.84,0,0,1,2.62-.23c2.62,1.93,6.78,4.39,11.56,4.39a11.39,11.39,0,0,0,7.17-2.31,5.72,5.72,0,0,0,2.85-4.62c-.08-1.77-.77-3-2.7-4.62-1.62-1.23-4.32-2.16-8-2.77l-.15-.08c-3.39-.62-6.4-1.39-8.56-2.93a7.89,7.89,0,0,1-4.08-6.78,9.36,9.36,0,0,1,4.08-7.4,16.25,16.25,0,0,1,9.25-2.54c4.86,0,8.32,2.23,11.25,4.08a2,2,0,0,1,.54,2.62,1.85,1.85,0,0,1-2.54.54c-2.77-1.85-5.55-3.78-9.25-3.78A11.34,11.34,0,0,0,687.7,199a5.67,5.67,0,0,0-2.39,4.32c0,1.54.69,2.62,2.16,3.78a19,19,0,0,0,7.71,2.62h.15a26.26,26.26,0,0,1,9.17,3.08,9.42,9.42,0,0,1,4.24,7.71c0,3.16-1.77,5.7-4.32,7.63a15.4,15.4,0,0,1-9.4,3,22.93,22.93,0,0,1-14-5.4A1.73,1.73,0,0,1,680.84,223.29Z"/><path class="cls-4" d="M307.94,167.82c2.39,0,4.32,2.26,4.32,5v54.12a4.28,4.28,0,0,1-8.56,0V172.79C303.7,170.08,305.63,167.82,307.94,167.82Z"/><path class="cls-4" d="M303.7,226.17V172.06a4.28,4.28,0,0,1,8.56,0v54.12c0,2.71-1.93,5-4.32,5S303.7,228.89,303.7,226.17Z"/><path class="cls-4" d="M441.53,226V171.89a4.28,4.28,0,0,1,8.56,0V226c0,2.71-1.93,5-4.32,5S441.53,228.72,441.53,226Z"/><path class="cls-4" d="M535.08,226V171.93a4.28,4.28,0,0,1,8.56,0V226c0,2.71-1.93,5-4.32,5S535.08,228.76,535.08,226Z"/><path class="cls-4" d="M580.11,169.67a1.89,1.89,0,0,1,3.78,0V229a1.91,1.91,0,1,1-3.78,0Z"/><path class="cls-4" d="M637.24,169.64a1.89,1.89,0,0,1,3.78,0v59.31a1.91,1.91,0,1,1-3.78,0Z"/><path class="cls-4" d="M42.11,170.21a1.91,1.91,0,1,1,3.78,0v59.31a1.89,1.89,0,0,1-3.78,0Z"/></g></g></g></svg>