<svg xmlns="http://www.w3.org/2000/svg" viewBox="0 0 611.79 664.14"><defs><style>.cls-1{fill:#1fb6ff;}</style></defs><title>Asset 1</title><g id="Layer_2" data-name="Layer 2"><g id="Layer_1-2" data-name="Layer 1"><path class="cls-1" d="M104.61,513.31l-.48.22A3.24,3.24,0,0,1,104.61,513.31Z"/><path class="cls-1" d="M327,264.85h0Z"/><path class="cls-1" d="M233,316.68c3.86.07,7.72.08,11.57,0C240.7,316.52,236.83,316.5,233,316.68Z"/><path class="cls-1" d="M362.41,594.18h0A0,0,0,0,0,362.41,594.18Z"/><path class="cls-1" d="M607.86,22.93C600.44,6.78,583.23.89,566.66.09,544.54-1,524.35,7.6,507.74,21.81c-18.53,15.86-32.23,37.26-44.94,57.82l-2.4,3.9c-3.54-1.13-7-2.4-10.5-3.78-1.24-.49-2.69-1.12-5.48-2.43q-3.72-1.75-7.35-3.69a225.06,225.06,0,0,1-26-16.51q-2.75-2-5.45-4c-1-.77-2-1.55-3.06-2.32l-.9-.7s0,0,0,0l0,0h0l-.12-.09-.06-.05a.1.1,0,0,1-.05,0s0,0,0,0l-.05,0,0,0,0,0h0L401,49.6l-.37-.29c-3.85-3-7.67-6-11.5-9C373.93,28.35,358.54,16.58,340.58,9,301.33-7.53,253.75,1.76,224,32.4,204.28,52.76,191.19,81.15,187,109.14c-.54,3.64-1.5,7.91-.49,11.6,3.22,11.85,19.82,10,22.14-1.21a12.94,12.94,0,0,0,.09-4.8c0-.14,0-.29,0-.43l0-.22a133.86,133.86,0,0,1,3.07-13.86c.85-3.07,1.78-6.11,2.81-9.12.55-1.59,1.11-3.17,1.71-4.74.28-.76.58-1.51.88-2.27.11-.29.45-1.08.68-1.64l0-.08c0-.08.07-.15.1-.22a140.08,140.08,0,0,1,10.5-19.63q1.67-2.55,3.46-5c.12-.18.63-.85,1-1.33,0,0,0,0,0,0l1.8-2.24a101.63,101.63,0,0,1,8.75-9.22c1.59-1.48,3.25-2.88,4.92-4.27L249,40l0,0,0,0,.33-.22c1.09-.76,2.16-1.57,3.27-2.31a87.8,87.8,0,0,1,12-6.78l1.91-.85h0s0,0,0,0,0,0,0,0c1-.39,1.91-.75,2.88-1.1,2.5-.9,5-1.7,7.61-2.38,2.34-.62,4.71-1.16,7.09-1.6,1.21-.22,2.42-.43,3.65-.61h0c.15,0,2.59-.29,3.06-.33a102.08,102.08,0,0,1,16.4-.26c1.09.07,2.17.17,3.25.28l1.3.15h0l.24.05c2.35.47,4.71.85,7,1.42a116.93,116.93,0,0,1,12.52,4l.27.11.1,0,.35.15.07,0L333,30c.92.43,1.85.85,2.76,1.29q3.15,1.52,6.2,3.21a198.49,198.49,0,0,1,22.67,15c1.49,1.11,3,2.24,4.45,3.37h0s0,0,0,0l.06,0,0,0,.07.05c.46.37,1.51,1.18,1.83,1.42l2.93,2.3c3.84,3,7.66,6,11.51,9,8.31,6.44,16.69,12.8,25.51,18.53a178,178,0,0,0,37.7,18.57c-11.69,19.65-23.16,39.45-35.46,58.74-18,28.29-37.36,56-60.78,80.14-4.7,4.84-9.56,9.53-14.61,14-2.1,1.86-4.23,3.7-6.4,5.49-1.19,1-2.4,2-3.61,2.91l-.41.33-.13.1-.17.13-.16.12h0c-.42.33-.85.65-1.28,1a167.24,167.24,0,0,1-26.33,16.25c-1.87.91-3.77,1.76-5.66,2.61l-.15.07-.06,0-1.08.43c-1,.41-2.08.82-3.14,1.21q-5.83,2.14-11.85,3.74-5.46,1.44-11,2.4l-2.86.46-.52.09h0l-.23,0h0l-.4.05-.18,0h-.07c-1.44.16-2.87.32-4.31.45-3.91.35-7.81.53-11.72.61-4.34.09-8.69,0-13-.07-1.23,0-2.45-.06-3.68-.09,3-15.43,5.63-30.94,8.23-46.48,1.88-11.22,3.71-22.45,5.65-33.66,22.24-5.51,43.27-14.87,61.43-29.19A129.4,129.4,0,0,0,344.4,132.5c6.55-16.1,9.28-35,1.89-51.29s-25-23.43-42.06-22.47C265,61,247.46,100.3,237.73,133.12a588.2,588.2,0,0,0-14.28,62.14,144.44,144.44,0,0,1-38.27,1.68,119.73,119.73,0,0,1-30.06-7.36L153.8,189l-.19-.07a0,0,0,0,1,0,0c-.88-.39-1.77-.78-2.64-1.19q-3-1.39-5.94-3c-3.52-1.87-6.94-3.9-10.28-6.06-5.8-3.76-11.3-7.93-16.79-12.12-4.82-3.69-12.56-.75-15.36,4-3.38,5.78-.8,11.67,4,15.36,13.55,10.36,27.4,19.42,43.42,25.56,22.15,8.48,46.1,9.76,69.43,6.83-3.5,21.3-6.69,42.66-10.55,63.76q-1.05,5.77-2.17,11.52c-42.42.15-85.56,7.4-123.31,27.32C54.15,336.47,28.56,360.42,14,390.42c-12.33,25.37-17.2,54-11.82,81.83,4.56,23.58,18,46.25,39.07,58.49,24.35,14.11,57.1,12.87,81.08-1.36,16.37-9.72,28.87-24.79,39.09-40.59C176.79,465,187.83,438.42,197.79,412c11.78-31.2,20.23-63.17,27.08-95.56h.06c2,.07,4,.12,5.94.17l2.12,0c3.84-.18,7.71-.16,11.57,0a.08.08,0,0,1,.07,0c4.58.18,9.16.57,13.69,1.06l2.76.32.45.05-.38-.07c.1,0,.9.1,1,.14l-.44,0c2.2.35,4.4.67,6.6,1.06q6.27,1.13,12.44,2.74a132.33,132.33,0,0,1,13.45,4.31c.49.19,2.19.9,2.23.9q1,.45,2.07.93,3.06,1.42,6,3.06t5.78,3.51c.93.62,1.83,1.3,2.77,1.93l.14.09-.32-.26.88.63c-.08,0-.25-.16-.56-.37.53.41,1,.84,1.57,1.28a65.15,65.15,0,0,1,4.94,4.61c.69.71,1.36,1.44,2,2.18.38.43,1.7,2.12,1.74,2.12a59.81,59.81,0,0,1,3.3,5q.88,1.53,1.68,3.12c.26.53.5,1.08.77,1.61.08.15.14.28.2.38-.68-2,.88,1.61,0,0l.1.29c.83,2.38,1.67,4.73,2.29,7.17.32,1.27.61,2.55.85,3.84.1.52.41,2.78.44,2.78a106,106,0,0,1,.41,15.12c-.1,2.54-.29,5.08-.54,7.61-.12,1.27-.28,2.54-.42,3.81,0,.09,0,.18,0,.25s0,0,0,0a.19.19,0,0,1,0,.07.13.13,0,0,1,0,.06.42.42,0,0,1,0,.11v0s0,.1,0,.15l0,.2a1.76,1.76,0,0,1,0,.2.08.08,0,0,0,0,0c-.06.44-.13.89-.2,1.33a247.77,247.77,0,0,1-8,33.55c-14,45.86-37.5,88.79-48.48,135.58-4.29,18.29-7,38.92.2,56.86,8,20,27,33.43,48,37.11,23.32,4.09,46.51-5.29,58.42-26.25,10.5-18.48,10.28-42.27-4-58.67a43.75,43.75,0,0,0-12.53-9.71,11.46,11.46,0,0,0-15.36,4c-3,5.08-1.34,12.51,4,15.36,1,.55,2.07,1.13,3.07,1.77.53.34,2,1.62,1.9,1.44,1,1,2,2,3,3h0a0,0,0,0,1,0,0h0c.11.19,1,1.35,1.3,1.8.55.88,1,1.79,1.51,2.7.12.22.23.45.34.68-.33-1.36.07.07.27.6l-.26-.57s0,.1,0,.15c.25,1,.65,1.95.91,2.94s.43,2,.66,3a2.17,2.17,0,0,0,.06.22c0-1.73.3,1.11,0,0,0,.17,0,.38,0,.64a62.26,62.26,0,0,1,0,6.26c0,.25,0,.46,0,.62.26-.87-.07,1.75,0,0,0,.07,0,.18-.08.31-.24,1-.4,2.09-.66,3.13a46.42,46.42,0,0,1-1.59,5c-.1.18-.73,1.64-1,2.1q-.75,1.45-1.59,2.85c-.56.93-1.23,1.81-1.79,2.74-.05.09-.14.21-.22.33l0,0,0,0a0,0,0,0,1,0,0l-.06.09s0,0,0,0h0a.2.2,0,0,0,0,.06s0,0-.05.05,0,0,0,0l-.24.27a62.64,62.64,0,0,1-4.66,4.7c-.26.24-.54.47-.82.7.34-.21.49-.31.54-.33l-.9.61.32-.26-.15.09c-1,.59-1.87,1.26-2.84,1.83s-2,1.05-3,1.61l-.27.15.33-.12c-.52.26-1.37.73-.33.12-.34.14-.69.27-1,.39a68.15,68.15,0,0,1-6.91,1.82h.18l-.43.07.25-.06c-.55,0-1.1.11-1.64.14-1.29.08-2.59.11-3.88.08s-2.42-.12-3.63-.22c1.29.09-2.58-.44-3.14-.56a61.84,61.84,0,0,1-8.22-2.4l-1.85-.7a2.54,2.54,0,0,1,.32.15l-.32-.15h0a.09.09,0,0,1-.07,0l-.15-.08c-1.17-.58-2.36-1.12-3.52-1.73a56.34,56.34,0,0,1-5.29-3.16c-.38-.25-1.7-1.3-1.83-1.36h0c-.55-.45-1.09-.91-1.62-1.4-1.34-1.24-2.49-2.65-3.78-3.95-.06-.07-.12-.12-.16-.16,1,1.56-.66-.61,0,0-.06-.11-.15-.24-.25-.39-.59-.88-1.18-1.75-1.73-2.66-.67-1.13-1.26-2.3-1.84-3.49l.08.13c-.07-.18-.65-1.45-.81-1.91-.36-1-.68-2-1-3.07-.49-1.76-.84-3.53-1.2-5.32,0-.22-.08-.4-.11-.55.09,1.4-.4-1.86,0,0,0,0,0-.09,0-.14-.08-1.15-.22-2.28-.28-3.43a86.4,86.4,0,0,1,.24-12.87c.1-1.13.23-2.25.35-3.38,0-.25,0-.45.06-.59-.15.8,0,0,0-.31,0,.06,0,.15,0,.29,0-.08,0-.17.06-.28.45-2.5.83-5,1.33-7.51,1-5,2.24-9.88,3.6-14.76,12.74-45.46,35.22-87.56,48.07-133,6.06-21.44,10.32-44.23,7.17-66.51-3-21.4-15.51-39.23-33.33-51.08a102.73,102.73,0,0,0-19.48-10c27.63-11.74,51.64-31.66,72-53.79,39.2-42.6,67.09-93.11,96.83-142.32,27.35,5.78,56,4.94,82.87-4,19.66-6.53,38.38-18.08,49.53-36C612.08,55.31,614.8,38,607.86,22.93ZM208.5,117.45c0-.09,0-.22,0-.3a3.57,3.57,0,0,0,.06-.94A2.2,2.2,0,0,1,208.5,117.45Zm42.59,55c2.31-10.88,4.88-21.71,8-32.38,1.44-4.9,3-9.78,4.72-14.59.79-2.19,1.63-4.37,2.49-6.54.16-.43.34-.85.51-1.27a1.2,1.2,0,0,1,.08-.19.69.69,0,0,0,0-.13c.46-1,.92-2.08,1.39-3.11a118.87,118.87,0,0,1,5.8-11.07c1-1.67,2.06-3.31,3.17-4.91.46-.67.94-1.31,1.4-2l.09-.11.3-.37-.25.29a6.09,6.09,0,0,1,.59-.72c0-.07.11-.13.16-.19A78.75,78.75,0,0,1,287,87.78l.09-.08h0l.3-.2c.65-.42,1.27-.88,1.93-1.3,1.49-.94,3-1.75,4.61-2.55l.17-.08c.68-.17,1.37-.52,2-.74,1.71-.55,3.44-.94,5.19-1.32l.48-.12s0,0,0,0c.79-.05,1.59-.14,2.38-.19a50.15,50.15,0,0,1,6.37,0c.56,0,1.07.11,1.38.15h0l.14,0h.14c.58.1,1.15.21,1.72.34.81.19,1.6.41,2.39.65a19.25,19.25,0,0,1,2,.91l-.94-.57c1.2.68,2.46,1.27,3.66,2l.28.17c.54.55,1.17,1,1.71,1.58a11,11,0,0,1,.74.86c-.12-.22.11-.11.64.73a5.67,5.67,0,0,1-.64-.73,2.7,2.7,0,0,0,.65.75h0l.06.1c.37.61.76,1.21,1.1,1.83.13.23.54,1.11.8,1.64h0a0,0,0,0,1,0,0c.12.32.24.63.29.78.27.81.5,1.64.71,2.47s.34,1.5.49,2.25c0,.23.08.46.12.7v0c.05,3.64.14,7.14-.17,10.79,0,.13-.06.3-.1.52-.2,1-.38,2.09-.6,3.13-.44,2-1,4-1.56,6s-1.33,4.09-2.1,6.1c-.22.55-.7,1.68-.76,1.83a0,0,0,0,0,0,0c-.43,1-.87,1.94-1.33,2.89A110.43,110.43,0,0,1,314.13,142q-1.94,2.91-4,5.7a1.7,1.7,0,0,1-.11.14.6.6,0,0,0-.07.1l-.18.23-1,1.27c-.88,1.07-1.77,2.12-2.68,3.16a128.24,128.24,0,0,1-11.71,11.72c-1,.85-1.94,1.68-2.93,2.5-.23.19-1.66,1.33-2.18,1.77l-.18.14h0s0,0,0,0q-3.46,2.63-7.12,5a130.72,130.72,0,0,1-15.31,8.61A127,127,0,0,1,249.05,189l-1.38.42Q249.29,180.91,251.09,172.45ZM158,448.69a262,262,0,0,1-18,31.85c-1.41,2.1-2.86,4.16-4.37,6.19l-.87,1.17c-.87,1.1-1.74,2.18-2.64,3.26a113.33,113.33,0,0,1-8.86,9.47c-1.46,1.38-3,2.71-4.49,4-.39.32-.8.64-1.18,1l0,0c-.65.48-1.31,1-2,1.42a71.38,71.38,0,0,1-9.57,5.66c-.45.22-.92.42-1.39.63a5.62,5.62,0,0,1-.91.43l0,0a.8.8,0,0,0-.16.08l.12-.07-.29.11c-1.7.63-3.4,1.23-5.14,1.74s-3.25.89-4.9,1.24c-.77.16-1.54.31-2.32.45s-1.74.26-2,.3a92.26,92.26,0,0,1-9.4.52c-2.33,0-6.08.4-8.59-.28.82.18,1.31.07-.31-.22l-1.9-.34c-1.41-.28-2.82-.6-4.21-1s-2.56-.73-3.83-1.16c-.66-.22-1.32-.47-2-.71l-1-.38-.13-.06h0l0,0-.17-.07-.33-.16L55.52,513c-1.23-.62-2.43-1.29-3.61-2s-2.18-1.35-3.24-2.08l-1.46-1-.1-.07c-2-1.71-3.93-3.37-5.75-5.24-.89-.93-1.77-1.88-2.61-2.86-.4-.46-.78-.93-1.17-1.39l0-.05h0c-1.38-1.64-.41-.72,0,0-2.51-4.75-5.95-8.91-8.24-13.87-.12-.25-.23-.51-.35-.77a.26.26,0,0,1,0,.07c-.06-.11-.14-.32-.27-.65l0-.08-.06-.16c-.53-1.39-1.06-2.76-1.53-4.16-.93-2.76-1.73-5.57-2.4-8.4-.61-2.59-1-5.19-1.46-7.79l0,.19c-.06-.47-.36-2.19-.44-3.18-.15-1.58-.26-3.17-.34-4.76a120.25,120.25,0,0,1,.68-19v0c.12-.67.2-1.35.31-2,.27-1.68.58-3.36.93-5q1-4.94,2.44-9.78t3.31-9.77c.33-.84.68-1.67,1-2.51l0-.07,0-.07c.76-1.67,1.51-3.34,2.31-5a133.22,133.22,0,0,1,11.27-18.87c.49-.7,1-1.39,1.5-2.08l.89-1.15a.18.18,0,0,0,0-.07l.07-.08s0,0,0,0l.06-.06.08-.1,0-.05,0,0h0l0,0s0,0,0,0h0s0,0,0,0c1-1.22,2-2.43,3-3.61q3.73-4.37,7.81-8.42,4.35-4.32,9-8.28c1.3-1.1,2.61-2.17,4-3.22h0l1.78-1.36c.9-.66,1.8-1.31,2.71-2a172.59,172.59,0,0,1,23.35-13.84q2.91-1.44,5.86-2.77c.92-.42,1.85-.82,2.77-1.22h0c.32-.12,2.43-1,2.83-1.16q7.13-2.83,14.44-5.14a244.53,244.53,0,0,1,31.69-7.65c6.79-1.18,9.71-1.58,16-2.25s12.7-1.14,19.06-1.43q5.1-.22,10.2-.29C192.14,361.82,178.58,406.5,158,448.69ZM589.37,38.13s0,0,0-.05c0,1.6.16,3.19.08,4.8,0,.62-.17,1.27-.19,1.89,0-.13.06-.25.09-.34a6,6,0,0,0-.09.61v-.27c0,.12,0,.27-.09.43-.4,1.72-.8,3.42-1.37,5.1-.13.37-.26.72-.41,1.09a0,0,0,0,1,0,0v0a.07.07,0,0,1,0,0l0,.08a1.26,1.26,0,0,1-.06.18,1.33,1.33,0,0,1-.07.18.18.18,0,0,1,0,.07v0c-.13.33-.3.74-.48,1.12a50.9,50.9,0,0,1-2.84,5.1c-.47.75-1,1.48-1.48,2.21l-.89,1.19,0,0-.06.07a0,0,0,0,1,0,0l0,0c-1.18,1.39-2.37,2.75-3.65,4.05-1.5,1.54-3.09,3-4.73,4.38-.42.36-.84.69-1.26,1l.38-.26c-.14.14-1.45,1.14-.5.35-1,.7-1.93,1.4-2.92,2.07C558.76,80,551.38,82.92,540,85.85c-13.12,3.38-25.66,4.45-39.59,4.18a145,145,0,0,1-16.9-1.19l2.28-3.62c3.43-5.44,6.95-10.83,10.63-16.11s6.76-9.49,9.94-13.39a157.16,157.16,0,0,1,11.27-12.5c1.82-1.8,3.69-3.54,5.63-5.21.88-.76,1.78-1.49,2.67-2.24l.11-.09,0,0a.13.13,0,0,0,.06-.05l.18-.15-.12.11c.58-.43,1.15-.85,1.74-1.27a93.18,93.18,0,0,1,12.64-7.36c.22-.11.36-.19.46-.23l-.27.07c.1-.08.61-.27.28-.08.15,0,.37-.12.7-.24,1.17-.42,2.33-.86,3.51-1.23a62.33,62.33,0,0,1,7.26-1.87c.79-.16,1.58-.31,2.38-.42-.21.07,2.31-.24,2.73-.27a74,74,0,0,1,8-.15c2.1.08,4.17.23,6.25.47.15,0,1.65.27,2,.35.9.19,1.79.4,2.67.66s1.67.59,2.52.82l0,0c-2.1-1.16,1.84.5,0,0,1.41.79,2.78,1.61,4.18,2.42-1.55-1.59,2.06,1.21,0,0,0,0,0,0,0,.05.47.48,1,.9,1.47,1.37s.92,1.06,1.41,1.55c-1.14-2,1.1,1.08.13.14a.87.87,0,0,1-.13-.14l.07.13c.64,1.09,1.2,2.46,1.93,3.5a.65.65,0,0,1,0-.13c-.15-.56-.21-.8-.21-.84a6.77,6.77,0,0,1,.38,1.16c0-.06-.09-.12-.13-.19.21.78.5,1.54.7,2.33.17.64.28,1.29.43,1.93v0C589.4,36.53,590,40.84,589.37,38.13Z"/><path class="cls-1" d="M541,26.68s0,0,0,0l-.27.07C540.85,26.68,541.36,26.49,541,26.68Z"/><path class="cls-1" d="M555.2,22.86l.58-.09Z"/><path class="cls-1" d="M572.09,70.94c-.14.14-1.45,1.14-.5.35l0,0,.08-.06Z"/><path class="cls-1" d="M579.12,24.8h0l0,0C577,23.62,580.92,25.28,579.12,24.8Z"/><path class="cls-1" d="M583.31,27.22h0C581.75,25.63,585.36,28.43,583.31,27.22Z"/><path class="cls-1" d="M586.36,30.33a.87.87,0,0,1-.13-.14C585.09,28.23,587.33,31.27,586.36,30.33Z"/><path class="cls-1" d="M588.36,34c0-.06-.09-.12-.13-.19a.65.65,0,0,1,0-.13c-.15-.56-.21-.8-.21-.84A6.77,6.77,0,0,1,588.36,34Z"/><path class="cls-1" d="M589.34,44.43a6,6,0,0,0-.09.61v-.27C589.29,44.64,589.31,44.52,589.34,44.43Z"/><path class="cls-1" d="M589.37,38.13s0,0,0-.05v0C589.4,36.53,590,40.84,589.37,38.13Z"/><path class="cls-1" d="M233,316.68l-.47,0a9,9,0,0,1-1.65-.06Z"/><path class="cls-1" d="M246.07,294.3c-4.34.09-8.69,0-13-.07l1.31,0C238.24,294.06,242.16,294.11,246.07,294.3Z"/><path class="cls-1" d="M262.19,318.19l-.44,0h-.09l-.13,0-.38-.07C261.25,318,262.05,318.15,262.19,318.19Z"/><path class="cls-1" d="M294.41,608.86v0C294.5,610.28,294,607,294.41,608.86Z"/><path class="cls-1" d="M294.79,588.14c0,.06,0,.15,0,.29v0C294.62,589.25,294.73,588.4,294.79,588.14Z"/><path class="cls-1" d="M301.23,626.14c1,1.56-.66-.61,0,0Z"/><path class="cls-1" d="M313.81,337c-.08,0-.25-.16-.56-.37l-.32-.26Z"/><path class="cls-1" d="M318,638.18l-.32-.15A2.54,2.54,0,0,1,318,638.18Z"/><path class="cls-1" d="M329.47,357c-.68-2,.88,1.61,0,0Z"/><path class="cls-1" d="M332.52,398.19s0,.1,0,.15h0S332.51,398.25,332.52,398.19Z"/><path class="cls-1" d="M340.21,641.68l-.43.07.25-.06Z"/><path class="cls-1" d="M348.31,639.36c-.52.26-1.37.73-.33.12Z"/><path class="cls-1" d="M354.82,635.45l-.9.61.32-.26,0,0C354.62,635.57,354.77,635.47,354.82,635.45Z"/><path class="cls-1" d="M360.23,629.82l-.06.09s0,0,0,0Z"/><path class="cls-1" d="M362.42,594.19h0A0,0,0,0,1,362.42,594.19Z"/><path class="cls-1" d="M362.45,594.22c.07.06.19.2.39.43C362.71,594.51,362.59,594.36,362.45,594.22Z"/><path class="cls-1" d="M364.77,622l.09-.23A1.63,1.63,0,0,1,364.77,622Z"/><path class="cls-1" d="M365.83,600l-.26-.57a0,0,0,0,1,0,0h0C365.23,598,365.63,599.44,365.83,600Z"/><path class="cls-1" d="M367.19,613.26h0C367.45,612.38,367.12,615,367.19,613.26Z"/><path class="cls-1" d="M367.24,605.73h0C367.2,604,367.54,606.83,367.24,605.73Z"/></g></g></svg>