<?xml version="1.0" encoding="utf-8"?>
<!-- Generator: Adobe Illustrator 21.0.2, SVG Export Plug-In . SVG Version: 6.00 Build 0)  -->
<svg version="1.1" id="Layer_1" xmlns="http://www.w3.org/2000/svg" xmlns:xlink="http://www.w3.org/1999/xlink" x="0px" y="0px"
	 viewBox="0 0 396 867" style="enable-background:new 0 0 396 867;" xml:space="preserve">
<style type="text/css">
	.st0{fill:#FFFFFF;}
	.st1{fill:none;}
	.st2{fill:#E7CDF9;}
</style>
<title>pattern-blob</title>
<desc>Created with Sketch.</desc>
<g>
	<polygon id="path-1" class="st0" points="0,0 396,0 396,867 0,867 	"/>
</g>
<g id="pattern-blob">
	<g id="Group_1_">
		<path class="st1" d="M228.1,74.6c13.7,0,24.8,10.7,25.5,24.2c0,0.4,0,0.8,0,1.2c0,0.4,0,0.9,0,1.3c-0.6,13.5-11.8,24.3-25.5,24.3
			s-24.8-10.8-25.5-24.3c0-0.4,0-0.9,0-1.3C202.7,86,214.1,74.6,228.1,74.6z M233.2,465.2c-14.1,0-25.5-11.4-25.5-25.5
			c0-14,11.4-25.4,25.5-25.4s25.5,11.4,25.5,25.4C258.6,453.8,247.2,465.2,233.2,465.2z M243.4,311.8c-14.1,0-25.5-11.4-25.5-25.5
			c0-14,11.4-25.4,25.5-25.4s25.5,11.4,25.5,25.4S257.5,311.8,243.4,311.8z M207.7,607c0-0.4,0-0.8,0-1.2
			c0.7-13.5,11.8-24.2,25.5-24.2s24.8,10.7,25.5,24.2c0,0.4,0,0.8,0,1.2s0,0.9,0,1.3c-0.6,13.5-11.8,24.3-25.5,24.3
			s-24.8-10.8-25.5-24.3C207.7,607.9,207.7,607.4,207.7,607z M25.5,395.3c0.1-0.3,0.2-0.5,0.3-0.8c0.2-0.5,0.4-0.9,0.6-1.4
			c0.3-0.7,0.7-1.4,1.1-2c0.4-0.7,0.9-1.4,1.4-2c4.7-6.2,12.1-10.3,20.4-10.3c13.7,0,24.8,10.8,25.5,24.2c0,0.4,0,0.9,0,1.3
			s0,0.8,0,1.2c-0.6,13.5-11.7,24.2-25.4,24.2S24.6,419,23.9,405.5c0-0.4,0-0.8,0-1.2c0-0.1,0-0.3,0-0.4c0-0.3,0-0.7,0-1
			c0-0.5,0.1-1.1,0.1-1.6c0-0.3,0.1-0.6,0.1-0.9C24.5,398.7,24.9,397,25.5,395.3z M74.9,249.5c-14.1,0-25.5-11.5-25.5-25.5
			s11.4-25.5,25.5-25.5s25.5,11.4,25.5,25.5C100.3,238,88.9,249.5,74.9,249.5z M243.4,812.5c-14.1,0-25.5-11.4-25.5-25.5
			s11.4-25.5,25.5-25.5s25.5,11.4,25.5,25.5C268.9,801.2,257.5,812.5,243.4,812.5z"/>
		<g id="a_1_">
		</g>
		<path class="st2" d="M245.2,134.9c3.8,11.7,8.2,23.3,19.4,32c11,8.5,24.8,10.8,38.2,11.9c12.3,1,24.7,1.9,37,0.8
			c12.8-1.2,28.1-3.6,38.6-12.2c8.1-6.6,11-18.8,13.1-28.4c3.7-16.3,4.6-34,0.5-49.6c-4.7-18.2-16.1-33.5-37.5-40.4
			c-5.9-1.9-11.5-2.2-17.6-2.5c-7.3-0.4-14.4-2.5-21.9-2.4c-11.9,0-25.3-0.5-36.5,4.4c-7.7,3.4-14.9,7.9-21.4,13.3
			c-9.6,7.9-17.2,19.2-18.7,32C236.7,108,240.8,121.3,245.2,134.9z M280.7,112c0-0.4,0-0.8,0-1.2c0.6-13.5,11.8-24.3,25.5-24.3
			c14.1,0,25.5,11.4,25.5,25.5c0,0.4,0,0.9,0,1.3c-0.7,13.5-11.8,24.2-25.5,24.2s-24.8-10.6-25.5-24.2
			C280.7,112.9,280.7,112.4,280.7,112z M227.7,309.8c3.8,11.7,8.2,23.3,19.4,32c11,8.5,24.8,10.8,38.2,11.9c12.3,1,24.7,1.9,37,0.8
			c12.8-1.2,28.1-3.6,38.6-12.2c8-6.6,11-18.8,13.1-28.4c3.7-16.4,4.5-34,0.5-49.6c-4.7-18.2-16.1-33.5-37.5-40.4
			c-5.9-1.9-11.5-2.2-17.6-2.5c-7.3-0.4-14.4-2.4-21.9-2.4c-11.9,0-25.3-0.5-36.5,4.4c-7.7,3.4-14.9,7.9-21.4,13.3
			c-9.6,7.9-17.2,19.2-18.7,32C219.2,282.9,223.3,296.2,227.7,309.8z M265.4,298.3c0-14,11.4-25.4,25.5-25.4s25.5,11.4,25.5,25.4
			c0,14.1-11.4,25.5-25.5,25.5S265.4,312.3,265.4,298.3z M230,474.6c3.8,11.7,8.2,23.3,19.4,32c11,8.5,24.8,10.8,38.2,11.9
			c12.3,1,24.7,1.9,37,0.8c12.8-1.2,28.1-3.6,38.6-12.2c8.1-6.6,11-18.8,13.1-28.4c3.7-16.3,4.6-34,0.5-49.6
			c-4.7-18.2-16.1-33.5-37.5-40.4c-5.9-1.9-11.5-2.2-17.6-2.5c-7.3-0.4-14.4-2.4-21.9-2.4c-11.9,0-25.3-0.5-36.5,4.4
			c-7.7,3.4-14.9,7.9-21.4,13.3c-9.6,7.9-17.2,19.2-18.7,32C221.5,447.7,225.6,461,230,474.6z M275.6,451.7
			c0-14,11.4-25.4,25.5-25.4s25.5,11.4,25.5,25.4c0,14.1-11.4,25.5-25.5,25.5C287.1,477.2,275.7,465.8,275.6,451.7z M37.5,90.8
			c3.8,11.7,8.2,23.3,19.4,32c11,8.5,24.8,10.8,38.2,11.9c10.5,0.8,21.1,1.6,31.6,1.1c0.1,0,0.1,0,0.2,0c1.7,0,3.5-0.1,5.2-0.3
			c12.8-1.2,28.1-3.6,38.6-12.2c8.1-6.6,11-18.8,13.1-28.4c3.7-16.3,4.6-34,0.5-49.6c-4.7-18.2-16.1-33.5-37.5-40.4
			c-5.9-1.9-11.5-2.2-17.6-2.5c-0.8-0.1-1.5-0.1-2.3-0.2c-0.1,0-0.1,0-0.2,0C120.3,1.7,113.9,0,107.3,0C95.4,0,82-0.5,70.8,4.4
			c-7.7,3.4-14.9,7.9-21.4,13.3c-9.6,7.9-17.2,19.2-18.7,32C29,63.9,33.1,77.2,37.5,90.8z M76,74.3c0-14.1,11.3-25.5,25.4-25.5
			c13,0,23.8,9.7,25.3,22.3c0.1,1,0.2,2.1,0.2,3.2s-0.1,2.1-0.2,3.2c-1.5,12.6-12.3,22.3-25.3,22.3C87.4,99.8,76,88.4,76,74.3z
			 M11.3,264.7c3.8,11.7,8.2,23.3,19.4,32c11,8.5,24.8,10.8,38.2,11.9c12.3,1,24.7,1.9,37,0.8c6.6-0.7,13.9-1.6,20.8-3.6
			c0.1,0,0.1,0,0.2,0c6.4-1.8,12.6-4.5,17.6-8.6c8.1-6.6,11-18.8,13.1-28.4c3.7-16.4,4.5-34.1,0.5-49.6c-4.2-16.3-13.8-30.3-31.2-38
			c-0.1,0-0.1-0.1-0.2-0.1c-1.9-0.9-4-1.6-6.1-2.3c-5.9-1.9-11.5-2.2-17.6-2.5c-7.3-0.4-14.4-2.4-21.9-2.4
			c-11.9,0-25.3-0.5-36.5,4.4c-7.7,3.4-14.9,7.9-21.4,13.3c-9.6,7.9-17.2,19.2-18.7,32C2.8,237.8,6.9,251.1,11.3,264.7z M62.6,247.3
			c0-14.1,11.4-25.5,25.5-25.5s25.5,11.4,25.5,25.5c0,14.1-11.4,25.5-25.5,25.5S62.6,261.4,62.6,247.3z M42.4,439.1
			c3.8,11.7,8.2,23.3,19.4,32c11,8.5,24.8,10.8,38.2,11.9c8.8,0.7,17.8,1.4,26.7,1.3h0.2c3.4,0,6.7-0.2,10.1-0.5
			c12.8-1.2,28.1-3.6,38.6-12.2c8-6.6,11-18.8,13.1-28.4c3.7-16.4,4.6-34,0.5-49.6c-4.7-18.2-16.1-33.5-37.5-40.4
			c-5.9-1.9-11.5-2.2-17.6-2.5c-2.4-0.1-4.8-0.4-7.2-0.8c-0.1,0-0.1,0-0.2,0c-4.7-0.7-9.6-1.6-14.5-1.6c-11.9,0-25.3-0.5-36.5,4.4
			c-7.7,3.4-14.9,7.9-21.4,13.3c-9.6,7.9-17.2,19.2-18.7,32C33.9,412.2,38,425.5,42.4,439.1z M88,416.3c0-14,11.4-25.4,25.5-25.4
			h1.6c4.2,0.2,8.1,1.4,11.6,3.6c0.1,0,0.1,0.1,0.2,0.1c7.3,4.5,12.1,12.5,12.1,21.7s-4.8,17.2-12.1,21.7c-0.1,0-0.1,0.1-0.2,0.1
			c-3.8,2.3-8.3,3.7-13.1,3.7c-8,0-15-3.6-19.7-9.3C90.3,428,88.1,422.4,88,416.3z M230,651.9c3.8,11.7,8.2,23.3,19.4,32
			c11,8.5,24.8,10.8,38.2,11.9c12.3,1,24.7,1.9,37,0.8c12.8-1.2,28.1-3.6,38.6-12.2c8.1-6.6,11-18.8,13.1-28.4
			c3.7-16.4,4.6-34,0.5-49.6c-4.7-18.2-16.1-33.5-37.5-40.4c-5.9-1.9-11.5-2.2-17.6-2.5c-7.3-0.4-14.4-2.5-21.9-2.4
			c-11.9,0-25.3-0.5-36.5,4.4c-7.7,3.4-14.9,7.9-21.4,13.3c-9.6,7.9-17.2,19.2-18.7,32C221.5,625,225.6,638.3,230,651.9z M275.6,619
			c0-0.4,0-0.8,0-1.2c0.6-13.5,11.8-24.3,25.5-24.3s24.8,10.8,25.5,24.3c0,0.4,0,0.8,0,1.2s0,0.9,0,1.3
			c-0.7,13.5-11.8,24.2-25.5,24.2c-13.6,0-24.8-10.7-25.5-24.2C275.6,619.9,275.6,619.4,275.6,619z M42.4,616.4
			c3.8,11.7,8.2,23.3,19.4,32c11,8.5,24.8,10.8,38.2,11.9c8.8,0.8,17.8,1.4,26.7,1.3h0.2c3.4,0,6.7-0.2,10.1-0.5
			c12.8-1.2,28.1-3.6,38.6-12.2c8-6.6,11-18.8,13.1-28.4c3.7-16.4,4.6-34,0.5-49.6c-4.7-18.2-16.1-33.5-37.5-40.4
			c-5.9-1.9-11.5-2.2-17.6-2.5c-2.4-0.1-4.8-0.5-7.2-0.8c-0.1,0-0.1,0-0.2,0c-4.7-0.7-9.6-1.6-14.5-1.6c-11.9,0-25.3-0.5-36.5,4.4
			c-7.7,3.4-14.9,7.9-21.4,13.3c-9.6,7.9-17.2,19.2-18.7,32C33.9,589.5,38,602.8,42.4,616.4z M62.6,586.5
			c0-14.1,11.4-25.5,25.5-25.5s25.5,11.4,25.5,25.5S102.1,612,88.1,612C74,612,62.6,600.6,62.6,586.5z M230,821.9
			c3.8,11.7,8.2,23.3,19.4,32c11,8.5,24.8,10.8,38.2,11.9c0.8,0.1,1.7,0.1,2.5,0.2c11.5,0.9,23,1.6,34.5,0.6
			c1.8-0.2,3.7-0.4,5.6-0.6c11.4-1.4,24-4.2,33-11.6c8.1-6.6,11-18.8,13.1-28.4c3.7-16.4,4.6-34,0.5-49.6
			c-4.7-18.2-16.1-33.5-37.5-40.4c-5.9-1.9-11.5-2.2-17.6-2.5c-7.3-0.4-14.4-2.5-21.9-2.4c-11.9,0-25.3-0.5-36.5,4.4
			c-7.7,3.4-14.9,7.9-21.4,13.3c-9.6,7.9-17.2,19.2-18.7,32C221.5,795,225.6,808.3,230,821.9z M265.4,799
			c0-14.1,11.4-25.5,25.5-25.5s25.5,11.4,25.5,25.5s-11.4,25.5-25.5,25.5S265.4,813.2,265.4,799z M42.4,786.4
			c3.8,11.7,8.2,23.3,19.4,32c11,8.5,24.8,10.8,38.2,11.9c8.8,0.8,17.8,1.4,26.7,1.3h0.2c3.4,0,6.7-0.2,10.1-0.5
			c12.8-1.2,28.1-3.6,38.6-12.2c8-6.6,11-18.8,13.1-28.4c3.7-16.4,4.6-34.1,0.5-49.6c-4.7-18.2-16.1-33.5-37.5-40.4
			c-5.9-1.9-11.5-2.2-17.6-2.5c-2.4-0.1-4.8-0.4-7.2-0.8c-0.1,0-0.1,0-0.2,0c-4.7-0.7-9.6-1.7-14.5-1.6c-11.9,0-25.3-0.5-36.5,4.4
			c-7.7,3.4-14.9,7.9-21.4,13.3c-9.6,7.9-17.2,19.2-18.7,32C33.9,759.5,38,772.8,42.4,786.4z M69.9,756.5c0-14,11.4-25.4,25.5-25.4
			s25.5,11.3,25.5,25.4S109.5,782,95.4,782C81.4,782,69.9,770.5,69.9,756.5z"/>
	</g>
</g>
</svg>
