<?xml version="1.0" encoding="utf-8"?>
<!-- Generator: Adobe Illustrator 20.1.0, SVG Export Plug-In . SVG Version: 6.00 Build 0)  -->
<svg version="1.1" id="Layer_1" xmlns="http://www.w3.org/2000/svg" xmlns:xlink="http://www.w3.org/1999/xlink" x="0px" y="0px"
	 viewBox="0 0 396 867" style="enable-background:new 0 0 396 867;" xml:space="preserve">
<style type="text/css">
	.st0{fill:#FFFFFF;}
	.st1{fill:none;}
	.st2{fill:#DEAAF9;}
</style>
<g>
	<polygon id="path-1" class="st0" points="0,0 396,0 396,867 0,867 	"/>
</g>
<title>pattern-blob</title>
<desc>Created with Sketch.</desc>
<g id="Page-1">
	<g id="pattern-blob">
		<g id="Group_1_">
			<path class="st1" d="M0,0v70.5c0-14.1,11.4-25.4,25.5-25.4s25.4,11.4,25.4,25.4S39.5,96,25.5,96S0,84.6,0,70.5v506.7
				c0.4-1,0.9-2,1.5-2.9c0.1-0.2,0.2-0.4,0.3-0.5c0,0,0,0,0.1-0.1c0.1-0.2,0.2-0.4,0.4-0.6c0,0,0,0,0-0.1c0.1-0.2,0.2-0.3,0.4-0.5
				l0,0c0.1-0.1,0.2-0.3,0.3-0.4l0,0c0,0,0-0.1,0.1-0.1c0,0,0,0,0-0.1c0.1-0.2,0.3-0.4,0.5-0.6c0.2-0.3,0.5-0.6,0.8-0.9
				c0.2-0.2,0.4-0.5,0.6-0.7l0.1-0.1c0.1-0.1,0.2-0.2,0.3-0.3c0.2-0.2,0.4-0.4,0.7-0.6c0.3-0.3,0.6-0.6,0.9-0.8
				c0.3-0.3,0.6-0.5,1-0.8c0.3-0.2,0.6-0.4,0.9-0.6c0.1-0.1,0.2-0.2,0.4-0.3s0.4-0.2,0.5-0.3l0.1-0.1c0.2-0.2,0.5-0.3,0.8-0.4
				l0.1-0.1c0.2-0.1,0.4-0.2,0.6-0.3c0.2-0.1,0.4-0.2,0.7-0.3c0.5-0.2,0.9-0.4,1.4-0.6c0.6-0.3,1.3-0.5,2-0.7h0.1
				c0.1,0,0.2-0.1,0.4-0.1c0.3-0.1,0.7-0.2,1-0.3c0.4-0.1,0.8-0.2,1.2-0.3c0.4-0.1,0.8-0.2,1.2-0.2l0,0c0.4-0.1,0.8-0.1,1.3-0.2
				c0.3,0,0.7-0.1,1-0.1c0.2,0,0.3,0,0.5,0c0.4,0,0.8,0,1.1,0c0.9,0,1.8,0,2.6,0.1c0.4,0,0.9,0.1,1.3,0.2c0.4,0.1,0.8,0.1,1.2,0.2
				c0.4,0.1,0.8,0.2,1.1,0.2c0.1,0,0.1,0,0.2,0c0.4,0.1,0.8,0.2,1.1,0.3c0.8,0.2,1.6,0.5,2.3,0.9c0.7,0.3,1.3,0.6,1.9,0.9
				c0.1,0.1,0.2,0.1,0.4,0.2c0.4,0.2,0.8,0.4,1.2,0.7c0.3,0.2,0.6,0.3,0.8,0.5c0.4,0.2,0.7,0.5,1.1,0.8c0.3,0.2,0.7,0.5,1,0.8
				c0.8,0.7,1.6,1.4,2.4,2.2c0.1,0.1,0.3,0.3,0.4,0.4c0.2,0.2,0.4,0.4,0.5,0.6c0.2,0.2,0.4,0.4,0.5,0.7c0.4,0.5,0.8,1,1.1,1.5
				c0.2,0.2,0.3,0.5,0.5,0.7c0.1,0.1,0.2,0.3,0.3,0.5c0.2,0.3,0.3,0.6,0.5,0.9c0.2,0.4,0.4,0.7,0.6,1.1c0.2,0.3,0.3,0.7,0.5,1.1
				c0,0.1,0.1,0.2,0.1,0.2c0.1,0.2,0.2,0.4,0.2,0.6c0,0.1,0.1,0.1,0.1,0.2c0,0.1,0.1,0.2,0.1,0.3c0.2,0.6,0.4,1.2,0.6,1.9
				c0.1,0.2,0.1,0.5,0.2,0.7l0,0c0.1,0.3,0.1,0.6,0.2,0.8c0,0,0,0,0,0.1c0.1,0.4,0.1,0.8,0.2,1.2c0.1,0.8,0.2,1.7,0.3,2.6
				c0,0.1,0,0.2,0,0.3c0,0.4,0,0.7,0,1.1c0,14-11.4,25.5-25.4,25.5c-0.9,0-1.8,0-2.6-0.1c-0.9-0.1-1.7-0.2-2.5-0.4
				c-0.2,0-0.5-0.1-0.7-0.1c-0.1,0-0.2,0-0.3-0.1c-0.2,0-0.3-0.1-0.5-0.1c-0.2-0.1-0.5-0.1-0.7-0.2c-0.1,0-0.3-0.1-0.4-0.1
				c0,0-0.1,0-0.2,0c-0.3-0.1-0.6-0.2-0.9-0.3c-0.3-0.1-0.6-0.2-0.9-0.3c0,0-0.1,0-0.1-0.1c-0.1,0-0.3-0.1-0.4-0.2
				c-0.3-0.1-0.6-0.2-0.9-0.4c-0.8-0.4-1.5-0.8-2.2-1.2c-0.4-0.2-0.7-0.4-1-0.7c-0.3-0.2-0.7-0.5-1-0.7s-0.6-0.5-1-0.8
				c-0.2-0.2-0.5-0.4-0.7-0.6l0,0c-0.1-0.1-0.3-0.3-0.4-0.4c-0.2-0.2-0.5-0.4-0.7-0.6c-0.3-0.3-0.6-0.6-0.8-0.9
				c-0.2-0.3-0.5-0.5-0.7-0.8c-0.1-0.1-0.1-0.2-0.2-0.2c-0.2-0.3-0.4-0.5-0.6-0.8c-0.2-0.3-0.4-0.6-0.6-0.9
				c-0.2-0.2-0.3-0.5-0.5-0.7c0,0,0-0.1-0.1-0.1c-0.1-0.1-0.2-0.2-0.2-0.4c-0.1-0.1-0.2-0.2-0.2-0.4c-0.1-0.3-0.3-0.5-0.4-0.8
				s-0.3-0.5-0.4-0.8s-0.2-0.5-0.4-0.8c0,0,0,0,0-0.1V757c4.6-4.8,11.1-7.8,18.3-7.8c14.1,0,25.5,11.4,25.5,25.5
				s-11.4,25.5-25.5,25.5c-7.2,0-13.7-3-18.3-7.8V867h396V439c-7.3-4.5-12.1-12.5-12.1-21.7s4.8-17.2,12.1-21.7V0H0z M216.7,87.6
				c14.1,0,25.5,11.4,25.5,25.5s-11.4,25.5-25.5,25.5s-25.5-11.4-25.5-25.5C191.3,99,202.7,87.6,216.7,87.6z M221.8,478.2
				c-14.1,0-25.5-11.4-25.5-25.5c0-14,11.4-25.4,25.5-25.4s25.5,11.4,25.5,25.4C247.2,466.8,235.8,478.2,221.8,478.2z M232,324.8
				c-14.1,0-25.5-11.4-25.5-25.5c0-14,11.4-25.4,25.5-25.4s25.5,11.4,25.5,25.4S246.1,324.8,232,324.8z M221.8,594.6
				c14.1,0,25.5,11.4,25.5,25.5s-11.4,25.5-25.5,25.5s-25.5-11.4-25.5-25.5S207.7,594.6,221.8,594.6z M38,391.8
				c14.1,0,25.5,11.4,25.5,25.4c0,14.1-11.4,25.5-25.5,25.5s-25.5-11.4-25.5-25.5C12.6,403.2,24,391.8,38,391.8z M63.5,262.5
				C49.4,262.5,38,251,38,237s11.4-25.5,25.5-25.5S89,222.9,89,237C88.9,251,77.5,262.5,63.5,262.5z M232,825.5
				c-14.1,0-25.5-11.4-25.5-25.5s11.4-25.5,25.5-25.5s25.5,11.4,25.5,25.5C257.5,814.2,246.1,825.5,232,825.5z"/>
			<g id="a_1_">
			</g>
			<g id="Shape" transform="translate(-60.000000, 0.000000)">
				<path class="st2" d="M161.2,50.7c-1.5-12.8-9.1-24.1-18.7-32c-6.5-5.4-13.7-9.9-21.4-13.3C109.9,0.5,96.5,1,84.6,1
					c-7.4,0-14.5,2.1-21.9,2.4c-0.9,0-1.8,0.1-2.7,0.1c-5.1,0.3-9.8,0.7-14.9,2.4C23.7,12.8,12.3,28.1,7.6,46.3
					c-4,15.6-3.2,33.3,0.5,49.6c2.1,9.6,5,21.8,13.1,28.4c10.5,8.6,25.8,11,38.6,12.2c0.1,0,0.1,0,0.2,0c12.2,1.1,24.6,0.2,36.8-0.8
					c13.4-1.1,27.2-3.4,38.2-11.9c11.2-8.7,15.6-20.3,19.4-32C158.8,78.2,162.9,64.9,161.2,50.7z M85.5,96C71.4,96,60,84.6,60,70.5
					s11.4-25.4,25.5-25.4s25.4,11.4,25.4,25.4S99.5,96,85.5,96z M344.5,94.8c-1.5-12.8-9.1-24.1-18.7-32
					c-6.5-5.4-13.7-9.9-21.4-13.3c-11.2-4.9-24.6-4.4-36.5-4.4c-7.5-0.1-14.6,2-21.9,2.4c-6.1,0.3-11.7,0.6-17.6,2.5
					c-21.4,6.9-32.8,22.2-37.5,40.4c-4.1,15.6-3.2,33.3,0.5,49.6c2.1,9.6,5,21.8,13.1,28.4c10.5,8.6,25.8,11,38.6,12.2
					c12.3,1.1,24.7,0.2,37-0.8c13.4-1.1,27.2-3.4,38.2-11.9c11.2-8.7,15.6-20.3,19.4-32C342.1,122.3,346.2,109,344.5,94.8z
					 M276.7,138.5c-14.1,0-25.5-11.4-25.5-25.5s11.4-25.5,25.5-25.5s25.5,11.4,25.5,25.5C302.2,127.2,290.8,138.5,276.7,138.5z
					 M187.4,224.6c-1.5-12.8-9.1-24.1-18.7-32c-6.5-5.4-13.7-9.9-21.4-13.3c-11.2-4.9-24.6-4.4-36.5-4.4c-7.5,0-14.6,2-21.9,2.4
					c-6.1,0.3-11.7,0.6-17.6,2.5c-4.1,1.3-7.9,3-11.3,4.9c-14.2,8-22.4,20.8-26.2,35.5c-4,15.5-3.2,33.2,0.5,49.6
					c2.1,9.6,5,21.8,13.1,28.4c3.7,3,8,5.3,12.6,7c8.4,3.1,17.7,4.4,26,5.2c12.3,1.1,24.7,0.2,37-0.8c13.4-1.1,27.2-3.4,38.2-11.9
					c11.2-8.7,15.6-20.3,19.4-32C185,252.1,189.1,238.8,187.4,224.6z M123.5,262.5C109.4,262.5,98,251,98,237s11.4-25.5,25.5-25.5
					S149,222.9,149,237C148.9,251,137.5,262.5,123.5,262.5z M362,269.7c-1.5-12.8-9.1-24.1-18.7-32c-6.5-5.4-13.7-9.9-21.4-13.3
					c-11.2-4.9-24.6-4.4-36.5-4.4c-7.5,0-14.6,2-21.9,2.4c-6.1,0.3-11.7,0.6-17.6,2.5c-21.4,6.9-32.8,22.2-37.5,40.4
					c-4,15.6-3.2,33.2,0.5,49.6c2.1,9.6,5.1,21.8,13.1,28.4c10.5,8.6,25.8,11,38.6,12.2c12.3,1.1,24.7,0.2,37-0.8
					c13.4-1.1,27.2-3.4,38.2-11.9c11.2-8.7,15.6-20.3,19.4-32C359.6,297.2,363.7,283.9,362,269.7z M292,324.8
					c-14.1,0-25.5-11.4-25.5-25.5c0-14,11.4-25.4,25.5-25.4s25.5,11.4,25.5,25.4S306.1,324.8,292,324.8z M156.3,399
					c-1.5-12.8-9.1-24.1-18.7-32c-6.5-5.4-13.7-9.9-21.4-13.3c-11.2-4.9-24.6-4.4-36.5-4.4c-6.8,0-13.2,1.6-19.7,2.2
					c-0.7,0.1-1.5,0.1-2.2,0.2c-6.1,0.3-11.7,0.6-17.6,2.5c-21.4,6.9-32.8,22.2-37.5,40.4c-4.1,15.6-3.2,33.2,0.5,49.6
					c2.1,9.6,5,21.8,13.1,28.4c10.5,8.6,25.8,11,38.6,12.2c1.7,0.2,3.4,0.3,5.1,0.3c10.6,0.5,21.3-0.3,31.9-1.1
					c13.4-1.1,27.2-3.4,38.2-11.9c11.2-8.7,15.6-20.3,19.4-32C153.9,426.5,158,413.2,156.3,399z M98,442.8
					c-14.1,0-25.5-11.4-25.5-25.5c0-14,11.4-25.4,25.5-25.4s25.5,11.4,25.5,25.4S112.1,442.8,98,442.8z M359.7,434.5
					c-1.5-12.8-9.1-24.1-18.7-32c-6.5-5.4-13.7-9.9-21.4-13.3c-11.2-4.9-24.6-4.4-36.5-4.4c-7.5,0-14.6,2-21.9,2.4
					c-6.1,0.3-11.7,0.6-17.6,2.5c-21.4,6.9-32.8,22.2-37.5,40.4c-4.1,15.6-3.2,33.3,0.5,49.6c2.1,9.6,5,21.8,13.1,28.4
					c10.5,8.6,25.8,11,38.6,12.2c12.3,1.1,24.7,0.2,37-0.8c13.4-1.1,27.2-3.4,38.2-11.9c11.2-8.7,15.6-20.3,19.4-32
					C357.3,462,361.4,448.7,359.7,434.5z M281.8,478.2c-14.1,0-25.5-11.4-25.5-25.5c0-14,11.4-25.4,25.5-25.4s25.5,11.4,25.5,25.4
					C307.2,466.8,295.8,478.2,281.8,478.2z M552.2,50.7c-1.5-12.8-9.1-24.1-18.7-32c-6.5-5.4-13.7-9.9-21.4-13.3
					C500.9,0.5,487.5,1,475.6,1c-6.7,0-13.1,1.7-19.6,2.2c-0.8,0.1-1.5,0.1-2.3,0.2C447.6,3.7,442,4,436.1,5.9
					c-21.4,6.9-32.8,22.2-37.5,40.4c-4.1,15.6-3.2,33.3,0.5,49.6c2.1,9.6,5,21.8,13.1,28.4c10.5,8.6,25.8,11,38.6,12.2
					c1.7,0.2,3.5,0.3,5.2,0.3c10.6,0.5,21.2-0.3,31.8-1.1c13.4-1.1,27.2-3.4,38.2-11.9c11.2-8.7,15.6-20.3,19.4-32
					C549.8,78.2,553.9,64.9,552.2,50.7z M481.5,100.8c-14.1,0-25.5-11.4-25.5-25.5s11.4-25.5,25.5-25.5s25.4,11.4,25.4,25.5
					S495.5,100.8,481.5,100.8z M578.4,224.6c-1.5-12.8-9.1-24.1-18.7-32c-6.5-5.4-13.7-9.9-21.4-13.3c-11.2-4.9-24.6-4.4-36.5-4.4
					c-7.5,0-14.6,2-21.9,2.4c-6.1,0.3-11.7,0.6-17.6,2.5c-2.2,0.7-4.3,1.5-6.3,2.4c-17.4,7.7-27,21.7-31.2,38
					c-4,15.5-3.2,33.2,0.5,49.6c2.1,9.6,5,21.8,13.1,28.4c5,4.1,11.2,6.8,17.6,8.6c7,2,14.3,2.9,21,3.6c12.3,1.1,24.7,0.2,37-0.8
					c13.4-1.1,27.2-3.4,38.2-11.9c11.2-8.7,15.6-20.3,19.4-32C576,252.1,580.1,238.8,578.4,224.6z M494.8,273.8
					c-14.1,0-25.5-11.4-25.5-25.5s11.4-25.5,25.5-25.5s25.5,11.4,25.5,25.5S508.9,273.8,494.8,273.8z M547.3,399
					c-1.5-12.8-9.1-24.1-18.7-32c-6.5-5.4-13.7-9.9-21.4-13.3c-11.2-4.9-24.6-4.4-36.5-4.4c-5,0-9.9,0.9-14.7,1.6
					c-2.4,0.4-4.8,0.7-7.2,0.8c-6.1,0.3-11.7,0.6-17.6,2.5c-21.4,6.9-32.8,22.2-37.5,40.4c-4.1,15.6-3.2,33.2,0.5,49.6
					c2.1,9.6,5.1,21.8,13.1,28.4c10.5,8.6,25.8,11,38.6,12.2c3.4,0.3,6.7,0.5,10.1,0.5c9,0.1,18-0.6,26.9-1.3
					c13.4-1.1,27.2-3.4,38.2-11.9c11.2-8.7,15.6-20.3,19.4-32C544.9,426.5,549,413.2,547.3,399z M489,433.5
					c-4.7,5.7-11.7,9.3-19.7,9.3c-4.9,0-9.5-1.4-13.3-3.8c-7.3-4.5-12.1-12.5-12.1-21.7s4.8-17.2,12.1-21.7
					c3.5-2.2,7.5-3.5,11.8-3.7c0.5,0,1,0,1.6,0c14.1,0,25.5,11.4,25.5,25.4C494.8,423.4,492.6,429,489,433.5z M156.3,576.3
					c-1.5-12.8-9.1-24.1-18.7-32c-6.5-5.4-13.7-9.9-21.4-13.3c-11.2-4.9-24.6-4.4-36.5-4.4c-6.8,0-13.2,1.6-19.7,2.2
					c-0.7,0.1-1.5,0.1-2.2,0.2c-6.1,0.3-11.7,0.6-17.6,2.5c-21.4,6.9-32.8,22.2-37.5,40.4c-4.1,15.6-3.2,33.2,0.5,49.6
					c2.1,9.6,5,21.8,13.1,28.4c10.5,8.6,25.8,11,38.6,12.2c1.7,0.2,3.4,0.3,5.1,0.3c10.6,0.5,21.3-0.3,31.9-1.1
					c13.4-1.1,27.2-3.4,38.2-11.9c11.2-8.7,15.6-20.3,19.4-32C153.9,603.8,158,590.5,156.3,576.3z M83.3,613c-0.9,0-1.8,0-2.6-0.1
					c-0.9-0.1-1.7-0.2-2.5-0.4c-0.2,0-0.5-0.1-0.7-0.1c-0.1,0-0.2,0-0.3-0.1c-0.2,0-0.3-0.1-0.5-0.1c-0.2-0.1-0.5-0.1-0.7-0.2
					c-0.1,0-0.3-0.1-0.4-0.1c0,0-0.1,0-0.2,0c-0.3-0.1-0.6-0.2-0.9-0.3s-0.6-0.2-0.9-0.3c0,0-0.1,0-0.1-0.1c-0.1,0-0.3-0.1-0.4-0.2
					c-0.3-0.1-0.6-0.2-0.9-0.4c-0.8-0.4-1.5-0.8-2.2-1.2c-0.4-0.2-0.7-0.4-1-0.7c-0.3-0.2-0.7-0.5-1-0.7s-0.6-0.5-1-0.8
					c-0.2-0.2-0.5-0.4-0.7-0.6l0,0c-0.1-0.1-0.3-0.3-0.4-0.4c-0.2-0.2-0.5-0.4-0.7-0.6c-0.3-0.3-0.6-0.6-0.8-0.9
					c-0.2-0.3-0.5-0.5-0.7-0.8c-0.1-0.1-0.1-0.2-0.2-0.2c-0.2-0.3-0.4-0.5-0.6-0.8c-0.2-0.3-0.4-0.6-0.6-0.9
					c-0.2-0.2-0.3-0.5-0.5-0.7c0,0,0-0.1-0.1-0.1c-0.1-0.1-0.2-0.2-0.2-0.4c-0.1-0.1-0.2-0.2-0.2-0.4c-0.1-0.3-0.3-0.5-0.4-0.8
					s-0.3-0.5-0.4-0.8s-0.2-0.5-0.4-0.8c0,0,0,0,0-0.1l0,0c-0.2-0.3-0.3-0.7-0.5-1.1c0-0.1-0.1-0.2-0.1-0.2c-0.1-0.3-0.2-0.7-0.4-1
					c0,0,0-0.1-0.1-0.1c-0.1-0.4-0.2-0.8-0.4-1.2c-0.1-0.4-0.2-0.8-0.3-1.3l0,0c-0.1-0.4-0.2-0.8-0.2-1.2v-0.2
					c0-0.3-0.1-0.6-0.1-0.9c0-0.2,0-0.3-0.1-0.5c-0.1-0.9-0.1-1.7-0.1-2.6l0,0c0-0.5,0-0.9,0-1.3c0-0.4,0-0.8,0.1-1.2
					c0-0.3,0.1-0.5,0.1-0.8c0.1-0.8,0.2-1.6,0.4-2.3c0-0.3,0.1-0.5,0.2-0.8c0-0.1,0.1-0.3,0.1-0.4c0.1-0.3,0.2-0.5,0.2-0.8
					c0.1-0.3,0.2-0.6,0.3-1c0,0,0,0,0-0.1c0.1-0.3,0.2-0.5,0.3-0.8c0.1-0.2,0.2-0.4,0.3-0.7c0,0,0-0.1,0.1-0.1l0,0
					c0.4-1,0.9-2,1.5-2.9c0.1-0.2,0.2-0.4,0.3-0.5c0,0,0,0,0.1-0.1c0.1-0.2,0.2-0.4,0.4-0.6c0,0,0,0,0-0.1c0.1-0.2,0.2-0.3,0.4-0.5
					l0,0c0.1-0.1,0.2-0.3,0.3-0.4l0,0c0,0,0-0.1,0.1-0.1c0,0,0,0,0-0.1c0.1-0.2,0.3-0.4,0.5-0.6c0.2-0.3,0.5-0.6,0.8-0.9
					c0.2-0.2,0.4-0.5,0.6-0.7l0.1-0.1c0.1-0.1,0.2-0.2,0.3-0.3c0.2-0.2,0.4-0.4,0.7-0.6c0.3-0.3,0.6-0.6,0.9-0.8
					c0.3-0.3,0.6-0.5,1-0.8c0.3-0.2,0.6-0.4,0.9-0.6c0.1-0.1,0.2-0.2,0.4-0.3c0.2-0.1,0.4-0.2,0.5-0.3l0.1-0.1
					c0.2-0.2,0.5-0.3,0.8-0.4l0.1-0.1c0.2-0.1,0.4-0.2,0.6-0.3s0.4-0.2,0.7-0.3c0.5-0.2,0.9-0.4,1.4-0.6c0.6-0.3,1.3-0.5,2-0.7h0.1
					c0.1,0,0.2-0.1,0.4-0.1c0.3-0.1,0.7-0.2,1-0.3c0.4-0.1,0.8-0.2,1.2-0.3c0.4-0.1,0.8-0.2,1.2-0.2l0,0c0.4-0.1,0.8-0.1,1.3-0.2
					c0.3,0,0.7-0.1,1-0.1c0.2,0,0.3,0,0.5,0c0.4,0,0.8,0,1.1,0c0.9,0,1.8,0,2.6,0.1c0.4,0,0.9,0.1,1.3,0.2c0.4,0.1,0.8,0.1,1.2,0.2
					c0.4,0.1,0.8,0.2,1.1,0.2c0.1,0,0.1,0,0.2,0c0.4,0.1,0.8,0.2,1.1,0.3c0.8,0.2,1.6,0.5,2.3,0.9c0.7,0.3,1.3,0.6,1.9,0.9
					c0.1,0.1,0.2,0.1,0.4,0.2c0.4,0.2,0.8,0.4,1.2,0.7c0.3,0.2,0.6,0.3,0.8,0.5c0.4,0.2,0.7,0.5,1.1,0.8c0.3,0.2,0.7,0.5,1,0.8
					c0.8,0.7,1.6,1.4,2.4,2.2c0.1,0.1,0.3,0.3,0.4,0.4c0.2,0.2,0.4,0.4,0.5,0.6c0.2,0.2,0.4,0.4,0.5,0.7c0.4,0.5,0.8,1,1.1,1.5
					c0.2,0.2,0.3,0.5,0.5,0.7c0.1,0.1,0.2,0.3,0.3,0.5c0.2,0.3,0.3,0.6,0.5,0.9c0.2,0.4,0.4,0.7,0.6,1.1c0.2,0.3,0.3,0.7,0.5,1.1
					c0,0.1,0.1,0.2,0.1,0.2c0.1,0.2,0.2,0.4,0.2,0.6c0,0.1,0.1,0.1,0.1,0.2c0,0.1,0.1,0.2,0.1,0.3c0.2,0.6,0.4,1.2,0.6,1.9
					c0.1,0.2,0.1,0.5,0.2,0.7l0,0c0.1,0.3,0.1,0.6,0.2,0.8c0,0,0,0,0,0.1c0.1,0.4,0.1,0.8,0.2,1.2c0.1,0.8,0.2,1.7,0.3,2.6
					c0,0.1,0,0.2,0,0.3c0,0.4,0,0.7,0,1.1C108.7,601.6,97.3,613,83.3,613z M359.7,611.8c-1.5-12.8-9.1-24.1-18.7-32
					c-6.5-5.4-13.7-9.9-21.4-13.3c-11.2-4.9-24.6-4.4-36.5-4.4c-7.5-0.1-14.6,2-21.9,2.4c-6.1,0.3-11.7,0.6-17.6,2.5
					c-21.4,6.9-32.8,22.2-37.5,40.4c-4.1,15.6-3.2,33.2,0.5,49.6c2.1,9.6,5,21.8,13.1,28.4c10.5,8.6,25.8,11,38.6,12.2
					c12.3,1.1,24.7,0.2,37-0.8c13.4-1.1,27.2-3.4,38.2-11.9c11.2-8.7,15.6-20.3,19.4-32C357.3,639.3,361.4,626,359.7,611.8z
					 M281.8,645.5c-14.1,0-25.5-11.4-25.5-25.5s11.4-25.5,25.5-25.5s25.5,11.4,25.5,25.5S295.8,645.5,281.8,645.5z M547.3,576.3
					c-1.5-12.8-9.1-24.1-18.7-32c-6.5-5.4-13.7-9.9-21.4-13.3c-11.2-4.9-24.6-4.4-36.5-4.4c-5,0-9.9,0.9-14.7,1.6
					c-2.4,0.3-4.8,0.7-7.2,0.8c-6.1,0.3-11.7,0.6-17.6,2.5c-21.4,6.9-32.8,22.2-37.5,40.4c-4.1,15.6-3.2,33.2,0.5,49.6
					c2.1,9.6,5.1,21.8,13.1,28.4c10.5,8.6,25.8,11,38.6,12.2c3.4,0.3,6.7,0.5,10.1,0.5c9,0.1,18-0.5,26.9-1.3
					c13.4-1.1,27.2-3.4,38.2-11.9c11.2-8.7,15.6-20.3,19.4-32C544.9,603.8,549,590.5,547.3,576.3z M494.8,613
					c-14,0-25.5-11.4-25.5-25.5s11.4-25.5,25.5-25.5s25.5,11.4,25.5,25.5S508.9,613,494.8,613z M156.3,746.3
					c-1.5-12.8-9.1-24.1-18.7-32c-6.5-5.4-13.7-9.9-21.4-13.3c-11.2-4.9-24.6-4.4-36.5-4.4c-6.7-0.1-13.2,1.6-19.7,2.2
					c-0.7,0.1-1.5,0.1-2.2,0.2c-6.1,0.3-11.7,0.6-17.6,2.5c-21.4,6.9-32.8,22.2-37.5,40.4c-4.1,15.5-3.2,33.2,0.5,49.6
					c2.1,9.6,5,21.8,13.1,28.4c10.5,8.6,25.8,11,38.6,12.2c1.7,0.2,3.4,0.3,5.1,0.3c10.6,0.5,21.3-0.3,31.9-1.1
					c13.4-1.1,27.2-3.4,38.2-11.9c11.2-8.7,15.6-20.3,19.4-32C153.9,773.8,158,760.5,156.3,746.3z M78.3,800.1
					c-7.2,0-13.7-3-18.3-7.8c-4.4-4.6-7.1-10.8-7.1-17.6c0-6.9,2.7-13.1,7.1-17.6c4.6-4.8,11.1-7.8,18.3-7.8
					c14.1,0,25.5,11.4,25.5,25.5S92.4,800.1,78.3,800.1z M359.7,781.8c-1.5-12.8-9.1-24.1-18.7-32c-6.5-5.4-13.7-9.9-21.4-13.3
					c-11.2-4.9-24.6-4.4-36.5-4.4c-7.5-0.1-14.6,2-21.9,2.4c-6.1,0.3-11.7,0.6-17.6,2.5c-21.4,6.9-32.8,22.2-37.5,40.4
					c-4.1,15.6-3.2,33.2,0.5,49.6c2.1,9.6,5,21.8,13.1,28.4c9,7.4,21.6,10.2,33,11.6c1.9,0.2,3.8,0.4,5.6,0.6
					c11.5,1,23,0.3,34.5-0.6c0.8-0.1,1.7-0.1,2.5-0.2c13.4-1.1,27.2-3.4,38.2-11.9c11.2-8.7,15.6-20.3,19.4-32
					C357.3,809.3,361.4,796,359.7,781.8z M292,825.5c-14.1,0-25.5-11.4-25.5-25.5s11.4-25.5,25.5-25.5s25.5,11.4,25.5,25.5
					C317.5,814.2,306.1,825.5,292,825.5z M547.3,746.3c-1.5-12.8-9.1-24.1-18.7-32c-6.5-5.4-13.7-9.9-21.4-13.3
					c-11.2-4.9-24.6-4.4-36.5-4.4c-5-0.1-9.9,0.9-14.7,1.6c-2.4,0.4-4.8,0.7-7.2,0.8c-6.1,0.3-11.7,0.6-17.6,2.5
					c-21.4,6.9-32.8,22.2-37.5,40.4c-4.1,15.5-3.2,33.2,0.5,49.6c2.1,9.6,5.1,21.8,13.1,28.4c10.5,8.6,25.8,11,38.6,12.2
					c3.4,0.3,6.7,0.5,10.1,0.5c9,0.1,18-0.5,26.9-1.3c13.4-1.1,27.2-3.4,38.2-11.9c11.2-8.7,15.6-20.3,19.4-32
					C544.9,773.8,549,760.5,547.3,746.3z M487.5,783c-14.1,0-25.5-11.4-25.5-25.5s11.4-25.4,25.5-25.4s25.5,11.4,25.5,25.4
					S501.5,783,487.5,783z"/>
			</g>
		</g>
	</g>
</g>
<circle class="st2" cx="413.2" cy="73.2" r="43.2"/>
<circle class="st2" cx="206.5" cy="116.5" r="43.2"/>
<circle class="st2" cx="38" cy="75.3" r="43.2"/>
<circle class="st2" cx="63.5" cy="230.6" r="43.2"/>
<circle class="st2" cx="43.8" cy="417.2" r="43.2"/>
<circle class="st2" cx="25.5" cy="586.8" r="43.2"/>
<circle class="st2" cx="20.2" cy="774.7" r="43.2"/>
<circle class="st2" cx="224.1" cy="800.1" r="43.2"/>
<circle class="st2" cx="427.9" cy="757.5" r="43.2"/>
<circle class="st2" cx="427.5" cy="594.5" r="43.2"/>
<circle class="st2" cx="405.4" cy="417.3" r="43.2"/>
<circle class="st2" cx="434.8" cy="262.5" r="43.2"/>
<circle class="st2" cx="242.2" cy="291.5" r="43.2"/>
<circle class="st2" cx="224.6" cy="452.8" r="43.2"/>
<circle class="st2" cx="232" cy="620.1" r="43.2"/>
</svg>
