<?xml version="1.0" encoding="utf-8"?>
<!-- Generator: Adobe Illustrator 20.1.0, SVG Export Plug-In . SVG Version: 6.00 Build 0)  -->
<svg version="1.1" id="Layer_1" xmlns="http://www.w3.org/2000/svg" xmlns:xlink="http://www.w3.org/1999/xlink" x="0px" y="0px"
	 viewBox="0 0 396 867" style="enable-background:new 0 0 396 867;" xml:space="preserve">
<style type="text/css">
	.st0{opacity:0.4;}
	.st1{fill:#FFB0CF;}
</style>
<g class="st0">
	<g>
		<path class="st1" d="M55.7,33c-8.9-0.2-14.1,6.1-17.3,12.2c-2.9,5.5-8.2,14.9-1.8,20c5.6,4.5,15.2,3.7,21.8,1.5
			c8.4-2.8,15.1-8.8,17-16.2c3.7-14.7-13.5-24.4-29.9-19.7c-8.7,2.5-14.9,8.7-18.4,15.4c-3.3,6.2-6.7,15-1.7,21.1
			c10.1,12.4,33.2,5.2,42.3-4c10.4-10.3,11-29.5-9.5-30.8c-9.1-0.6-18.1,3.7-23.5,9.5c-4.9,5.2-6.5,13.5,0.5,18.1
			c6.5,4.3,15.7,2.1,21-2.4c4.6-4,11.5-13.5,5.9-18.7C50.7,28.2,27.9,50.6,36.8,60.7c10.6,12,36.2-12.8,24.9-19.4
			C50.6,34.9,23.6,53,38.4,61.2c6.8,3.8,17.6,2,23.2-2.7c5.1-4.3,5.2-11.6-2.4-13.8c-7.2-2-16.2,0.9-20.1,6.1
			c-4.1,5.5,0.1,12,7.8,12.7c7,0.7,17.8-4.8,17.1-11.3c-0.9-7.5-11.6-5.2-15.6-1.1c-4.1,4.1-1.1,10.5,6,9.5
			c6.6-0.9,10.2-8.4,3.9-11.8c-5.1-2.8-12.6,1.7-9.9,6.5c3.3,5.8,12.1,3,15.2-1.2c3.2-4.1,5.6-15-3.9-14.7
			c-6.6,0.2-14.3,6.7-13.2,12.2c2.6,14.8,34.2-2.7,19.6-9.8c-7.7-3.7-18.3,1-23.8,5.5c-5,4.2-3.4,10.4,3.9,11.9
			c7.3,1.6,15-4.6,17.3-9.8c2.7-5.9-3.7-9.3-10.2-7.1c-7.1,2.4-10.4,8.8-8.9,14.8c0.4,1.5,2.3,2.1,3.9,1.8c6.8-1,10.5-6.2,8.9-11.6
			c-0.4-1.2-1.7-1.8-3-1.9c-12.1-1-21.8,7-20.5,16.9c0.1,1.1,0.9,2.2,2.3,2.5c6.8,1.4,14.1-0.2,18.7-4.8c3.5-3.5,5.4-9.6,0.2-12.8
			C45,41,26.3,58.8,39.1,64.8c4.9,2.3,10.4-0.9,10.7-5.2c0.5-5.8-7.3-9-13.4-8.3c-5.5,0.7-11,5.1-8,9.9c2.4,4.1,9.5,4.1,12.1,0.1
			c1-1.5,0.1-3.4-2-3.9C25,54.3,32,74.6,41.8,69.1c1.3-0.8,2.2-2.4,1.1-3.6c-1.8-2.2-3.4-2.9-6.7-3.2c-3.4-0.3-4,3.6-1.6,4.9
			c10.7,6,25.2-3.1,31.5-10.1C72.7,50.3,76.3,39,66.2,33c-1.3-0.8-3.7-0.2-4.4,0.9c-1.7,3-2.6,5.7-2.6,9c2.1-0.2,4.1-0.5,6.3-0.7
			c-0.2-0.8-0.5-1.6-0.9-2.4c-1.1-3.3-7.3-1.9-6.2,1.4c0.2,0.8,0.5,1.6,0.9,2.4c1,2.9,6.2,2.3,6.3-0.7c0-2.3,0.5-4.2,1.7-6.4
			c-1.5,0.3-2.9,0.6-4.4,0.9c13.3,8-12.7,32.4-25,25.6c-0.5,1.6-1.1,3.3-1.6,4.9c0.4,0.2,0.7,0.4,1.1,0.6c0.4-1.2,0.7-2.4,1.1-3.6
			c-0.4-0.8-1-1.5-1.8-2c-0.6-1.3-1.2-2.6-2-3.9c0.6-2.2,2.3-2.9,5.1-2.1c1.5,4.1,2.2,4,2.1-0.2c1.1-1.7,7.7-7.2,9.4-2.4
			c0.6,1.8-4.1,4.5-5.6,5.1c-2.7,1.1-5.5,1.2-8.3,0.6c0.7,0.8,1.6,1.7,2.3,2.5c-1-7.2,5.2-12.4,14.1-11.7c-1-0.6-2.1-1.3-3-1.9
			c0.7,2.6-1.5,4.7-4.4,5.1c1.3,0.6,2.7,1.2,3.9,1.8c-0.7-2.8,0.6-6.9,4.1-8.1c5.4-2,0.1,3.4-1.5,4.6c-1.8,1.4-5,3.4-6.2,0.6
			c-1-2.2,0.1-2.3,2.8-3.8c2.1-1.2,15.1-6.3,12.2-0.3c-1,2.1-9.4,5.5-9.1,0.9c0.1-2.6,7.6-7.3,6.7-1c-0.4,2.9-3.4,4.3-6.2,5.6
			c4.6-2.3,2.9,0,1.1,1.7c-1.5,1.5-5.4,2.9-7.6,2.2c-6.3-1.9-1.8-5.8,0.5-7.1c2-1.1,8.3-3,10.6-1.1c4.4,3.5-5.1,7.2-7.7,7.7
			c-6,1.1-12.6-1.3-6.3-7c1.6-1.5,9.6-6.4,12-5.3c1.8,0.9,0.7,3.5,0.4,4.5c-0.6,1.4-2.2,2.8-3.4,4c-1.1,1-2.2,2-3.4,2.8
			c-2,1.3-6.2,1.5-8-0.4c-2.2-2.2,3-8.4,4.9-10.2c1.3-1.3,2.9-2.5,4.8-3.3c4.3-1.8,7,1.9,5.2,5.2c-2.4,4.5-12.7,14.6-18.3,6.6
			c-4.9-6.8,6.6-14.3,13.2-16.1s15.4-0.1,17.4,6.1c2,6-2.6,13-7.7,17.1c-4.5,3.7-10.7,6.4-17.2,6.8c-7,0.4-14.6-2.2-14.4-8.7
			c0.2-11,10.1-24.8,24.8-25c7.8-0.1,14.6,3.8,15.4,10.5c0.7,7-5,13.4-12.6,16.3c-3.2,1.2-6.8,1.9-10.2,1.6
			c-2.8-0.3-5.9-0.9-6.6-3.7c-0.4-1.3,0.9-3.9,1.2-5.2c1.8-5.6,5.6-16.2,14.4-16C59.9,38.3,59.9,33,55.7,33L55.7,33z"/>
	</g>
</g>
<g class="st0">
	<g>
		<path class="st1" d="M86.7,40.6c2.9,11.5-0.7,24-9.8,33.1c-11,11.1-29,15-41.2,25.1c-11.5,9.6-19,22.1-23.4,34.9
			c-4.3,12.2-7.2,26.2-3.5,38.7c4,13.7,18.4,23.2,35.9,21.8c18.7-1.5,32-12.8,42.3-24.6c11.7-13.2,21-28,31-42.1
			c9.9-13.9,20.9-27.7,28.7-42.5c6.8-13.1,11-27.4,6.6-41.5c-3.8-11.2-12.9-22.6-26.2-27.7c-13.2-5.1-31.8-4.4-40.1,6.8
			c-4.8,6.4-2.9,13.5,0.9,19.9c3.5,6.1,5.4,11.6,3.7,18.4c-3.7,14.5-17.4,24.7-30.5,34C47.5,104.4,33.5,114,24.9,127
			c-4.5,6.8-7.1,14.2-8.5,21.8c-1.3,7.4-3.9,16.2-0.6,23.4c6.7,14.9,29.5,13.8,42.6,5.8c13.9-8.5,23.5-22,26.6-35.9
			c1.5-6.7,2.2-13.9-1.3-20.2c-3.7-6.6-11.8-10.5-20.6-9.3c-15.6,2-33.1,18.3-28.5,31.7c2.3,6.8,9.6,12,18.4,11.6
			c9-0.4,16.2-6.4,19.9-12.7c3.7-6.5,4.3-13.8,1.5-20.7c-1.6-4.1-6.6-6.6-11.8-5.5c-20.1,4.1-30.1,24.4-19.6,38.9
			c1.7,2.3,5,4.1,8.3,3.9c15.5-0.7,24.4-13.7,17.8-25c-1.7-2.8-7.2-4.8-10.9-3.6c-15.6,5.1-26.2,16.7-26,30.7
			c0.1,5,6.1,9.1,12.2,7.6c14.3-3.4,19.5-21.2,5.5-27.9c-7.7-3.7-17.7,2.8-21.6,7.9c-4.1,5.3-5.4,12.1-2.7,18.1
			c2.7,5.9,10.2,7.3,16.1,3.5c11.8-7.7,19.3-18.7,27-29.1c8.4-11.6,17.9-22.6,26.6-34c17.4-23.6,30.6-49.4,25.9-77.4
			c-3.9,3.2-7.9,6.5-11.8,9.7c10.6,3.1,8,15.4,5.5,21.9c-3.9,9.9-10.6,19-17.3,27.8c-6.6,8.7-13.4,17.3-19.3,26.4
			c-5,7.8-13.7,20.1-3,27.5c5.1,3.5,11.2,2.7,15.1-1.6c20.2-23.3,26.3-52.2,42.2-77.4c-5.5,0-11.1,0-16.6,0
			c5.5,5.9-5.4,17.3-9.1,22.4c-6.6,8.6-14.1,16.5-22.7,23.9c3.9-0.4,7.8-0.8,11.7-1.2c-8.5-4.8-19.8-6-29.5-3.1
			c3.9,3.2,7.9,6.5,11.8,9.7c1.6-5.1,0-9.7-4.3-13.5c-3.2-2.8-7.8-2.6-11.7-1.2c-8.9,3.2-10,13.6-3.2,18.7c0.6-4.1,1.3-8.3,2-12.4
			c-4.6,2-7.8,5.4-9.1,9.6c-3,9.9,15.5,14.1,18.5,4.2c-0.6,0.1-0.5,0.1,0.2-0.1c5.4-2.3,6.3-9.1,2-12.4c-0.2,2-0.5,4.1-0.6,6.1
			c-3.9-0.4-7.8-0.8-11.7-1.2c-0.2-0.6-0.4-1.2-0.6-1.8c-1.6,5.4,4.6,11.9,11.8,9.7c5.5-1.6,9.9-1.2,14.6,1.5
			c3.4,1.9,8.9,1.2,11.7-1.2c11.1-9.5,21-20.1,28.9-31.5c6.7-9.7,15.7-23.5,6-34c-4-4.3-12.9-5.8-16.6,0c-16.1,25-22.2,54-42.7,77.2
			c5-0.5,10.1-1.1,15.1-1.6c2.8,1.9-0.5,2.1,0.9,0.8c0.6-0.7,1-2.2,1.5-3c1.5-2.6,3-5.1,4.6-7.6c3.2-4.8,6.6-9.4,10-14
			c7.1-9.4,14.6-18.7,20.5-28.7c5.9-9.8,11.3-20.8,9.8-31.9c-1.5-10.6-9.3-19.5-21.7-23.1c-7.7-2.3-12.8,4.3-11.8,9.7
			c4.1,24.5-11,48-26.3,68c-7.8,10.1-16.2,20-23.8,30.3c-7.1,9.6-13.5,19.5-24.5,26.6c5.4,1.2,10.7,2.3,16.1,3.5
			c-1.2-2.8-0.6-6.3,3.4-7.4c-3.2-0.7-6.2-1.4-9.4-2c1.3,0.9,0.4,0.5,1.1,0.3c4,2.5,8.2,5.1,12.2,7.6c-0.1-6.5,4.3-13,11.8-15.5
			c-3.7-1.2-7.2-2.4-10.9-3.6c0.1,0.2-0.9,1.3-1.3,1.3c2.8,1.3,5.5,2.6,8.3,3.9c-4.3-5.9,0-14.1,8.2-15.8c-3.9-1.8-7.9-3.7-11.8-5.5
			c1.6,4,1.6,8.6-2,11.9c0.5-0.5-2.3,1.8-2.3,1.6c0.5,0,1.1,0.1,1.6,0.1c0.4,0.3,0.4,0.2,0-0.4c0,0,0-1.1,0.1-1.3
			c0.5-1.6,1.8-3,3-4.3c1.7-1.7,3.7-3.4,5.7-4.7c0.7-0.4,3.4-2.1,4.5-1.8c-0.6-0.2-0.5-0.1-0.1,0.3c2.4,2.5,0.4,9.4-0.4,12.1
			c-2.7,9.9-9.6,20.3-20.2,26c-2.6,1.4-7.8,3.5-10.7,1.3c-2-1.4-1.1-4.1-0.9-6c0.4-3.4,0.9-6.9,1.6-10.3
			c2.4-11.4,8.2-20.7,17.9-29.1c9.5-8.3,20.7-15.1,30.7-23c19.6-15.3,35.2-37.9,23.2-60.1c-1.2-2.2-5.4-6.6-3.2-8.8
			c2.6-2.6,8.8-2,12.1-1.1c9,2.5,15,9.7,17.7,16.9c8.2,21.8-11.5,43.8-24,61.7c-8.2,11.5-16.3,23-24.5,34.6
			c-7.1,10-14.1,20.3-24.3,28.5c-7.2,5.8-21.2,12.5-29.9,4.7c-6.6-6-5.4-16.6-4-23.9c2.1-11.3,6.1-22.6,13.5-32.4
			c3.4-4.5,7.6-8.6,12.6-12.1c6-4.2,13.3-7,20-10.4c25.3-12.6,38.2-36.3,32.1-60.2C102.7,26.5,84.1,30.7,86.7,40.6L86.7,40.6z"/>
	</g>
</g>
<g class="st0">
	<g>
		<path class="st1" d="M105.7,168.2c-4.5,11.5-12.6,20.8-23.2,28.9c-10.4,7.9-20.9,17.2-19.1,29.8c2,14.1,18.5,18.5,33.3,14.2
			c13.1-3.8,23.4-12.2,29.3-22.4c6.7-11.5,8.7-24.3,10-36.9c0.7-6,0.5-12.6-3.8-17.8c-5-6-15-6.2-21.3-1.5
			c-10.7,7.8-10.4,22-17.7,31.6c-3.5,4.8-8,9-12.4,13.2c-4.5,4.2-11,9-13.4,14.3c-3.2,7.2,2.4,14.3,12,14.6c7.6,0.3,15.1-2.8,21-6.6
			c13.7-8.9,17.8-22.9,20.6-36.3c0.9-4.2-1.3-8.5-6.7-9.7c-4.6-1-11,1.3-11.8,5.5c-1.6,7.3-2.9,15.1-7.4,21.7
			c-2.2,3.3-9.6,11.1-15,9.4c1.5,0.7,2.8,1.4,4.3,2c-0.4-0.3-0.6-0.5-1-0.8c0.9,1.2,1.7,2.3,2.4,3.5c-0.1-0.4-0.2-0.8-0.5-1.2
			c0,1.4,0,2.8,0,4.2c0.4-2,3-3.7,4.6-5.2c2.2-2.1,4.4-4.1,6.6-6.2c4.4-4.2,8.8-8.5,12.4-13.2c3.5-4.4,6.3-9.3,8.3-14.3
			c1-2.4,3.3-14,6.5-14.6c-1.7,0-3.4,0-5.1,0c0.2,0.1,0.5,0.2,0.7,0.2c-1.1-0.9-2.3-1.9-3.4-2.8c3.7,4.2,1,12.1,0.2,16.8
			c-1,6.4-2.3,12.8-5,18.9c-3.4,8-13.9,20.8-26.2,19.4c-2.1-0.2-2.3-0.9-2.2-3.2c0.1-2.7,2.1-5.4,4-7.5c4.3-4.7,10.5-8.2,15.4-12.4
			c10.4-8.9,17.9-19.7,22.4-31.4C128,162.7,109.5,158.5,105.7,168.2L105.7,168.2z"/>
	</g>
</g>
<g class="st0">
	<path class="st1" d="M41.1,214.9c-10.5-2.5-22.1,2.6-27.7,10.2s-6,17.2-3.9,26c0.4,1.3,0.7,2.7,1.6,3.8c1.8,2.3,5.2,3.3,8.7,3.5
		c9.8,0.5,19-5.1,23.4-12.2c4.4-7.2,4.6-15.6,3-23.6c-3.8-19.6-35.7,10.2-34.4,22c0.4,3.6,2.7,7.5,7,8.2c3,0.6,6.1-0.7,8.7-2.1
		c10.4-6.1,15.5-17.7,12.3-27.8c-0.2-0.6-0.5-1.3-1.2-1.5c-0.6-0.2-1.2,0-1.8,0.3c-6.8,2.8-11.6,8.7-12,15c0,0.9,1.3,2.1,1.7,1.2
		c-0.5,1.4-1.6,2.7-3,3.6"/>
</g>
<g class="st0">
	<path class="st1" d="M25.5,387.7c5.7,7.9,17,15.4,27.1,11.5c3.9-1.5,6.7-4.4,8.8-7.5c11.1-15.9,8.2-35.6,12.1-53.7
		c2.2-10.3,6.7-20.3,9-30.6c2.2-10.3,1.8-21.6-5-30.5c-4.4-5.7-14.6-11.1-22.9-7.9c-2.7,1-4.8,2.8-6.8,4.5c-4,3.4-8,6.8-12,10.3
		c-14,12.3-26.1,26.7-25.9,43.9C10.1,348.1,12.7,370,25.5,387.7z"/>
</g>
<g class="st0">
	<g>
		<path class="st1" d="M147.6,215.9C122.2,244.4,83.3,272,93,311.3c2,8,6.8,18.1,16.2,22.2c9.6,4.2,20.9,1,28.7-4.5
			c15.7-11.3,15-30,22.2-44.7c3.9-8,11.3-14.4,17-21.6c6.5-8.1,10.2-17.4,10.9-27.1c0.5-7.7-1.7-16.1-9-21.4
			c-8.2-5.9-19.6-4.7-27.3,1c-7.3,5.4-11.2,13.6-16.5,20.3c-6.2,7.9-13.2,15.4-19.1,23.3c-11.7,15.4-20.5,34.6-14.1,52.8
			c1.7,5,4.6,10.4,11.1,12.1s13.2-0.8,17.9-4.4c9.1-6.9,12.7-18.1,17.1-27.2c11-22,22-44.1,32.8-66.2c1.3-2.6-0.4-5.8-2.4-7.7
			c-8.4-7.5-20.9-3.5-27.1,3.7c-6.8,7.9-12.1,17.1-17.6,25.6c-11.3,17.8-21.5,36.2-30.6,54.9c-2,4,2.1,8.7,6.7,9.7
			c5.5,1.2,9.9-1.5,11.8-5.5c6.7-14,14.3-27.7,22.3-41.1c4.1-6.7,8.3-13.4,12.8-20c2.1-3,4.1-6,6.2-9c1.1-1.6,2.2-3.2,3.3-4.7
			c0.4-0.5,0.7-1,1.1-1.5c1.7-1.1,0.9-1.4-2.7-0.9c-0.9-2.6-1.7-5.1-2.4-7.7c-7.9,16-15.7,31.9-23.7,47.9c-3.9,8-7.9,16-11.8,24
			c-2.2,4.5-5,14.3-12,15.4c1.7,0,3.4,0,5.1,0c-0.4-0.1-0.6-0.3-1-0.4c1.1,0.9,2.3,1.9,3.4,2.8c-7.1-8.6-2.8-22.3,1.5-31
			c5.2-10.7,14-20.1,22-29.5c3.9-4.6,7.7-9.2,11-14c2.1-2.9,4.8-9.1,8.8-10.7c1.1-0.4,0.6-0.7,1.5,0.6s1.5,2.9,1.7,4.4
			c0.9,5.6-1.1,12-3.8,17c-5.2,9.8-15.4,17.2-20.9,26.9c-5.4,9.4-7,19.6-10.7,29.4c-1.6,4.4-10.9,21.3-17.4,12.5
			c-6.5-8.7-6.1-20-3.2-29.5c7.7-25.3,33.4-43.4,51.5-63.8c3-3.5,0.7-8.8-3.4-10.8C155.9,210.7,150.6,212.4,147.6,215.9L147.6,215.9
			z"/>
	</g>
</g>
<g class="st0">
	<g>
		<path class="st1" d="M176.8,75.3C166.1,79.6,159.6,88,155,96.7c-2.6,4.9-4.9,9.8-7.2,14.8c-2.8,5.7-6.2,11.5-8,17.5
			c-3.5,11.5,3.2,20.5,6.2,31.4c2.7,9.5-1,19.2,1.7,28.6c3.2,11.2,15.5,14,27.9,11.5c13.1-2.7,24.5-7.1,31.6-17
			c6.6-9.2,9.6-20.4,12.2-30.7c2.9-11.4,4.8-23.1,5.2-34.8c0.5-11.1,1.2-23.7-5.2-33.8c-5.9-9.4-18.3-15.1-31.1-12.6
			c-13.1,2.7-21.2,11.7-27.1,21c-6.2,10-10.9,20.5-12,31.8c-1.1,11.8,2,23.8,4.3,35.4c1.2,5.9,2.3,11.8,3.5,17.7
			c1.1,5.4,2.3,10.6,8.8,13.3c13.7,5.6,24.5-10.7,29-18.8c5.6-9.9,9-20.6,11.5-31.4c2.8-12.7,4.8-26,3.9-38.9
			c-0.4-5-1.8-10.4-6.3-14c-5-4-12.8-4.8-18.9-1.8c-6.2,3-9.1,8.5-11.7,13.7c-2.8,5.7-5,11.6-6.3,17.7c-2.8,12.8-2.6,25.5,0.9,38.2
			c2,7.2,13.2,7,17.6,1.9c12.8-14.6,17-32.7,12.9-50.3c-1.3-5.8-11.3-7.6-16.1-3.5c-18.1,15.7-24.8,38.5-17.1,59.2
			c2.1,5.6,10.9,7.8,16.1,3.5c11.6-9.5,17.9-22.7,16.8-36.2c-0.6-8.3-12.2-10.1-17.9-4c-9.4,10.1-13.7,23.1-11.7,35.7
			c1.2,7.6,12.3,10.9,17.9,4c6.2-7.6,7.8-16.4,5.9-25.3c-1.5-6.5-11-6.8-16.1-3.5c-7.3,4.8-9.9,12.7-7.6,20c3,9.8,21.7,5.7,18.5-4.2
			c-0.7-2.3,0.5-3.3,2.6-4.7c-5.4-1.2-10.7-2.3-16.1-3.5c1.1,4.8-0.6,9.2-3.9,13.1c6,1.3,12,2.7,17.9,4c-1.6-10.3,1.5-19.5,9.1-27.7
			c-6-1.3-12-2.7-17.9-4c0.7,9.5-2.9,18.2-11.2,25c5.4,1.2,10.7,2.3,16.1,3.5c-5.7-15.3-1.3-32.1,12.1-43.8
			c-5.4-1.2-10.7-2.3-16.1-3.5c3,13.5-1.3,27-11,38.1c5.9,0.6,11.7,1.3,17.6,1.9c-3-11.8-2.9-24.1,0.9-35.8c0.9-2.8,2-5.6,3.2-8.4
			c0.9-1.9,3.9-5.2,4-7c0.2-0.2,0.4-0.4,0.6-0.6c-3.5-1.5-5.1-1.7-4.4-0.5c-0.2,0.4,0.6,1.2,0.5,1.7c-0.6,2.4,0.2,5.7,0.1,8.1
			c-0.2,12.7-2.2,25.3-5.9,37.6c-1.7,5.5-3.5,11.1-6.2,16.4c-2.3,4.4-6,11.6-11.3,14.2c1.6-0.4,3.3-0.7,4.9-1.1
			c-0.6,0-1.2,0.1-1.8,0.1c1.6,0.4,3.3,0.7,4.9,1.1c0.4,0.4,0.7,0.8,1.2,1.3c-0.2-0.7-0.4-1.4-0.5-2.2c-0.4-1.6-0.6-3.3-1-4.9
			c-0.6-2.9-1.2-5.9-1.7-8.8c-1.3-6.8-2.8-13.5-3.9-20.3c-2-11.7-1.2-22.7,4-33.8c3.2-6.7,10-21.7,21.1-21.5
			c12.6,0.2,11,19.1,10.9,25.6c-0.1,11.9-1.6,23.7-4.5,35.3c-1.3,5.5-3,11-5.1,16.4c-1.8,4.9-3.7,10.2-7.8,14.2
			c-4,3.9-10,5.3-15.9,6.5c-1.8,0.4-4.8,1.6-6.6,1c1.7,0.5,0.4-1.2,0.2-2.8c-0.2-4.5,0.7-9,0.6-13.5c-0.2-6-1.5-12-3.5-17.8
			c-2-5.4-6.2-11.2-5.4-16.9c1-6.5,5.6-13.2,8.5-19.3c4.5-9.3,8.3-22,20.1-26.8C197.6,84.4,187.8,70.8,176.8,75.3L176.8,75.3z"/>
	</g>
</g>
<g class="st0">
	<g>
		<path class="st1" d="M338.4,355.6c-10.7,4.3-17.2,12.7-21.8,21.4c-2.6,4.9-4.9,9.8-7.2,14.8c-2.8,5.7-6.2,11.5-8,17.5
			c-3.5,11.5,3.2,20.5,6.2,31.4c2.7,9.5-1,19.2,1.7,28.6c3.2,11.2,15.5,14,27.9,11.5c13.1-2.7,24.5-7.1,31.6-17
			c6.6-9.2,9.6-20.4,12.2-30.7c2.9-11.4,4.8-23.1,5.2-34.8c0.5-11.1,1.2-23.7-5.2-33.8c-5.9-9.4-18.3-15.1-31.1-12.6
			c-13.1,2.7-21.2,11.7-27.1,21c-6.2,10-10.9,20.5-12,31.8c-1.1,11.8,2,23.8,4.3,35.4c1.2,5.9,2.3,11.8,3.5,17.7
			c1.1,5.4,2.3,10.6,8.8,13.3c13.7,5.6,24.5-10.7,29-18.8c5.6-9.9,9-20.6,11.5-31.4c2.8-12.7,4.8-26,3.9-38.9
			c-0.4-5-1.8-10.4-6.3-14c-5-4-12.8-4.8-18.9-1.8c-6.2,3-9.1,8.5-11.7,13.7c-2.8,5.7-5,11.6-6.3,17.7c-2.8,12.8-2.6,25.5,0.9,38.2
			c2,7.2,13.2,7,17.6,1.9c12.8-14.6,17-32.7,12.9-50.3c-1.3-5.8-11.3-7.6-16.1-3.5c-18.1,15.7-24.8,38.5-17.1,59.2
			c2.1,5.6,10.9,7.8,16.1,3.5c11.6-9.5,17.9-22.7,16.8-36.2c-0.6-8.3-12.2-10.1-17.9-4c-9.4,10.1-13.7,23.1-11.7,35.7
			c1.2,7.6,12.3,10.9,17.9,4c6.2-7.6,7.8-16.4,5.9-25.3c-1.5-6.5-11-6.8-16.1-3.5c-7.3,4.8-9.9,12.7-7.6,20c3,9.8,21.7,5.7,18.5-4.2
			c-0.7-2.3,0.5-3.3,2.6-4.7c-5.4-1.2-10.7-2.3-16.1-3.5c1.1,4.8-0.6,9.2-3.9,13.1c6,1.3,12,2.7,17.9,4c-1.6-10.3,1.5-19.5,9.1-27.7
			c-6-1.3-12-2.7-17.9-4c0.7,9.5-2.9,18.2-11.2,25c5.4,1.2,10.7,2.3,16.1,3.5c-5.7-15.3-1.3-32.1,12.1-43.8
			c-5.4-1.2-10.7-2.3-16.1-3.5c3,13.5-1.3,27-11,38.1c5.9,0.6,11.7,1.3,17.6,1.9c-3-11.8-2.9-24.1,0.9-35.8c0.9-2.8,2-5.6,3.2-8.4
			c0.9-1.9,3.9-5.2,4-7c0.2-0.2,0.4-0.4,0.6-0.6c-3.5-1.5-5.1-1.7-4.4-0.5c-0.2,0.4,0.6,1.2,0.5,1.7c-0.6,2.4,0.2,5.7,0.1,8.1
			c-0.2,12.7-2.2,25.3-5.9,37.6c-1.7,5.5-3.5,11.1-6.2,16.4c-2.3,4.4-6,11.6-11.3,14.2c1.6-0.4,3.3-0.7,4.9-1.1
			c-0.6,0-1.2,0.1-1.8,0.1c1.6,0.4,3.3,0.7,4.9,1.1c0.4,0.4,0.7,0.8,1.2,1.3c-0.2-0.7-0.4-1.4-0.5-2.2c-0.4-1.6-0.6-3.3-1-4.9
			c-0.6-2.9-1.2-5.9-1.7-8.8c-1.3-6.8-2.8-13.5-3.9-20.3c-2-11.7-1.2-22.7,4-33.8c3.2-6.7,10-21.7,21.1-21.5
			c12.6,0.2,11,19.1,10.9,25.6c-0.1,11.9-1.6,23.7-4.5,35.3c-1.3,5.5-3,11-5.1,16.4c-1.8,4.9-3.7,10.2-7.8,14.2
			c-4,3.9-10,5.3-15.9,6.5c-1.8,0.4-4.8,1.6-6.6,1c1.7,0.5,0.4-1.2,0.2-2.8c-0.2-4.5,0.7-9,0.6-13.5c-0.2-6-1.5-12-3.5-17.8
			c-2-5.4-6.2-11.2-5.4-16.9c1-6.5,5.6-13.2,8.5-19.3c4.5-9.3,8.3-22,20.1-26.8C359.2,364.7,349.4,351.1,338.4,355.6L338.4,355.6z"
			/>
	</g>
</g>
<g class="st0">
	<g>
		<path class="st1" d="M55.7,458.1c-8.9-0.2-14.1,6.1-17.3,12.2c-2.9,5.5-8.2,14.9-1.8,20c5.6,4.5,15.2,3.7,21.8,1.5
			c8.4-2.8,15.1-8.8,17-16.2c3.7-14.7-13.5-24.4-29.9-19.7c-8.7,2.5-14.9,8.7-18.4,15.4c-3.3,6.2-6.7,15-1.7,21.1
			c10.1,12.4,33.2,5.2,42.3-4c10.4-10.3,11-29.5-9.5-30.8c-9.1-0.6-18.1,3.7-23.5,9.5c-4.9,5.2-6.5,13.5,0.5,18.1
			c6.5,4.3,15.7,2.1,21-2.4c4.6-4,11.5-13.5,5.9-18.7c-11.3-10.7-34.3,11.6-25.4,21.7c10.6,12,36.2-12.8,24.9-19.4
			c-11.1-6.4-38.1,11.7-23.3,19.9c6.8,3.8,17.6,2,23.2-2.7c5.1-4.3,5.2-11.6-2.4-13.8c-7.2-2-16.2,0.9-20.1,6.1
			c-4.1,5.5,0.1,12,7.8,12.7c7,0.7,17.8-4.8,17.1-11.3c-0.9-7.5-11.6-5.2-15.6-1.1c-4.1,4.1-1.1,10.5,6,9.5
			c6.6-0.9,10.2-8.4,3.9-11.8c-5.1-2.8-12.6,1.7-9.9,6.5c3.3,5.8,12.1,3,15.2-1.2c3.2-4.1,5.6-15-3.9-14.7
			c-6.6,0.2-14.3,6.7-13.2,12.2c2.7,14.8,34.3-2.7,19.6-9.8c-7.7-3.7-18.3,1-23.8,5.5c-5,4.2-3.4,10.4,3.9,11.9
			c7.3,1.6,15-4.6,17.3-9.8c2.7-5.9-3.7-9.3-10.2-7.1c-7.1,2.4-10.4,8.8-8.9,14.8c0.4,1.5,2.3,2.1,3.9,1.8c6.8-1,10.5-6.2,8.9-11.6
			c-0.4-1.2-1.7-1.8-3-1.9c-12.1-1-21.8,7-20.5,16.9c0.1,1.1,0.9,2.2,2.3,2.5c6.8,1.4,14.1-0.2,18.8-4.8c3.5-3.5,5.4-9.6,0.2-12.8
			c-10-6.2-28.7,11.6-15.9,17.6c4.9,2.3,10.4-0.9,10.7-5.2c0.5-5.8-7.3-9-13.4-8.3c-5.5,0.7-11,5.1-8,9.9c2.4,4.1,9.5,4.1,12.1,0.1
			c1-1.5,0.1-3.4-2-3.9c-13.5-3.1-6.5,17.2,3.3,11.7c1.3-0.8,2.2-2.4,1.1-3.6c-1.8-2.2-3.4-2.9-6.7-3.2c-3.4-0.3-4,3.6-1.6,4.9
			c10.7,6,25.2-3.1,31.5-10.1c6.3-7.1,10-18.4-0.1-24.4c-1.3-0.8-3.7-0.2-4.4,0.9c-1.7,3-2.6,5.7-2.6,9c2.1-0.2,4.1-0.5,6.3-0.7
			c-0.2-0.8-0.5-1.6-0.9-2.4c-1.1-3.3-7.3-1.9-6.2,1.4c0.2,0.8,0.5,1.6,0.9,2.4c1,2.9,6.2,2.3,6.3-0.7c0-2.3,0.5-4.2,1.7-6.4
			c-1.5,0.3-2.9,0.6-4.4,0.9c13.3,7.9-12.7,32.3-25,25.4c-0.5,1.6-1.1,3.3-1.6,4.9c0.4,0.2,0.7,0.4,1.1,0.6c0.4-1.2,0.7-2.4,1.1-3.6
			c-0.4-0.8-1-1.5-1.8-2c-0.6-1.3-1.2-2.6-2-3.9c0.6-2.2,2.3-2.9,5.1-2.1c1.5,4.1,2.2,4,2.1-0.2c1.1-1.7,7.7-7.2,9.4-2.4
			c0.6,1.8-4.1,4.5-5.6,5.1c-2.7,1.1-5.5,1.2-8.3,0.6c0.7,0.8,1.6,1.7,2.3,2.5c-1-7.2,5.2-12.4,14.1-11.7c-1-0.6-2.1-1.3-3-1.9
			c0.7,2.6-1.5,4.7-4.4,5.1c1.3,0.6,2.7,1.2,3.9,1.8c-0.7-2.8,0.6-6.9,4.1-8.1c5.4-2,0.1,3.4-1.5,4.6c-1.8,1.4-5,3.4-6.2,0.6
			c-1-2.2,0.1-2.3,2.8-3.8c2.1-1.2,15.1-6.3,12.2-0.3c-1,2.1-9.4,5.5-9.1,0.9c0.1-2.6,7.6-7.3,6.7-1c-0.4,2.9-3.4,4.3-6.2,5.6
			c4.6-2.3,2.9,0,1.1,1.7c-1.5,1.5-5.4,2.9-7.6,2.2c-6.3-1.9-1.8-5.8,0.5-7.1c2-1.1,8.3-3,10.6-1.1c4.4,3.5-5.1,7.2-7.7,7.7
			c-6,1.1-12.6-1.3-6.3-7c1.6-1.5,9.6-6.4,12-5.3c1.8,0.9,0.7,3.5,0.4,4.5c-0.6,1.4-2.2,2.8-3.4,4c-1.1,1-2.2,2-3.4,2.8
			c-2,1.3-6.2,1.5-8-0.4c-2.2-2.2,3-8.4,4.9-10.2c1.3-1.3,2.9-2.5,4.8-3.3c4.3-1.8,7,1.9,5.2,5.2c-2.4,4.5-12.7,14.6-18.3,6.6
			c-4.8-6.8,6.7-14.3,13.3-16.1c6.6-1.8,15.4-0.1,17.4,6.1c2,6-2.6,13-7.7,17.1c-4.5,3.7-10.7,6.4-17.2,6.8
			c-7,0.4-14.6-2.2-14.4-8.7c0.2-11,10.1-24.8,24.8-25c7.8-0.1,14.6,3.8,15.4,10.5c0.7,7-5,13.4-12.6,16.3
			c-3.2,1.2-6.8,1.9-10.2,1.6c-2.8-0.3-5.9-0.9-6.6-3.7c-0.4-1.3,0.9-3.9,1.2-5.2c1.8-5.6,5.6-16.2,14.4-16
			C59.9,463.5,59.9,458.2,55.7,458.1L55.7,458.1z"/>
	</g>
</g>
<g class="st0">
	<g>
		<path class="st1" d="M86.7,465.8c2.9,11.5-0.7,24-9.8,33.1c-11,11.1-29,15-41.2,25.1c-11.5,9.6-19,22.1-23.4,34.9
			c-4.3,12.2-7.2,26.2-3.5,38.7c4,13.7,18.4,23.2,35.9,21.8c18.5-1.3,31.8-12.6,42.2-24.4c11.7-13.2,21-28,31-42.1
			c9.9-13.9,20.9-27.7,28.7-42.5c6.8-13.1,11-27.4,6.6-41.5c-3.5-11.4-12.6-22.8-25.9-27.9c-13.2-5.1-31.8-4.4-40.1,6.8
			c-4.8,6.5-2.9,13.5,0.9,19.9c3.5,6.1,5.4,11.6,3.7,18.4c-3.7,14.5-17.4,24.7-30.5,34c-13.4,9.5-27.4,19.1-36.1,32.1
			c-4.5,6.8-7.1,14.2-8.5,21.8c-1.3,7.4-3.9,16.2-0.6,23.4c6.7,14.9,29.5,13.8,42.6,5.8c13.9-8.5,23.5-22,26.6-35.9
			c1.5-6.7,2.2-13.9-1.3-20.2c-3.7-6.6-11.8-10.5-20.6-9.3c-15.6,2-33.1,18.3-28.5,31.7c2.3,6.8,9.6,12,18.4,11.6
			c9-0.4,16.2-6.4,19.9-12.7c3.7-6.5,4.3-13.8,1.5-20.7c-1.6-4.1-6.6-6.6-11.8-5.5c-20.1,4.1-30.1,24.4-19.6,38.9
			c1.7,2.3,5,4.1,8.3,3.9c15.5-0.7,24.4-13.7,17.8-25c-1.7-2.8-7.2-4.8-10.9-3.6c-15.6,5.1-26.2,16.7-26,30.7
			c0.1,5,6.1,9.1,12.2,7.6c14.3-3.4,19.5-21.2,5.5-27.9c-7.7-3.7-17.7,2.8-21.6,7.9c-4.1,5.3-5.4,12.1-2.7,18.1
			c2.7,5.9,10.2,7.3,16.1,3.5c11.8-7.7,19.3-18.7,27-29.1c8.4-11.6,17.9-22.6,26.6-34c17.7-23.3,30.7-49.2,26-77.1
			c-3.9,3.2-7.9,6.5-11.8,9.7c10.6,3.1,8,15.4,5.5,21.9c-3.9,9.9-10.6,19-17.3,27.8c-6.6,8.7-13.4,17.3-19.3,26.4
			c-5,7.8-13.7,20.1-3,27.5c5.1,3.5,11.2,2.7,15.1-1.6c20.6-23.2,26.7-52.2,42.6-77.4c-5.5,0-11.1,0-16.6,0
			c5.5,5.9-5.4,17.3-9.1,22.4c-6.8,8.3-14.4,16.2-22.9,23.6c3.9-0.4,7.8-0.8,11.7-1.2c-8.5-4.8-19.8-6-29.5-3.1
			c3.9,3.2,7.9,6.5,11.8,9.7c1.6-5.1,0-9.7-4.3-13.5c-3.2-2.8-7.8-2.6-11.7-1.2c-8.9,3.2-10,13.6-3.2,18.7c0.6-4.1,1.3-8.3,2-12.4
			c-4.6,2-7.8,5.4-9.1,9.6c-3,9.9,15.5,14.1,18.5,4.2c-0.6,0.1-0.5,0.1,0.2-0.1c5.4-2.3,6.3-9.1,2-12.4c-0.2,2-0.5,4.1-0.6,6.1
			c-3.9-0.4-7.8-0.8-11.7-1.2c-0.2-0.6-0.4-1.2-0.6-1.8c-1.6,5.4,4.6,11.9,11.8,9.7c5.5-1.6,9.9-1.2,14.6,1.5
			c3.4,1.9,8.9,1.2,11.7-1.2c11-9.8,20.9-20.3,28.8-31.8c6.7-9.7,15.7-23.5,6-34c-4-4.3-12.9-5.8-16.6,0
			c-15.9,25.2-22.1,54.2-42.6,77.4c5-0.5,10.1-1.1,15.1-1.6c2.8,1.9-0.5,2.1,0.9,0.8c0.6-0.7,1-2.2,1.5-3c1.5-2.6,3-5.1,4.6-7.6
			c3.2-4.8,6.6-9.4,10-14c7.1-9.4,14.6-18.7,20.5-28.7c5.9-9.8,11.3-20.8,9.8-31.9c-1.5-10.6-9.3-19.5-21.7-23.1
			c-7.7-2.3-12.8,4.3-11.8,9.7c4.1,24.5-11,48-26.3,68c-7.8,10.1-16.2,20-23.8,30.3c-7.1,9.6-13.5,19.5-24.5,26.6
			c5.4,1.2,10.7,2.3,16.1,3.5c-1.2-2.8-0.6-6.3,3.4-7.4c-3.2-0.7-6.2-1.4-9.4-2c1.3,0.9,0.4,0.5,1.1,0.3c4,2.5,8.2,5.1,12.2,7.6
			c-0.1-6.5,4.3-13,11.8-15.5c-3.7-1.2-7.2-2.4-10.9-3.6c0.1,0.2-0.9,1.3-1.2,1.3c2.8,1.3,5.5,2.6,8.3,3.9c-4.3-5.9,0-14.1,8.2-15.8
			c-3.9-1.8-7.9-3.7-11.8-5.5c1.6,4,1.6,8.6-2,11.9c0.5-0.5-2.3,1.8-2.3,1.6c0.5,0,1.1,0.1,1.6,0.1c0.4,0.3,0.4,0.2,0-0.4
			c0,0,0-1.1,0.1-1.3c0.5-1.6,1.8-3,3-4.3c1.7-1.7,3.7-3.4,5.7-4.7c0.7-0.4,3.4-2.1,4.5-1.8c-0.6-0.2-0.5-0.1-0.1,0.3
			c2.4,2.5,0.4,9.4-0.4,12c-2.7,9.9-9.6,20.3-20.2,26c-2.6,1.4-7.8,3.5-10.7,1.3c-2-1.4-1.1-4.1-0.9-6c0.4-3.4,0.9-6.9,1.6-10.3
			c2.4-11.4,8.2-20.7,17.9-29.1c9.5-8.3,20.7-15.1,30.7-23c18.9-15.3,34.5-37.9,22.5-60.1c-1.2-2.2-5.4-6.6-3.2-8.8
			c2.6-2.6,8.8-2,12.1-1.1c9,2.5,15,9.7,17.7,16.9c8.2,21.8-11.5,43.8-24,61.7c-8.2,11.5-16.3,23-24.5,34.6
			c-7.1,10-14.1,20.3-24.3,28.5c-7.2,5.8-21.2,12.5-29.9,4.7c-6.6-6-5.4-16.6-4-23.9c2.1-11.3,6.1-22.6,13.5-32.4
			c3.4-4.5,7.6-8.6,12.6-12.1c6-4.2,13.3-7,20-10.4c25.1-12.7,38.1-36.4,32-60.2C102.7,451.7,84.1,455.9,86.7,465.8L86.7,465.8z"/>
	</g>
</g>
<g class="st0">
	<g>
		<path class="st1" d="M105.7,593.4c-4.5,11.5-12.6,20.8-23.2,28.9c-10.4,7.9-20.9,17.2-19.1,29.8c2,14.1,18.5,18.5,33.3,14.2
			c13.1-3.8,23.4-12.2,29.3-22.4c6.7-11.5,8.7-24.3,10-36.9c0.7-6,0.5-12.6-3.8-17.8c-5-6-15-6.2-21.3-1.5
			c-10.7,7.8-10.4,22-17.7,31.6c-3.5,4.8-8,9-12.4,13.2c-4.5,4.2-11,9-13.4,14.3c-3.2,7.2,2.4,14.3,12,14.6c7.6,0.3,15.1-2.8,21-6.6
			c13.7-8.9,17.8-22.9,20.6-36.3c0.9-4.2-1.3-8.5-6.7-9.7c-4.6-1-11,1.3-11.8,5.5c-1.6,7.3-2.9,15.1-7.4,21.7
			c-2.2,3.3-9.6,11.1-15,9.4c1.5,0.7,2.8,1.4,4.3,2c-0.4-0.3-0.6-0.5-1-0.8c0.9,1.2,1.7,2.3,2.4,3.5c-0.1-0.4-0.2-0.8-0.5-1.2
			c0,1.4,0,2.8,0,4.2c0.4-2,3-3.7,4.6-5.2c2.2-2.1,4.4-4.1,6.6-6.2c4.4-4.2,8.8-8.5,12.4-13.2c3.5-4.4,6.3-9.3,8.3-14.3
			c1-2.4,3.3-14,6.5-14.6c-1.7,0-3.4,0-5.1,0c0.2,0.1,0.5,0.2,0.7,0.2c-1.1-0.9-2.3-1.9-3.4-2.8c3.7,4.2,1,12.1,0.2,16.8
			c-1,6.4-2.3,12.8-5,18.9c-3.4,8-13.9,20.8-26.2,19.4c-2.1-0.2-2.3-0.9-2.2-3.2c0.1-2.7,2.1-5.4,4-7.5c4.3-4.7,10.5-8.2,15.4-12.4
			c10.4-8.9,17.9-19.7,22.4-31.4C128,587.9,109.5,583.7,105.7,593.4L105.7,593.4z"/>
	</g>
</g>
<g class="st0">
	<g>
		<path class="st1" d="M233,477.5c8.6,8.9,13.6,20.1,16.5,33.2c2.8,12.7,6.9,26.1,19,29.9c13.6,4.1,24.6-9.1,26.8-24.3
			c2-13.4-1.3-26.4-8.1-36c-7.6-10.9-18.4-18-29.3-24.5c-5.1-3.2-11.2-5.7-17.7-4c-7.5,2-11.9,11-10.3,18.8
			c2.6,13,15.6,18.6,21.3,29.3c2.9,5.2,4.8,11.1,6.8,16.8c1.9,5.9,3.6,13.7,7.4,18.2c5.2,5.9,14,3.8,18.3-4.7
			c3.4-6.7,3.8-14.9,2.8-21.8c-2.4-16.1-13.3-25.8-24.3-33.9c-3.5-2.5-8.3-2.3-11.6,2c-2.9,3.8-3.4,10.5,0,13
			c6,4.5,12.5,9,16.6,15.8c2.1,3.4,6,13.4,2.2,17.6c1.2-1,2.4-2,3.6-3c-0.4,0.2-0.7,0.3-1.1,0.6c1.4-0.3,2.8-0.6,4.2-0.7
			c-0.4-0.1-0.8-0.1-1.3-0.1c1.3,0.6,2.5,1.2,3.8,1.8c-1.7-1.2-2.1-4.3-2.8-6.4c-1-2.9-1.9-5.7-2.9-8.6c-2-5.7-4-11.5-6.8-16.8
			c-2.5-5.1-5.8-9.7-9.5-13.5c-1.8-1.9-11.3-8.9-10.5-12c-0.7,1.6-1.4,3.1-2.1,4.7c0.2-0.2,0.4-0.4,0.5-0.6c-1.3,0.6-2.7,1.3-4,1.9
			c5.3-1.6,11.4,4.2,15.4,6.8c5.4,3.6,10.7,7.5,15.1,12.5c5.8,6.5,13.1,21.3,6.6,31.9c-1.1,1.8-1.8,1.7-3.8,0.7
			c-2.4-1.2-4-4.1-5.1-6.8c-2.5-5.8-3-13-4.8-19.1c-3.7-13.1-10.4-24.5-19.1-33.5C237.3,454.9,225.7,470,233,477.5L233,477.5z"/>
	</g>
</g>
<g class="st0">
	<g>
		<path class="st1" d="M313.7,39.7c8.6,8.9,13.6,20.1,16.5,33.2c2.8,12.7,6.9,26.1,19,29.9c13.6,4.1,24.6-9.1,26.8-24.3
			c2-13.4-1.3-26.4-8.1-36c-7.6-10.9-18.4-18-29.3-24.5c-5.1-3.2-11.2-5.7-17.7-4c-7.5,2-11.9,11-10.3,18.8
			c2.6,13,15.6,18.6,21.3,29.3c2.9,5.2,4.8,11.1,6.8,16.8c1.9,5.9,3.6,13.7,7.4,18.2c5.2,5.9,14,3.8,18.3-4.7
			c3.4-6.7,3.8-14.9,2.8-21.8c-2.4-16.1-13.3-25.8-24.3-33.9c-3.5-2.5-8.3-2.3-11.6,2c-2.9,3.8-3.4,10.5,0,13
			c6,4.5,12.5,9,16.6,15.8c2.1,3.4,6,13.4,2.2,17.6c1.2-1,2.4-2,3.6-3c-0.4,0.2-0.7,0.3-1.1,0.6c1.4-0.3,2.8-0.6,4.2-0.7
			c-0.4-0.1-0.8-0.1-1.3-0.1c1.3,0.6,2.5,1.2,3.8,1.8c-1.7-1.2-2.1-4.3-2.8-6.4c-1-2.9-1.9-5.7-2.9-8.6c-2-5.7-4-11.5-6.8-16.8
			c-2.5-5.1-5.8-9.7-9.5-13.5c-1.8-1.9-11.3-8.9-10.5-12c-0.7,1.6-1.4,3.1-2.1,4.7c0.2-0.2,0.4-0.4,0.5-0.6c-1.3,0.6-2.7,1.3-4,1.9
			c5.3-1.6,11.4,4.2,15.4,6.8c5.4,3.6,10.7,7.5,15.1,12.5c5.8,6.5,13.1,21.3,6.6,31.9c-1.1,1.8-1.8,1.7-3.8,0.7
			c-2.4-1.2-4-4.1-5.1-6.8c-2.5-5.8-3-13-4.8-19.1c-3.7-13.1-10.4-24.5-19.1-33.5C318,17.1,306.4,32.2,313.7,39.7L313.7,39.7z"/>
	</g>
</g>
<g class="st0">
	<path class="st1" d="M41.1,640.1c-10.5-2.5-22.1,2.6-27.7,10.2s-6,17.2-3.9,26c0.4,1.3,0.7,2.7,1.6,3.8c1.8,2.3,5.2,3.3,8.7,3.5
		c9.8,0.5,19-5.1,23.4-12.2s4.6-15.6,3-23.6c-3.8-19.6-35.7,10.2-34.4,22c0.4,3.6,2.7,7.5,7,8.2c3,0.6,6.1-0.7,8.7-2.1
		c10.4-6.1,15.5-17.7,12.3-27.8c-0.2-0.6-0.5-1.3-1.2-1.5c-0.6-0.2-1.2,0-1.8,0.3c-6.8,2.8-11.6,8.7-12,15c0,0.9,1.3,2.1,1.7,1.2
		c-0.5,1.4-1.6,2.7-3,3.6"/>
</g>
<g class="st0">
	<path class="st1" d="M25.5,812.9c5.7,7.9,17,15.4,27.1,11.5c3.9-1.5,6.7-4.4,8.8-7.5c11.1-15.9,8.2-35.6,12.1-53.7
		c2.2-10.3,6.7-20.3,9-30.6s1.8-21.6-5-30.5c-4.4-5.7-14.6-11.1-22.9-7.9c-2.7,1-4.8,2.8-6.8,4.5c-4,3.4-8,6.8-12,10.3
		c-14,12.3-26.1,26.7-25.9,43.9C10.1,773.3,12.7,795.2,25.5,812.9z"/>
</g>
<g class="st0">
	<g>
		<path class="st1" d="M147.6,641c-25.4,28.6-64.3,56.2-54.6,95.5c2,8,6.8,18.1,16.2,22.2c9.6,4.2,20.9,1,28.7-4.5
			c15.7-11.3,15-30,22.2-44.7c3.9-8,11.3-14.4,17-21.6c6.5-8.1,10.2-17.4,10.9-27.1c0.5-7.7-1.7-16.1-9-21.4
			c-8.2-5.9-19.6-4.7-27.3,1c-7.3,5.4-11.2,13.6-16.5,20.3c-6.2,7.9-13.2,15.4-19.1,23.3c-11.7,15.4-20.5,34.6-14.1,52.8
			c1.7,5,4.6,10.4,11.1,12.1c6.5,1.7,13.2-0.8,17.9-4.4c9.1-6.9,12.7-18.1,17.1-27.2c10.9-22.1,21.8-44.2,32.7-66.3
			c1.3-2.6-0.4-5.8-2.4-7.7c-8.4-7.5-20.9-3.5-27.1,3.7c-6.8,7.9-12.1,17.1-17.6,25.6c-11.3,17.8-21.5,36.2-30.6,54.9
			c-2,4,2.1,8.7,6.7,9.7c5.5,1.2,9.9-1.5,11.8-5.5c6.7-14,14.3-27.7,22.3-41.1c4.1-6.7,8.3-13.4,12.8-20c2.1-3,4.1-6,6.2-9
			c1.1-1.6,2.2-3.2,3.3-4.7c0.4-0.5,0.7-1,1.1-1.5c1.7-1.1,0.9-1.4-2.7-0.9c-0.9-2.6-1.7-5.1-2.4-7.7c-7.9,16-15.7,31.9-23.7,47.9
			c-3.9,8-7.9,16-11.8,24c-2.2,4.5-5,14.3-12,15.4c1.7,0,3.4,0,5.1,0c-0.4-0.1-0.6-0.3-1-0.4c1.1,0.9,2.3,1.9,3.4,2.8
			c-7.1-8.6-2.8-22.3,1.5-31c5.2-10.7,14-20.1,22-29.5c3.9-4.6,7.7-9.2,11-14c2.1-2.9,4.8-9.1,8.8-10.7c1.1-0.4,0.6-0.7,1.5,0.6
			s1.5,2.9,1.7,4.4c0.9,5.6-1.1,12-3.8,17c-5.2,9.8-15.4,17.2-20.9,26.9c-5.4,9.4-7,19.6-10.7,29.4c-1.6,4.4-10.9,21.3-17.4,12.5
			c-6.5-8.7-6.1-20-3.2-29.5c7.7-25.3,33.4-43.4,51.5-63.8c3-3.5,0.7-8.8-3.4-10.8C155.9,635.9,150.6,637.6,147.6,641L147.6,641z"/>
	</g>
</g>
<g class="st0">
	<g>
		<path class="st1" d="M176.8,500.5c-10.7,4.3-17.2,12.7-21.7,21.5c-2.6,4.9-4.9,9.8-7.2,14.8c-2.8,5.7-6.2,11.5-8,17.5
			c-3.5,11.5,3.2,20.5,6.2,31.4c2.7,9.5-1,19.2,1.7,28.6c3.2,11.2,15.5,14,27.9,11.5c13.1-2.7,24.5-7.1,31.6-17
			c6.6-9.2,9.6-20.4,12.2-30.7c2.9-11.4,4.8-23.1,5.2-34.8c0.5-11.1,1.2-23.7-5.2-33.8c-5.9-9.4-18.3-15.1-31.1-12.6
			c-13.1,2.6-21.3,11.6-27.1,20.9c-6.2,10-10.9,20.5-12,31.8c-1.1,11.8,2,23.8,4.3,35.4c1.2,5.9,2.3,11.8,3.5,17.7
			c1.1,5.4,2.3,10.6,8.8,13.3c13.7,5.6,24.5-10.7,29-18.8c5.6-9.9,9-20.6,11.5-31.4c2.8-12.7,4.8-26,3.9-38.9
			c-0.4-5-1.8-10.4-6.3-14c-5-4-12.8-4.8-18.9-1.8c-6.2,3-9.1,8.5-11.7,13.7c-2.8,5.7-5,11.6-6.3,17.7c-2.8,12.8-2.6,25.5,0.9,38.2
			c2,7.2,13.2,7,17.6,1.9c12.8-14.6,17-32.7,12.9-50.3c-1.3-5.8-11.3-7.6-16.1-3.5c-18.1,15.7-24.8,38.5-17.1,59.2
			c2.1,5.6,10.9,7.8,16.1,3.5c11.6-9.5,17.9-22.7,16.8-36.2c-0.6-8.3-12.2-10.1-17.9-4c-9.4,10.1-13.7,23.1-11.7,35.7
			c1.2,7.6,12.3,10.9,17.9,4c6.2-7.6,7.8-16.4,5.9-25.3c-1.5-6.5-11-6.8-16.1-3.5c-7.3,4.8-9.9,12.7-7.6,20c3,9.8,21.7,5.7,18.5-4.2
			c-0.7-2.3,0.5-3.3,2.6-4.7c-5.4-1.2-10.7-2.3-16.1-3.5c1.1,4.8-0.6,9.2-3.9,13.1c6,1.3,12,2.7,17.9,4c-1.6-10.3,1.5-19.5,9.1-27.7
			c-6-1.3-12-2.7-17.9-4c0.7,9.5-2.9,18.2-11.2,25c5.4,1.2,10.7,2.3,16.1,3.5c-5.7-15.3-1.3-32.1,12.1-43.8
			c-5.4-1.2-10.7-2.3-16.1-3.5c3,13.5-1.3,27-11,38.1c5.9,0.6,11.7,1.3,17.6,1.9c-3-11.8-2.9-24.1,0.9-35.8c0.9-2.8,2-5.6,3.2-8.4
			c0.9-1.9,3.9-5.2,4-7c0.2-0.2,0.4-0.4,0.6-0.6c-3.5-1.5-5.1-1.7-4.4-0.5c-0.2,0.4,0.6,1.2,0.5,1.7c-0.6,2.4,0.2,5.7,0.1,8.1
			c-0.2,12.7-2.2,25.3-5.9,37.6c-1.7,5.5-3.5,11.1-6.2,16.4c-2.3,4.4-6,11.6-11.3,14.2c1.6-0.4,3.3-0.7,4.9-1.1
			c-0.6,0-1.2,0.1-1.8,0.1c1.6,0.4,3.3,0.7,4.9,1.1c0.4,0.4,0.7,0.8,1.2,1.3c-0.2-0.7-0.4-1.4-0.5-2.2c-0.4-1.6-0.6-3.3-1-4.9
			c-0.6-2.9-1.2-5.9-1.7-8.8c-1.3-6.8-2.8-13.5-3.9-20.3c-2-11.7-1.2-22.7,4-33.8c3.2-6.7,10-21.7,21.1-21.5
			c12.6,0.2,11,19.1,10.9,25.6c-0.1,11.9-1.6,23.7-4.5,35.3c-1.3,5.5-3,11-5.1,16.4c-1.8,4.9-3.7,10.2-7.8,14.2
			c-4,3.9-10,5.3-15.9,6.5c-1.8,0.4-4.8,1.6-6.6,1c1.7,0.5,0.4-1.2,0.2-2.8c-0.2-4.5,0.7-9,0.6-13.5c-0.2-6-1.5-12-3.5-17.8
			c-2-5.4-6.2-11.2-5.4-16.9c1-6.5,5.6-13.2,8.5-19.3c4.5-9.3,8.3-22,20.1-26.8C197.6,509.6,187.8,496,176.8,500.5L176.8,500.5z"/>
	</g>
</g>
<g class="st0">
	<g>
		<path class="st1" d="M191.6,705c-7.4,1.5-13.3,5.8-16.8,11.3c-3.9,6.2-4,13.1-5.1,19.8c-1.8,10.8-8.3,20.7-17.9,28.3
			c-11.2,8.7-25.7,11.3-39.4,16.1c-14,4.9-24.9,12.9-30.1,24.8c-10,22.5,2.9,58.3,38.7,53.7c33.9-4.4,49.3-33.3,60.1-56.5
			c13.4-28.9,35.6-57.3,29.5-89.5c-0.9-4.4-7.2-6.3-11.8-5.5c-10.6,1.9-16,10.2-17.7,18.3c-1.8,8.4-2.7,16.8-5.2,25.1
			c-2.4,7.9-5.7,15.8-11.8,22.4c-6.5,7-15.5,10.7-25.2,13.6c-11.1,3.4-22.6,6.7-30.9,13.8c-7.6,6.6-12.6,15.5-10.6,24.6
			c2.1,9.5,12.1,16.9,24,15.8c13.1-1.2,20.5-9.9,24.8-19.3c2.4-5.1,4.5-10.9-0.1-15.7c-4.6-4.9-12.6-4.8-18.9-2.6
			c-12.3,4.3-19.8,14-20.6,24.7c-0.2,3.1,3.2,7.1,7.1,7.6c21.3,2.6,43.4-11.6,41-30.2c-0.5-3.9-4-8.3-9.6-7.9
			c-13.4,1-24.3,9.6-23.7,21.1c0.2,4.1,4.3,8.2,9.6,7.9c19-0.9,33.4-12.7,35.2-28.2c0.5-4.7-6.7-9.5-12.2-7.6
			c-7.8,2.7-12.4,7.3-12.8,14.4c-0.4,6.2,8.3,9.6,14.5,6.8c6.6-3,11-7.7,13.1-13.6c2.3-6.7-7-12.4-14.1-8.9
			c-9.6,4.6-13.8,12.5-18.8,20.1c-1.7,2.5-3.5,5.8-6.8,7.2c-5.7,2.4-14,0.4-20.2,1.9c-11.8,2.9-21.7,15.3-11.2,23.9
			c9.1,7.6,23.9,4.3,28.5-5c1.2-2.3-0.1-6.1-2.4-7.7c-8-5.4-18.8-2.2-21,6.2c-2.3,8.9,8.9,14.2,18.4,12.5
			c16.8-2.9,30.7-20.2,24-33.7c-3.9,3.2-7.9,6.5-11.8,9.7c9.1,2.6,19.4-0.9,23.8-7.9c5.6-9-11-17-16.6-8c-1,1.5-0.4,1.1-2.1,0.6
			c-6.5-1.8-14.6,4.2-11.8,9.7c1.7,3.4,1,6.1-1.6,9.1c-1,1.2-2.3,2.3-3.8,3.2c-1,0.6-2.4,1-3.2,1.6c-0.9,0.7-1.1-0.3-0.2,0.1
			c1.1,0.9,2.3,1.9,3.4,2.8c0,0.1,0.1,0.1,0.1,0.2c0,1.4,0,2.8,0,4.2c-0.4,0-0.4,0.1-0.2,0.3c-1.5,0.7-2.8,1.4-4.3,2
			c0.2-0.1,0.6-0.2,0.9-0.3c-1.7,0-3.4,0-5.1,0c0.2,0,0.6,0.1,0.9,0.1c-1.5-0.7-2.8-1.4-4.3-2c0.2,0.2,0.5,0.4,0.9,0.5
			c-0.9-2.6-1.7-5.1-2.4-7.7c-0.1,0.3,1.5-2.5,2.6-2.4c2.9,0.3,1.5,3.6,2,3.7c0.2,0,1.2-0.8,1.7-0.8c2.3-0.2,4.6-0.5,7.1-0.5
			c8.7-0.2,16.5-1.3,22.9-6.2c4.6-3.5,7.7-8.3,10.6-12.9c2.6-4.1,4.9-8.9,9.9-11.3c-4.8-3-9.4-5.9-14.1-8.9
			c-0.7,2.1-1.8,3.1-4.1,4.1c4.9,2.3,9.6,4.5,14.5,6.8c-0.2,0.4-0.6,0.7-1.2,0.8c-4-2.5-8.2-5.1-12.2-7.6c-0.7,6.5-8.2,12-16,12.4
			c3.2,2.6,6.5,5.3,9.6,7.9c-0.1-2.3,1.1-5,4.4-5.3c-3.2-2.6-6.5-5.3-9.6-7.9c1,7.3-6.6,16.2-16.7,15c2.3,2.5,4.8,5.1,7.1,7.6
			c0.2-2.5,1.3-4.8,3.3-6.8c0.9-0.9,1.8-1.6,2.9-2.2c0.7-0.4,1.5-0.8,2.2-1.1c1.3-0.3,1.1-0.4-0.5-0.5c-1.1-0.9-2.3-1.9-3.4-2.8
			c0.2,0.4,0.5,0.7,0.6,1.1c-0.5-1.3-0.9-2.7-1.3-4c0.2,3.1-5.5,15-11,13.6c-6.3-1.6-0.5-10.5,1.7-12.7c5.9-5.9,15.1-8.3,23.5-10.9
			c8.9-2.7,17.4-5.6,25-10.5c13.4-8.7,20.9-21.9,25.1-35.1c2.1-6.5,3.4-13.2,4.5-19.9c0.5-3.2,0.5-13.1,5.4-14
			c-3.9-1.8-7.9-3.7-11.8-5.5c4.4,23-11.5,45.3-22.1,65.8c-10,19.4-16.6,44.9-40.1,56.6c-4.9,2.5-11.2,4.7-17.2,4.1
			c-5.6-0.7-9.1-4.5-11.2-8.5c-4.3-8-4.4-18.4-0.1-26.5c5.1-9.5,16.5-13.3,27.7-16.6c12.3-3.6,23.9-7.5,33.9-14.6
			c10.4-7.3,18.1-17,22.6-27.6c2.4-5.6,3.3-11.3,4-17.2c0.6-4.4,1.1-11.3,7.4-12.6C208.7,717.7,203.5,702.5,191.6,705L191.6,705z"/>
	</g>
</g>
<g class="st0">
	<g>
		<path class="st1" d="M186.3,386.6c-21.7,6.2-28.5,25.2-27.3,42.4c0.6,9,6.7,15,17.3,17.3c10,2.1,21.1,1.7,30.5-1.9
			c18.2-7,22.9-25,18.1-39.8c-2.7-8.1-8-15.7-17.6-19.3c-8.8-3.3-19.1-3.1-28.5-2.3c-12,1-19.1,6.7-24.6,15.2
			c-5.1,8-8.9,17.7-8.3,26.8c1.2,17.2,25,24.4,43.3,24.2c10.1-0.2,19.6-3.9,24.1-11.6c4.9-8.4,2.7-17.6-1.3-25.9
			c-3.7-7.5-9.1-14.8-19.8-16c-10.5-1.2-19.8,3.9-25.6,10.7c-6.1,7.2-13.5,19.1-4.1,26.6c7.8,6.2,23.8,5,32.2,0.5
			c9.4-5,13.8-17,4.1-23.6c-11.1-7.6-23.9,3.9-28.5,11.8c-2.9,4.9,0.5,11.4,7.9,11.3c13.7-0.1,22.6-12.7,15.5-22.4
			c-6.1-8.3-21.8-0.7-15.9,7.6c-0.1-0.2,0.2-0.2,0.4-0.2c2.7,3.8,5.2,7.5,7.9,11.3c1.3-2.4,3.9-6.5,7.3-7.2c-1.6,0-3.3,0-4.9,0
			c-1.7-0.5-2.6-1.2-2.4-2.3c0.1-0.5-0.1-0.3-0.6,0.5c-1.6,0.5-2.2,1.2-4,1.5c-1.7,0.3-3.8-0.3-5.4,0.1c-1,0.2-1.1-0.3-1-0.3
			c0.4,1.3,0.9,2.5,1.2,3.8c-0.6-4,6.8-16.5,13.4-15c2.9,0.7,4.3,4.6,5.2,6.7c1.7,3.6,3.5,7.8,2.6,11.8c-1.8,7.2-12.7,5.4-19.1,4.1
			c-8.7-1.7-15.4-4.3-14.1-12.5c0.6-4.2,2.1-8.5,4.1-12.4c1.6-3,4.3-8.2,8.2-9.7c3.4-1.3,9.4-0.9,13.1-0.8c3.9,0,8.5,0.2,11.8,2.3
			c6.2,3.9,7.7,13.5,6.7,19.4c-1,6.5-5.7,11.5-13.7,12.9c-4.5,0.8-9.8,0.8-14.1-0.4c-4.6-1.3-3.3-5.1-3.2-8.6
			c0.4-8.3,3.2-19,14-22.1C202.1,398,197.4,383.5,186.3,386.6L186.3,386.6z"/>
	</g>
</g>
<g class="st0">
	<g>
		<path class="st1" d="M226.7,290.7c-21.7,6.2-28.5,25.2-27.3,42.4c0.6,9,6.7,15,17.3,17.3c10,2.1,21.1,1.7,30.5-1.9
			c18.2-7,22.9-25,18.1-39.8c-2.7-8.1-8-15.7-17.6-19.3c-8.8-3.3-19.1-3.1-28.5-2.3c-12,1-19.1,6.7-24.6,15.2
			c-5.1,8-8.9,17.7-8.3,26.8c1.2,17.2,25,24.4,43.3,24.2c10.1-0.2,19.6-3.9,24.1-11.6c4.9-8.4,2.7-17.6-1.3-25.9
			c-3.7-7.5-9.1-14.8-19.8-16c-10.5-1.2-19.8,3.9-25.6,10.7c-6.1,7.2-13.5,19.1-4.1,26.6c7.8,6.2,23.8,5,32.2,0.5
			c9.4-5,13.8-17,4.1-23.6c-11.1-7.6-23.9,3.9-28.5,11.8c-2.9,4.9,0.5,11.4,7.9,11.3c13.7-0.1,22.6-12.7,15.5-22.4
			c-6.1-8.3-21.8-0.7-15.9,7.6c-0.1-0.2,0.2-0.2,0.4-0.2c2.7,3.8,5.2,7.5,7.9,11.3c1.3-2.4,3.9-6.5,7.3-7.2c-1.6,0-3.3,0-4.9,0
			c-1.7-0.5-2.6-1.2-2.4-2.3c0.1-0.5-0.1-0.3-0.6,0.5c-1.6,0.5-2.2,1.2-4,1.5c-1.7,0.3-3.8-0.3-5.4,0.1c-1,0.2-1.1-0.3-1-0.3
			c0.4,1.3,0.9,2.5,1.2,3.8c-0.6-4,6.8-16.5,13.4-15c2.9,0.7,4.3,4.6,5.2,6.7c1.7,3.6,3.5,7.8,2.6,11.8c-1.8,7.2-12.7,5.4-19.1,4.1
			c-8.7-1.7-15.4-4.3-14.1-12.5c0.6-4.2,2.1-8.5,4.1-12.4c1.6-3,4.3-8.2,8.2-9.7c3.4-1.3,9.4-0.9,13.1-0.8c3.9,0,8.5,0.2,11.8,2.3
			c6.2,3.9,7.7,13.5,6.7,19.4c-1,6.5-5.7,11.5-13.7,12.9c-4.5,0.8-9.8,0.8-14.1-0.4c-4.6-1.3-3.3-5.1-3.2-8.6
			c0.4-8.3,3.2-19,14-22.1C242.5,302.1,237.8,287.6,226.7,290.7L226.7,290.7z"/>
	</g>
</g>
<g class="st0">
	<g>
		<path class="st1" d="M273.7,16.1c-8.9-0.2-14.1,6.1-17.3,12.2c-2.9,5.5-8.2,14.9-1.8,20c5.6,4.5,15.2,3.7,21.8,1.5
			c8.4-2.8,15.1-8.8,17-16.2c3.7-14.7-13.5-24.4-29.9-19.7c-8.7,2.5-14.9,8.7-18.4,15.4c-3.3,6.2-6.7,15-1.7,21.1
			c10.1,12.4,33.2,5.2,42.3-4c10.4-10.3,11-29.5-9.5-30.8c-9-0.6-18.1,3.7-23.4,9.5c-4.9,5.2-6.5,13.5,0.5,18.1
			c6.5,4.3,15.7,2.1,21-2.4c4.6-4,11.5-13.5,5.9-18.7c-11.3-10.7-34.3,11.6-25.4,21.7c10.6,12,36.2-12.8,24.9-19.4
			c-11.1-6.4-38.1,11.7-23.3,19.9c6.8,3.8,17.6,2,23.2-2.7c5.1-4.3,5.2-11.6-2.4-13.8c-7.2-2-16.2,0.9-20.1,6.1
			c-4.1,5.5,0.1,12,7.8,12.7c7,0.7,17.8-4.8,17.1-11.3c-0.9-7.5-11.6-5.2-15.6-1.1c-4.1,4.1-1.1,10.5,6,9.5
			c6.6-0.9,10.2-8.4,3.9-11.8c-5.1-2.8-12.6,1.7-9.9,6.5c3.3,5.8,12.1,3,15.2-1.2c3.2-4.1,5.6-15-3.9-14.7
			c-6.6,0.2-14.3,6.7-13.2,12.2c2.7,14.8,34.3-2.7,19.6-9.8c-7.7-3.7-18.3,1-23.8,5.5c-5,4.2-3.4,10.4,3.9,11.9
			c7.3,1.6,15-4.6,17.3-9.8c2.7-5.9-3.7-9.3-10.2-7.1c-7.1,2.4-10.4,8.8-8.9,14.8c0.4,1.5,2.3,2.1,3.9,1.8c6.8-1,10.5-6.2,8.9-11.6
			c-0.4-1.2-1.7-1.8-3-1.9c-12.1-1-21.8,7-20.5,16.9c0.1,1.1,0.9,2.2,2.3,2.5c6.8,1.4,14.1-0.2,18.8-4.8c3.5-3.5,5.4-9.6,0.2-12.8
			c-10-6.2-28.7,11.6-15.9,17.6c4.9,2.3,10.4-0.9,10.7-5.2c0.5-5.8-7.3-9-13.4-8.3c-5.5,0.7-11,5.1-8,9.9c2.4,4.1,9.5,4.1,12.1,0.1
			c1-1.5,0.1-3.4-2-3.9c-13.5-3.1-6.5,17.2,3.3,11.7c1.3-0.8,2.2-2.4,1.1-3.6c-1.8-2.2-3.4-2.9-6.7-3.2c-3.4-0.3-4,3.6-1.6,4.9
			c10.7,6,25.2-3.1,31.5-10.1c6.3-7.1,10-18.4-0.1-24.4c-1.3-0.8-3.7-0.2-4.4,0.9c-1.7,3-2.6,5.7-2.6,9c2.1-0.2,4.1-0.5,6.3-0.7
			c-0.2-0.8-0.5-1.6-0.9-2.4c-1.1-3.3-7.3-1.9-6.2,1.4c0.2,0.8,0.5,1.6,0.9,2.4c1,2.9,6.2,2.3,6.3-0.7c0-2.3,0.5-4.2,1.7-6.4
			c-1.5,0.3-2.9,0.6-4.4,0.9c13.3,7.9-12.7,32.3-25,25.4c-0.5,1.6-1.1,3.3-1.6,4.9c0.4,0.2,0.7,0.4,1.1,0.6c0.4-1.2,0.7-2.4,1.1-3.6
			c-0.4-0.8-1-1.5-1.8-2c-0.6-1.3-1.2-2.6-2-3.9c0.6-2.2,2.3-2.9,5.1-2.1c1.5,4.1,2.2,4,2.1-0.2c1.1-1.7,7.7-7.2,9.4-2.4
			c0.6,1.8-4.1,4.5-5.6,5.1c-2.7,1.1-5.5,1.2-8.3,0.6c0.7,0.8,1.6,1.7,2.3,2.5c-1-7.2,5.2-12.4,14.1-11.7c-1-0.6-2.1-1.3-3-1.9
			c0.7,2.6-1.5,4.7-4.4,5.1c1.3,0.6,2.7,1.2,3.9,1.8c-0.7-2.8,0.6-6.9,4.1-8.1c5.4-2,0.1,3.4-1.5,4.6c-1.8,1.4-5,3.4-6.2,0.6
			c-1-2.2,0.1-2.3,2.8-3.8c2.1-1.2,15.1-6.3,12.2-0.3c-1,2.1-9.4,5.5-9.1,0.9c0.1-2.6,7.6-7.3,6.7-1c-0.4,2.9-3.4,4.3-6.2,5.6
			c4.6-2.3,2.9,0,1.1,1.7c-1.5,1.5-5.4,2.9-7.6,2.2c-6.3-1.9-1.8-5.8,0.5-7.1c2-1.1,8.3-3,10.6-1.1c4.4,3.5-5.1,7.2-7.7,7.7
			c-6,1.1-12.6-1.3-6.3-7c1.6-1.5,9.6-6.4,12-5.3c1.8,0.9,0.7,3.5,0.4,4.5c-0.6,1.4-2.2,2.8-3.4,4c-1.1,1-2.2,2-3.4,2.8
			c-2,1.3-6.2,1.5-8-0.4c-2.2-2.2,3-8.4,4.9-10.2c1.3-1.3,2.9-2.5,4.8-3.3c4.3-1.8,7,1.9,5.2,5.2c-2.4,4.5-12.7,14.6-18.3,6.6
			c-4.8-6.8,6.7-14.3,13.3-16.1s15.4-0.1,17.4,6.1c2,6-2.6,13-7.7,17.1c-4.5,3.7-10.7,6.4-17.2,6.8c-7,0.4-14.6-2.2-14.4-8.7
			c0.2-11,10.1-24.8,24.8-25c7.8-0.1,14.6,3.8,15.4,10.5c0.7,7-5,13.4-12.6,16.3c-3.2,1.2-6.8,1.9-10.2,1.6
			c-2.8-0.3-5.9-0.9-6.6-3.7c-0.4-1.3,0.9-3.9,1.2-5.2c1.8-5.6,5.6-16.2,14.4-16C277.8,21.4,277.8,16.1,273.7,16.1L273.7,16.1z"/>
	</g>
</g>
<g class="st0">
	<g>
		<path class="st1" d="M349.8,510c-8.9-0.2-14.1,6.1-17.3,12.2c-2.9,5.5-8.2,14.9-1.8,20c5.6,4.5,15.2,3.7,21.8,1.5
			c8.4-2.8,15.1-8.8,17-16.2c3.7-14.7-13.5-24.4-29.9-19.7c-8.7,2.5-14.9,8.7-18.4,15.4c-3.3,6.2-6.7,15-1.7,21.1
			c10.1,12.4,33.2,5.2,42.3-4c10.4-10.3,11-29.5-9.5-30.8c-9-0.6-18.1,3.7-23.4,9.5c-4.9,5.2-6.5,13.5,0.5,18.1
			c6.5,4.3,15.7,2.1,21-2.4c4.6-4,11.5-13.5,5.9-18.7c-11.3-10.7-34.3,11.6-25.4,21.7c10.6,12,36.2-12.8,24.9-19.4
			c-11.1-6.4-38.1,11.7-23.3,19.9c6.8,3.8,17.6,2,23.2-2.7c5.1-4.3,5.2-11.6-2.4-13.8c-7.2-2-16.2,0.9-20.1,6.1
			c-4.1,5.5,0.1,12,7.8,12.7c7,0.7,17.8-4.8,17.1-11.3c-0.9-7.5-11.6-5.2-15.6-1.1c-4.1,4.1-1.1,10.5,6,9.5
			c6.6-0.9,10.2-8.4,3.9-11.8c-5.1-2.8-12.6,1.7-9.9,6.5c3.3,5.8,12.1,3,15.2-1.2c3.2-4.1,5.6-15-3.9-14.7
			c-6.6,0.2-14.3,6.7-13.2,12.2c2.7,14.8,34.3-2.7,19.6-9.8c-7.7-3.7-18.3,1-23.8,5.5c-5,4.2-3.4,10.4,3.9,11.9
			c7.3,1.6,15-4.6,17.3-9.8c2.7-5.9-3.7-9.3-10.2-7.1c-7.1,2.4-10.4,8.8-8.9,14.8c0.4,1.5,2.3,2.1,3.9,1.8c6.8-1,10.5-6.2,8.9-11.6
			c-0.4-1.2-1.7-1.8-3-1.9c-12.1-1-21.8,7-20.5,16.9c0.1,1.1,0.9,2.2,2.3,2.5c6.8,1.4,14.1-0.2,18.8-4.8c3.5-3.5,5.4-9.6,0.2-12.8
			c-10-6.2-28.7,11.6-15.9,17.6c4.9,2.3,10.4-0.9,10.7-5.2c0.5-5.8-7.3-9-13.4-8.3c-5.5,0.7-11,5.1-8,9.9c2.4,4.1,9.5,4.1,12.1,0.1
			c1-1.5,0.1-3.4-2-3.9c-13.5-3.1-6.5,17.2,3.3,11.7c1.3-0.8,2.2-2.4,1.1-3.6c-1.8-2.2-3.4-2.9-6.7-3.2c-3.4-0.3-4,3.6-1.6,4.9
			c10.7,6,25.2-3.1,31.5-10.1c6.3-7.1,10-18.4-0.1-24.4c-1.3-0.8-3.7-0.2-4.4,0.9c-1.7,3-2.6,5.7-2.6,9c2.1-0.2,4.1-0.5,6.3-0.7
			c-0.2-0.8-0.5-1.6-0.9-2.4c-1.1-3.3-7.3-1.9-6.2,1.4c0.2,0.8,0.5,1.6,0.9,2.4c1,2.9,6.2,2.3,6.3-0.7c0-2.3,0.5-4.2,1.7-6.4
			c-1.5,0.3-2.9,0.6-4.4,0.9c13.3,7.9-12.7,32.3-25,25.4c-0.5,1.6-1.1,3.3-1.6,4.9c0.4,0.2,0.7,0.4,1.1,0.6c0.4-1.2,0.7-2.4,1.1-3.6
			c-0.4-0.8-1-1.5-1.8-2c-0.6-1.3-1.2-2.6-2-3.9c0.6-2.2,2.3-2.9,5.1-2.1c1.5,4.1,2.2,4,2.1-0.2c1.1-1.7,7.7-7.2,9.4-2.4
			c0.6,1.8-4.1,4.5-5.6,5.1c-2.7,1.1-5.5,1.2-8.3,0.6c0.7,0.8,1.6,1.7,2.3,2.5c-1-7.2,5.2-12.4,14.1-11.7c-1-0.6-2.1-1.3-3-1.9
			c0.7,2.6-1.5,4.7-4.4,5.1c1.3,0.6,2.7,1.2,3.9,1.8c-0.7-2.8,0.6-6.9,4.1-8.1c5.4-2,0.1,3.4-1.5,4.6c-1.8,1.4-5,3.4-6.2,0.6
			c-1-2.2,0.1-2.3,2.8-3.8c2.1-1.2,15.1-6.3,12.2-0.3c-1,2.1-9.4,5.5-9.1,0.9c0.1-2.6,7.6-7.3,6.7-1c-0.4,2.9-3.4,4.3-6.2,5.6
			c4.6-2.3,2.9,0,1.1,1.7c-1.5,1.5-5.4,2.9-7.6,2.2c-6.3-1.9-1.8-5.8,0.5-7.1c2-1.1,8.3-3,10.6-1.1c4.4,3.5-5.1,7.2-7.7,7.7
			c-6,1.1-12.6-1.3-6.3-7c1.6-1.5,9.6-6.4,12-5.3c1.8,0.9,0.7,3.5,0.4,4.5c-0.6,1.4-2.2,2.8-3.4,4c-1.1,1-2.2,2-3.4,2.8
			c-2,1.3-6.2,1.5-8-0.4c-2.2-2.2,3-8.4,4.9-10.2c1.3-1.3,2.9-2.5,4.8-3.3c4.3-1.8,7,1.9,5.2,5.2c-2.4,4.5-12.7,14.6-18.3,6.6
			c-4.8-6.8,6.7-14.3,13.3-16.1s15.4-0.1,17.4,6.1c2,6-2.6,13-7.7,17.1c-4.5,3.7-10.7,6.4-17.2,6.8c-7,0.4-14.6-2.2-14.4-8.7
			c0.2-11,10.1-24.8,24.8-25c7.8-0.1,14.6,3.8,15.4,10.5c0.7,7-5,13.4-12.6,16.3c-3.2,1.2-6.8,1.9-10.2,1.6
			c-2.8-0.3-5.9-0.9-6.6-3.7c-0.4-1.3,0.9-3.9,1.2-5.2c1.8-5.6,5.6-16.2,14.4-16C353.9,515.3,353.9,510,349.8,510L349.8,510z"/>
	</g>
</g>
<g class="st0">
	<path class="st1" d="M267.7,214.9c-10.5-2.5-22.1,2.6-27.7,10.2c-5.6,7.7-6,17.2-3.9,26c0.4,1.3,0.7,2.7,1.6,3.8
		c1.8,2.3,5.2,3.3,8.7,3.5c9.8,0.5,19-5.1,23.4-12.2c4.4-7.2,4.6-15.6,3-23.6c-3.8-19.6-35.7,10.2-34.4,22c0.4,3.6,2.7,7.5,7,8.2
		c3,0.6,6.1-0.7,8.7-2.1c10.4-6.1,15.5-17.7,12.3-27.8c-0.2-0.6-0.5-1.3-1.2-1.5c-0.6-0.2-1.2,0-1.8,0.3c-6.8,2.8-11.6,8.7-12,15
		c0,0.9,1.3,2.1,1.7,1.2c-0.5,1.4-1.6,2.7-3,3.6"/>
</g>
<g class="st0">
	<path class="st1" d="M383.3,150.8c-10.5-2.5-22.1,2.6-27.7,10.2c-5.6,7.7-6,17.2-3.9,26c0.4,1.3,0.7,2.7,1.6,3.8
		c1.8,2.3,5.2,3.3,8.7,3.5c9.8,0.5,19-5.1,23.4-12.2c4.4-7.2,4.6-15.6,3-23.6c-3.8-19.6-35.7,10.2-34.4,22c0.4,3.6,2.7,7.5,7,8.2
		c3,0.6,6.1-0.7,8.7-2.1c10.4-6.1,15.5-17.7,12.3-27.8c-0.2-0.6-0.5-1.3-1.2-1.5c-0.6-0.2-1.2,0-1.8,0.3c-6.8,2.8-11.6,8.7-12,15
		c0,0.9,1.3,2.1,1.7,1.2c-0.5,1.4-1.6,2.7-3,3.6"/>
</g>
<g class="st0">
	<path class="st1" d="M124.2,372.9c-10.5-2.5-22.1,2.6-27.7,10.2c-5.6,7.7-6,17.2-3.9,26c0.4,1.3,0.7,2.7,1.6,3.8
		c1.8,2.3,5.2,3.3,8.7,3.5c9.8,0.5,19-5.1,23.4-12.2c4.4-7.2,4.6-15.6,3-23.6c-3.8-19.6-35.7,10.2-34.4,22c0.4,3.6,2.7,7.5,7,8.2
		c3,0.6,6.1-0.7,8.7-2.1c10.4-6.1,15.5-17.7,12.3-27.8c-0.2-0.6-0.5-1.3-1.2-1.5c-0.6-0.2-1.2,0-1.8,0.3c-6.8,2.8-11.6,8.7-12,15
		c0,0.9,1.3,2.1,1.7,1.2c-0.5,1.4-1.6,2.7-3,3.6"/>
</g>
<g class="st0">
	<path class="st1" d="M226.3,668c3.3,9.2,11.9,19.6,22.7,18.7c4.2-0.3,7.7-2.3,10.5-4.7c15.1-12.1,17.9-31.8,26.7-48.1
		c5-9.3,12.2-17.6,17.3-26.8c5-9.3,7.9-20.2,3.8-30.7c-2.6-6.7-10.9-14.8-19.8-14.1c-2.9,0.2-5.4,1.3-7.8,2.4
		c-4.8,2.1-9.6,4.2-14.4,6.5c-16.9,7.8-32.6,18.2-37.2,34.8C222.7,625.6,219,647.4,226.3,668z"/>
</g>
<g class="st0">
	<g>
		<path class="st1" d="M332.3,593.4c-4.5,11.5-12.6,20.8-23.2,28.9c-10.4,7.9-20.9,17.2-19.1,29.8c2,14.1,18.5,18.5,33.3,14.2
			c13.1-3.8,23.4-12.2,29.3-22.4c6.7-11.5,8.7-24.3,10-36.9c0.7-6,0.5-12.6-3.8-17.8c-5-6-15-6.2-21.3-1.5
			c-10.7,7.8-10.4,22-17.7,31.6c-3.5,4.8-8,9-12.4,13.2c-4.5,4.2-11,9-13.4,14.3c-3.2,7.2,2.4,14.3,12,14.6c7.6,0.3,15.1-2.8,21-6.6
			c13.7-8.9,17.8-22.9,20.6-36.3c0.9-4.2-1.3-8.5-6.7-9.7c-4.6-1-11,1.3-11.8,5.5c-1.6,7.3-2.9,15.1-7.4,21.7
			c-2.2,3.3-9.6,11.1-15,9.4c1.5,0.7,2.8,1.4,4.3,2c-0.4-0.3-0.6-0.5-1-0.8c0.9,1.2,1.7,2.3,2.4,3.5c-0.1-0.4-0.2-0.8-0.5-1.2
			c0,1.4,0,2.8,0,4.2c0.4-2,3-3.7,4.6-5.2c2.2-2.1,4.4-4.1,6.6-6.2c4.4-4.2,8.8-8.5,12.4-13.2c3.5-4.4,6.3-9.3,8.3-14.3
			c1-2.4,3.3-14,6.5-14.6c-1.7,0-3.4,0-5.1,0c0.2,0.1,0.5,0.2,0.7,0.2c-1.1-0.9-2.3-1.9-3.4-2.8c3.7,4.2,1,12.1,0.2,16.8
			c-1,6.4-2.3,12.8-5,18.9c-3.4,8-13.9,20.8-26.2,19.4c-2.1-0.2-2.3-0.9-2.2-3.2c0.1-2.7,2.1-5.4,4-7.5c4.3-4.7,10.5-8.2,15.4-12.4
			c10.4-8.9,17.9-19.7,22.4-31.4C354.7,587.9,336.1,583.7,332.3,593.4L332.3,593.4z"/>
	</g>
</g>
<g class="st0">
	<g>
		<path class="st1" d="M333.2,697.7c2.7,12,1.3,24.3-2.9,36.9c-4.1,12.4-7.5,26,1,35.4c9.6,10.6,25.7,4.8,35.5-7
			c8.6-10.5,12.5-23.3,11.6-35c-0.9-13.3-6.5-25-12.5-36.1c-2.8-5.4-6.7-10.7-13.2-12.6c-7.5-2.1-15.9,3.3-18.5,10.8
			c-4.5,12.5,3.8,24,3.2,36.1c-0.2,6-1.6,12-2.8,17.9c-1.4,6-4,13.6-3,19.4c1.4,7.7,10.1,10.4,18.1,5.3c6.4-4,10.9-10.8,13.6-17.3
			c6.3-15,1.8-29-3.4-41.6c-1.7-4-5.9-6.3-11-4.2c-4.4,1.8-8.3,7.3-6.7,11.2c2.8,6.9,6.1,14.1,6.1,22.1c0,4-1.7,14.6-7.1,16.2
			c1.6-0.2,3.1-0.4,4.7-0.8c-0.5,0-0.8-0.1-1.3-0.1c1.4,0.5,2.7,0.9,4,1.5c-0.3-0.3-0.7-0.5-1.1-0.7c0.8,1.2,1.6,2.3,2.4,3.5
			c-0.8-1.9,0.4-4.8,0.9-6.9c0.6-3,1.3-5.9,1.9-8.8c1.3-5.9,2.5-12,2.8-17.9c0.4-5.6,0-11.3-1.2-16.5c-0.5-2.5-5.2-13.4-2.9-15.7
			c-1.4,1-2.8,1.9-4.2,2.9c0.3-0.1,0.5-0.1,0.7-0.2c-1.4-0.1-3-0.3-4.4-0.4c5.4,1.4,7.6,9.4,9.7,13.7c2.8,5.8,5.3,11.9,6.5,18.4
			c1.7,8.5,0.2,25-10.7,30.8c-1.8,1-2.4,0.6-3.6-1.4c-1.4-2.3-1.3-5.6-0.9-8.5c0.9-6.3,4-12.7,5.7-18.9c3.6-13.2,3.7-26.4,0.9-38.6
			C348.6,680.6,330.9,687.6,333.2,697.7L333.2,697.7z"/>
	</g>
</g>
<g class="st0">
	<path class="st1" d="M205.6,13.4c-10.5-2.5-22.1,2.6-27.7,10.2c-5.6,7.7-6,17.2-3.9,26c0.4,1.3,0.7,2.7,1.6,3.8
		c1.8,2.3,5.2,3.3,8.7,3.5c9.8,0.5,19-5.1,23.4-12.2c4.4-7.2,4.6-15.6,3-23.6c-3.8-19.6-35.7,10.2-34.4,22c0.4,3.6,2.7,7.5,7,8.2
		c3,0.6,6.1-0.7,8.7-2.1c10.4-6.1,15.5-17.7,12.3-27.8c-0.2-0.6-0.5-1.3-1.2-1.5c-0.6-0.2-1.2,0-1.8,0.3c-6.8,2.8-11.6,8.7-12,15
		c0,0.9,1.3,2.1,1.7,1.2c-0.5,1.4-1.6,2.7-3,3.6"/>
</g>
<g class="st0">
	<path class="st1" d="M279.1,363c-10.5-2.5-22.1,2.6-27.7,10.2c-5.6,7.7-6,17.2-3.9,26c0.4,1.3,0.7,2.7,1.6,3.8
		c1.8,2.3,5.2,3.3,8.7,3.5c9.8,0.5,19-5.1,23.4-12.2c4.4-7.2,4.6-15.6,3-23.6c-3.8-19.6-35.7,10.2-34.4,22c0.4,3.6,2.7,7.5,7,8.2
		c3,0.6,6.1-0.7,8.7-2.1c10.4-6.1,15.5-17.7,12.3-27.8c-0.2-0.6-0.5-1.3-1.2-1.5c-0.6-0.2-1.2,0-1.8,0.3c-6.8,2.8-11.6,8.7-12,15
		c0,0.9,1.3,2.1,1.7,1.2c-0.5,1.4-1.6,2.7-3,3.6"/>
</g>
<g class="st0">
	<path class="st1" d="M218.9,804c-10.5-2.5-22.1,2.6-27.7,10.2c-5.6,7.7-6,17.2-3.9,26c0.4,1.3,0.7,2.7,1.6,3.8
		c1.8,2.3,5.2,3.3,8.7,3.5c9.8,0.5,19-5.1,23.4-12.2c4.4-7.2,4.6-15.6,3-23.6c-3.8-19.6-35.7,10.2-34.4,22c0.4,3.6,2.7,7.5,7,8.2
		c3,0.6,6.1-0.7,8.7-2.1c10.4-6.1,15.5-17.7,12.3-27.8c-0.2-0.6-0.5-1.3-1.2-1.5c-0.6-0.2-1.2,0-1.8,0.3c-6.8,2.8-11.6,8.7-12,15
		c0,0.9,1.3,2.1,1.7,1.2c-0.5,1.4-1.6,2.7-3,3.6"/>
</g>
<g class="st0">
	<path class="st1" d="M352.7,799.4c-10.5-2.5-22.1,2.6-27.7,10.2c-5.6,7.7-6,17.2-3.9,26c0.4,1.3,0.7,2.7,1.6,3.8
		c1.8,2.3,5.2,3.3,8.7,3.5c9.8,0.5,19-5.1,23.4-12.2c4.4-7.2,4.6-15.6,3-23.6c-3.8-19.6-35.7,10.2-34.4,22c0.4,3.6,2.7,7.5,7,8.2
		c3,0.6,6.1-0.7,8.7-2.1c10.4-6.1,15.5-17.7,12.3-27.8c-0.2-0.6-0.5-1.3-1.2-1.5c-0.6-0.2-1.2,0-1.8,0.3c-6.8,2.8-11.6,8.7-12,15
		c0,0.9,1.3,2.1,1.7,1.2c-0.5,1.4-1.6,2.7-3,3.6"/>
</g>
<g class="st0">
	<path class="st1" d="M252.1,812.9c5.7,7.9,17,15.4,27.1,11.5c3.9-1.5,6.7-4.4,8.8-7.5c11.1-15.9,8.2-35.6,12.1-53.7
		c2.2-10.3,6.7-20.3,9-30.6c2.2-10.3,1.8-21.6-5-30.5c-4.4-5.7-14.6-11.1-22.9-7.9c-2.7,1-4.8,2.8-6.8,4.5c-4,3.4-8,6.8-12,10.3
		c-14,12.3-26.1,26.7-25.9,43.9C236.7,773.3,239.3,795.2,252.1,812.9z"/>
</g>
<g class="st0">
	<g>
		<g>
			<g>
				<path class="st1" d="M331.4,215.9c-3-3.5-8.3-5.2-13.1-3c-4.1,2-6.5,7.3-3.4,10.8c18.1,20.4,43.8,38.5,51.5,63.8
					c2.9,9.5,3.3,20.8-3.2,29.5c-6.6,8.8-15.9-8.1-17.4-12.5c-3.8-9.8-5.4-20-10.7-29.4c-5.5-9.7-15.6-17.1-20.9-26.9
					c-2.7-5-4.6-11.4-3.8-17c0.2-1.5,0.9-3.1,1.7-4.4c0.9-1.3,0.4-1,1.5-0.6c4,1.6,6.7,7.8,8.8,10.7c3.3,4.8,7.1,9.4,11,14
					c7.9,9.4,16.7,18.8,22,29.5c4.3,8.7,8.5,22.4,1.5,31c1.1-0.9,2.3-1.9,3.4-2.8c-0.4,0.1-0.6,0.3-1,0.4c1.7,0,3.4,0,5.1,0
					c-7-1.1-9.8-10.9-12-15.4c-3.9-8-7.9-16-11.8-24c-7.9-16-15.7-31.9-23.7-47.9c-0.7,2.6-1.6,5.1-2.4,7.7
					c-3.5-0.5-4.4-0.2-2.7,0.9c0.4,0.5,0.7,1,1.1,1.5c1.1,1.5,2.2,3.1,3.3,4.7c2.1,3,4.1,6,6.2,9c4.5,6.6,8.7,13.3,12.8,20
					c8,13.4,15.6,27.1,22.3,41.1c2,4,6.3,6.7,11.8,5.5c4.6-1,8.7-5.7,6.7-9.7c-9.1-18.7-19.3-37.1-30.6-54.9
					c-5.5-8.5-10.7-17.7-17.6-25.6c-6.2-7.2-18.7-11.2-27.1-3.7c-2.1,1.9-3.8,5.1-2.4,7.7c10.9,22.1,21.8,44.2,32.8,66.2
					c4.4,9.1,7.9,20.3,17.1,27.2c4.8,3.6,11.5,6.1,17.9,4.4s9.4-7.1,11.1-12.1c6.3-18.2-2.4-37.4-14.1-52.8
					c-6-7.9-12.9-15.4-19.1-23.3c-5.2-6.7-9.1-14.9-16.5-20.3c-7.7-5.7-19.1-6.9-27.3-1c-7.3,5.3-9.5,13.7-9,21.4
					c0.6,9.7,4.4,19,10.9,27.1c5.6,7.2,13.1,13.6,17,21.6c7.2,14.7,6.5,33.4,22.2,44.7c7.8,5.5,19,8.7,28.7,4.5
					c9.4-4.1,14.3-14.2,16.2-22.2C395.7,272,356.7,244.4,331.4,215.9L331.4,215.9z"/>
			</g>
		</g>
		<g>
			<g>
				<path class="st1" d="M302.1,75.3c-11-4.5-20.7,9.1-9.6,13.4c11.8,4.8,15.6,17.5,20.1,26.8c2.9,6.1,7.6,12.8,8.5,19.3
					c0.9,5.7-3.4,11.5-5.4,16.9c-2.1,5.8-3.3,11.8-3.5,17.8c-0.1,4.5,0.9,9,0.6,13.5c-0.1,1.6-1.5,3.3,0.2,2.8
					c-1.8,0.6-4.8-0.6-6.6-1c-5.9-1.2-11.8-2.6-15.9-6.5c-4.1-4-6-9.3-7.8-14.2c-2.1-5.4-3.8-10.9-5.1-16.4
					c-2.9-11.6-4.4-23.4-4.5-35.3c-0.1-6.5-1.7-25.4,10.9-25.6c11.1-0.2,17.9,14.8,21.1,21.5c5.2,11.1,6,22.1,4,33.8
					c-1.1,6.8-2.6,13.5-3.9,20.3c-0.5,2.9-1.1,5.9-1.7,8.8c-0.4,1.6-0.6,3.3-1,4.9c-0.1,0.8-0.2,1.5-0.5,2.2
					c0.5-0.5,0.9-0.9,1.2-1.3c1.6-0.4,3.3-0.7,4.9-1.1c-0.6,0-1.2-0.1-1.8-0.1c1.6,0.4,3.3,0.7,4.9,1.1c-5.4-2.6-9-9.8-11.3-14.2
					c-2.7-5.3-4.5-10.9-6.2-16.4c-3.7-12.3-5.6-24.9-5.9-37.6c-0.1-2.4,0.7-5.7,0.1-8.1c-0.1-0.5,0.7-1.3,0.5-1.7
					c0.7-1.2-0.9-1-4.4,0.5c0.2,0.2,0.4,0.4,0.6,0.6c0.1,1.8,3.2,5.1,4,7c1.2,2.8,2.3,5.6,3.2,8.4c3.8,11.7,3.9,24,0.9,35.8
					c5.9-0.6,11.7-1.3,17.6-1.9c-9.6-11.1-14-24.6-11-38.1c-5.4,1.2-10.7,2.3-16.1,3.5c13.4,11.7,17.8,28.5,12.1,43.8
					c5.4-1.2,10.7-2.3,16.1-3.5c-8.3-6.8-12-15.5-11.2-25c-6,1.3-12,2.7-17.9,4c7.7,8.2,10.7,17.4,9.1,27.7c6-1.3,12-2.7,17.9-4
					c-3.3-3.9-5-8.3-3.9-13.1c-5.4,1.2-10.7,2.3-16.1,3.5c2.1,1.4,3.3,2.4,2.6,4.7c-3.2,9.9,15.5,14,18.5,4.2
					c2.3-7.3-0.2-15.2-7.6-20c-5.1-3.3-14.6-3-16.1,3.5c-2,8.9-0.4,17.7,5.9,25.3c5.6,6.9,16.7,3.6,17.9-4
					c2-12.6-2.3-25.6-11.7-35.7c-5.7-6.1-17.3-4.3-17.9,4c-1.1,13.5,5.2,26.7,16.8,36.2c5.2,4.3,14,2.1,16.1-3.5
					c7.7-20.7,1-43.5-17.1-59.2c-4.8-4.1-14.8-2.3-16.1,3.5c-4,17.6,0.1,35.7,12.9,50.3c4.4,5.1,15.6,5.3,17.6-1.9
					c3.4-12.7,3.7-25.4,0.9-38.2c-1.3-6.1-3.5-12-6.3-17.7c-2.6-5.2-5.5-10.7-11.7-13.7c-6.1-3-13.9-2.2-18.9,1.8
					c-4.5,3.6-6,9-6.3,14c-0.9,12.9,1.1,26.2,3.9,38.9c2.4,10.8,5.9,21.5,11.5,31.4c4.5,8.1,15.4,24.4,29,18.8
					c6.5-2.7,7.7-7.9,8.8-13.3c1.2-5.9,2.3-11.8,3.5-17.7c2.3-11.6,5.4-23.6,4.3-35.4c-1.1-11.3-5.7-21.8-12-31.8
					c-5.9-9.3-14-18.3-27.1-21c-12.8-2.5-25.2,3.2-31.1,12.6c-6.5,10.1-5.7,22.7-5.2,33.8c0.5,11.7,2.3,23.4,5.2,34.8
					c2.6,10.3,5.6,21.5,12.2,30.7c7.1,9.9,18.5,14.3,31.6,17c12.4,2.5,24.8-0.3,27.9-11.5c2.7-9.4-1-19.1,1.7-28.6
					c3-10.9,9.8-19.9,6.2-31.4c-1.8-6-5.2-11.8-8-17.5c-2.3-5-4.6-9.9-7.2-14.8C319.3,88,312.8,79.6,302.1,75.3L302.1,75.3z"/>
			</g>
		</g>
	</g>
</g>
<g class="st0">
	<path class="st1" d="M455.5,666.7"/>
</g>
</svg>
