<?xml version="1.0" encoding="utf-8"?>
<!-- Generator: Adobe Illustrator 21.0.2, SVG Export Plug-In . SVG Version: 6.00 Build 0)  -->
<svg version="1.1" id="Layer_1" xmlns="http://www.w3.org/2000/svg" xmlns:xlink="http://www.w3.org/1999/xlink" x="0px" y="0px"
	 viewBox="0 0 396 867" style="enable-background:new 0 0 396 867;" xml:space="preserve">
<style type="text/css">
	.st0{fill:#FFFFFF;}
	.st1{fill:none;}
	.st2{fill:#E7CDF9;}
	.st3{fill:#DEAAF9;}
</style>
<g>
	<polygon id="path-1" class="st0" points="0,0 396,0 396,867 0,867 	"/>
</g>
<title>pattern-blob</title>
<desc>Created with Sketch.</desc>
<g id="pattern-blob">
	<g id="Group_1_">
		<path class="st1" d="M0,0v70.5c0-14.1,11.4-25.4,25.5-25.4s25.4,11.4,25.4,25.4S39.5,96,25.5,96c-1.8,0-3.5-0.2-5.1-0.5
			c-1.2-0.2-2.5-0.6-3.6-1c-0.4-0.2-0.9-0.3-1.3-0.5c-6-2.6-10.8-7.4-13.4-13.4c-0.2-0.4-0.4-0.9-0.5-1.3c-0.2-0.6-0.4-1.2-0.6-1.8
			c-0.2-0.6-0.3-1.2-0.4-1.8c-0.2-0.8-0.3-1.7-0.4-2.5C0,72.2,0,71.4,0,70.5v506.7c0.4-1,0.9-2,1.5-2.9c0.1-0.1,0.2-0.3,0.2-0.4
			c0,0,0,0,0.1-0.1l0,0c0,0,0,0,0.1-0.1c0.1-0.2,0.2-0.4,0.4-0.6c0,0,0,0,0-0.1s0.1-0.2,0.2-0.2c0,0,0.1-0.1,0.1-0.2l0.1-0.1
			c0.1-0.1,0.2-0.3,0.3-0.4c0,0,0-0.1,0.1-0.1c0,0,0,0,0-0.1c0.1-0.1,0.1-0.2,0.2-0.3c0.1-0.1,0.1-0.1,0.2-0.2l0.1-0.1
			c0.1-0.1,0.2-0.3,0.4-0.5c0.1-0.1,0.2-0.2,0.3-0.3l0.1-0.1c0.2-0.2,0.4-0.5,0.6-0.7c0.1-0.1,0.2-0.2,0.3-0.3
			c0.1-0.1,0.2-0.2,0.3-0.3c0.1-0.1,0.3-0.3,0.5-0.4c0.1-0.1,0.2-0.2,0.4-0.3c0.2-0.2,0.4-0.3,0.5-0.5l0.1-0.1
			c0.3-0.2,0.5-0.4,0.9-0.7c0.3-0.2,0.6-0.4,0.9-0.6c0,0,0,0,0.1-0.1s0.2-0.2,0.3-0.2c0.2-0.1,0.4-0.2,0.5-0.3l0.1-0.1
			c0.2-0.2,0.5-0.3,0.8-0.4l0.1-0.1c0.2-0.1,0.4-0.2,0.6-0.3c0.2-0.1,0.4-0.2,0.7-0.3c0.5-0.2,0.9-0.4,1.4-0.6
			c0.6-0.3,1.3-0.5,2-0.7h0.1c0.1,0,0.2-0.1,0.4-0.1c0.3-0.1,0.7-0.2,1-0.3c0.4-0.1,0.8-0.2,1.2-0.3c0.4-0.1,0.8-0.2,1.2-0.2
			c0.4-0.1,0.8-0.1,1.3-0.2c0.3,0,0.7-0.1,1-0.1h1.6c0.9,0,1.8,0,2.6,0.1c0.4,0,0.9,0.1,1.3,0.2c0.4,0.1,0.8,0.1,1.2,0.2
			c0.4,0.1,0.8,0.2,1.1,0.2c0.1,0,0.1,0,0.2,0c0.4,0.1,0.8,0.2,1.1,0.3c0.8,0.2,1.6,0.5,2.3,0.9c0.7,0.3,1.3,0.6,1.9,0.9
			c0.1,0.1,0.2,0.1,0.4,0.2c0.4,0.2,0.8,0.4,1.2,0.7c0.3,0.2,0.6,0.3,0.8,0.5c0.4,0.2,0.7,0.5,1.1,0.8c0.3,0.2,0.7,0.5,1,0.8
			c0.8,0.7,1.6,1.4,2.4,2.2l0.4,0.4c0.2,0.2,0.4,0.4,0.5,0.6c0.2,0.2,0.4,0.4,0.5,0.7c0.4,0.5,0.8,1,1.1,1.5
			c0.2,0.2,0.3,0.5,0.5,0.7c0.1,0.1,0.2,0.3,0.3,0.5c0.2,0.3,0.3,0.6,0.5,0.9c0.2,0.4,0.4,0.7,0.6,1.1c0.2,0.3,0.3,0.7,0.5,1.1
			c0,0.1,0.1,0.2,0.1,0.2c0.1,0.2,0.2,0.4,0.2,0.6c0,0.1,0.1,0.1,0.1,0.2c0,0.1,0.1,0.2,0.1,0.3c0.2,0.6,0.4,1.2,0.6,1.9
			c0.1,0.2,0.1,0.5,0.2,0.7c0.1,0.3,0.1,0.6,0.2,0.8c0,0,0,0,0,0.1c0.1,0.4,0.1,0.8,0.2,1.2c0.1,0.8,0.2,1.7,0.3,2.6v1.4
			c0,14-11.4,25.5-25.4,25.5c-0.9,0-1.8,0-2.6-0.1c-0.9-0.1-1.7-0.2-2.5-0.4c-0.2,0-0.5-0.1-0.7-0.1c-0.1,0-0.2,0-0.3-0.1
			c-0.2,0-0.3-0.1-0.5-0.1c-0.2-0.1-0.5-0.1-0.7-0.2c-0.1,0-0.3-0.1-0.4-0.1c0,0-0.1,0-0.2,0c-0.3-0.1-0.6-0.2-0.9-0.3
			c-0.3-0.1-0.6-0.2-0.9-0.3c0,0-0.1,0-0.1-0.1c-0.1,0-0.3-0.1-0.4-0.2c-0.3-0.1-0.6-0.2-0.9-0.4c-0.8-0.4-1.5-0.8-2.2-1.2
			c-0.4-0.2-0.7-0.4-1-0.7c-0.3-0.2-0.7-0.5-1-0.7s-0.6-0.5-1-0.8c-0.2-0.2-0.5-0.4-0.7-0.6c-0.1-0.1-0.3-0.3-0.4-0.4
			c-0.2-0.2-0.5-0.4-0.7-0.6c-0.3-0.3-0.6-0.6-0.8-0.9c-0.2-0.3-0.5-0.5-0.7-0.8c-0.1-0.1-0.1-0.2-0.2-0.2c-0.2-0.3-0.4-0.5-0.6-0.8
			c-0.2-0.3-0.4-0.6-0.6-0.9c-0.2-0.2-0.3-0.5-0.5-0.7c0,0,0-0.1-0.1-0.1c-0.1-0.1-0.2-0.2-0.2-0.3V601l-0.1-0.1
			c-0.1-0.1-0.1-0.1-0.1-0.2v-0.1c0-0.1-0.1-0.1-0.1-0.2v-0.1c-0.1-0.1-0.2-0.2-0.2-0.4C1,599.8,1,599.7,1,599.6v-0.1
			c-0.1-0.1-0.1-0.2-0.2-0.4c0,0,0-0.1-0.1-0.1c-0.1-0.2-0.1-0.3-0.2-0.5c0-0.1-0.1-0.2-0.2-0.3V757c1.7-1.8,3.7-3.3,5.9-4.6
			c0.3-0.2,0.7-0.4,1-0.5c3.4-1.7,7.3-2.7,11.4-2.7c14.1,0,25.5,11.4,25.5,25.5s-11.4,25.5-25.5,25.5c-4.1,0-8-1-11.4-2.7
			c-0.3-0.2-0.7-0.3-1-0.5c-2.2-1.2-4.2-2.8-5.9-4.6V867h396V439c-7.3-4.5-12.1-12.5-12.1-21.7s4.8-17.2,12.1-21.7V0H0z M216.7,87.6
			c13.7,0,24.8,10.7,25.5,24.2c0,0.4,0,0.8,0,1.2c0,0.4,0,0.9,0,1.3c-0.6,13.5-11.8,24.3-25.5,24.3s-24.8-10.8-25.5-24.3
			c0-0.4,0-0.9,0-1.3C191.3,99,202.7,87.6,216.7,87.6z M221.8,478.2c-14.1,0-25.5-11.4-25.5-25.5c0-14,11.4-25.4,25.5-25.4
			s25.5,11.4,25.5,25.4C247.2,466.8,235.8,478.2,221.8,478.2z M232,324.8c-14.1,0-25.5-11.4-25.5-25.5c0-14,11.4-25.4,25.5-25.4
			s25.5,11.4,25.5,25.4S246.1,324.8,232,324.8z M196.3,620c0-0.4,0-0.8,0-1.2c0.7-13.5,11.8-24.2,25.5-24.2s24.8,10.7,25.5,24.2
			c0,0.4,0,0.8,0,1.2s0,0.9,0,1.3c-0.6,13.5-11.8,24.3-25.5,24.3s-24.8-10.8-25.5-24.3C196.3,620.9,196.3,620.4,196.3,620z
			 M14.1,408.3c0.1-0.3,0.2-0.5,0.3-0.8c0.2-0.5,0.4-0.9,0.6-1.4c0.3-0.7,0.7-1.4,1.1-2c0.4-0.7,0.9-1.4,1.4-2
			c4.7-6.2,12.1-10.3,20.4-10.3c13.7,0,24.8,10.8,25.5,24.2c0,0.4,0,0.9,0,1.3s0,0.8,0,1.2C62.8,432,51.7,442.7,38,442.7
			S13.2,432,12.5,418.5c0-0.4,0-0.8,0-1.2c0-0.1,0-0.3,0-0.4c0-0.3,0-0.7,0-1c0-0.5,0.1-1.1,0.1-1.6c0-0.3,0.1-0.6,0.1-0.9
			C13.1,411.7,13.5,410,14.1,408.3z M63.5,262.5C49.4,262.5,38,251,38,237s11.4-25.5,25.5-25.5S89,222.9,89,237
			C88.9,251,77.5,262.5,63.5,262.5z M232,825.5c-14.1,0-25.5-11.4-25.5-25.5s11.4-25.5,25.5-25.5s25.5,11.4,25.5,25.5
			C257.5,814.2,246.1,825.5,232,825.5z"/>
		<g id="a_1_">
		</g>
		<path class="st2" d="M364.4,91.8c3.8,11.7,8.2,23.3,19.4,32c11,8.5,24.8,10.8,38.2,11.9c12.2,1,24.6,1.9,36.8,0.8
			c0.1,0,0.1,0,0.2,0c12.8-1.2,28.1-3.6,38.6-12.2c8.1-6.6,11-18.8,13.1-28.4c3.7-16.3,4.5-34,0.5-49.6
			c-4.7-18.2-16.1-33.5-37.5-40.4c-5.1-1.7-9.8-2.1-14.9-2.4c-0.9,0-1.8-0.1-2.7-0.1C448.7,3.1,441.6,1,434.2,1
			c-11.9,0-25.3-0.5-36.5,4.4c-7.7,3.4-14.9,7.9-21.4,13.3c-9.6,7.9-17.2,19.2-18.7,32C355.9,64.9,360,78.2,364.4,91.8z M407.9,70.5
			c0-14,11.3-25.4,25.4-25.4s25.5,11.3,25.5,25.4c0,0.9,0,1.8-0.1,2.6c-0.1,0.9-0.2,1.7-0.4,2.5c-0.1,0.6-0.3,1.2-0.4,1.8
			c-0.2,0.6-0.4,1.2-0.6,1.8c-0.2,0.4-0.3,0.9-0.5,1.3c-2.6,6-7.4,10.8-13.4,13.4c-0.4,0.2-0.9,0.4-1.3,0.5c-1.2,0.4-2.4,0.8-3.6,1
			c-1.7,0.3-3.4,0.5-5.1,0.5C419.3,96,407.9,84.5,407.9,70.5z M181.1,135.9c3.8,11.7,8.2,23.3,19.4,32c11,8.5,24.8,10.8,38.2,11.9
			c12.3,1,24.7,1.9,37,0.8c12.8-1.2,28.1-3.6,38.6-12.2c8.1-6.6,11-18.8,13.1-28.4c3.7-16.3,4.6-34,0.5-49.6
			c-4.7-18.2-16.1-33.5-37.5-40.4c-5.9-1.9-11.5-2.2-17.6-2.5c-7.3-0.4-14.4-2.5-21.9-2.4c-11.9,0-25.3-0.5-36.5,4.4
			c-7.7,3.4-14.9,7.9-21.4,13.3c-9.6,7.9-17.2,19.2-18.7,32C172.6,109,176.7,122.3,181.1,135.9z M216.6,113c0-0.4,0-0.8,0-1.2
			c0.6-13.5,11.8-24.3,25.5-24.3c14.1,0,25.5,11.4,25.5,25.5c0,0.4,0,0.9,0,1.3c-0.7,13.5-11.8,24.2-25.5,24.2s-24.8-10.6-25.5-24.2
			C216.6,113.9,216.6,113.4,216.6,113z M338.2,265.7c3.8,11.7,8.2,23.3,19.4,32c11,8.5,24.8,10.8,38.2,11.9c12.3,1,24.7,1.9,37,0.8
			c8.3-0.8,17.6-2.1,26-5.2c4.6-1.7,8.9-4,12.6-7c8.1-6.6,11-18.8,13.1-28.4c3.7-16.4,4.5-34.1,0.5-49.6
			c-3.8-14.7-12-27.5-26.2-35.5c-3.4-1.9-7.2-3.6-11.3-4.9c-5.9-1.9-11.5-2.2-17.6-2.5c-7.3-0.4-14.4-2.4-21.9-2.4
			c-11.9,0-25.3-0.5-36.5,4.4c-7.7,3.4-14.9,7.9-21.4,13.3c-9.6,7.9-17.2,19.2-18.7,32C329.7,238.8,333.8,252.1,338.2,265.7z
			 M369.8,237c0-14.1,11.4-25.5,25.5-25.5s25.5,11.5,25.5,25.5s-11.4,25.5-25.5,25.5C381.3,262.5,369.9,251,369.8,237z M163.6,310.8
			c3.8,11.7,8.2,23.3,19.4,32c11,8.5,24.8,10.8,38.2,11.9c12.3,1,24.7,1.9,37,0.8c12.8-1.2,28.1-3.6,38.6-12.2
			c8-6.6,11-18.8,13.1-28.4c3.7-16.4,4.5-34,0.5-49.6c-4.7-18.2-16.1-33.5-37.5-40.4c-5.9-1.9-11.5-2.2-17.6-2.5
			c-7.3-0.4-14.4-2.4-21.9-2.4c-11.9,0-25.3-0.5-36.5,4.4c-7.7,3.4-14.9,7.9-21.4,13.3c-9.6,7.9-17.2,19.2-18.7,32
			C155.1,283.9,159.2,297.2,163.6,310.8z M201.3,299.3c0-14,11.4-25.4,25.5-25.4s25.5,11.4,25.5,25.4c0,14.1-11.4,25.5-25.5,25.5
			S201.3,313.3,201.3,299.3z M369.3,440.1c3.8,11.7,8.2,23.3,19.4,32c11,8.5,24.8,10.8,38.2,11.9c10.6,0.8,21.3,1.6,31.9,1.1
			c1.7,0,3.4-0.1,5.1-0.3c12.8-1.2,28.1-3.6,38.6-12.2c8.1-6.6,11-18.8,13.1-28.4c3.7-16.4,4.6-34,0.5-49.6
			c-4.7-18.2-16.1-33.5-37.5-40.4c-5.9-1.9-11.5-2.2-17.6-2.5c-0.7-0.1-1.5-0.1-2.2-0.2c-6.5-0.6-12.9-2.2-19.7-2.2
			c-11.9,0-25.3-0.5-36.5,4.4c-7.7,3.4-14.9,7.9-21.4,13.3c-9.6,7.9-17.2,19.2-18.7,32C360.8,413.2,364.9,426.5,369.3,440.1z
			 M395.3,417.3c0-0.4,0-0.9,0-1.3c0.7-13.4,11.8-24.1,25.5-24.1c8.4,0,15.8,4,20.4,10.2c0.5,0.7,1,1.3,1.4,2c0.4,0.6,0.8,1.3,1.1,2
			c0.2,0.4,0.4,0.9,0.6,1.4c0.1,0.3,0.2,0.5,0.3,0.8c0.6,1.6,1.1,3.3,1.3,5.1c0,0.3,0.1,0.6,0.1,0.9c0.1,0.5,0.1,1,0.1,1.6
			c0,0.3,0,0.7,0,1c0,0.1,0,0.3,0,0.4c0,0.4,0,0.8,0,1.2c-0.6,13.5-11.8,24.3-25.5,24.3S396,432,395.3,418.5
			C395.3,418.1,395.3,417.7,395.3,417.3z M165.9,475.6c3.8,11.7,8.2,23.3,19.4,32c11,8.5,24.8,10.8,38.2,11.9
			c12.3,1,24.7,1.9,37,0.8c12.8-1.2,28.1-3.6,38.6-12.2c8.1-6.6,11-18.8,13.1-28.4c3.7-16.3,4.6-34,0.5-49.6
			c-4.7-18.2-16.1-33.5-37.5-40.4c-5.9-1.9-11.5-2.2-17.6-2.5c-7.3-0.4-14.4-2.4-21.9-2.4c-11.9,0-25.3-0.5-36.5,4.4
			c-7.7,3.4-14.9,7.9-21.4,13.3c-9.6,7.9-17.2,19.2-18.7,32C157.4,448.7,161.5,462,165.9,475.6z M211.5,452.7
			c0-14,11.4-25.4,25.5-25.4s25.5,11.4,25.5,25.4c0,14.1-11.4,25.5-25.5,25.5C223,478.2,211.6,466.8,211.5,452.7z M-26.6,91.8
			c3.8,11.7,8.2,23.3,19.4,32c11,8.5,24.8,10.8,38.2,11.9c10.5,0.8,21.1,1.6,31.6,1.1c0.1,0,0.1,0,0.2,0c1.7,0,3.5-0.1,5.2-0.3
			c12.8-1.2,28.1-3.6,38.6-12.2c8.1-6.6,11-18.8,13.1-28.4c3.7-16.3,4.6-34,0.5-49.6c-4.7-18.2-16.1-33.5-37.5-40.4
			C76.8,4,71.2,3.7,65.1,3.4c-0.8-0.1-1.5-0.1-2.3-0.2c-0.1,0-0.1,0-0.2,0C56.2,2.7,49.8,1,43.2,1C31.3,1,17.9,0.5,6.7,5.4
			C-1,8.8-8.2,13.3-14.7,18.7c-9.6,7.9-17.2,19.2-18.7,32C-35.1,64.9-31,78.2-26.6,91.8z M11.9,75.3c0-14.1,11.3-25.5,25.4-25.5
			c13,0,23.8,9.7,25.3,22.3c0.1,1,0.2,2.1,0.2,3.2s-0.1,2.1-0.2,3.2c-1.5,12.6-12.3,22.3-25.3,22.3C23.3,100.8,11.9,89.4,11.9,75.3z
			 M-52.8,265.7c3.8,11.7,8.2,23.3,19.4,32c11,8.5,24.8,10.8,38.2,11.9c12.3,1,24.7,1.9,37,0.8c6.6-0.7,13.9-1.6,20.8-3.6
			c0.1,0,0.1,0,0.2,0c6.4-1.8,12.6-4.5,17.6-8.6c8.1-6.6,11-18.8,13.1-28.4c3.7-16.4,4.5-34.1,0.5-49.6c-4.2-16.3-13.8-30.3-31.2-38
			c-0.1,0-0.1-0.1-0.2-0.1c-1.9-0.9-4-1.6-6.1-2.3c-5.9-1.9-11.5-2.2-17.6-2.5c-7.3-0.4-14.4-2.4-21.9-2.4
			c-11.9,0-25.3-0.5-36.5,4.4c-7.7,3.4-14.9,7.9-21.4,13.3c-9.6,7.9-17.2,19.2-18.7,32C-61.3,238.8-57.2,252.1-52.8,265.7z
			 M-1.5,248.3c0-14.1,11.4-25.5,25.5-25.5s25.5,11.4,25.5,25.5c0,14.1-11.4,25.5-25.5,25.5S-1.5,262.4-1.5,248.3z M-21.7,440.1
			c3.8,11.7,8.2,23.3,19.4,32c11,8.5,24.8,10.8,38.2,11.9c8.8,0.7,17.8,1.4,26.7,1.3h0.2c3.4,0,6.7-0.2,10.1-0.5
			c12.8-1.2,28.1-3.6,38.6-12.2c8-6.6,11-18.8,13.1-28.4c3.7-16.4,4.6-34,0.5-49.6c-4.7-18.2-16.1-33.5-37.5-40.4
			c-5.9-1.9-11.5-2.2-17.6-2.5c-2.4-0.1-4.8-0.4-7.2-0.8c-0.1,0-0.1,0-0.2,0c-4.7-0.7-9.6-1.6-14.5-1.6c-11.9,0-25.3-0.5-36.5,4.4
			c-7.7,3.4-14.9,7.9-21.4,13.3c-9.6,7.9-17.2,19.2-18.7,32C-30.2,413.2-26.1,426.5-21.7,440.1z M23.9,417.3
			c0-14,11.4-25.4,25.5-25.4H51c4.2,0.2,8.1,1.4,11.6,3.6c0.1,0,0.1,0.1,0.2,0.1c7.3,4.5,12.1,12.5,12.1,21.7s-4.8,17.2-12.1,21.7
			c-0.1,0-0.1,0.1-0.2,0.1c-3.8,2.3-8.3,3.7-13.1,3.7c-8,0-15-3.6-19.7-9.3C26.2,429,24,423.4,23.9,417.3z M369.3,617.4
			c3.8,11.7,8.2,23.3,19.4,32c11,8.5,24.8,10.8,38.2,11.9c10.5,0.8,21.2,1.6,31.7,1.1c0.1,0,0.1,0,0.2,0c1.7,0,3.4-0.1,5.1-0.3
			c12.8-1.2,28.1-3.6,38.6-12.2c8.1-6.6,11-18.8,13.1-28.4c3.7-16.4,4.6-34,0.5-49.6c-4.7-18.2-16.1-33.5-37.5-40.4
			c-5.9-1.9-11.5-2.2-17.6-2.5c-0.7-0.1-1.5-0.1-2.2-0.2c-6.5-0.6-12.9-2.2-19.7-2.2c-11.9,0-25.3-0.5-36.5,4.4
			c-7.7,3.4-14.9,7.9-21.4,13.3c-9.6,7.9-17.2,19.2-18.7,32C360.8,590.5,364.9,603.8,369.3,617.4z M410.1,586.4
			c0.1-0.9,0.2-1.8,0.3-2.6c0.1-0.4,0.1-0.8,0.2-1.2c0-0.1,0-0.1,0-0.1c0.1-0.2,0.1-0.5,0.2-0.8c0.1-0.2,0.1-0.5,0.2-0.7
			c0.2-0.7,0.4-1.3,0.6-1.9c0-0.1,0.1-0.2,0.1-0.3s0.1-0.1,0.1-0.2c0-0.2,0.1-0.4,0.2-0.6c0,0,0.1-0.1,0.1-0.2
			c0.2-0.4,0.3-0.8,0.5-1.1c0.2-0.4,0.4-0.7,0.6-1.1c0.2-0.3,0.3-0.6,0.5-0.9c0.1-0.2,0.2-0.4,0.3-0.5c0.2-0.2,0.3-0.5,0.5-0.7
			c0.3-0.5,0.7-1,1.1-1.5c0.1-0.3,0.3-0.5,0.5-0.7c0.1-0.2,0.3-0.4,0.5-0.6l0.4-0.4c0.8-0.8,1.6-1.5,2.4-2.2c0.3-0.3,0.7-0.6,1-0.8
			c0.4-0.3,0.7-0.6,1.1-0.8c0.2-0.2,0.5-0.3,0.8-0.5c0.4-0.3,0.8-0.5,1.2-0.7c0.2-0.1,0.3-0.1,0.4-0.2c0.6-0.3,1.2-0.6,1.9-0.9
			c0.7-0.4,1.5-0.7,2.3-0.9c0.3-0.1,0.7-0.2,1.1-0.3c0.1,0,0.1,0,0.2,0c0.3,0,0.7-0.1,1.1-0.2c0.4-0.1,0.8-0.1,1.2-0.2
			c0.4-0.1,0.9-0.2,1.3-0.2c0.8-0.1,1.7-0.1,2.6-0.1h1.6c0.3,0,0.7,0.1,1,0.1c0.5,0.1,0.9,0.1,1.3,0.2c0.4,0,0.8,0.1,1.2,0.2
			c0.4,0.1,0.8,0.2,1.2,0.3c0.3,0.1,0.7,0.2,1,0.3c0.2,0,0.3,0.1,0.4,0.1h0.1c0.7,0.2,1.4,0.4,2,0.7c0.5,0.2,0.9,0.4,1.4,0.6
			c0.3,0.1,0.5,0.2,0.7,0.3s0.4,0.2,0.6,0.3l0.1,0.1c0.3,0.1,0.6,0.2,0.8,0.4l0.1,0.1c0.1,0.1,0.3,0.2,0.5,0.3
			c0.1,0,0.2,0.1,0.2,0.2c0,0,0.1,0,0.1,0.1l0.1,0.1l0.9,0.6c0.3,0.2,0.5,0.4,0.8,0.6l0.1,0.1l0.1,0.1c0.2,0.1,0.3,0.2,0.5,0.4
			c0.1,0.1,0.2,0.2,0.4,0.3l0.1,0.1c0.2,0.1,0.3,0.2,0.4,0.3s0.2,0.2,0.3,0.3c0.1,0.1,0.2,0.2,0.3,0.3l0.1,0.1
			c0.2,0.2,0.4,0.5,0.6,0.7c0.1,0.1,0.2,0.2,0.3,0.3c0.2,0.2,0.3,0.4,0.5,0.6c0.1,0.1,0.1,0.1,0.2,0.2c0.1,0.1,0.2,0.3,0.3,0.4
			c0,0.1,0,0.1,0,0.1c0.1,0,0.1,0.1,0.1,0.1c0.1,0.1,0.2,0.3,0.3,0.4c0.1,0.1,0.1,0.1,0.1,0.2c0.1,0.1,0.2,0.2,0.3,0.3
			c0,0.1,0,0.1,0,0.1c0.2,0.2,0.3,0.4,0.4,0.6l0,0l0.1,0.1l0,0c0.1,0.1,0.2,0.3,0.3,0.5c0.6,0.8,1,1.8,1.4,2.7
			c0,0.1,0.1,0.1,0.1,0.2c0.1,0,0.1,0.1,0.1,0.1c0.1,0.3,0.2,0.5,0.3,0.7c0.1,0.3,0.2,0.5,0.3,0.8c0,0.1,0,0.1,0,0.1
			c0.1,0.4,0.2,0.7,0.3,1c0,0.3,0.1,0.5,0.2,0.8c0,0.1,0.1,0.3,0.1,0.4c0.1,0.3,0.2,0.5,0.2,0.8c0.2,0.7,0.3,1.5,0.4,2.3
			c0,0.3,0.1,0.5,0.1,0.8c0.1,0.4,0.1,0.8,0.1,1.2v1.3c0,0.9,0,1.7-0.1,2.6c-0.1,0.2-0.1,0.3-0.1,0.5c0,0.3-0.1,0.6-0.1,0.9v0.2
			c0,0.4-0.1,0.8-0.2,1.2c-0.1,0.5-0.2,0.9-0.3,1.3c-0.2,0.4-0.3,0.8-0.4,1.2c-0.1,0-0.1,0.1-0.1,0.1c-0.2,0.3-0.3,0.7-0.4,1
			c0,0-0.1,0.1-0.1,0.2c-0.2,0.4-0.3,0.8-0.5,1.1c0,0.1,0,0.1,0,0.1c0,0.1-0.1,0.1-0.1,0.2c-0.1,0.1-0.1,0.2-0.2,0.3
			c0,0.1-0.1,0.2-0.1,0.3s-0.1,0.1-0.1,0.2c0,0,0,0.1-0.1,0.1c-0.1,0.1-0.1,0.2-0.2,0.4v0.1c0,0.1-0.1,0.2-0.1,0.3
			c-0.1,0.1-0.2,0.2-0.2,0.4v0.1c0,0.1,0,0.2-0.1,0.3c0,0,0,0.1-0.1,0.1v0.1c0,0.1,0,0.1-0.1,0.2c0,0,0,0.1-0.1,0.1
			s-0.1,0.1-0.1,0.1c-0.2,0.2-0.3,0.5-0.5,0.7c-0.2,0.3-0.4,0.6-0.6,0.9c-0.2,0.3-0.4,0.5-0.6,0.8c-0.1,0-0.1,0.1-0.2,0.2
			c-0.2,0.3-0.5,0.5-0.7,0.8s-0.5,0.6-0.8,0.9c-0.2,0.2-0.5,0.4-0.7,0.6l-0.4,0.4c-0.2,0.2-0.5,0.4-0.7,0.6c-0.4,0.3-0.7,0.6-1,0.8
			s-0.7,0.5-1,0.7c-0.3,0.3-0.6,0.5-1,0.7c-0.7,0.4-1.4,0.8-2.2,1.2c-0.3,0.2-0.6,0.3-0.9,0.4c-0.1,0.1-0.3,0.2-0.4,0.2
			c0,0.1-0.1,0.1-0.1,0.1c-0.3,0.1-0.6,0.2-0.9,0.3s-0.6,0.2-0.9,0.3c-0.1,0-0.2,0-0.2,0c-0.1,0-0.3,0.1-0.4,0.1
			c-0.2,0.1-0.5,0.1-0.7,0.2c-0.2,0-0.3,0.1-0.5,0.1c-0.1,0.1-0.2,0.1-0.3,0.1c-0.2,0-0.5,0.1-0.7,0.1c-0.8,0.2-1.6,0.3-2.5,0.4
			c-0.8,0.1-1.7,0.1-2.6,0.1c-14,0-25.4-11.4-25.4-25.2v-1.5L410.1,586.4L410.1,586.4z M165.9,652.9c3.8,11.7,8.2,23.3,19.4,32
			c11,8.5,24.8,10.8,38.2,11.9c12.3,1,24.7,1.9,37,0.8c12.8-1.2,28.1-3.6,38.6-12.2c8.1-6.6,11-18.8,13.1-28.4
			c3.7-16.4,4.6-34,0.5-49.6c-4.7-18.2-16.1-33.5-37.5-40.4c-5.9-1.9-11.5-2.2-17.6-2.5c-7.3-0.4-14.4-2.5-21.9-2.4
			c-11.9,0-25.3-0.5-36.5,4.4c-7.7,3.4-14.9,7.9-21.4,13.3c-9.6,7.9-17.2,19.2-18.7,32C157.4,626,161.5,639.3,165.9,652.9z
			 M211.5,620c0-0.4,0-0.8,0-1.2c0.6-13.5,11.8-24.3,25.5-24.3s24.8,10.8,25.5,24.3c0,0.4,0,0.8,0,1.2s0,0.9,0,1.3
			c-0.7,13.5-11.8,24.2-25.5,24.2c-13.6,0-24.8-10.7-25.5-24.2C211.5,620.9,211.5,620.4,211.5,620z M-21.7,617.4
			c3.8,11.7,8.2,23.3,19.4,32c11,8.5,24.8,10.8,38.2,11.9c8.8,0.8,17.8,1.4,26.7,1.3h0.2c3.4,0,6.7-0.2,10.1-0.5
			c12.8-1.2,28.1-3.6,38.6-12.2c8-6.6,11-18.8,13.1-28.4c3.7-16.4,4.6-34,0.5-49.6c-4.7-18.2-16.1-33.5-37.5-40.4
			c-5.9-1.9-11.5-2.2-17.6-2.5c-2.4-0.1-4.8-0.5-7.2-0.8c-0.1,0-0.1,0-0.2,0c-4.7-0.7-9.6-1.6-14.5-1.6c-11.9,0-25.3-0.5-36.5,4.4
			c-7.7,3.4-14.9,7.9-21.4,13.3c-9.6,7.9-17.2,19.2-18.7,32C-30.2,590.5-26.1,603.8-21.7,617.4z M-1.5,587.5
			C-1.5,573.4,9.9,562,24,562s25.5,11.4,25.5,25.5S38,613,24,613C9.9,613-1.5,601.6-1.5,587.5z M369.3,787.4
			c3.8,11.7,8.2,23.3,19.4,32c11,8.5,24.8,10.8,38.2,11.9c10.5,0.8,21.2,1.6,31.7,1.1c0.1,0,0.1,0,0.2,0c1.7,0,3.4-0.1,5.1-0.3
			c12.8-1.2,28.1-3.6,38.6-12.2c8.1-6.6,11-18.8,13.1-28.4c3.7-16.4,4.6-34.1,0.5-49.6c-4.7-18.2-16.1-33.5-37.5-40.4
			c-5.9-1.9-11.5-2.2-17.6-2.5c-0.7-0.1-1.5-0.1-2.2-0.2c-0.1,0-0.1,0-0.2,0c-6.4-0.6-12.9-2.3-19.5-2.2c-11.9,0-25.3-0.5-36.5,4.4
			c-7.7,3.4-14.9,7.9-21.4,13.3c-9.6,7.9-17.2,19.2-18.7,32C360.8,760.5,364.9,773.8,369.3,787.4z M415,774.8
			c0-14.1,11.4-25.5,25.5-25.5c4,0,7.8,0.9,11.2,2.6c0.3,0.2,0.7,0.3,1,0.5c2.2,1.2,4.2,2.7,5.9,4.5c0.1,0.1,0.1,0.1,0.2,0.2
			c4.4,4.5,7.1,10.7,7.1,17.6c0,6.8-2.7,13-7.1,17.6c-0.1,0.1-0.1,0.1-0.2,0.2c-1.7,1.8-3.7,3.3-5.9,4.5c-0.3,0.2-0.7,0.4-1,0.5
			c-3.4,1.7-7.2,2.6-11.2,2.6C426.4,800.1,415,788.9,415,774.8z M165.9,822.9c3.8,11.7,8.2,23.3,19.4,32c11,8.5,24.8,10.8,38.2,11.9
			c0.8,0.1,1.7,0.1,2.5,0.2c11.5,0.9,23,1.6,34.5,0.6c1.8-0.2,3.7-0.4,5.6-0.6c11.4-1.4,24-4.2,33-11.6c8.1-6.6,11-18.8,13.1-28.4
			c3.7-16.4,4.6-34,0.5-49.6c-4.7-18.2-16.1-33.5-37.5-40.4c-5.9-1.9-11.5-2.2-17.6-2.5c-7.3-0.4-14.4-2.5-21.9-2.4
			c-11.9,0-25.3-0.5-36.5,4.4c-7.7,3.4-14.9,7.9-21.4,13.3c-9.6,7.9-17.2,19.2-18.7,32C157.4,796,161.5,809.3,165.9,822.9z
			 M201.3,800c0-14.1,11.4-25.5,25.5-25.5s25.5,11.4,25.5,25.5s-11.4,25.5-25.5,25.5S201.3,814.2,201.3,800z M-21.7,787.4
			c3.8,11.7,8.2,23.3,19.4,32c11,8.5,24.8,10.8,38.2,11.9c8.8,0.8,17.8,1.4,26.7,1.3h0.2c3.4,0,6.7-0.2,10.1-0.5
			c12.8-1.2,28.1-3.6,38.6-12.2c8-6.6,11-18.8,13.1-28.4c3.7-16.4,4.6-34.1,0.5-49.6c-4.7-18.2-16.1-33.5-37.5-40.4
			c-5.9-1.9-11.5-2.2-17.6-2.5c-2.4-0.1-4.8-0.4-7.2-0.8c-0.1,0-0.1,0-0.2,0c-4.7-0.7-9.6-1.7-14.5-1.6c-11.9,0-25.3-0.5-36.5,4.4
			c-7.7,3.4-14.9,7.9-21.4,13.3c-9.6,7.9-17.2,19.2-18.7,32C-30.2,760.5-26.1,773.8-21.7,787.4z M5.8,757.5
			c0-14,11.4-25.4,25.5-25.4s25.5,11.3,25.5,25.4S45.4,783,31.3,783C17.3,783,5.8,771.5,5.8,757.5z"/>
	</g>
</g>
<circle class="st2" cx="434.2" cy="73.2" r="43.2"/>
<circle class="st2" cx="24" cy="246.2" r="43.2"/>
<circle class="st3" cx="236.1" cy="111.2" r="43.2"/>
<circle class="st2" cx="56.1" cy="421.2" r="43.2"/>
<circle class="st2" cx="422.5" cy="422.5" r="43.2"/>
<circle class="st2" cx="25.5" cy="586.8" r="43.2"/>
<circle class="st2" cx="31.3" cy="757.5" r="43.2"/>
<circle class="st2" cx="216.7" cy="800.8" r="43.2"/>
<circle class="st2" cx="440.4" cy="771.7" r="43.2"/>
<circle class="st2" cx="427.5" cy="594.5" r="43.2"/>
<circle class="st2" cx="405.4" cy="240.1" r="43.2"/>
<circle class="st3" cx="224.6" cy="452.8" r="43.2"/>
</svg>
