<?xml version="1.0" encoding="utf-8"?>
<!-- Generator: Adobe Illustrator 20.1.0, SVG Export Plug-In . SVG Version: 6.00 Build 0)  -->
<svg version="1.1" id="Layer_1" xmlns="http://www.w3.org/2000/svg" xmlns:xlink="http://www.w3.org/1999/xlink" x="0px" y="0px"
	 viewBox="0 0 396 867" style="enable-background:new 0 0 396 867;" xml:space="preserve">
<style type="text/css">
	.st0{opacity:0.5;}
	.st1{fill:#DEAAF9;}
</style>
<g class="st0">
	<g>
		<g>
			<path class="st1" d="M24,54c26.4-6,53-10.6,79.9-13.6c-3.5-6-6.9-12-10.4-18.1c-3.8,6.9-11.7,11.2-17.9,16
				c-8.3,6.4-16.3,13-24,20C36.8,71.8,23.3,86.5,11,102.2c-3,3.9-4.6,8.3-2.5,13.1c1.8,4.1,6.2,7.7,11,7.4
				c28.9-2.2,57.6-5.6,86.4-9.1c-2.8-6.8-5.7-13.7-8.5-20.5c-18.1,19.4-36.5,38.6-55.1,57.5c-10.8,11,6.1,28,17,17
				c18.6-18.9,37-38.1,55.1-57.5c3.3-3.5,4.5-8.6,2.5-13.1c-1.7-4-6.3-7.9-11-7.4c-28.8,3.4-57.5,6.8-86.4,9.1
				c2.8,6.8,5.7,13.7,8.5,20.5C40.6,103,54.6,87.9,69.9,74.1C77,67.7,84.3,61.6,92,55.9c8.4-6.2,17.2-12,22.3-21.4
				c3.9-7.2-0.8-19.1-10.4-18.1c-29,3.3-57.8,8-86.2,14.5c-6.3,1.4-10,8.7-8.4,14.8C11,52.1,17.7,55.5,24,54L24,54z"/>
		</g>
	</g>
	<g>
		<g>
			<path class="st1" d="M24.3,216.1c28.9-0.4,57.7-0.1,86.6,0.8c-3.9-2.9-7.7-5.9-11.6-8.8c0.1,0.4,0.2,0.8,0.3,1.1
				c0-2.1,0-4.3,0-6.4c0.4-2.7,2.8-2.3,0.9-1.7c-1.4,0.5-2.9,1.8-4.2,2.6c-2.8,1.8-5.6,3.5-8.4,5.3c-5.6,3.5-11.1,7-16.7,10.5
				c-11.1,7-22.3,14.1-33.4,21.1c-9.4,5.9-6.5,18.2,2.9,21.9c19.6,7.8,39.1,15.6,58.7,23.5c-1-7.3-1.9-14.6-2.9-21.9
				c-23.8,16.5-47.8,33.2-68.1,54c-10.8,11.1,6.2,28.1,17,17c18.9-19.4,41-34.9,63.2-50.2c9-6.2,6.8-18.1-2.9-21.9
				c-19.6-7.8-39.1-15.6-58.7-23.5c1,7.3,1.9,14.6,2.9,21.9c13.7-8.6,27.3-17.2,41-25.8c6.7-4.2,13.4-8.4,20.1-12.7
				c7.6-4.8,14.4-11.4,11.5-21.3c-1.5-5.2-6.2-8.6-11.6-8.8c-28.9-0.9-57.7-1.2-86.6-0.8C8.9,192.3,8.9,216.3,24.3,216.1L24.3,216.1
				z"/>
		</g>
	</g>
	<g>
		<g>
			<path class="st1" d="M34.9,391.5c19.2-3,38.5-5.2,57.9-6.8c-3.5-6-6.9-12-10.4-18.1c-7.8,13-21.3,22-32.1,32.3
				c-12.1,11.5-23.4,23.8-33.7,36.8c-2.8,3.5-6.2,7-8.4,10.9c-3,5.3-1.4,12.1,2.8,16.3c6.3,6.3,14.8,5.5,22.8,4.7
				c18.5-2,37.1-3.9,55.6-5.9c-3.5-6-6.9-12-10.4-18.1c-11.5,23.3-19.8,48.1-23.9,73.8c-1,6.4,1.7,12.9,8.4,14.8
				c5.7,1.6,13.7-1.9,14.8-8.4c3.9-23.6,10.9-46.6,21.5-68.1c3.6-7.3-0.6-19.1-10.4-18.1c-11.9,1.3-23.8,2.5-35.7,3.8
				c-5.6,0.6-11.3,1.2-16.9,1.8c-3,0.3-6,0.7-8.9,0.9c-0.9,0.1-2-0.1-2.9,0.1c-0.7,0-0.8,0-0.1,0c2.5,0,4.3,1.7,5.2,5.1
				c-0.4,3.1-0.8,6.2-1.2,9.2c11-14.6,23.3-28.3,36.4-41c13-12.5,28.3-23.3,37.8-39c4.4-7.3-1.2-18.8-10.4-18.1
				c-21.5,1.8-42.9,4.3-64.2,7.6c-6.4,1-10,9-8.4,14.8C22.1,390,28.5,392.5,34.9,391.5L34.9,391.5z"/>
		</g>
	</g>
	<g>
		<g>
			<path class="st1" d="M40.3,594.7c26.2-1.1,52.5-1.6,78.7-1.5c-2.8-6.8-5.7-13.7-8.5-20.5c-25.9,21.8-49.8,46-71.2,72.2
				c-5.8,7.1-3.8,17,5.3,20.1c8,2.6,16.5,3.1,24.8,3.3c6.6,0.2,13.8-0.1,19.9,2.8c0-6.9,0-13.8,0-20.7
				C60.7,669.1,34,690.7,9.8,714.8c-11,10.9,6,27.9,17,17c22.8-22.7,47.8-43,74.7-60.6c6.9-4.5,8.6-16.6,0-20.7
				c-8.7-4.1-17.5-5.5-27.1-5.9c-7.9-0.3-15.7-0.1-23.3-2.6c1.8,6.7,3.5,13.4,5.3,20.1c21.5-26.2,45.3-50.4,71.2-72.2
				c8.2-6.9,1.3-20.4-8.5-20.5c-26.3-0.1-52.5,0.4-78.7,1.5c-6.5,0.3-12,5.3-12,12C28.3,589,33.8,595,40.3,594.7L40.3,594.7z"/>
		</g>
	</g>
	<g>
		<g>
			<path class="st1" d="M26.2,773.9c21.2-2.9,42.4-5.8,63.6-8.7c-4.9-4.9-9.8-9.8-14.8-14.8c-3,8.7-9.3,16.2-15.8,23.2
				c-7.7,8.3-15.5,16.2-22.2,25.4c-5.7,7.8,2.1,17.7,10.4,18.1c20.6,1,41.1,2,61.7,2.9c-4-4-8-8-12-12c0.1-1.3-0.2,0-1,0.5
				c-1.7,1.2-3.2,2.9-4.8,4.2c-3,2.5-6,4.9-9.1,7.2c-7.3,5.5-14.9,10.7-22.6,15.6c-5.5,3.5-7.7,10.7-4.3,16.4
				c3.2,5.4,10.9,7.8,16.4,4.3c10.1-6.5,19.9-13.5,29.4-20.9c9.6-7.5,18.9-14.5,20-27.4c0.6-6.7-6-11.7-12-12
				c-20.6-1-41.1-2-61.7-2.9c3.5,6,6.9,12,10.4,18.1c6.1-8.3,14.4-15.9,21.5-23.8c8.2-9.1,15-18.8,18.9-30.5c1.4-4-0.2-8.8-3.1-11.7
				c-3.3-3.3-7.3-3.7-11.7-3.1c-21.2,2.9-42.4,5.8-63.6,8.7c-6.4,0.9-9.9,9.1-8.4,14.8C13.4,772.4,19.8,774.7,26.2,773.9L26.2,773.9
				z"/>
		</g>
	</g>
</g>
<g class="st0">
	<g>
		<g>
			<path class="st1" d="M157.7,107.6c26.4-6,53-10.6,79.9-13.6c-3.5-6-6.9-12-10.4-18.1c-3.8,6.9-11.7,11.2-17.9,16
				c-8.3,6.4-16.3,13-24,20c-14.8,13.5-28.3,28.2-40.6,43.9c-3,3.9-4.6,8.3-2.5,13.1c1.8,4.1,6.2,7.7,11,7.4
				c28.9-2.2,57.6-5.6,86.4-9.1c-2.8-6.8-5.7-13.7-8.5-20.5c-18.1,19.4-36.5,38.6-55.1,57.5c-10.8,11,6.1,28,17,17
				c18.6-18.9,37-38.1,55.1-57.5c3.3-3.5,4.5-8.6,2.5-13.1c-1.7-4-6.3-7.9-11-7.4c-28.8,3.4-57.5,6.8-86.4,9.1
				c2.8,6.8,5.7,13.7,8.5,20.5c12.7-16.2,26.7-31.3,41.9-45.1c7.1-6.4,14.4-12.5,22.1-18.3c8.4-6.2,17.2-12,22.3-21.4
				c3.9-7.2-0.8-19.1-10.4-18.1c-29,3.3-57.8,8-86.2,14.5c-6.3,1.4-10,8.7-8.4,14.8C144.7,105.7,151.3,109,157.7,107.6L157.7,107.6z
				"/>
		</g>
	</g>
	<g>
		<g>
			<path class="st1" d="M158,269.6c28.9-0.4,57.7-0.1,86.6,0.8c-3.9-2.9-7.7-5.9-11.6-8.8c0.1,0.4,0.2,0.8,0.3,1.1
				c0-2.1,0-4.3,0-6.4c0.4-2.7,2.8-2.3,0.9-1.7c-1.4,0.5-2.9,1.8-4.2,2.6c-2.8,1.8-5.6,3.5-8.4,5.3c-5.6,3.5-11.1,7-16.7,10.5
				c-11.1,7-22.3,14.1-33.4,21.1c-9.4,5.9-6.5,18.2,2.9,21.9c19.6,7.8,39.1,15.6,58.7,23.5c-1-7.3-1.9-14.6-2.9-21.9
				c-23.8,16.5-47.8,33.2-68.1,54c-10.8,11.1,6.2,28.1,17,17c18.9-19.4,41-34.9,63.2-50.2c9-6.2,6.8-18.1-2.9-21.9
				c-19.6-7.8-39.1-15.6-58.7-23.5c1,7.3,1.9,14.6,2.9,21.9c13.7-8.6,27.3-17.2,41-25.8c6.7-4.2,13.4-8.4,20.1-12.7
				c7.6-4.8,14.4-11.4,11.5-21.3c-1.5-5.2-6.2-8.6-11.6-8.8c-28.9-0.9-57.7-1.2-86.6-0.8C142.6,245.9,142.5,269.9,158,269.6
				L158,269.6z"/>
		</g>
	</g>
	<g>
		<g>
			<path class="st1" d="M168.6,445.1c19.2-3,38.5-5.2,57.9-6.8c-3.5-6-6.9-12-10.4-18.1c-7.8,13-21.3,22-32.1,32.3
				c-12.1,11.5-23.4,23.8-33.7,36.8c-2.8,3.5-6.2,7-8.4,10.9c-3,5.3-1.4,12.1,2.8,16.3c6.3,6.3,14.8,5.5,22.8,4.7
				c18.5-2,37.1-3.9,55.6-5.9c-3.5-6-6.9-12-10.4-18.1c-11.5,23.3-19.8,48.1-23.9,73.8c-1,6.4,1.7,12.9,8.4,14.8
				c5.7,1.6,13.7-1.9,14.8-8.4c3.9-23.6,10.9-46.6,21.5-68.1c3.6-7.3-0.6-19.1-10.4-18.1c-11.9,1.3-23.8,2.5-35.7,3.8
				c-5.6,0.6-11.3,1.2-16.9,1.8c-3,0.3-6,0.7-8.9,0.9c-0.9,0.1-2-0.1-2.9,0.1c-0.7,0-0.8,0-0.1,0c2.5,0,4.3,1.7,5.2,5.1
				c-0.4,3.1-0.8,6.2-1.2,9.2c11-14.6,23.3-28.3,36.4-41c13-12.5,28.3-23.3,37.8-39c4.4-7.3-1.2-18.8-10.4-18.1
				c-21.5,1.8-42.9,4.3-64.2,7.6c-6.4,1-10,9-8.4,14.8C155.7,443.5,162.2,446.1,168.6,445.1L168.6,445.1z"/>
		</g>
	</g>
	<g>
		<g>
			<path class="st1" d="M174,648.3c26.2-1.1,52.5-1.6,78.7-1.5c-2.8-6.8-5.7-13.7-8.5-20.5c-25.9,21.8-49.8,46-71.2,72.2
				c-5.8,7.1-3.8,17,5.3,20.1c8,2.6,16.5,3.1,24.8,3.3c6.6,0.2,13.8-0.1,19.9,2.8c0-6.9,0-13.8,0-20.7
				c-28.6,18.7-55.3,40.3-79.5,64.4c-11,10.9,6,27.9,17,17c22.8-22.7,47.8-43,74.7-60.6c6.9-4.5,8.6-16.6,0-20.7
				c-8.7-4.1-17.5-5.5-27.1-5.9c-7.9-0.3-15.7-0.1-23.3-2.6c1.8,6.7,3.5,13.4,5.3,20.1c21.5-26.2,45.3-50.4,71.2-72.2
				c8.2-6.9,1.3-20.4-8.5-20.5c-26.3-0.1-52.5,0.4-78.7,1.5c-6.5,0.3-12,5.3-12,12C162,642.6,167.5,648.6,174,648.3L174,648.3z"/>
		</g>
	</g>
	<g>
		<g>
			<path class="st1" d="M159.9,827.4c21.2-2.9,42.4-5.8,63.6-8.7c-4.9-4.9-9.8-9.8-14.8-14.8c-3,8.7-9.3,16.2-15.8,23.2
				c-7.7,8.3-15.5,16.2-22.2,25.4c-5.7,7.8,2.1,17.7,10.4,18.1c20.6,1,41.1,2,61.7,2.9c-4-4-8-8-12-12c0.1-1.3-0.2,0-1,0.5
				c-1.7,1.2-3.2,2.9-4.8,4.2c-3,2.5-6,4.9-9.1,7.2c-7.3,5.5-14.9,10.7-22.6,15.6c-5.5,3.5-7.7,10.7-4.3,16.4
				c3.2,5.4,10.9,7.8,16.4,4.3c10.1-6.5,19.9-13.5,29.4-20.9c9.6-7.5,18.9-14.5,20-27.4c0.6-6.7-6-11.7-12-12
				c-20.6-1-41.1-2-61.7-2.9c3.5,6,6.9,12,10.4,18.1c6.1-8.3,14.4-15.9,21.5-23.8c8.2-9.1,15-18.8,18.9-30.5c1.4-4-0.2-8.8-3.1-11.7
				c-3.3-3.3-7.3-3.7-11.7-3.1c-21.2,2.9-42.4,5.8-63.6,8.7c-6.4,0.9-9.9,9.1-8.4,14.8C147,826,153.4,828.3,159.9,827.4L159.9,827.4
				z"/>
		</g>
	</g>
</g>
<g class="st0">
	<g>
		<g>
			<path class="st1" d="M282.7,54c26.4-6,53-10.6,79.9-13.6c-3.5-6-6.9-12-10.4-18.1c-3.8,6.9-11.7,11.2-17.9,16
				c-8.3,6.4-16.3,13-24,20c-14.8,13.5-28.3,28.2-40.6,43.9c-3,3.9-4.6,8.3-2.5,13.1c1.8,4.1,6.2,7.7,11,7.4
				c28.9-2.2,57.6-5.6,86.4-9.1c-2.8-6.8-5.7-13.7-8.5-20.5c-18.1,19.4-36.5,38.6-55.1,57.5c-10.8,11,6.1,28,17,17
				c18.6-18.9,37-38.1,55.1-57.5c3.3-3.5,4.5-8.6,2.5-13.1c-1.7-4-6.3-7.9-11-7.4c-28.8,3.4-57.5,6.8-86.4,9.1
				c2.8,6.8,5.7,13.7,8.5,20.5c12.7-16.2,26.7-31.3,41.9-45.1c7.1-6.4,14.4-12.5,22.1-18.3c8.4-6.2,17.2-12,22.3-21.4
				c3.9-7.2-0.8-19.1-10.4-18.1c-29,3.3-57.8,8-86.2,14.5c-6.3,1.4-10,8.7-8.4,14.8C269.7,52.1,276.3,55.5,282.7,54L282.7,54z"/>
		</g>
	</g>
	<g>
		<g>
			<path class="st1" d="M283,216.1c28.9-0.4,57.7-0.1,86.6,0.8c-3.9-2.9-7.7-5.9-11.6-8.8c0.1,0.4,0.2,0.8,0.3,1.1
				c0-2.1,0-4.3,0-6.4c0.4-2.7,2.8-2.3,0.9-1.7c-1.4,0.5-2.9,1.8-4.2,2.6c-2.8,1.8-5.6,3.5-8.4,5.3c-5.6,3.5-11.1,7-16.7,10.5
				c-11.1,7-22.3,14.1-33.4,21.1c-9.4,5.9-6.5,18.2,2.9,21.9c19.6,7.8,39.1,15.6,58.7,23.5c-1-7.3-1.9-14.6-2.9-21.9
				c-23.8,16.5-47.8,33.2-68.1,54c-10.8,11.1,6.2,28.1,17,17c18.9-19.4,41-34.9,63.2-50.2c9-6.2,6.8-18.1-2.9-21.9
				c-19.6-7.8-39.1-15.6-58.7-23.5c1,7.3,1.9,14.6,2.9,21.9c13.7-8.6,27.3-17.2,41-25.8c6.7-4.2,13.4-8.4,20.1-12.7
				c7.6-4.8,14.4-11.4,11.5-21.3c-1.5-5.2-6.2-8.6-11.6-8.8c-28.9-0.9-57.7-1.2-86.6-0.8C267.6,192.3,267.5,216.3,283,216.1
				L283,216.1z"/>
		</g>
	</g>
	<g>
		<g>
			<path class="st1" d="M293.6,391.5c19.2-3,38.5-5.2,57.9-6.8c-3.5-6-6.9-12-10.4-18.1c-7.8,13-21.3,22-32.1,32.3
				c-12.1,11.5-23.4,23.8-33.7,36.8c-2.8,3.5-6.2,7-8.4,10.9c-3,5.3-1.4,12.1,2.8,16.3c6.3,6.3,14.8,5.5,22.8,4.7
				c18.5-2,37.1-3.9,55.6-5.9c-3.5-6-6.9-12-10.4-18.1c-11.5,23.3-19.8,48.1-23.9,73.8c-1,6.4,1.7,12.9,8.4,14.8
				c5.7,1.6,13.7-1.9,14.8-8.4c3.9-23.6,10.9-46.6,21.5-68.1c3.6-7.3-0.6-19.1-10.4-18.1c-11.9,1.3-23.8,2.5-35.7,3.8
				c-5.6,0.6-11.3,1.2-16.9,1.8c-3,0.3-6,0.7-8.9,0.9c-0.9,0.1-2-0.1-2.9,0.1c-0.7,0-0.8,0-0.1,0c2.5,0,4.3,1.7,5.2,5.1
				c-0.4,3.1-0.8,6.2-1.2,9.2c11-14.6,23.3-28.3,36.4-41c13-12.5,28.3-23.3,37.8-39c4.4-7.3-1.2-18.8-10.4-18.1
				c-21.5,1.8-42.9,4.3-64.2,7.6c-6.4,1-10,9-8.4,14.8C280.7,390,287.2,392.5,293.6,391.5L293.6,391.5z"/>
		</g>
	</g>
	<g>
		<g>
			<path class="st1" d="M299,594.7c26.2-1.1,52.5-1.6,78.7-1.5c-2.8-6.8-5.7-13.7-8.5-20.5c-25.9,21.8-49.8,46-71.2,72.2
				c-5.8,7.1-3.8,17,5.3,20.1c8,2.6,16.5,3.1,24.8,3.3c6.6,0.2,13.8-0.1,19.9,2.8c0-6.9,0-13.8,0-20.7
				c-28.6,18.7-55.3,40.3-79.5,64.4c-11,10.9,6,27.9,17,17c22.8-22.7,47.8-43,74.7-60.6c6.9-4.5,8.6-16.6,0-20.7
				c-8.7-4.1-17.5-5.5-27.1-5.9c-7.9-0.3-15.7-0.1-23.3-2.6c1.8,6.7,3.5,13.4,5.3,20.1c21.5-26.2,45.3-50.4,71.2-72.2
				c8.2-6.9,1.3-20.4-8.5-20.5c-26.3-0.1-52.5,0.4-78.7,1.5c-6.5,0.3-12,5.3-12,12C287,589,292.5,595,299,594.7L299,594.7z"/>
		</g>
	</g>
	<g>
		<g>
			<path class="st1" d="M284.9,773.9c21.2-2.9,42.4-5.8,63.6-8.7c-4.9-4.9-9.8-9.8-14.8-14.8c-3,8.7-9.3,16.2-15.8,23.2
				c-7.7,8.3-15.5,16.2-22.2,25.4c-5.7,7.8,2.1,17.7,10.4,18.1c20.6,1,41.1,2,61.7,2.9c-4-4-8-8-12-12c0.1-1.3-0.2,0-1,0.5
				c-1.7,1.2-3.2,2.9-4.8,4.2c-3,2.5-6,4.9-9.1,7.2c-7.3,5.5-14.9,10.7-22.6,15.6c-5.5,3.5-7.7,10.7-4.3,16.4
				c3.2,5.4,10.9,7.8,16.4,4.3c10.1-6.5,19.9-13.5,29.4-20.9c9.6-7.5,18.9-14.5,20-27.4c0.6-6.7-6-11.7-12-12
				c-20.6-1-41.1-2-61.7-2.9c3.5,6,6.9,12,10.4,18.1c6.1-8.3,14.4-15.9,21.5-23.8c8.2-9.1,15-18.8,18.9-30.5c1.4-4-0.2-8.8-3.1-11.7
				c-3.3-3.3-7.3-3.7-11.7-3.1c-21.2,2.9-42.4,5.8-63.6,8.7c-6.4,0.9-9.9,9.1-8.4,14.8C272,772.4,278.4,774.7,284.9,773.9
				L284.9,773.9z"/>
		</g>
	</g>
</g>
</svg>
