<svg xmlns="http://www.w3.org/2000/svg" xmlns:xlink="http://www.w3.org/1999/xlink" viewBox="0 0 5918.73 589.58"><defs><style>.cls-1{fill:#44cb9d;}.cls-2{fill:#444344;}.cls-10,.cls-11,.cls-18,.cls-19,.cls-20,.cls-3,.cls-5,.cls-9{stroke-miterlimit:10;}.cls-3{fill:url(#linear-gradient);stroke:url(#linear-gradient-2);}.cls-10,.cls-11,.cls-14,.cls-18,.cls-4,.cls-9{fill:none;}.cls-11,.cls-14,.cls-18,.cls-19,.cls-20,.cls-4,.cls-5{stroke:#fff;}.cls-14,.cls-4{stroke-linecap:round;stroke-linejoin:round;}.cls-4,.cls-5{stroke-width:6px;}.cls-5{fill:#fff;}.cls-6{fill:#20ceb1;}.cls-7{fill:#45efd2;}.cls-8{fill:#29d9c2;}.cls-9{stroke:url(#linear-gradient-3);}.cls-10{stroke:url(#linear-gradient-4);}.cls-11{stroke-width:7px;}.cls-12{fill:#2b344d;opacity:0.59;}.cls-13{fill:url(#linear-gradient-5);}.cls-14{stroke-width:7.28px;}.cls-15{fill:#161616;}.cls-16{fill:#65efd5;}.cls-17{clip-path:url(#clip-path);}.cls-18,.cls-20{stroke-width:14.55px;}.cls-19,.cls-20{fill:#42e2b1;}.cls-19{stroke-width:15px;}</style><linearGradient id="linear-gradient" x1="5875.98" y1="3269.31" x2="6381.46" y2="3269.31" gradientTransform="matrix(0, 1, -1, 0, 8227.56, -5833.89)" gradientUnits="userSpaceOnUse"><stop offset="0" stop-color="#cce0f4"/><stop offset="0" stop-color="#c3dcf2"/><stop offset="0" stop-color="#a9d2ee"/><stop offset="0" stop-color="#80c2e7"/><stop offset="0" stop-color="#47acde"/><stop offset="0" stop-color="#1e9cd7"/><stop offset="0.5" stop-color="#55fff3"/><stop offset="0.99" stop-color="#29d9c2"/></linearGradient><linearGradient id="linear-gradient-2" x1="6055.24" y1="3269.31" x2="5548.58" y2="3269.31" xlink:href="#linear-gradient"/><linearGradient id="linear-gradient-3" x1="3589.76" y1="82.25" x2="3918.76" y2="82.25" gradientTransform="matrix(1, 0, 0, 1, 0, 0)" xlink:href="#linear-gradient"/><linearGradient id="linear-gradient-4" x1="3589.76" y1="336.87" x2="3918.76" y2="336.87" gradientTransform="matrix(1, 0, 0, 1, 0, 0)" xlink:href="#linear-gradient"/><linearGradient id="linear-gradient-5" x1="2363.65" y1="239.84" x2="2743.79" y2="239.84" gradientTransform="matrix(1, 0, 0, 1, 0, 0)" xlink:href="#linear-gradient"/><clipPath id="clip-path"><path class="cls-1" d="M132,406.32S0,336.28,0,206.68c0-83.2,58.74-131.2,131.2-131.2s131.2,48,131.2,131.2C262.4,336.28,132,406.32,132,406.32"/></clipPath></defs><title>Asset 1</title><g id="Layer_2" data-name="Layer 2"><g id="Layer_1-2" data-name="Layer 1"><path class="cls-2" d="M5176.2,256.39q51.38-42.08,97.86-29.85,22.51,5.87,32.78,22.75,11.74,19.08-.24,40.86A51.37,51.37,0,0,1,5294.74,304a84.43,84.43,0,0,1-13.58,9.66q-6.12,3.43-14.92,7.34-15.91,7.1-41.59,10.76l-2.2,24.47q-1.23,16.15-1.71,23.49a6.66,6.66,0,0,1-2.32,4.53,6.1,6.1,0,0,1-4.77,1.59,6.63,6.63,0,0,1-4.53-2.32,6.1,6.1,0,0,1-1.59-4.77l2.2-25.93q1.47-19.82,2.32-29.24t2.57-25.32q1.71-15.9,3.91-29.11t4.89-25.93q-19.08,7.34-38.9,23.49a6.71,6.71,0,0,1-4.89,1.47,6.06,6.06,0,0,1-4.4-2.45,6.71,6.71,0,0,1-1.47-4.89A6.07,6.07,0,0,1,5176.2,256.39Zm59.7-17.13a5.72,5.72,0,0,1,.73,4.89q-6.85,30.83-10.76,74.13,21.28-3.42,35-9.54a148.36,148.36,0,0,0,21.29-11.25,42.09,42.09,0,0,0,12.72-13.7q8.56-15.17.73-27.65-7.34-12.23-25-16.88A69.58,69.58,0,0,0,5235.9,239.27Z"/><path class="cls-2" d="M5491.56,330.88a6.43,6.43,0,0,0-4.16-2.93,6.36,6.36,0,0,0-5,.85,5.94,5.94,0,0,0-2.74,3.8,72.66,72.66,0,0,0,5.06,25.07c.25.62.5,1.24.76,1.84a206.3,206.3,0,0,0,6.82-23.61A6,6,0,0,0,5491.56,330.88Z"/><path class="cls-2" d="M5484.71,357.68a72.66,72.66,0,0,1-5.06-25.07c0,.12-.06.24-.08.36a186.05,186.05,0,0,1-8.68,27.53,63.55,63.55,0,0,1-13.09,19.45q.24-9.06.12-23.49t.12-20.31c0-1,.31-4.73.8-11.25.16-2.94.55-5.14.55-6.61v-5.13c0-.33-.43-.78-.67-1.35a11.07,11.07,0,0,0-.89-1.59,6.37,6.37,0,0,0-5.64-2.45,6.27,6.27,0,0,0-4.17,1.72,6.7,6.7,0,0,0-1.71,2.69c-.16.49-.41,1.14-.73,1.95q-.25,1.47-1.47,5.88-2.7,10.52-4.16,15.16-6.12,19.09-10.52,28.38a72.1,72.1,0,0,1-7.59,13.71q-3.66,4.65-6.6,5.38a3.9,3.9,0,0,1-3.18-.25,6.26,6.26,0,0,1-2.2-3.18q-2.46-6.6-1.47-20.79t7.09-42.33a6,6,0,0,0-.73-5,6.66,6.66,0,0,0-9.18-2.08,6,6,0,0,0-2.81,4.16q-1.84,8.14-3.25,15.21a5.61,5.61,0,0,0-.42.93q-.5,1.23-5.13,15.91a152.06,152.06,0,0,1-6.61,18.83q-4.41,9.54-8.81,13.46a9.55,9.55,0,0,1-9,2.45q-5.39-1.47-8.07-8.08-2-5.87-2-15.66c0-.48.16-2.28.49-5.38q.24-4.16.73-8.32,0-.24,1.47-8.07s1.17-12.88-.13-14.19c-.16-.16-1.22-4.89-1.71-6.36-1.47-3.26-4.74-6.44-10-9.54q-13.95-7.59-26.88,2.2-9.55,7.59-15.89,23.49a90.13,90.13,0,0,0-6.59,28.87q-.74,16.63,6.11,24.71,9.3,11,20.8,7.58,8.31-2.45,15.9-12.72a44.19,44.19,0,0,0,4.16-6.12,22.39,22.39,0,0,0,1.22,3.92q4.65,13,16.89,16.39,11.49,3.18,21-5.14a41.87,41.87,0,0,0,8.7-10.92,37.21,37.21,0,0,0,1.81,7q2.45,6.84,7.34,10,5.63,3.42,13.21,1.71,7.35-1.47,13.95-10a79.72,79.72,0,0,0,9.54-16.15l3.18-7.58q0,14.67-.24,24c-.17,1.8-.25,3.51-.25,5.14l-2.44,1.71q-10,6.61-14,9.55-17.61,13.7-19.57,30.09a20.35,20.35,0,0,0,3.06,13.94,16.79,16.79,0,0,0,11.13,7.83A18.07,18.07,0,0,0,5437,451q6.86-4.53,11.5-14.31,6.62-14,8.56-38.66c2-1.47,3.75-2.94,5.39-4.4q13-11.25,19.08-24.47,2.05-4.44,3.94-9.66C5485.21,358.92,5485,358.3,5484.71,357.68Zm-137.32-18.84s-.17,2.78-.33,3.43a93.45,93.45,0,0,1-5.31,13.46,76.94,76.94,0,0,1-8.52,14.67c-3.42,4.57-6.42,7.26-9,8.08-2.12.65-4.39-.41-6.84-3.18s-3.51-8-3.17-15.66a70.35,70.35,0,0,1,5.63-24.71q4.89-12.48,11.74-17.86,6.11-4.65,12.48-1,4.15,2.2,3.91,2.69a9.11,9.11,0,0,1,.49,2.2c.32,2.94.57,5,.73,6.12.16,0,.17.09.17.25C5349.17,327.67,5348.39,334.61,5347.39,338.84Zm89.37,92a23.27,23.27,0,0,1-4.77,7.34,11,11,0,0,1-4,2.82,5.25,5.25,0,0,1-2.45.12,5.68,5.68,0,0,1-3-2.45,6.9,6.9,0,0,1-.86-5.13q1.21-10.77,14.43-21l6.85-4.9Q5440.68,422.27,5436.76,430.82Z"/><path class="cls-2" d="M5591.12,343.57c.12,0,.24-.18.42-.66Z"/><path class="cls-2" d="M5670.94,335.91a157.21,157.21,0,0,1-10.52,33.27q-11,24-27.65,25a17.45,17.45,0,0,1-13.21-4.53,25.71,25.71,0,0,1-7.71-11.74q-2.09-6.74-.37-19.21a170.29,170.29,0,0,1,4.16-21.28q1-3.18,2.45-9.55l2.2-8.8.49-2c-5.38-.32-13.51-2.19-18.56-3.17,0,0-1.46,6.33-8.46,19.46-13.13,24.61-25.9,39.2-39.82,46.71q-21.54,11.61-40.86,5.75-19-6.09-27.62-26.3c-.26-.6-.51-1.22-.76-1.84a72.66,72.66,0,0,1-5.06-25.07,123.12,123.12,0,0,1,2.61-28.26,135.78,135.78,0,0,1,20.55-50.16q14.93-22.26,31.32-28.13,9.3-3.67,17.13-.49,8.55,3.18,13,13.21,8.56,18.84,1.71,59.94a6.78,6.78,0,0,1-7.58,5.51,6.09,6.09,0,0,1-4.28-2.57,7.05,7.05,0,0,1-1.35-4.9q6.36-37.43-.49-52.6c-1.63-3.26-3.51-5.38-5.62-6.36-2.12-.81-4.74-.65-7.83.49q-12.48,4.65-25.57,24T5495,306.79q-5.38,28.14,1.46,45.14T5517,373.1q13.95,4.16,31.44-5.14c11.66-6.2,21.45-18.85,31.7-33.35,9-12.74,15-32,16.42-32.95a5.72,5.72,0,0,1,4.89-.77c6.85,1.64,13.62,3.15,20.31,3.15h.24a19.31,19.31,0,0,1,2.21-.21c3.91-.49,6.85.66,8.8,3.43a8,8,0,0,1,1.47,4.91,27.32,27.32,0,0,1-.24,3.18q-.25,2.2-1.23,6.6l-2.44,9.06q-1.72,6.36-2.45,9.54a179.88,179.88,0,0,0-3.91,19.81q-1.47,9.54,0,13.7a10.94,10.94,0,0,0,3.18,5.14,6.25,6.25,0,0,0,4.89,1.72q8.8-.5,16.64-17.38a138.59,138.59,0,0,0,9.78-30.09,5.59,5.59,0,0,1,2.57-4.28,5.73,5.73,0,0,1,4.77-1,6.85,6.85,0,0,1,4,2.94A5.4,5.4,0,0,1,5670.94,335.91Z"/><path class="cls-2" d="M5712.77,342.51q-.49,4.16-.73,8.32-.49,4.65-.49,5.38,0,9.79,2,15.66,2.69,6.61,8.07,8.07a9.55,9.55,0,0,0,9.05-2.45q4.4-3.91,8.81-13.46A151.37,151.37,0,0,0,5746,345.2q4.65-14.68,5.14-15.9a6.54,6.54,0,0,1,12.11-.49,6,6,0,0,1,.12,4.89q-.25,1-4.65,15.41a179.56,179.56,0,0,1-7.34,20.55q-5.38,12-12.23,17.86-9.54,8.31-21,5.14-12.24-3.43-16.88-16.39a22,22,0,0,1-1.22-3.92,44.37,44.37,0,0,1-4.16,6.12q-7.58,10.27-15.9,12.72-11.5,3.42-20.79-7.58-6.85-8.07-6.12-24.71a90.08,90.08,0,0,1,6.61-28.87q6.36-15.9,15.9-23.49,13-9.78,26.91-2.2c5.22,3.1,7,3.33,10,9.54S5714.39,335.1,5712.77,342.51ZM5702,324.24c-1-5.25-3.14-6.68-5.91-8.15q-6.36-3.67-12.48,1-6.85,5.38-11.74,17.86a70.57,70.57,0,0,0-5.63,24.71q-.49,11.5,3.18,15.66t6.85,3.18q3.91-1.22,9.05-8.07a77.38,77.38,0,0,0,8.56-14.68c2.61-5.54,5.71-14.68,5.87-15.17C5699.8,340.55,5703,329.49,5702,324.24Z"/><path class="cls-2" d="M5768.3,311.68q-5.14,21.78-5.63,38.66-.49,12,1.71,19.82,2.2,7.34,6.12,9.3,6.85,3.18,15.17-3.67,9-7.58,15.9-23l1.22-2.69a34.36,34.36,0,0,1-11.5-14.19q-5.87-13.7-2.2-25.69a16.26,16.26,0,0,1,7.34-10q6.36-3.42,14.19.24,12.23,5.63,11.5,25a82.67,82.67,0,0,1-2.45,16.88q10.28,0,24-10.76a7.78,7.78,0,0,1,5.26-1.47,6.19,6.19,0,0,1,4.53,2.45,6.75,6.75,0,0,1,1.47,4.89,6.07,6.07,0,0,1-2.45,4.4q-20.31,15.91-37.19,13.46l-1.22,2.69Q5806,376,5794.73,385.81q-15.41,12.48-30.34,5.38-9.54-4.65-13.46-17.62-2.45-9.54-2-23.73.73-18.1,6.12-41.1a5.91,5.91,0,0,1,2.94-4.16,6.75,6.75,0,0,1,5.14-.86,6.89,6.89,0,0,1,4.28,2.94A5.8,5.8,0,0,1,5768.3,311.68Zm30.34,0a9.42,9.42,0,0,0-1,2.2q-2.2,7.59,1.71,16.88a22.13,22.13,0,0,0,2.94,5.14,70.61,70.61,0,0,0,1.47-10.77q.24-10.76-3.91-13A9,9,0,0,1,5798.64,311.68Z"/><path class="cls-2" d="M5849.77,363.31a25.18,25.18,0,0,0,3.67,11.5q6.11,9.05,21,5.63,12.23-2.94,19.08-15.9a95.15,95.15,0,0,0,4.4-9.66q2-5,4.16-11.62T5906,332a6.6,6.6,0,0,1,12.11-.24,6.61,6.61,0,0,1,.12,5.14l-3.42,10.28q-2.45,6.85-4.65,12.72a97.76,97.76,0,0,1-4.89,11q-9.54,18.11-27.89,22.26-23.73,5.63-34.74-11-8.81-13-5.63-34.25,2.69-19.82,13-33.27a36.25,36.25,0,0,1,13-10.89,20.37,20.37,0,0,1,15.66-.86q13.95,4.9,14.68,20.06.73,11.74-7.09,23.73-8.07,12.48-20.06,16.39A26.79,26.79,0,0,1,5849.77,363.31Zm.24-14.19a14.23,14.23,0,0,0,12,1.47q7.58-2.69,13.21-11.25,5.38-8.31,4.89-15.66-.25-6.36-5.87-8.07-6.6-2.44-13.7,7.1Q5852.46,333.21,5850,349.12Z"/><path class="cls-2" d="M5347.22,341.62"/><path class="cls-3" d="M4958.25,547.57s-153.74-144-153.74-351.74a153.74,153.74,0,1,1,307.48,0C5112,405.07,4958.25,547.57,4958.25,547.57Z"/><line class="cls-4" x1="4959.89" y1="152.67" x2="5097.72" y2="86.71"/><line class="cls-4" x1="4959.89" y1="232.45" x2="5129.06" y2="155.37"/><line class="cls-4" x1="4960.76" y1="309.31" x2="5133.06" y2="227.37"/><line class="cls-4" x1="4960.25" y1="386.37" x2="5109.72" y2="314.71"/><line class="cls-4" x1="4961.4" y1="454.58" x2="5068.39" y2="403.37"/><line class="cls-4" x1="4957.39" y1="41.04" x2="4957.39" y2="549.04"/><circle class="cls-5" cx="4957.15" cy="192.52" r="84.43"/><path class="cls-6" d="M3881.86,312.76S3801,509.5,3752.63,533.5h2c-48.36-24-129.23-220.75-129.23-220.75"/><path class="cls-7" d="M3918.26,164.5a258.56,258.56,0,0,1-1.47,27.15l-162.16,77.12h-.87V191.91l159.4-72.63A194.76,194.76,0,0,1,3918.26,164.5Z"/><path class="cls-8" d="M3754.63,268.77l162.16-77.12c-3,28.83-10.59,57.93-20.88,86.2l-141.79,68h-.36V268.77Z"/><path class="cls-8" d="M3913.16,119.28l-159.4,72.63V112.13l125-59.83C3894.9,70.32,3906.83,92.78,3913.16,119.28Z"/><path class="cls-7" d="M3754.12,345.83l141.79-68c-11.31,31.07-25.92,61.13-41.45,88.71L3755.27,414h-1.51V345.83Z"/><path class="cls-7" d="M3878.78,52.3l-125,59.83V.5h.5C3804.08.5,3848.71,18.65,3878.78,52.3Z"/><path class="cls-8" d="M3755.27,414l99.19-47.48c-46.06,81.86-100.2,141.94-100.2,141.94l-.5-.56V414Z"/><path class="cls-8" d="M3753.76,414v93.9c-9.9-11.15-163.5-186.66-163.5-343.44,0-103.81,73.16-163.78,163.5-164V414Z"/><path class="cls-9" d="M3590.26,164.5c0-103.81,73.16-163.78,163.5-164h.5c49.82,0,94.45,18.15,124.52,51.8,16.12,18,28.05,40.48,34.38,67a194.76,194.76,0,0,1,5.1,45.22"/><path class="cls-10" d="M3918.26,164.5a258.56,258.56,0,0,1-1.47,27.15c-3,28.83-10.59,57.93-20.88,86.2-11.31,31.07-25.92,61.13-41.45,88.71-46.06,81.86-100.2,141.94-100.2,141.94l-.5-.56c-9.9-11.15-163.5-186.66-163.5-343.44"/><polyline class="cls-11" points="3753.76 112.13 3878.78 52.3 3891.59 46.17"/><polyline class="cls-11" points="3753.76 191.91 3913.16 119.28 3922.93 114.83"/><polyline class="cls-11" points="3754.63 268.77 3916.79 191.65 3926.93 186.83"/><polyline class="cls-11" points="3754.12 345.83 3895.91 277.85 3903.59 274.17"/><polyline class="cls-11" points="3755.27 414.04 3854.46 366.56 3862.26 362.83"/><polyline class="cls-11" points="3753.76 0.5 3753.76 112.13 3753.76 191.91 3753.76 268.77 3753.76 345.83 3753.76 414.04 3753.76 507.94 3753.76 508.5"/><path class="cls-2" d="M3974.07,191.85q51.38-42.08,97.86-29.85,22.51,5.87,32.78,22.75,11.74,19.08-.24,40.86a51.37,51.37,0,0,1-11.87,13.82A84.43,84.43,0,0,1,4079,249.1q-6.12,3.43-14.92,7.34-15.91,7.1-41.59,10.76l-2.2,24.47q-1.23,16.15-1.71,23.49a6.66,6.66,0,0,1-2.32,4.53,6.1,6.1,0,0,1-4.77,1.59,6.63,6.63,0,0,1-4.53-2.32,6.1,6.1,0,0,1-1.59-4.77l2.2-25.93q1.47-19.82,2.32-29.24t2.57-25.32q1.71-15.9,3.91-29.11t4.89-25.93q-19.08,7.34-38.9,23.49a6.71,6.71,0,0,1-4.89,1.47,6.06,6.06,0,0,1-4.4-2.45,6.71,6.71,0,0,1-1.47-4.89A6.07,6.07,0,0,1,3974.07,191.85Zm59.7-17.13a5.72,5.72,0,0,1,.73,4.89q-6.85,30.83-10.76,74.13,21.28-3.42,35-9.54A148.36,148.36,0,0,0,4080,232.95a42.09,42.09,0,0,0,12.72-13.7q8.56-15.17.73-27.65-7.34-12.23-25-16.88A69.58,69.58,0,0,0,4033.77,174.72Z"/><path class="cls-2" d="M4289.43,266.34a6.43,6.43,0,0,0-4.16-2.93,6.36,6.36,0,0,0-5,.85,5.94,5.94,0,0,0-2.74,3.8,72.66,72.66,0,0,0,5.06,25.07c.25.62.5,1.24.76,1.84a206.3,206.3,0,0,0,6.82-23.61A6,6,0,0,0,4289.43,266.34Z"/><path class="cls-2" d="M4282.58,293.13a72.66,72.66,0,0,1-5.06-25.07c0,.12-.06.24-.08.36a186.05,186.05,0,0,1-8.68,27.53,63.55,63.55,0,0,1-13.09,19.45q.24-9.06.12-23.49t.12-20.31c0-1,.31-4.73.8-11.25.16-2.94.55-5.14.55-6.61v-5.13c0-.33-.43-.78-.67-1.35a11.07,11.07,0,0,0-.89-1.59,6.37,6.37,0,0,0-5.64-2.45,6.27,6.27,0,0,0-4.17,1.72,6.7,6.7,0,0,0-1.71,2.69c-.16.49-.41,1.14-.73,1.95q-.25,1.47-1.47,5.88-2.7,10.52-4.16,15.16-6.12,19.09-10.52,28.38a72.1,72.1,0,0,1-7.59,13.71q-3.66,4.65-6.6,5.38a3.9,3.9,0,0,1-3.18-.25,6.26,6.26,0,0,1-2.2-3.18q-2.46-6.6-1.47-20.79t7.09-42.33a6,6,0,0,0-.73-5,6.66,6.66,0,0,0-9.18-2.08,6,6,0,0,0-2.81,4.16q-1.84,8.14-3.25,15.21a5.61,5.61,0,0,0-.42.93q-.5,1.23-5.13,15.91a152.06,152.06,0,0,1-6.61,18.83Q4180.8,309,4176.4,313a9.55,9.55,0,0,1-9,2.45q-5.39-1.47-8.07-8.08-2-5.87-2-15.66c0-.48.16-2.28.49-5.38q.24-4.16.73-8.32,0-.24,1.47-8.07s1.17-12.88-.13-14.19c-.16-.16-1.22-4.89-1.71-6.36-1.47-3.26-4.74-6.44-10-9.54q-13.95-7.59-26.88,2.2-9.55,7.59-15.89,23.49a90.13,90.13,0,0,0-6.59,28.87q-.74,16.63,6.11,24.71,9.3,11,20.8,7.58,8.31-2.45,15.9-12.72a44.19,44.19,0,0,0,4.16-6.12,22.39,22.39,0,0,0,1.22,3.92q4.65,13,16.89,16.39,11.49,3.18,21-5.14a41.87,41.87,0,0,0,8.7-10.92,37.21,37.21,0,0,0,1.81,7q2.45,6.84,7.34,10,5.63,3.42,13.21,1.71,7.35-1.47,13.95-10a79.72,79.72,0,0,0,9.54-16.15l3.18-7.58q0,14.67-.24,24c-.17,1.8-.25,3.51-.25,5.14l-2.44,1.71q-10,6.61-14,9.55-17.61,13.7-19.57,30.09a20.35,20.35,0,0,0,3.06,13.94,16.79,16.79,0,0,0,11.13,7.83,18.07,18.07,0,0,0,14.43-2.81q6.86-4.53,11.5-14.31,6.62-14,8.56-38.66c2-1.47,3.75-2.94,5.39-4.4q13-11.25,19.08-24.47,2.05-4.44,3.94-9.66C4283.08,294.37,4282.83,293.75,4282.58,293.13Zm-137.32-18.84s-.17,2.78-.33,3.43a93.45,93.45,0,0,1-5.31,13.46,76.94,76.94,0,0,1-8.52,14.67c-3.42,4.57-6.42,7.26-9,8.08-2.12.65-4.39-.41-6.84-3.18s-3.51-8-3.17-15.66a70.35,70.35,0,0,1,5.63-24.71q4.89-12.48,11.74-17.86,6.11-4.65,12.48-1,4.15,2.2,3.91,2.69a9.11,9.11,0,0,1,.49,2.2c.32,2.94.57,5,.73,6.12.16,0,.17.09.17.25C4147,263.12,4146.26,270.06,4145.26,274.29Zm89.37,92a23.27,23.27,0,0,1-4.77,7.34,11,11,0,0,1-4,2.82,5.25,5.25,0,0,1-2.45.12,5.68,5.68,0,0,1-3-2.45,6.9,6.9,0,0,1-.86-5.13q1.21-10.77,14.43-21l6.85-4.9Q4238.55,357.73,4234.63,366.28Z"/><path class="cls-2" d="M4389,279c.12,0,.24-.18.42-.66Z"/><path class="cls-2" d="M4468.81,271.36a157.21,157.21,0,0,1-10.52,33.27q-11,24-27.65,25a17.45,17.45,0,0,1-13.21-4.53,25.71,25.71,0,0,1-7.71-11.74q-2.09-6.74-.37-19.21a170.29,170.29,0,0,1,4.16-21.28q1-3.18,2.45-9.55l2.2-8.8.49-2c-5.38-.32-13.51-2.19-18.56-3.17,0,0-1.46,6.33-8.46,19.46-13.13,24.61-25.9,39.2-39.82,46.71q-21.54,11.61-40.86,5.75-19-6.09-27.62-26.3c-.26-.6-.51-1.22-.76-1.84a72.66,72.66,0,0,1-5.06-25.07,123.12,123.12,0,0,1,2.61-28.26,135.78,135.78,0,0,1,20.55-50.16q14.93-22.26,31.32-28.13,9.3-3.67,17.13-.49,8.55,3.18,13,13.21,8.56,18.84,1.71,59.94a6.78,6.78,0,0,1-7.58,5.51,6.09,6.09,0,0,1-4.28-2.57,7.05,7.05,0,0,1-1.35-4.9q6.36-37.43-.49-52.6c-1.63-3.26-3.51-5.38-5.62-6.36-2.12-.81-4.74-.65-7.83.49q-12.48,4.65-25.57,24t-18.22,44.52q-5.38,28.14,1.46,45.14t20.55,21.17q13.95,4.16,31.44-5.14c11.66-6.2,21.45-18.85,31.7-33.35,9-12.74,15-32,16.42-32.95a5.72,5.72,0,0,1,4.89-.77c6.85,1.64,13.62,3.15,20.31,3.15h.24a19.31,19.31,0,0,1,2.21-.21c3.91-.49,6.85.66,8.8,3.43a8,8,0,0,1,1.47,4.91,27.32,27.32,0,0,1-.24,3.18q-.25,2.2-1.23,6.6l-2.44,9.06q-1.72,6.36-2.45,9.54a179.88,179.88,0,0,0-3.91,19.81q-1.47,9.54,0,13.7a10.94,10.94,0,0,0,3.18,5.14,6.25,6.25,0,0,0,4.89,1.72q8.8-.5,16.64-17.38a138.59,138.59,0,0,0,9.78-30.09,5.59,5.59,0,0,1,2.57-4.28,5.73,5.73,0,0,1,4.77-1,6.85,6.85,0,0,1,4,2.94A5.4,5.4,0,0,1,4468.81,271.36Z"/><path class="cls-2" d="M4510.64,278q-.49,4.16-.73,8.32-.49,4.65-.49,5.38,0,9.79,2,15.66,2.69,6.61,8.07,8.07a9.55,9.55,0,0,0,9.05-2.45q4.4-3.91,8.81-13.46a151.37,151.37,0,0,0,6.61-18.84q4.65-14.68,5.14-15.9a6.54,6.54,0,0,1,12.11-.49,6,6,0,0,1,.12,4.89q-.25,1-4.65,15.41a179.56,179.56,0,0,1-7.34,20.55q-5.38,12-12.23,17.86-9.54,8.31-21,5.14-12.24-3.43-16.88-16.39a22,22,0,0,1-1.22-3.92,44.37,44.37,0,0,1-4.16,6.12q-7.58,10.27-15.9,12.72-11.5,3.42-20.79-7.58-6.85-8.07-6.12-24.71a90.08,90.08,0,0,1,6.61-28.87q6.36-15.9,15.9-23.49,13-9.78,26.91-2.2c5.22,3.1,7,3.33,10,9.54S4512.26,270.56,4510.64,278Zm-10.72-18.27c-1-5.25-3.14-6.68-5.91-8.15q-6.36-3.67-12.48,1-6.85,5.38-11.74,17.86a70.57,70.57,0,0,0-5.63,24.71q-.49,11.5,3.18,15.66t6.85,3.18q3.91-1.22,9.05-8.07a77.38,77.38,0,0,0,8.56-14.68c2.61-5.54,5.71-14.68,5.87-15.17C4497.67,276,4500.91,264.95,4499.91,259.7Z"/><path class="cls-2" d="M4566.17,247.14q-5.14,21.78-5.63,38.66-.49,12,1.71,19.82,2.2,7.34,6.12,9.3,6.85,3.18,15.17-3.67,9-7.58,15.9-23l1.22-2.69a34.36,34.36,0,0,1-11.5-14.19q-5.87-13.7-2.2-25.69a16.26,16.26,0,0,1,7.34-10q6.36-3.42,14.19.24,12.23,5.63,11.5,25a82.67,82.67,0,0,1-2.45,16.88q10.28,0,24-10.76a7.78,7.78,0,0,1,5.26-1.47,6.19,6.19,0,0,1,4.53,2.45,6.75,6.75,0,0,1,1.47,4.89,6.07,6.07,0,0,1-2.45,4.4q-20.31,15.91-37.19,13.46l-1.22,2.69q-8.07,18.11-19.33,27.89-15.41,12.48-30.34,5.38Q4552.72,322,4548.8,309q-2.45-9.54-2-23.73.73-18.1,6.12-41.1a5.91,5.91,0,0,1,2.94-4.16,6.75,6.75,0,0,1,5.14-.86,6.89,6.89,0,0,1,4.28,2.94A5.8,5.8,0,0,1,4566.17,247.14Zm30.34,0a9.42,9.42,0,0,0-1,2.2q-2.2,7.59,1.71,16.88a22.13,22.13,0,0,0,2.94,5.14,70.61,70.61,0,0,0,1.47-10.77q.24-10.76-3.91-13A9,9,0,0,1,4596.51,247.14Z"/><path class="cls-2" d="M4647.64,298.76a25.18,25.18,0,0,0,3.67,11.5q6.11,9.05,21,5.63,12.23-2.94,19.08-15.9a95.15,95.15,0,0,0,4.4-9.66q2-5,4.16-11.62t3.92-11.25a6.6,6.6,0,0,1,12.11-.24,6.61,6.61,0,0,1,.12,5.14l-3.42,10.28q-2.45,6.85-4.65,12.72a97.76,97.76,0,0,1-4.89,11q-9.54,18.11-27.89,22.26-23.73,5.63-34.74-11-8.81-13-5.63-34.25,2.69-19.82,13-33.27a36.25,36.25,0,0,1,13-10.89,20.37,20.37,0,0,1,15.66-.86q13.95,4.9,14.68,20.06.73,11.74-7.09,23.73Q4676,294.6,4664,298.52A26.79,26.79,0,0,1,4647.64,298.76Zm.24-14.19a14.23,14.23,0,0,0,12,1.47q7.58-2.69,13.21-11.25,5.38-8.31,4.89-15.66-.25-6.36-5.87-8.07-6.6-2.44-13.7,7.1Q4650.33,268.67,4647.88,284.57Z"/><path class="cls-2" d="M4145.09,277.07"/><ellipse class="cls-12" cx="3749.07" cy="572.33" rx="117.19" ry="17.25"/><path class="cls-2" d="M2784.31,161.85q51.38-42.08,97.86-29.85,22.51,5.87,32.78,22.75,11.74,19.08-.24,40.86a51.37,51.37,0,0,1-11.87,13.82,84.43,84.43,0,0,1-13.58,9.66q-6.12,3.43-14.92,7.34-15.91,7.1-41.59,10.76l-2.2,24.47q-1.23,16.15-1.71,23.49a6.66,6.66,0,0,1-2.32,4.53,6.1,6.1,0,0,1-4.77,1.59,6.63,6.63,0,0,1-4.53-2.32,6.1,6.1,0,0,1-1.59-4.77l2.2-25.93q1.47-19.82,2.32-29.24t2.57-25.32q1.71-15.9,3.91-29.11t4.89-25.93q-19.08,7.34-38.9,23.49a6.71,6.71,0,0,1-4.89,1.47,6.06,6.06,0,0,1-4.4-2.45,6.71,6.71,0,0,1-1.47-4.89A6.07,6.07,0,0,1,2784.31,161.85Zm59.7-17.13a5.72,5.72,0,0,1,.73,4.89q-6.85,30.83-10.76,74.13,21.28-3.42,35-9.54a148.36,148.36,0,0,0,21.29-11.25,42.09,42.09,0,0,0,12.72-13.7q8.56-15.17.73-27.65-7.34-12.23-25-16.88A69.58,69.58,0,0,0,2844,144.72Z"/><path class="cls-2" d="M3099.67,236.34a6.43,6.43,0,0,0-4.16-2.93,6.36,6.36,0,0,0-5,.85,5.94,5.94,0,0,0-2.74,3.8,72.66,72.66,0,0,0,5.06,25.07c.25.62.5,1.24.76,1.84a206.3,206.3,0,0,0,6.82-23.61A6,6,0,0,0,3099.67,236.34Z"/><path class="cls-2" d="M3092.82,263.13a72.66,72.66,0,0,1-5.06-25.07c0,.12-.06.24-.08.36A186.05,186.05,0,0,1,3079,266a63.55,63.55,0,0,1-13.09,19.45q.24-9.06.12-23.49t.12-20.31c0-1,.31-4.73.8-11.25.16-2.94.55-5.14.55-6.61v-5.13c0-.33-.43-.78-.67-1.35a11.07,11.07,0,0,0-.89-1.59,6.37,6.37,0,0,0-5.64-2.45,6.27,6.27,0,0,0-4.17,1.72,6.7,6.7,0,0,0-1.71,2.69c-.16.49-.41,1.14-.73,1.95q-.25,1.47-1.47,5.88-2.7,10.52-4.16,15.16-6.12,19.09-10.52,28.38a72.1,72.1,0,0,1-7.59,13.71q-3.66,4.65-6.6,5.38a3.9,3.9,0,0,1-3.18-.25,6.26,6.26,0,0,1-2.2-3.18q-2.46-6.6-1.47-20.79t7.09-42.33a6,6,0,0,0-.73-5,6.66,6.66,0,0,0-9.18-2.08,6,6,0,0,0-2.81,4.16q-1.84,8.14-3.25,15.21a5.61,5.61,0,0,0-.42.93q-.5,1.23-5.13,15.91a152.06,152.06,0,0,1-6.61,18.83Q2991,279,2986.64,283a9.55,9.55,0,0,1-9,2.45q-5.39-1.47-8.07-8.08-2-5.87-2-15.66c0-.48.16-2.28.49-5.38q.24-4.16.73-8.32,0-.24,1.47-8.07s1.17-12.88-.13-14.19c-.16-.16-1.22-4.89-1.71-6.36-1.47-3.26-4.74-6.44-10-9.54q-13.95-7.59-26.88,2.2-9.55,7.59-15.89,23.49a90.13,90.13,0,0,0-6.59,28.87q-.74,16.63,6.11,24.71,9.3,11,20.8,7.58,8.31-2.45,15.9-12.72a44.19,44.19,0,0,0,4.16-6.12,22.39,22.39,0,0,0,1.22,3.92q4.65,13,16.89,16.39,11.49,3.18,21-5.14a41.87,41.87,0,0,0,8.7-10.92,37.21,37.21,0,0,0,1.81,7q2.45,6.84,7.34,10,5.63,3.42,13.21,1.71,7.35-1.47,13.95-10a79.72,79.72,0,0,0,9.54-16.15l3.18-7.58q0,14.67-.24,24c-.17,1.8-.25,3.51-.25,5.14l-2.44,1.71q-10,6.61-14,9.55-17.61,13.7-19.57,30.09a20.35,20.35,0,0,0,3.06,13.94,16.79,16.79,0,0,0,11.13,7.83,18.07,18.07,0,0,0,14.43-2.81q6.86-4.53,11.5-14.31,6.62-14,8.56-38.66c2-1.47,3.75-2.94,5.39-4.4q13-11.25,19.08-24.47,2.05-4.44,3.94-9.66C3093.32,264.37,3093.07,263.75,3092.82,263.13ZM2955.5,244.29s-.17,2.78-.33,3.43a93.45,93.45,0,0,1-5.31,13.46,76.94,76.94,0,0,1-8.52,14.67c-3.42,4.57-6.42,7.26-9,8.08-2.12.65-4.39-.41-6.84-3.18s-3.51-8-3.17-15.66a70.35,70.35,0,0,1,5.63-24.71q4.89-12.48,11.74-17.86,6.11-4.65,12.48-1,4.15,2.2,3.91,2.69a9.11,9.11,0,0,1,.49,2.2c.32,2.94.57,5,.73,6.12.16,0,.17.09.17.25C2957.28,233.12,2956.5,240.06,2955.5,244.29Zm89.37,92a23.27,23.27,0,0,1-4.77,7.34,11,11,0,0,1-4,2.82,5.25,5.25,0,0,1-2.45.12,5.68,5.68,0,0,1-3-2.45,6.9,6.9,0,0,1-.86-5.13q1.21-10.77,14.43-21L3051,313Q3048.79,327.73,3044.87,336.28Z"/><path class="cls-2" d="M3199.23,249c.12,0,.24-.18.42-.66Z"/><path class="cls-2" d="M3279,241.36a157.21,157.21,0,0,1-10.52,33.27q-11,24-27.65,25a17.45,17.45,0,0,1-13.21-4.53,25.71,25.71,0,0,1-7.71-11.74q-2.09-6.74-.37-19.21a170.29,170.29,0,0,1,4.16-21.28q1-3.18,2.45-9.55l2.2-8.8.49-2c-5.38-.32-13.51-2.19-18.56-3.17,0,0-1.46,6.33-8.46,19.46-13.13,24.61-25.9,39.2-39.82,46.71q-21.54,11.61-40.86,5.75-19-6.09-27.62-26.3c-.26-.6-.51-1.22-.76-1.84a72.66,72.66,0,0,1-5.06-25.07,123.12,123.12,0,0,1,2.61-28.26,135.78,135.78,0,0,1,20.55-50.16q14.93-22.26,31.32-28.13,9.3-3.67,17.13-.49,8.55,3.18,13,13.21,8.56,18.84,1.71,59.94a6.78,6.78,0,0,1-7.58,5.51,6.09,6.09,0,0,1-4.28-2.57,7.05,7.05,0,0,1-1.35-4.9q6.36-37.43-.49-52.6c-1.63-3.26-3.51-5.38-5.62-6.36-2.12-.81-4.74-.65-7.83.49q-12.48,4.65-25.57,24t-18.22,44.52q-5.38,28.14,1.46,45.14t20.55,21.17q13.95,4.16,31.44-5.14c11.66-6.2,21.45-18.85,31.7-33.35,9-12.74,15-32,16.42-32.95a5.72,5.72,0,0,1,4.89-.77c6.85,1.64,13.62,3.15,20.31,3.15h.24a19.31,19.31,0,0,1,2.21-.21c3.91-.49,6.85.66,8.8,3.43a8,8,0,0,1,1.47,4.91,27.32,27.32,0,0,1-.24,3.18q-.25,2.2-1.23,6.6l-2.44,9.06q-1.72,6.36-2.45,9.54a179.88,179.88,0,0,0-3.91,19.81q-1.47,9.54,0,13.7a10.94,10.94,0,0,0,3.18,5.14,6.25,6.25,0,0,0,4.89,1.72q8.8-.5,16.64-17.38a138.59,138.59,0,0,0,9.78-30.09,5.59,5.59,0,0,1,2.57-4.28,5.73,5.73,0,0,1,4.77-1,6.85,6.85,0,0,1,4,2.94A5.4,5.4,0,0,1,3279,241.36Z"/><path class="cls-2" d="M3320.87,248q-.49,4.16-.73,8.32-.49,4.65-.49,5.38,0,9.79,2,15.66,2.69,6.61,8.07,8.07a9.55,9.55,0,0,0,9.05-2.45q4.4-3.91,8.81-13.46a151.37,151.37,0,0,0,6.61-18.84q4.65-14.68,5.14-15.9a6.54,6.54,0,0,1,12.11-.49,6,6,0,0,1,.12,4.89q-.25,1-4.65,15.41a179.56,179.56,0,0,1-7.34,20.55q-5.38,12-12.23,17.86-9.54,8.31-21,5.14-12.24-3.43-16.88-16.39a22,22,0,0,1-1.22-3.92,44.37,44.37,0,0,1-4.16,6.12q-7.58,10.27-15.9,12.72-11.5,3.42-20.79-7.58-6.85-8.07-6.12-24.71a90.08,90.08,0,0,1,6.61-28.87q6.36-15.9,15.9-23.49,13-9.78,26.91-2.2c5.22,3.1,7,3.33,10,9.54S3322.5,240.56,3320.87,248Zm-10.72-18.27c-1-5.25-3.14-6.68-5.91-8.15q-6.36-3.67-12.48,1-6.85,5.38-11.74,17.86a70.57,70.57,0,0,0-5.63,24.71q-.49,11.5,3.18,15.66t6.85,3.18q3.91-1.22,9.05-8.07a77.38,77.38,0,0,0,8.56-14.68c2.61-5.54,5.71-14.68,5.87-15.17C3307.91,246,3311.15,234.95,3310.15,229.7Z"/><path class="cls-2" d="M3376.41,217.14q-5.14,21.78-5.63,38.66-.49,12,1.71,19.82,2.2,7.34,6.12,9.3,6.85,3.18,15.17-3.67,9-7.58,15.9-23l1.22-2.69a34.36,34.36,0,0,1-11.5-14.19q-5.87-13.7-2.2-25.69a16.26,16.26,0,0,1,7.34-10q6.36-3.42,14.19.24,12.23,5.63,11.5,25a82.67,82.67,0,0,1-2.45,16.88q10.28,0,24-10.76a7.78,7.78,0,0,1,5.26-1.47,6.19,6.19,0,0,1,4.53,2.45,6.75,6.75,0,0,1,1.47,4.89,6.07,6.07,0,0,1-2.45,4.4q-20.31,15.91-37.19,13.46l-1.22,2.69q-8.07,18.11-19.33,27.89-15.41,12.48-30.34,5.38Q3363,292,3359,279q-2.45-9.54-2-23.73.73-18.1,6.12-41.1a5.91,5.91,0,0,1,2.94-4.16,6.75,6.75,0,0,1,5.14-.86,6.89,6.89,0,0,1,4.28,2.94A5.8,5.8,0,0,1,3376.41,217.14Zm30.34,0a9.42,9.42,0,0,0-1,2.2q-2.2,7.59,1.71,16.88a22.13,22.13,0,0,0,2.94,5.14,70.61,70.61,0,0,0,1.47-10.77q.24-10.76-3.91-13A9,9,0,0,1,3406.75,217.14Z"/><path class="cls-2" d="M3457.88,268.76a25.18,25.18,0,0,0,3.67,11.5q6.11,9.05,21,5.63,12.23-2.94,19.08-15.9a95.15,95.15,0,0,0,4.4-9.66q2-5,4.16-11.62t3.92-11.25a6.6,6.6,0,0,1,12.11-.24,6.61,6.61,0,0,1,.12,5.14L3523,252.62q-2.45,6.85-4.65,12.72a97.76,97.76,0,0,1-4.89,11q-9.54,18.11-27.89,22.26-23.73,5.63-34.74-11-8.81-13-5.63-34.25,2.69-19.82,13-33.27a36.25,36.25,0,0,1,13-10.89,20.37,20.37,0,0,1,15.66-.86q13.95,4.9,14.68,20.06.73,11.74-7.09,23.73-8.07,12.48-20.06,16.39A26.79,26.79,0,0,1,3457.88,268.76Zm.24-14.19a14.23,14.23,0,0,0,12,1.47q7.58-2.69,13.21-11.25,5.38-8.31,4.89-15.66-.25-6.36-5.87-8.07-6.6-2.44-13.7,7.1Q3460.57,238.67,3458.12,254.57Z"/><path class="cls-2" d="M2955.33,247.07"/><path class="cls-13" d="M2724.17,109.36c-15.28-28-38.59-51.46-67.19-68.32l-.13-.07A201.55,201.55,0,0,0,2554.5,13.5h-.67c-105,0-190.18,77.44-190.18,173.11,0,163,190.18,279.58,190.18,279.58s.23-.18.67-.46c9.14-5.69,109.42-69.74,160.28-167.28h0a.51.51,0,0,1-.16,0c16.72-32.08,27.87-67.78,28.9-106.23a1.21,1.21,0,0,0,0-.19h0c0-1.83.29-3.67.29-5.51A160,160,0,0,0,2724.17,109.36ZM2554.5,233.44c-.39,0-.79,0-1.19,0a84.19,84.19,0,1,1,0-168.39c.4,0,.8,0,1.19,0a84.13,84.13,0,0,1,83,83.76c0,.14,0,.28,0,.42A84.19,84.19,0,0,1,2554.5,233.44Z"/><line class="cls-14" x1="2656.85" y1="40.97" x2="2589.46" y2="73.22"/><line class="cls-14" x1="2724.17" y1="109.36" x2="2637.49" y2="148.85"/><line class="cls-14" x1="2743.49" y1="192.19" x2="2556.25" y2="281.23"/><line class="cls-14" x1="2714.75" y1="298.44" x2="2555.63" y2="374.72"/><polyline class="cls-4" points="2554.5 13.5 2554.5 65.09 2554.5 65.5"/><polyline class="cls-4" points="2554.5 233.5 2554.5 465.7 2554.5 465.5"/><ellipse class="cls-12" cx="2554.31" cy="559.33" rx="117.19" ry="17.25"/><ellipse class="cls-12" cx="1356.06" cy="525.79" rx="117.19" ry="17.25" transform="translate(-13 34.84) rotate(-1.46)"/><path class="cls-8" d="M1487.85,328.13c-47.21,86.49-132.32,132.2-132.32,132.2s-165-87.54-165-249.54c0-104,73.43-164,164-164s164,60,164,164A236.31,236.31,0,0,1,1517,238h0C1513.08,271.72,1502.22,301.82,1487.85,328.13Z"/><line class="cls-11" x1="1516.96" y1="237.98" x2="1527.19" y2="233.12"/><line class="cls-11" x1="1354.89" y1="315.06" x2="1516.96" y2="237.99"/><polyline class="cls-11" points="1354.38 392.12 1487.85 328.13 1503.85 320.46"/><path class="cls-15" d="M1541.06,214.14q51.38-42.08,97.86-29.85,22.51,5.87,32.78,22.75,11.74,19.08-.24,40.86a51.37,51.37,0,0,1-11.87,13.82,84.43,84.43,0,0,1-13.58,9.66q-6.12,3.43-14.92,7.34-15.91,7.1-41.59,10.76L1587.3,314q-1.23,16.15-1.71,23.49a6.66,6.66,0,0,1-2.32,4.53,6.1,6.1,0,0,1-4.77,1.59,6.63,6.63,0,0,1-4.53-2.32,6.1,6.1,0,0,1-1.59-4.77l2.2-25.93q1.47-19.82,2.32-29.24t2.57-25.32q1.71-15.9,3.91-29.11t4.89-25.93q-19.08,7.34-38.9,23.49a6.71,6.71,0,0,1-4.89,1.47,6.06,6.06,0,0,1-4.4-2.45,6.71,6.71,0,0,1-1.47-4.89A6.07,6.07,0,0,1,1541.06,214.14Zm59.7-17.13a5.72,5.72,0,0,1,.73,4.89q-6.85,30.83-10.76,74.13,21.28-3.42,35-9.54A148.36,148.36,0,0,0,1647,255.24a42.09,42.09,0,0,0,12.72-13.7q8.56-15.17.73-27.65-7.34-12.23-25-16.88A69.58,69.58,0,0,0,1600.75,197Z"/><path class="cls-15" d="M1856.41,288.63a6.43,6.43,0,0,0-4.16-2.93,6.36,6.36,0,0,0-5,.85,5.94,5.94,0,0,0-2.74,3.8,72.66,72.66,0,0,0,5.06,25.07c.25.62.5,1.24.76,1.84a206.3,206.3,0,0,0,6.82-23.61A6,6,0,0,0,1856.41,288.63Z"/><path class="cls-15" d="M1849.56,315.42a72.66,72.66,0,0,1-5.06-25.07c0,.12-.06.24-.08.36a186.05,186.05,0,0,1-8.68,27.53,63.55,63.55,0,0,1-13.09,19.45q.24-9.06.12-23.49t.12-20.31c0-1,.31-4.73.8-11.25.16-2.94.55-5.14.55-6.61V270.9c0-.33-.43-.78-.67-1.35a11.07,11.07,0,0,0-.89-1.59,6.37,6.37,0,0,0-5.64-2.45,6.27,6.27,0,0,0-4.17,1.72,6.7,6.7,0,0,0-1.71,2.69c-.16.49-.41,1.14-.73,1.95q-.25,1.47-1.47,5.88-2.7,10.52-4.16,15.16-6.12,19.09-10.52,28.38a72.1,72.1,0,0,1-7.59,13.71q-3.66,4.65-6.6,5.38a3.9,3.9,0,0,1-3.18-.25,6.26,6.26,0,0,1-2.2-3.18q-2.46-6.6-1.47-20.79t7.09-42.33a6,6,0,0,0-.73-5,6.66,6.66,0,0,0-9.18-2.08,6,6,0,0,0-2.81,4.16q-1.84,8.14-3.25,15.21a5.61,5.61,0,0,0-.42.93q-.5,1.23-5.13,15.91a152.06,152.06,0,0,1-6.61,18.83q-4.41,9.54-8.81,13.46a9.55,9.55,0,0,1-9,2.45q-5.39-1.47-8.07-8.08-2-5.87-2-15.66c0-.48.16-2.28.49-5.38q.24-4.16.73-8.32,0-.24,1.47-8.07s1.17-12.88-.13-14.19c-.16-.16-1.22-4.89-1.71-6.36-1.47-3.26-4.74-6.44-10-9.54q-13.95-7.59-26.88,2.2-9.55,7.59-15.89,23.49a90.13,90.13,0,0,0-6.59,28.87q-.74,16.63,6.11,24.71,9.3,11,20.8,7.58,8.31-2.45,15.9-12.72a44.19,44.19,0,0,0,4.16-6.12A22.39,22.39,0,0,0,1714,334q4.65,13,16.89,16.39,11.49,3.18,21-5.14a41.87,41.87,0,0,0,8.7-10.92,37.21,37.21,0,0,0,1.81,7q2.45,6.84,7.34,10,5.63,3.42,13.21,1.71,7.35-1.47,13.95-10a79.72,79.72,0,0,0,9.54-16.15l3.18-7.58q0,14.67-.24,24c-.17,1.8-.25,3.51-.25,5.14l-2.44,1.71q-10,6.61-14,9.55-17.61,13.7-19.57,30.09a20.35,20.35,0,0,0,3.06,13.94,16.79,16.79,0,0,0,11.13,7.83,18.07,18.07,0,0,0,14.43-2.81q6.86-4.53,11.5-14.31,6.62-14,8.56-38.66c2-1.47,3.75-2.94,5.39-4.4q13-11.25,19.08-24.47,2.05-4.44,3.94-9.66C1850.06,316.66,1849.81,316,1849.56,315.42Zm-137.32-18.84s-.17,2.78-.33,3.43a93.45,93.45,0,0,1-5.31,13.46,76.94,76.94,0,0,1-8.52,14.67c-3.42,4.57-6.42,7.26-9,8.08-2.12.65-4.39-.41-6.84-3.18s-3.51-8-3.17-15.66a70.35,70.35,0,0,1,5.63-24.71q4.89-12.48,11.74-17.86,6.11-4.65,12.48-1,4.15,2.2,3.91,2.69a9.11,9.11,0,0,1,.49,2.2c.32,2.94.57,5,.73,6.12.16,0,.17.09.17.25C1714,285.41,1713.24,292.35,1712.24,296.58Zm89.37,92a23.27,23.27,0,0,1-4.77,7.34,11,11,0,0,1-4,2.82,5.25,5.25,0,0,1-2.45.12,5.68,5.68,0,0,1-3-2.45,6.9,6.9,0,0,1-.86-5.13q1.21-10.77,14.43-21l6.85-4.9Q1805.53,380,1801.61,388.57Z"/><path class="cls-15" d="M1956,301.32c.12,0,.24-.18.42-.66Z"/><path class="cls-15" d="M2035.79,293.65a157.21,157.21,0,0,1-10.52,33.27q-11,24-27.65,25a17.45,17.45,0,0,1-13.21-4.53,25.71,25.71,0,0,1-7.71-11.74q-2.09-6.74-.37-19.21a170.29,170.29,0,0,1,4.16-21.28q1-3.18,2.45-9.55l2.2-8.8.49-2c-5.38-.32-13.51-2.19-18.56-3.17,0,0-1.46,6.33-8.46,19.46-13.13,24.61-25.9,39.2-39.82,46.71q-21.54,11.61-40.86,5.75-19-6.09-27.62-26.3c-.26-.6-.51-1.22-.76-1.84a72.66,72.66,0,0,1-5.06-25.07,123.12,123.12,0,0,1,2.61-28.26,135.78,135.78,0,0,1,20.55-50.16q14.93-22.26,31.32-28.13,9.3-3.67,17.13-.49,8.55,3.18,13,13.21,8.56,18.84,1.71,59.94a6.78,6.78,0,0,1-7.58,5.51,6.09,6.09,0,0,1-4.28-2.57,7.05,7.05,0,0,1-1.35-4.9q6.36-37.43-.49-52.6c-1.63-3.26-3.51-5.38-5.62-6.36-2.12-.81-4.74-.65-7.83.49q-12.48,4.65-25.57,24t-18.22,44.52q-5.38,28.14,1.46,45.14t20.55,21.17q13.95,4.16,31.44-5.14c11.66-6.2,21.45-18.85,31.7-33.35,9-12.74,15-32,16.42-32.95a5.72,5.72,0,0,1,4.89-.77c6.85,1.64,13.62,3.15,20.31,3.15h.24a19.31,19.31,0,0,1,2.21-.21c3.91-.49,6.85.66,8.8,3.43a8,8,0,0,1,1.47,4.91,27.32,27.32,0,0,1-.24,3.18q-.25,2.2-1.23,6.6l-2.44,9.06q-1.72,6.36-2.45,9.54a179.88,179.88,0,0,0-3.91,19.81q-1.47,9.54,0,13.7a10.94,10.94,0,0,0,3.18,5.14,6.25,6.25,0,0,0,4.89,1.72q8.8-.5,16.64-17.38a138.59,138.59,0,0,0,9.78-30.09,5.59,5.59,0,0,1,2.57-4.28,5.73,5.73,0,0,1,4.77-1,6.85,6.85,0,0,1,4,2.94A5.4,5.4,0,0,1,2035.79,293.65Z"/><path class="cls-15" d="M2077.62,300.26q-.49,4.16-.73,8.32-.49,4.65-.49,5.38,0,9.79,2,15.66,2.69,6.61,8.07,8.07a9.55,9.55,0,0,0,9.05-2.45q4.4-3.91,8.81-13.46a151.37,151.37,0,0,0,6.61-18.84q4.65-14.68,5.14-15.9a6.54,6.54,0,0,1,12.11-.49,6,6,0,0,1,.12,4.89q-.25,1-4.65,15.41a179.56,179.56,0,0,1-7.34,20.55q-5.38,12-12.23,17.86-9.54,8.31-21,5.14Q2070.77,347,2066.12,334a22,22,0,0,1-1.22-3.92,44.37,44.37,0,0,1-4.16,6.12q-7.58,10.27-15.9,12.72-11.5,3.42-20.79-7.58-6.85-8.07-6.12-24.71a90.08,90.08,0,0,1,6.61-28.87q6.36-15.9,15.9-23.49,13-9.78,26.91-2.2c5.22,3.1,7,3.33,10,9.54S2079.24,292.85,2077.62,300.26ZM2066.9,282c-1-5.25-3.14-6.68-5.91-8.15q-6.36-3.67-12.48,1-6.85,5.38-11.74,17.86a70.57,70.57,0,0,0-5.63,24.71q-.49,11.5,3.18,15.66t6.85,3.18q3.91-1.22,9.05-8.07a77.38,77.38,0,0,0,8.56-14.68c2.61-5.54,5.71-14.68,5.87-15.17C2064.65,298.3,2067.9,287.24,2066.9,282Z"/><path class="cls-15" d="M2133.16,269.43q-5.14,21.78-5.63,38.66-.49,12,1.71,19.82,2.2,7.34,6.12,9.3,6.85,3.18,15.17-3.67,9-7.58,15.9-23l1.22-2.69a34.36,34.36,0,0,1-11.5-14.19Q2150.28,280,2154,268a16.26,16.26,0,0,1,7.34-10q6.36-3.42,14.19.24,12.23,5.63,11.5,25a82.67,82.67,0,0,1-2.45,16.88q10.28,0,24-10.76a7.78,7.78,0,0,1,5.26-1.47,6.19,6.19,0,0,1,4.53,2.45,6.75,6.75,0,0,1,1.47,4.89,6.07,6.07,0,0,1-2.45,4.4Q2197,315.43,2180.13,313l-1.22,2.69q-8.07,18.11-19.33,27.89-15.41,12.48-30.34,5.38-9.54-4.65-13.46-17.62-2.45-9.54-2-23.73.73-18.1,6.12-41.1a5.91,5.91,0,0,1,2.94-4.16,6.75,6.75,0,0,1,5.14-.86,6.89,6.89,0,0,1,4.28,2.94A5.8,5.8,0,0,1,2133.16,269.43Zm30.34,0a9.42,9.42,0,0,0-1,2.2q-2.2,7.59,1.71,16.88a22.13,22.13,0,0,0,2.94,5.14,70.61,70.61,0,0,0,1.47-10.77q.24-10.76-3.91-13A9,9,0,0,1,2163.49,269.43Z"/><path class="cls-15" d="M2214.62,321.05a25.18,25.18,0,0,0,3.67,11.5q6.11,9.05,21,5.63,12.23-2.94,19.08-15.9a95.15,95.15,0,0,0,4.4-9.66q2-5,4.16-11.62t3.92-11.25a6.6,6.6,0,0,1,12.11-.24,6.61,6.61,0,0,1,.12,5.14l-3.42,10.28q-2.45,6.85-4.65,12.72a97.76,97.76,0,0,1-4.89,11q-9.54,18.11-27.89,22.26-23.73,5.63-34.74-11-8.81-13-5.63-34.25,2.69-19.82,13-33.27a36.25,36.25,0,0,1,13-10.89,20.37,20.37,0,0,1,15.66-.86q13.95,4.9,14.68,20.06.73,11.74-7.09,23.73Q2243,316.89,2231,320.81A26.79,26.79,0,0,1,2214.62,321.05Zm.24-14.19a14.23,14.23,0,0,0,12,1.47q7.58-2.69,13.21-11.25,5.38-8.31,4.89-15.66-.25-6.36-5.87-8.07-6.6-2.44-13.7,7.1Q2217.31,291,2214.87,306.86Z"/><path class="cls-15" d="M1712.07,299.36"/><circle class="cls-16" cx="1358.86" cy="181.34" r="81.9"/><line class="cls-11" x1="1355.74" y1="46.79" x2="1355.74" y2="460.79"/><line class="cls-11" x1="1356.74" y1="158.42" x2="1494.57" y2="92.46"/><line class="cls-11" x1="1356.74" y1="238.2" x2="1525.91" y2="161.12"/><path class="cls-15" d="M315.2,158.25q51.38-42.08,97.86-29.85,22.51,5.87,32.78,22.75,11.74,19.08-.24,40.86a51.37,51.37,0,0,1-11.87,13.82,84.43,84.43,0,0,1-13.58,9.66q-6.12,3.43-14.92,7.34-15.91,7.1-41.59,10.76l-2.2,24.47q-1.23,16.15-1.71,23.49a6.66,6.66,0,0,1-2.32,4.53,6.1,6.1,0,0,1-4.77,1.59,6.63,6.63,0,0,1-4.53-2.32,6.1,6.1,0,0,1-1.59-4.77l2.2-25.93q1.47-19.82,2.32-29.24t2.57-25.32q1.71-15.9,3.91-29.11T362.42,145q-19.08,7.34-38.9,23.49a6.71,6.71,0,0,1-4.89,1.47,6.06,6.06,0,0,1-4.4-2.45,6.71,6.71,0,0,1-1.47-4.89A6.07,6.07,0,0,1,315.2,158.25Zm59.7-17.13a5.72,5.72,0,0,1,.73,4.89q-6.85,30.83-10.76,74.13,21.28-3.42,35-9.54a148.36,148.36,0,0,0,21.29-11.25,42.09,42.09,0,0,0,12.72-13.7q8.56-15.17.73-27.65-7.34-12.23-25-16.88A69.58,69.58,0,0,0,374.9,141.12Z"/><path class="cls-15" d="M630.56,232.74a6.43,6.43,0,0,0-4.16-2.93,6.36,6.36,0,0,0-5,.85,5.94,5.94,0,0,0-2.74,3.8,72.66,72.66,0,0,0,5.06,25.07c.25.62.5,1.24.76,1.84a206.3,206.3,0,0,0,6.82-23.61A6,6,0,0,0,630.56,232.74Z"/><path class="cls-15" d="M623.71,259.53a72.66,72.66,0,0,1-5.06-25.07c0,.12-.06.24-.08.36a186.05,186.05,0,0,1-8.68,27.53A63.55,63.55,0,0,1,596.8,281.8q.24-9.06.12-23.49T597,238a106.59,106.59,0,0,1,.3-11.25c.16-2.94,0-5.14,0-6.61V215a2.94,2.94,0,0,0-.17-1.35,10.34,10.34,0,0,0-.64-1.59,6.64,6.64,0,0,0-9.62-.73,6.62,6.62,0,0,0-1.68,2.69c-.16.49-.4,1.14-.72,1.95-.17,1-.65,2.94-1.46,5.88q-2.7,10.52-4.16,15.16-6.12,19.09-10.52,28.38a72.11,72.11,0,0,1-7.59,13.71q-3.66,4.65-6.6,5.38a3.9,3.9,0,0,1-3.18-.25,6.26,6.26,0,0,1-2.2-3.18q-2.46-6.6-1.47-20.79t7.09-42.33a6,6,0,0,0-.73-5,6.66,6.66,0,0,0-9.18-2.08,6,6,0,0,0-2.81,4.16q-1.84,8.14-3.25,15.21a5.61,5.61,0,0,0-.42.93q-.5,1.23-5.13,15.91a152.06,152.06,0,0,1-6.61,18.83q-4.41,9.54-8.81,13.46a9.55,9.55,0,0,1-9,2.45q-5.39-1.47-8.07-8.08-2-5.87-2-15.66c0-.48.16-2.28.49-5.38q.24-4.16.73-8.32,0-.24,1.47-8.07s1.17-12.88-.13-14.19c-.16-.16-1.22-4.89-1.71-6.36-1.47-3.26-4.74-6.44-10-9.54q-13.95-7.59-26.88,2.2-9.55,7.59-15.89,23.49A90.13,90.13,0,0,0,440,260.76q-.74,16.63,6.11,24.71,9.3,11,20.8,7.58,8.31-2.45,15.9-12.72a44.19,44.19,0,0,0,4.16-6.12,22.39,22.39,0,0,0,1.22,3.92q4.65,13,16.89,16.39,11.49,3.18,21-5.14a41.87,41.87,0,0,0,8.7-10.92,37.21,37.21,0,0,0,1.81,7q2.45,6.84,7.34,10,5.63,3.42,13.21,1.71,7.35-1.47,13.95-10A79.72,79.72,0,0,0,580.65,271l3.18-7.58q0,14.67-.24,24c-.17,1.8-.25,3.51-.25,5.14l-2.44,1.71q-10,6.61-14,9.55-17.61,13.7-19.57,30.09a20.35,20.35,0,0,0,3.06,13.94,16.79,16.79,0,0,0,11.13,7.83A18.07,18.07,0,0,0,576,352.87q6.86-4.53,11.5-14.31,6.62-14,8.56-38.66c2-1.47,3.75-2.94,5.39-4.4q13-11.25,19.08-24.47,2.05-4.44,3.94-9.66C624.21,260.77,624,260.15,623.71,259.53ZM486.39,240.69s-.17,2.78-.33,3.43a93.45,93.45,0,0,1-5.31,13.46,76.94,76.94,0,0,1-8.52,14.67c-3.42,4.57-6.42,7.26-9,8.08-2.12.65-4.39-.41-6.84-3.18s-3.51-8-3.17-15.66a70.35,70.35,0,0,1,5.63-24.71q4.89-12.48,11.74-17.86,6.11-4.65,12.48-1,4.15,2.2,3.91,2.69a9.11,9.11,0,0,1,.49,2.2c.32,2.94.57,5,.73,6.12.16,0,.17.09.17.25C488.17,229.52,487.39,236.46,486.39,240.69Zm89.37,92A23.27,23.27,0,0,1,571,340a11,11,0,0,1-4,2.82,5.25,5.25,0,0,1-2.45.12,5.68,5.68,0,0,1-3-2.45,6.9,6.9,0,0,1-.86-5.13q1.21-10.77,14.43-21l6.85-4.9Q579.68,324.13,575.76,332.68Z"/><path class="cls-15" d="M730.12,245.43c.12,0,.24-.18.42-.66Z"/><path class="cls-15" d="M809.94,237.76A157.21,157.21,0,0,1,799.42,271q-11,24-27.65,25a17.45,17.45,0,0,1-13.21-4.53,25.71,25.71,0,0,1-7.71-11.74q-2.09-6.74-.37-19.21a170.29,170.29,0,0,1,4.16-21.28q1-3.18,2.45-9.55l2.2-8.8.49-2c-5.38-.32-13.51-2.19-18.56-3.17,0,0-1.46,6.33-8.46,19.46-13.13,24.61-25.9,39.2-39.82,46.71q-21.54,11.61-40.86,5.75-19-6.09-27.62-26.3c-.26-.6-.51-1.22-.76-1.84a72.66,72.66,0,0,1-5.06-25.07,123.12,123.12,0,0,1,2.61-28.26A135.78,135.78,0,0,1,641.81,156q14.93-22.26,31.32-28.13,9.3-3.67,17.13-.49,8.55,3.18,13,13.21,8.56,18.84,1.71,59.94a6.78,6.78,0,0,1-7.58,5.51,6.09,6.09,0,0,1-4.28-2.57,7.05,7.05,0,0,1-1.35-4.9q6.36-37.43-.49-52.6c-1.63-3.26-3.51-5.38-5.62-6.36-2.12-.81-4.74-.65-7.83.49q-12.48,4.65-25.57,24T634,208.64q-5.38,28.14,1.46,45.14T656,275q13.95,4.16,31.44-5.14c11.66-6.2,21.45-18.85,31.7-33.35,9-12.74,15-32,16.42-32.95a5.66,5.66,0,0,1,4.89-.46c6.85,1.64,13.62,3.46,20.31,3.46H761a8.56,8.56,0,0,1,2.21-.52c3.91-.49,6.85.51,8.8,3.28a7.73,7.73,0,0,1,1.47,4.83,26.76,26.76,0,0,1-.24,3.15c-.17,1.47-.58,3.65-1.23,6.58l-2.44,9.05q-1.72,6.36-2.45,9.54a179.86,179.86,0,0,0-3.91,19.81q-1.47,9.54,0,13.7a10.94,10.94,0,0,0,3.18,5.14,6.25,6.25,0,0,0,4.89,1.72q8.8-.5,16.64-17.38a138.59,138.59,0,0,0,9.78-30.09,5.59,5.59,0,0,1,2.57-4.28,5.73,5.73,0,0,1,4.77-1,6.85,6.85,0,0,1,4,2.94A5.4,5.4,0,0,1,809.94,237.76Z"/><path class="cls-15" d="M851.77,244.37q-.49,4.16-.73,8.32-.49,4.65-.49,5.38,0,9.79,2,15.66,2.69,6.61,8.07,8.07a9.55,9.55,0,0,0,9.05-2.45q4.4-3.91,8.81-13.46A151.37,151.37,0,0,0,885,247.06q4.65-14.68,5.14-15.9a6.54,6.54,0,0,1,12.11-.49,6,6,0,0,1,.12,4.89q-.25,1-4.65,15.41a179.56,179.56,0,0,1-7.34,20.55q-5.38,12-12.23,17.86-9.54,8.31-21,5.14-12.24-3.43-16.88-16.39a22,22,0,0,1-1.22-3.92,44.37,44.37,0,0,1-4.16,6.12q-7.58,10.27-15.9,12.72-11.5,3.42-20.79-7.58-6.85-8.07-6.12-24.71a90.08,90.08,0,0,1,6.61-28.87Q805,216,814.58,208.4q13-9.78,26.91-2.2c5.22,3.1,7,3.33,10,9.54S853.39,237,851.77,244.37ZM841,226.1c-1-5.25-3.14-6.68-5.91-8.15q-6.36-3.67-12.48,1-6.85,5.38-11.74,17.86a70.57,70.57,0,0,0-5.63,24.71q-.49,11.5,3.18,15.66t6.85,3.18q3.91-1.22,9.05-8.07a77.38,77.38,0,0,0,8.56-14.68c2.61-5.54,5.71-14.68,5.87-15.17C838.8,242.41,842,231.35,841,226.1Z"/><path class="cls-15" d="M907.3,213.54q-5.14,21.78-5.63,38.66-.49,12,1.71,19.82,2.2,7.34,6.12,9.3,6.85,3.18,15.17-3.67,9-7.58,15.9-23L941.8,252a34.36,34.36,0,0,1-11.5-14.19q-5.87-13.7-2.2-25.69a16.26,16.26,0,0,1,7.34-10q6.36-3.42,14.19.24,12.23,5.63,11.5,25a82.67,82.67,0,0,1-2.45,16.88q10.28,0,24-10.76a7.78,7.78,0,0,1,5.26-1.47,6.19,6.19,0,0,1,4.53,2.45,6.75,6.75,0,0,1,1.47,4.89,6.07,6.07,0,0,1-2.45,4.4q-20.31,15.91-37.19,13.46l-1.22,2.69q-8.07,18.11-19.33,27.89-15.41,12.48-30.34,5.38-9.54-4.65-13.46-17.62-2.45-9.54-2-23.73.73-18.1,6.12-41.1a5.91,5.91,0,0,1,2.94-4.16,6.75,6.75,0,0,1,5.14-.86,6.89,6.89,0,0,1,4.28,2.94A5.8,5.8,0,0,1,907.3,213.54Zm30.34,0a9.42,9.42,0,0,0-1,2.2q-2.2,7.59,1.71,16.88a22.13,22.13,0,0,0,2.94,5.14A70.61,70.61,0,0,0,942.78,227q.24-10.76-3.91-13A9,9,0,0,1,937.64,213.54Z"/><path class="cls-15" d="M988.77,265.16a25.18,25.18,0,0,0,3.67,11.5q6.11,9.05,21,5.63,12.23-2.94,19.08-15.9a95.15,95.15,0,0,0,4.4-9.66q2-5,4.16-11.62t3.92-11.25a6.6,6.6,0,0,1,12.11-.24,6.61,6.61,0,0,1,.12,5.14L1053.85,249q-2.45,6.85-4.65,12.72a97.76,97.76,0,0,1-4.89,11q-9.54,18.11-27.89,22.26-23.73,5.63-34.74-11-8.81-13-5.63-34.25,2.69-19.82,13-33.27a36.25,36.25,0,0,1,13-10.89,20.37,20.37,0,0,1,15.66-.86q13.95,4.9,14.68,20.06.73,11.74-7.09,23.73-8.07,12.48-20.06,16.39A26.79,26.79,0,0,1,988.77,265.16ZM989,251a14.23,14.23,0,0,0,12,1.47q7.58-2.69,13.21-11.25,5.38-8.31,4.89-15.66-.25-6.36-5.87-8.07-6.6-2.44-13.7,7.1Q991.46,235.07,989,251Z"/><path class="cls-15" d="M486.22,243.47"/><ellipse class="cls-12" cx="135.2" cy="497.35" rx="117.19" ry="17.25"/><path class="cls-1" d="M132,406.32S0,336.28,0,206.68c0-83.2,58.74-131.2,131.2-131.2s131.2,48,131.2,131.2C262.4,336.28,132,406.32,132,406.32"/><g class="cls-17"><polyline class="cls-18" points="132.3 290.9 261.95 229.25 270.14 225.35"/><polyline class="cls-18" points="131.89 352.55 238.67 301.36 251.47 295.22"/><line class="cls-19" x1="131.89" y1="407.51" x2="131.89" y2="249.51"/><line class="cls-19" x1="131.89" y1="121.51" x2="131.89" y2="74.51"/><line class="cls-20" x1="244.04" y1="112.82" x2="181.78" y2="145.88"/><line class="cls-20" x1="269.11" y1="167.74" x2="191.68" y2="203.88"/></g><circle class="cls-16" cx="131.2" cy="187.95" r="69.62"/></g></g></svg>