<svg xmlns="http://www.w3.org/2000/svg" viewBox="0 0 1001.67 602.67"><defs><style>.cls-1{fill:#f7f8f9;}.cls-2,.cls-36{fill:#464646;}.cls-10,.cls-19,.cls-22,.cls-29,.cls-3,.cls-30,.cls-31,.cls-37,.cls-7,.cls-8,.cls-9{fill:#fff;}.cls-28,.cls-3,.cls-34,.cls-6{stroke:#777;}.cls-10,.cls-11,.cls-12,.cls-13,.cls-14,.cls-22,.cls-23,.cls-24,.cls-25,.cls-26,.cls-27,.cls-28,.cls-29,.cls-3,.cls-30,.cls-31,.cls-32,.cls-34,.cls-35,.cls-36,.cls-37,.cls-38,.cls-5,.cls-6,.cls-7,.cls-8,.cls-9{stroke-miterlimit:10;}.cls-3{stroke-width:0.5px;}.cls-4{fill:#e6e6e6;}.cls-11,.cls-21,.cls-23,.cls-27,.cls-28,.cls-32,.cls-34,.cls-38,.cls-5,.cls-6{fill:none;}.cls-11,.cls-12,.cls-13,.cls-14,.cls-22,.cls-27,.cls-32,.cls-35,.cls-36,.cls-37,.cls-38,.cls-5,.cls-8{stroke:#464646;}.cls-10,.cls-24,.cls-25,.cls-26,.cls-28,.cls-34,.cls-35,.cls-5,.cls-6,.cls-7,.cls-8,.cls-9{stroke-width:2px;}.cls-20,.cls-21,.cls-33,.cls-6{opacity:0.41;}.cls-24,.cls-29,.cls-7{stroke:#39f;}.cls-26,.cls-31,.cls-9{stroke:#f60;}.cls-10,.cls-25,.cls-30{stroke:#6cc;}.cls-11,.cls-12,.cls-13,.cls-14,.cls-22,.cls-29,.cls-30,.cls-31{stroke-width:2px;}.cls-12,.cls-15,.cls-26{fill:#f60;}.cls-13,.cls-16,.cls-24,.cls-35{fill:#39f;}.cls-14,.cls-17,.cls-25{fill:#6cc;}.cls-18,.cls-20{fill:#777;}.cls-18{opacity:0.4;}.cls-23{stroke:#eaedf2;}.cls-27{stroke-width:1.97px;}.cls-28{opacity:0.22;}.cls-32{stroke-width:1.71px;}.cls-36{stroke-width:1.36px;}.cls-37,.cls-38{stroke-width:1.94px;}</style></defs><title>Asset 8</title><g id="Layer_2" data-name="Layer 2"><g id="Layer_1-2" data-name="Layer 1"><rect class="cls-1" width="1001.67" height="602.67"/><path class="cls-2" d="M31.93,40.67V26.42h8.84v1.36H33.45v5h6.24v1.36H33.45V39.3h7.32v1.36Z"/><path class="cls-2" d="M50.83,40.67l-3.46-6-3.48,6H42.17l4.36-7.3-4.08-6.94h1.76L47.37,32l3.16-5.62h1.76l-4.1,6.94,4.4,7.3Z"/><path class="cls-2" d="M63.25,40.67l-1.14-3.22H55.89l-1.14,3.22H53.13l5.24-14.24h1.28l5.22,14.24ZM59,28.6l-2.68,7.52h5.32Z"/><path class="cls-2" d="M77.85,40.67V29.84l-3.9,8.58h-1.3l-4-8.58V40.67H67.17V26.42h1.52l4.64,10.1,4.52-10.1h1.52V40.67Z"/><path class="cls-2" d="M88.79,34.8H85v5.86H83.49V26.42h5.3a4.2,4.2,0,1,1,0,8.38Zm-.14-7H85v5.66h3.64a2.7,2.7,0,0,0,3-2.84C91.67,28.72,90.43,27.78,88.65,27.78Z"/><path class="cls-2" d="M96.09,40.67V26.42h1.52V39.3h7.28v1.36Z"/><path class="cls-2" d="M107.55,40.67V26.42h8.84v1.36h-7.32v5h6.24v1.36h-6.24V39.3h7.32v1.36Z"/><path class="cls-2" d="M123.21,40.79a6.21,6.21,0,0,1-4.88-1.88l1-1a4.89,4.89,0,0,0,3.88,1.56c2.08,0,3.36-1,3.36-2.64a2.29,2.29,0,0,0-.68-1.78,3.07,3.07,0,0,0-1.86-.68l-1.66-.26A5.18,5.18,0,0,1,119.79,33a3.37,3.37,0,0,1-1.08-2.66c0-2.42,1.74-4,4.56-4a5.72,5.72,0,0,1,4.24,1.56l-1,1a4.49,4.49,0,0,0-3.32-1.22c-1.9,0-3,1.06-3,2.64a2.06,2.06,0,0,0,.64,1.64,4.1,4.1,0,0,0,1.92.78l1.56.24a4.58,4.58,0,0,1,2.6,1,3.57,3.57,0,0,1,1.2,2.82C128.13,39.24,126.17,40.79,123.21,40.79Z"/><path d="M233.17,191.29v7.38h-1.29v-7.38h-2.35v-1.16h6v1.16Z"/><path d="M237,198.67v-8.54h5.46v1.16H238.3v2.5h3.55v1.15H238.3v2.57h4.16v1.16Z"/><path d="M247,198.74a3.1,3.1,0,0,1-2.24-.91c-.84-.84-.83-1.79-.83-3.43s0-2.59.83-3.43a3.1,3.1,0,0,1,2.24-.91,2.94,2.94,0,0,1,3,2.63h-1.32a1.77,1.77,0,0,0-3-.95c-.42.46-.52.95-.52,2.66s.1,2.21.52,2.66a1.71,1.71,0,0,0,1.26.52,1.73,1.73,0,0,0,1.74-1.46H250A3,3,0,0,1,247,198.74Z"/><path d="M256.54,198.67v-3.73h-3.47v3.73h-1.3v-8.54h1.3v3.65h3.47v-3.65h1.29v8.54Z"/><path d="M265.31,198.67l-3.95-6v6h-1.3v-8.54h1.19l3.95,6v-6h1.29v8.54Z"/><path d="M273.74,197.83a3.23,3.23,0,0,1-4.5,0c-.84-.84-.83-1.79-.83-3.43s0-2.59.83-3.43a3.23,3.23,0,0,1,4.5,0c.84.84.82,1.79.82,3.43S274.58,197,273.74,197.83Zm-1-6.08a1.79,1.79,0,0,0-2.54,0c-.42.46-.5.94-.5,2.65s.08,2.19.5,2.65a1.8,1.8,0,0,0,2.54,0c.42-.46.5-.94.5-2.65S273.18,192.2,272.76,191.75Z"/><path d="M276.48,198.67v-8.54h1.3v7.38h4.11v1.16Z"/><path d="M288,197.83a3.23,3.23,0,0,1-4.5,0c-.84-.84-.83-1.79-.83-3.43s0-2.59.83-3.43a3.23,3.23,0,0,1,4.5,0c.84.84.82,1.79.82,3.43S288.86,197,288,197.83Zm-1-6.08a1.79,1.79,0,0,0-2.54,0c-.42.46-.5.94-.5,2.65s.08,2.19.5,2.65a1.8,1.8,0,0,0,2.54,0c.42-.46.5-.94.5-2.65S287.46,192.2,287,191.75Z"/><path d="M295.87,197.77a3.27,3.27,0,0,1-4.59.06c-.84-.84-.83-1.79-.83-3.43s0-2.59.83-3.43a3.06,3.06,0,0,1,2.24-.91,3,3,0,0,1,3.11,2.65h-1.31a1.74,1.74,0,0,0-1.8-1.49,1.72,1.72,0,0,0-1.26.53c-.42.46-.52.94-.52,2.65s.1,2.21.52,2.66a1.71,1.71,0,0,0,1.26.52,1.81,1.81,0,0,0,1.39-.6,1.92,1.92,0,0,0,.43-1.34v-.48h-1.82V194h3.12v1.31A3.2,3.2,0,0,1,295.87,197.77Z"/><path d="M301.22,195.15v3.51h-1.3v-3.51l-2.55-5h1.42l1.79,3.75,1.79-3.75h1.42Z"/><rect class="cls-3" x="216.5" y="72.34" width="100" height="100"/><path class="cls-4" d="M250.81,158c52.09-19.89,46.59-60.56,46.59-60.56s19.35,24-1,49.83C279.92,168.15,250.81,158,250.81,158Z"/><path class="cls-5" d="M306,122a38.76,38.76,0,0,1-10,26h0l-.16.18a39.06,39.06,0,0,1-9.64,7.7c-.75.43-1.52.83-2.3,1.21l-.86.4-.87.38-1.24.5A38.91,38.91,0,0,1,267,160.94h-1A38.94,38.94,0,1,1,306,122Z"/><line class="cls-6" x1="266.07" y1="103.83" x2="233.06" y2="103.83"/><circle class="cls-7" cx="265.63" cy="104.01" r="2.8" transform="translate(-16.42 146.75) rotate(-30)"/><line class="cls-6" x1="306.32" y1="123.08" x2="257.07" y2="123.08"/><circle class="cls-8" cx="257.61" cy="123.07" r="2.8" transform="translate(-27.02 145.29) rotate(-30)"/><polyline class="cls-6" points="228.7 129.45 247.07 129.45 250.45 133.2 282.32 133.2"/><polyline class="cls-6" points="296.7 146.58 278.32 146.58 271.57 140.58 245.95 140.58"/><polyline class="cls-6" points="287.82 89.7 267.7 89.7 262.2 95.33 250.2 95.33"/><line class="cls-6" x1="303.95" y1="109.83" x2="277.82" y2="109.83"/><circle class="cls-9" cx="281.71" cy="133.07" r="2.8" transform="translate(-28.79 158.68) rotate(-30)"/><circle class="cls-8" cx="246.23" cy="140.45" r="2.8" transform="translate(-37.24 141.93) rotate(-30)"/><circle class="cls-10" cx="278.32" cy="109.41" r="2.8" transform="translate(-17.42 153.82) rotate(-30)"/><circle class="cls-8" cx="250.79" cy="95.15" r="2.8" transform="translate(-13.98 138.14) rotate(-30)"/><polyline class="cls-6" points="241.32 150.83 265.82 150.83 270.32 153.45 273.7 153.45"/><circle class="cls-8" cx="276.19" cy="153.06" r="2.8" transform="translate(-39.53 158.6) rotate(-30)"/><polyline class="cls-6" points="228.7 115.83 242.2 115.83 248.32 112.7 260.95 112.7"/><circle class="cls-8" cx="261.82" cy="112.95" r="2.8" transform="translate(-21.4 146.04) rotate(-30)"/><path d="M709.11,191.29v7.38h-1.29v-7.38h-2.35v-1.16h6v1.16Z"/><path d="M717.12,198.67l-.59-1.71h-3.37l-.59,1.71H711.2l3.13-8.54h1l3.13,8.54Zm-2.24-6.61-1.33,3.79h2.63Z"/><path d="M724.43,198.67l-1.8-3.6H721v3.6h-1.3v-8.54H723a2.44,2.44,0,0,1,2.65,2.49,2.24,2.24,0,0,1-1.7,2.27l2,3.78Zm-1.5-7.38H721V194h1.92a1.34,1.34,0,1,0,0-2.67Z"/><path d="M732.69,197.77a3.27,3.27,0,0,1-4.59.06c-.84-.84-.83-1.79-.83-3.43s0-2.59.83-3.43a3.06,3.06,0,0,1,2.24-.91,3,3,0,0,1,3.11,2.65h-1.31a1.74,1.74,0,0,0-1.8-1.49,1.72,1.72,0,0,0-1.26.53c-.42.46-.52.94-.52,2.65s.1,2.21.52,2.66a1.71,1.71,0,0,0,1.26.52,1.81,1.81,0,0,0,1.39-.6,1.92,1.92,0,0,0,.43-1.34v-.48h-1.82V194h3.12v1.31A3.2,3.2,0,0,1,732.69,197.77Z"/><path d="M735.36,198.67v-8.54h5.46v1.16h-4.16v2.5h3.55v1.15h-3.55v2.57h4.16v1.16Z"/><path d="M745.49,191.29v7.38H744.2v-7.38h-2.35v-1.16h6v1.16Z"/><path d="M749.38,199.55H748.2l3.42-10.31h1.18Z"/><path d="M720.25,215.77a3.27,3.27,0,0,1-4.59.06c-.84-.84-.83-1.79-.83-3.43s0-2.59.83-3.43a3.06,3.06,0,0,1,2.24-.91A3,3,0,0,1,721,210.7H719.7a1.74,1.74,0,0,0-1.8-1.49,1.72,1.72,0,0,0-1.26.53c-.42.46-.52.94-.52,2.65s.1,2.21.52,2.66a1.71,1.71,0,0,0,1.26.52,1.81,1.81,0,0,0,1.39-.6,1.92,1.92,0,0,0,.43-1.34v-.48H717.9V212H721v1.31A3.2,3.2,0,0,1,720.25,215.77Z"/><path d="M727.95,215.83a3.23,3.23,0,0,1-4.5,0c-.84-.84-.83-1.79-.83-3.43s0-2.59.83-3.43a3.23,3.23,0,0,1,4.5,0c.84.84.82,1.79.82,3.43S728.79,215,727.95,215.83Zm-1-6.08a1.79,1.79,0,0,0-2.54,0c-.42.46-.5.94-.5,2.65s.08,2.19.5,2.65a1.8,1.8,0,0,0,2.54,0c.42-.46.5-.94.5-2.65S727.38,210.2,727,209.75Z"/><path d="M735.47,216.67l-.59-1.71h-3.37l-.59,1.71h-1.38l3.13-8.54h1l3.13,8.54Zm-2.24-6.61-1.33,3.79h2.63Z"/><path d="M738.06,216.67v-8.54h1.3v7.38h4.11v1.16Z"/><rect class="cls-3" x="678.95" y="72.34" width="100" height="100"/><path class="cls-4" d="M713.51,160c52.09-19.89,46.59-60.56,46.59-60.56s19.35,24-1,49.83C742.61,170.15,713.51,160,713.51,160Z"/><circle class="cls-11" cx="729.42" cy="123.88" r="39"/><circle class="cls-11" cx="729.42" cy="123.88" r="29"/><circle class="cls-11" cx="729.42" cy="123.88" r="19"/><circle class="cls-12" cx="729" cy="123.46" r="9"/><polyline class="cls-13" points="728.93 123.33 762.68 97.33 763.18 86.08 749.93 95.33 750.18 106.99"/><polyline class="cls-14" points="749.77 107.16 762.94 96.32 773.98 98.52 761.84 109.18 749.62 106.86"/><path d="M562.19,198.67V193l-2,4.16h-1l-2-4.16v5.71H556v-8.54h1.3l2.49,5.31,2.45-5.31h1.3v8.54Z"/><path d="M570.72,197.83a3.23,3.23,0,0,1-4.5,0c-.84-.84-.83-1.79-.83-3.43s0-2.59.83-3.43a3.23,3.23,0,0,1,4.5,0c.84.84.82,1.79.82,3.43S571.56,197,570.72,197.83Zm-1-6.08a1.79,1.79,0,0,0-2.54,0c-.42.46-.5.94-.5,2.65s.08,2.19.5,2.65a1.8,1.8,0,0,0,2.54,0c.42-.46.5-.94.5-2.65S570.16,192.2,569.74,191.75Z"/><path d="M576.39,198.74a2.9,2.9,0,0,1-3.06-3v-5.66h1.29v5.6a1.77,1.77,0,1,0,3.54,0v-5.6h1.3v5.66A2.91,2.91,0,0,1,576.39,198.74Z"/><path d="M583.83,198.74a3.87,3.87,0,0,1-3-1.13l.86-.85a2.81,2.81,0,0,0,2.18.82c1.12,0,1.76-.48,1.76-1.31a1.15,1.15,0,0,0-.34-.89,1.48,1.48,0,0,0-.94-.36l-1-.14a2.92,2.92,0,0,1-1.62-.68,2.12,2.12,0,0,1-.62-1.63c0-1.49,1.08-2.51,2.85-2.51a3.55,3.55,0,0,1,2.65,1l-.83.82a2.51,2.51,0,0,0-1.86-.66c-1,0-1.56.58-1.56,1.33a1,1,0,0,0,.32.79,1.91,1.91,0,0,0,1,.4l1,.14a2.82,2.82,0,0,1,1.59.64,2.23,2.23,0,0,1,.7,1.75C586.9,197.8,585.62,198.74,583.83,198.74Z"/><path d="M588.64,198.67v-8.54h5.46v1.16h-4.16v2.5h3.55v1.15h-3.55v2.57h4.16v1.16Z"/><rect class="cls-3" x="524.8" y="72.34" width="100" height="100"/><path class="cls-15" d="M576.35,93.86V82a1.32,1.32,0,0,0-2.64,0V93.86a1.32,1.32,0,0,0,2.64,0Z"/><line class="cls-15" x1="554.52" y1="99.55" x2="546.13" y2="92.15"/><path class="cls-16" d="M555.58,98.49l-8.4-7.4c-1.44-1.27-3.57.84-2.12,2.12l8.4,7.4c1.44,1.27,3.57-.84,2.12-2.12Z"/><line class="cls-15" x1="596.58" y1="99.55" x2="604.98" y2="92.15"/><path class="cls-17" d="M597.64,100.61l8.4-7.4c1.45-1.28-.68-3.39-2.12-2.12l-8.4,7.4c-1.45,1.28.68,3.39,2.12,2.12Z"/><path class="cls-4" d="M564.26,157c17.17-10.17,28.5-34.17,28.5-34.17s2.52,30-8.42,35.17C571.59,164,564.26,157,564.26,157Z"/><line class="cls-5" x1="574.67" y1="98.62" x2="574.67" y2="120.62"/><line class="cls-5" x1="592.92" y1="121.37" x2="556.17" y2="121.37"/><path class="cls-5" d="M592.94,117.38v24.68a18.51,18.51,0,0,1-37,0V117.38a18.51,18.51,0,0,1,18.51-18.51c.42,0,.84,0,1.25,0A18.49,18.49,0,0,1,592.94,117.38Z"/><path d="M397.78,198.67l-.59-1.71h-3.37l-.59,1.71h-1.38l3.13-8.54h1l3.13,8.54Zm-2.24-6.61-1.33,3.79h2.63Z"/><path d="M403.3,198.74a2.9,2.9,0,0,1-3.06-3v-5.66h1.29v5.6a1.77,1.77,0,1,0,3.54,0v-5.6h1.3v5.66A2.91,2.91,0,0,1,403.3,198.74Z"/><path d="M413.68,197.86a3,3,0,0,1-2.21.8h-3v-8.54h3a3,3,0,0,1,2.21.8c.92.92.86,2.17.86,3.41S414.6,196.94,413.68,197.86Zm-.89-6a1.84,1.84,0,0,0-1.45-.58h-1.57v6.21h1.57a1.85,1.85,0,0,0,1.45-.58c.44-.49.46-1.42.46-2.59S413.23,192.36,412.79,191.87Z"/><path d="M416.46,198.67v-8.54h1.3v8.54Z"/><path d="M420,198.67v-8.54h5.46v1.16h-4.16v2.5h3.55v1.15h-3.55v2.57h4.16v1.16Z"/><path d="M432.47,198.67l-3.95-6v6h-1.3v-8.54h1.19l3.95,6v-6h1.29v8.54Z"/><path d="M438.65,198.74a3.1,3.1,0,0,1-2.24-.91c-.84-.84-.83-1.79-.83-3.43s0-2.59.83-3.43a3.1,3.1,0,0,1,2.24-.91,2.94,2.94,0,0,1,3,2.63h-1.32a1.77,1.77,0,0,0-3-.95c-.42.46-.52.95-.52,2.66s.1,2.21.52,2.66a1.71,1.71,0,0,0,1.26.52,1.73,1.73,0,0,0,1.74-1.46h1.31A3,3,0,0,1,438.65,198.74Z"/><path d="M443.43,198.67v-8.54h5.46v1.16h-4.16v2.5h3.55v1.15h-3.55v2.57h4.16v1.16Z"/><path d="M395.43,216.67v-8.54h1.3v8.54Z"/><path d="M404.2,216.67l-3.95-6v6H399v-8.54h1.19l3.95,6v-6h1.29v8.54Z"/><path d="M409.89,216.74a3.87,3.87,0,0,1-3-1.13l.86-.85a2.81,2.81,0,0,0,2.18.82c1.12,0,1.76-.48,1.76-1.31a1.15,1.15,0,0,0-.34-.89,1.48,1.48,0,0,0-.94-.36l-1-.14a2.92,2.92,0,0,1-1.62-.68,2.12,2.12,0,0,1-.62-1.63c0-1.49,1.08-2.51,2.85-2.51a3.55,3.55,0,0,1,2.65,1l-.83.82a2.51,2.51,0,0,0-1.86-.66c-1,0-1.56.58-1.56,1.33a1,1,0,0,0,.32.79,1.91,1.91,0,0,0,1,.4l1,.14a2.82,2.82,0,0,1,1.59.64,2.23,2.23,0,0,1,.7,1.75C413,215.8,411.67,216.74,409.89,216.74Z"/><path d="M414.7,216.67v-8.54H416v8.54Z"/><path d="M423.34,215.77a3.27,3.27,0,0,1-4.59.06c-.84-.84-.83-1.79-.83-3.43s0-2.59.83-3.43a3.06,3.06,0,0,1,2.24-.91,3,3,0,0,1,3.11,2.65h-1.31a1.74,1.74,0,0,0-1.8-1.49,1.72,1.72,0,0,0-1.26.53c-.42.46-.52.94-.52,2.65s.1,2.21.52,2.66a1.71,1.71,0,0,0,1.26.52,1.81,1.81,0,0,0,1.39-.6,1.92,1.92,0,0,0,.43-1.34v-.48H421V212h3.12v1.31A3.2,3.2,0,0,1,423.34,215.77Z"/><path d="M430.78,216.67v-3.73h-3.47v3.73H426v-8.54h1.3v3.65h3.47v-3.65h1.29v8.54Z"/><path d="M437.2,209.29v7.38H435.9v-7.38h-2.35v-1.16h6v1.16Z"/><path d="M443.29,216.74a3.87,3.87,0,0,1-3-1.13l.86-.85a2.81,2.81,0,0,0,2.18.82c1.12,0,1.76-.48,1.76-1.31a1.15,1.15,0,0,0-.34-.89,1.48,1.48,0,0,0-.94-.36l-1-.14a2.92,2.92,0,0,1-1.62-.68,2.12,2.12,0,0,1-.62-1.63c0-1.49,1.08-2.51,2.85-2.51a3.55,3.55,0,0,1,2.65,1l-.83.82a2.51,2.51,0,0,0-1.86-.66c-1,0-1.56.58-1.56,1.33a1,1,0,0,0,.32.79,1.91,1.91,0,0,0,1,.4l1,.14a2.82,2.82,0,0,1,1.59.64,2.23,2.23,0,0,1,.7,1.75C446.37,215.8,445.08,216.74,443.29,216.74Z"/><rect class="cls-3" x="370.65" y="72.34" width="100" height="100"/><rect class="cls-5" x="437.41" y="121.38" width="8" height="45" rx="4" ry="4" transform="translate(32.51 363.76) rotate(-46.32)"/><rect class="cls-16" x="396.92" y="106.08" width="5.23" height="19.67"/><rect class="cls-15" x="406.45" y="111.18" width="5.23" height="14.4"/><rect class="cls-17" x="416.35" y="101.76" width="5.23" height="23.98"/><path class="cls-4" d="M410.08,140.41c22-10.83,22-44.67,22-44.67s10.67,17.83.33,32.5S410.08,140.41,410.08,140.41Z"/><circle class="cls-5" cx="409.44" cy="112.14" r="28.31"/><circle class="cls-5" cx="409.44" cy="112.14" r="22.81"/><path d="M86.68,198.74a3.1,3.1,0,0,1-2.24-.91c-.84-.84-.83-1.79-.83-3.43s0-2.59.83-3.43a3.1,3.1,0,0,1,2.24-.91,2.94,2.94,0,0,1,3,2.63H88.41a1.77,1.77,0,0,0-3-.95c-.42.46-.52.95-.52,2.66s.1,2.21.52,2.66a1.71,1.71,0,0,0,1.26.52,1.73,1.73,0,0,0,1.74-1.46h1.31A3,3,0,0,1,86.68,198.74Z"/><path d="M96.24,198.67,95.66,197H92.29l-.59,1.71H90.32l3.13-8.54h1l3.13,8.54ZM94,192.06l-1.33,3.79H95.3Z"/><path d="M105.07,198.67V193l-2,4.16h-1l-2-4.16v5.71h-1.3v-8.54h1.3l2.49,5.31,2.45-5.31h1.3v8.54Z"/><path d="M111.83,195.31h-1.94v3.36h-1.3v-8.54h3.24a2.59,2.59,0,1,1,0,5.18Zm-.07-4h-1.87v2.84h1.87a1.42,1.42,0,1,0,0-2.84Z"/><path d="M120.45,198.67l-.59-1.71h-3.37l-.59,1.71h-1.38l3.13-8.54h1l3.13,8.54Zm-2.24-6.61-1.33,3.79h2.63Z"/><path d="M123,198.67v-8.54h1.3v8.54Z"/><path d="M131.68,197.77a3.27,3.27,0,0,1-4.59.06c-.84-.84-.83-1.79-.83-3.43s0-2.59.83-3.43a3.06,3.06,0,0,1,2.24-.91,3,3,0,0,1,3.11,2.65h-1.31a1.74,1.74,0,0,0-1.8-1.49,1.72,1.72,0,0,0-1.26.53c-.42.46-.52.94-.52,2.65s.1,2.21.52,2.66a1.71,1.71,0,0,0,1.26.52,1.81,1.81,0,0,0,1.39-.6,1.92,1.92,0,0,0,.43-1.34v-.48h-1.82V194h3.12v1.31A3.2,3.2,0,0,1,131.68,197.77Z"/><path d="M139.6,198.67l-3.95-6v6h-1.3v-8.54h1.19l3.95,6v-6h1.29v8.54Z"/><path d="M78.38,217.79a5.31,5.31,0,0,1-1-1.14,2.69,2.69,0,0,1-.28-1.39v-5.73a2.69,2.69,0,0,1,.28-1.39,5.32,5.32,0,0,1,1-1.14l.83.83a3.16,3.16,0,0,0-.67.79,2.15,2.15,0,0,0-.18,1v5.59a2.14,2.14,0,0,0,.18,1,3.18,3.18,0,0,0,.67.79Z"/><path d="M86,215.83a3.23,3.23,0,0,1-4.5,0c-.84-.84-.83-1.79-.83-3.43s0-2.59.83-3.43a3.23,3.23,0,0,1,4.5,0c.84.84.82,1.79.82,3.43S86.87,215,86,215.83Zm-1-6.08a1.79,1.79,0,0,0-2.54,0c-.42.46-.5.94-.5,2.65s.08,2.19.5,2.65A1.8,1.8,0,0,0,85,215c.42-.46.5-.94.5-2.65S85.47,210.2,85,209.75Z"/><path d="M94,216.67l-3.95-6v6h-1.3v-8.54H90l3.95,6v-6H95.2v8.54Z"/><path d="M102.58,216.74a3.87,3.87,0,0,1-3-1.13l.86-.85a2.81,2.81,0,0,0,2.18.82c1.12,0,1.76-.48,1.76-1.31a1.15,1.15,0,0,0-.34-.89,1.48,1.48,0,0,0-.94-.36l-1-.14a2.92,2.92,0,0,1-1.62-.68,2.12,2.12,0,0,1-.62-1.63c0-1.49,1.08-2.51,2.85-2.51a3.55,3.55,0,0,1,2.65,1l-.83.82a2.51,2.51,0,0,0-1.86-.66c-1,0-1.56.58-1.56,1.33a1,1,0,0,0,.32.79,1.91,1.91,0,0,0,1,.4l1,.14a2.82,2.82,0,0,1,1.59.64,2.23,2.23,0,0,1,.7,1.75C105.65,215.8,104.37,216.74,102.58,216.74Z"/><path d="M110.15,216.74a3.1,3.1,0,0,1-2.24-.91c-.84-.84-.83-1.79-.83-3.43s0-2.59.83-3.43a3.1,3.1,0,0,1,2.24-.91,2.94,2.94,0,0,1,3,2.63h-1.32a1.77,1.77,0,0,0-3-.95c-.42.46-.52.95-.52,2.66s.1,2.21.52,2.66a1.71,1.71,0,0,0,1.26.52,1.73,1.73,0,0,0,1.74-1.46h1.31A3,3,0,0,1,110.15,216.74Z"/><path d="M119.64,216.67l-1.8-3.6h-1.62v3.6h-1.3v-8.54h3.31a2.44,2.44,0,0,1,2.65,2.49,2.24,2.24,0,0,1-1.7,2.27l2,3.78Zm-1.5-7.38h-1.92V212h1.92a1.34,1.34,0,1,0,0-2.67Z"/><path d="M122.79,216.67v-8.54h5.46v1.16h-4.16v2.5h3.55v1.15h-3.55v2.57h4.16v1.16Z"/><path d="M130,216.67v-8.54h5.46v1.16h-4.16v2.5h3.55v1.15h-3.55v2.57h4.16v1.16Z"/><path d="M142.5,216.67l-3.95-6v6h-1.3v-8.54h1.19l3.95,6v-6h1.29v8.54Z"/><path d="M147.3,216.65a5.25,5.25,0,0,1-1,1.14l-.84-.84a3.13,3.13,0,0,0,.66-.79,2.12,2.12,0,0,0,.18-1V209.6a2.12,2.12,0,0,0-.18-1,3.13,3.13,0,0,0-.66-.79l.84-.84a5.25,5.25,0,0,1,1,1.14,2.7,2.7,0,0,1,.29,1.39v5.73A2.7,2.7,0,0,1,147.3,216.65Z"/><circle class="cls-16" cx="80.89" cy="96.54" r="2.19"/><circle class="cls-15" cx="88.16" cy="96.54" r="2.19"/><circle class="cls-17" cx="95.44" cy="96.54" r="2.19"/><rect class="cls-3" x="62.36" y="72.34" width="100" height="100"/><line class="cls-11" x1="74.16" y1="101.88" x2="152.41" y2="101.88"/><path class="cls-4" d="M113.47,151.41c29-9.83,36.67-48.67,36.67-48.67s2,6.76,1.33,32c-.5,17.83,2,16.83-12.5,17S113.47,151.41,113.47,151.41Z"/><rect class="cls-18" x="101.18" y="107.29" width="45.33" height="18.94"/><rect class="cls-17" x="101.18" y="131.17" width="45.33" height="2.25"/><rect class="cls-15" x="101.18" y="136.3" width="33.46" height="2.25"/><rect class="cls-16" x="101.18" y="141.17" width="45.33" height="2.25"/><circle class="cls-19" cx="123.84" cy="116.76" r="7.5"/><polygon class="cls-15" points="121.91 116.76 121.91 112.16 124.84 114.45 127.78 116.76 124.85 119.06 121.91 121.36 121.91 116.76"/><rect class="cls-5" x="73.72" y="90.26" width="77.8" height="61.4" rx="4.3" ry="4.3"/><rect class="cls-20" x="78.22" y="107.54" width="18.13" height="2.25"/><rect class="cls-20" x="78.22" y="114.31" width="18.13" height="2.25"/><rect class="cls-20" x="78.22" y="121.09" width="18.13" height="2.25"/><rect class="cls-20" x="78.22" y="127.86" width="18.13" height="2.25"/><rect class="cls-20" x="78.22" y="134.64" width="18.13" height="2.25"/><rect class="cls-20" x="78.22" y="141.42" width="18.13" height="2.25"/><path d="M839.49,191.29v7.38H838.2v-7.38h-2.35v-1.16h6v1.16Z"/><path d="M848,198.67l-1.8-3.6h-1.62v3.6h-1.3v-8.54h3.31a2.44,2.44,0,0,1,2.65,2.49,2.24,2.24,0,0,1-1.7,2.27l2,3.78Zm-1.5-7.38h-1.92V194h1.92a1.34,1.34,0,1,0,0-2.67Z"/><path d="M856.09,198.67,855.5,197h-3.37l-.59,1.71h-1.38l3.13-8.54h1l3.13,8.54Zm-2.24-6.61-1.33,3.79h2.63Z"/><path d="M861,198.67h-1l-2.81-8.54h1.34l2,6.21,2-6.21h1.37Z"/><path d="M865,198.67v-8.54h5.46v1.16h-4.16v2.5h3.55v1.15h-3.55v2.57h4.16v1.16Z"/><path d="M872.26,198.67v-8.54h1.3v7.38h4.11v1.16Z"/><path d="M879.15,198.67v-8.54h5.46v1.16h-4.16v2.5H884v1.15h-3.55v2.57h4.16v1.16Z"/><path d="M891.1,198.67l-1.8-3.6h-1.62v3.6h-1.3v-8.54h3.31a2.44,2.44,0,0,1,2.65,2.49,2.24,2.24,0,0,1-1.7,2.27l2,3.78Zm-1.5-7.38h-1.92V194h1.92a1.34,1.34,0,1,0,0-2.67Z"/><path d="M899.88,198.67h-1l-2.81-8.54h1.34l2,6.21,2-6.21h1.37Z"/><path d="M903.89,198.67v-8.54h1.3v8.54Z"/><path d="M909.69,198.74a3.87,3.87,0,0,1-3-1.13l.86-.85a2.81,2.81,0,0,0,2.18.82c1.12,0,1.76-.48,1.76-1.31a1.15,1.15,0,0,0-.34-.89,1.48,1.48,0,0,0-.94-.36l-1-.14a2.92,2.92,0,0,1-1.62-.68,2.12,2.12,0,0,1-.62-1.63c0-1.49,1.08-2.51,2.85-2.51a3.55,3.55,0,0,1,2.65,1l-.83.82a2.51,2.51,0,0,0-1.86-.66c-1,0-1.56.58-1.56,1.33a1,1,0,0,0,.32.79,1.91,1.91,0,0,0,1,.4l1,.14a2.82,2.82,0,0,1,1.59.64,2.23,2.23,0,0,1,.7,1.75C912.76,197.8,911.48,198.74,909.69,198.74Z"/><path d="M914.5,198.67v-8.54h1.3v8.54Z"/><path d="M920.92,191.29v7.38h-1.29v-7.38h-2.35v-1.16h6v1.16Z"/><path d="M927,198.74a3.87,3.87,0,0,1-3-1.13l.86-.85a2.81,2.81,0,0,0,2.18.82c1.12,0,1.76-.48,1.76-1.31a1.15,1.15,0,0,0-.34-.89,1.48,1.48,0,0,0-.94-.36l-1-.14a2.92,2.92,0,0,1-1.62-.68,2.12,2.12,0,0,1-.62-1.63c0-1.49,1.08-2.51,2.85-2.51a3.55,3.55,0,0,1,2.65,1l-.83.82a2.51,2.51,0,0,0-1.86-.66c-1,0-1.56.58-1.56,1.33a1,1,0,0,0,.32.79,1.91,1.91,0,0,0,1,.4l1,.14a2.82,2.82,0,0,1,1.59.64,2.23,2.23,0,0,1,.7,1.75C930.09,197.8,928.8,198.74,927,198.74Z"/><path d="M829.3,209.29v2.6h3.55v1.16H829.3v3.61H828v-8.54h5.46v1.16Z"/><path d="M839.21,216.67l-.59-1.71h-3.37l-.59,1.71h-1.38l3.13-8.54h1l3.13,8.54ZM837,210.06l-1.33,3.79h2.63Z"/><path d="M844.14,216.67h-1l-2.81-8.54h1.34l2,6.21,2-6.21H847Z"/><path d="M853,215.83a3.23,3.23,0,0,1-4.5,0c-.84-.84-.83-1.79-.83-3.43s0-2.59.83-3.43a3.23,3.23,0,0,1,4.5,0c.84.84.82,1.79.82,3.43S853.88,215,853,215.83Zm-1-6.08a1.79,1.79,0,0,0-2.54,0c-.42.46-.5.94-.5,2.65s.08,2.19.5,2.65a1.8,1.8,0,0,0,2.54,0c.42-.46.5-.94.5-2.65S852.48,210.2,852.06,209.75Z"/><path d="M860.49,216.67l-1.8-3.6h-1.62v3.6h-1.3v-8.54h3.31a2.44,2.44,0,0,1,2.65,2.49,2.24,2.24,0,0,1-1.7,2.27l2,3.78Zm-1.5-7.38h-1.92V212H859a1.34,1.34,0,1,0,0-2.67Z"/><path d="M863.64,216.67v-8.54h1.3v8.54Z"/><path d="M870.06,209.29v7.38h-1.29v-7.38h-2.35v-1.16h6v1.16Z"/><path d="M873.89,216.67v-8.54h5.46v1.16h-4.16v2.5h3.55v1.15h-3.55v2.57h4.16v1.16Z"/><path d="M891,216.67h-1.13l-1.74-6-1.73,6h-1.13L883,208.13h1.37l1.49,6.1,1.71-6.1h1l1.71,6.1,1.49-6.1h1.37Z"/><path d="M894.45,216.67v-8.54h5.46v1.16h-4.16v2.5h3.55v1.15h-3.55v2.57h4.16v1.16Z"/><path d="M905.15,216.67h-3.45v-8.54H905a2.29,2.29,0,0,1,2.58,2.34,1.93,1.93,0,0,1-1.15,1.81,2,2,0,0,1,1.28,2A2.31,2.31,0,0,1,905.15,216.67Zm-.24-7.38H903v2.45h1.92c.83,0,1.39-.43,1.39-1.22S905.73,209.29,904.91,209.29Zm.12,3.61h-2v2.6h2a1.3,1.3,0,1,0,0-2.6Z"/><path d="M911.91,216.74a3.87,3.87,0,0,1-3-1.13l.86-.85a2.81,2.81,0,0,0,2.18.82c1.12,0,1.76-.48,1.76-1.31a1.15,1.15,0,0,0-.34-.89,1.48,1.48,0,0,0-.94-.36l-1-.14a2.92,2.92,0,0,1-1.62-.68,2.12,2.12,0,0,1-.62-1.63c0-1.49,1.08-2.51,2.85-2.51a3.55,3.55,0,0,1,2.65,1l-.83.82a2.51,2.51,0,0,0-1.86-.66c-1,0-1.56.58-1.56,1.33a1,1,0,0,0,.32.79,1.91,1.91,0,0,0,1,.4l1,.14a2.82,2.82,0,0,1,1.59.64,2.23,2.23,0,0,1,.7,1.75C915,215.8,913.7,216.74,911.91,216.74Z"/><path d="M916.73,216.67v-8.54H918v8.54Z"/><path d="M923.15,209.29v7.38h-1.29v-7.38H919.5v-1.16h6v1.16Z"/><path d="M927,216.67v-8.54h5.46v1.16h-4.16v2.5h3.55v1.15h-3.55v2.57h4.16v1.16Z"/><path d="M934,216.67V215.2h1.46v1.46Z"/><rect class="cls-3" x="833.1" y="72.34" width="100" height="100"/><path class="cls-21" d="M847.23,84.72c3.65-.92,71.32-1.44,73.83.25,3.58,2.42.88,60.12.88,60.12-15.75.63-76.54,4.68-76.54-2.28C845.4,120.2,843.58,85.64,847.23,84.72Z"/><path class="cls-4" d="M886.9,146.64C915.9,136.8,920.73,87,920.73,87s3.33,6.83,1.33,32c-1.54,19.36,5.83,27.5-8.67,27.67S886.9,146.64,886.9,146.64Z"/><path class="cls-4" d="M890.59,130.79v-2.5a1.21,1.21,0,0,1,1.27-.95,1.14,1.14,0,0,1,1.22.95v2.5h-2.49"/><rect class="cls-4" x="873.06" y="102.88" width="2.45" height="3.23"/><rect class="cls-4" x="879.01" y="102.88" width="2.45" height="3.23"/><rect class="cls-4" x="884.96" y="102.88" width="2.45" height="3.23"/><rect class="cls-4" x="890.91" y="102.88" width="2.45" height="3.23"/><rect class="cls-4" x="873.06" y="108.01" width="2.45" height="3.23"/><rect class="cls-15" x="879.01" y="108.01" width="2.45" height="3.23"/><rect class="cls-4" x="884.96" y="108.01" width="2.45" height="3.23"/><rect class="cls-4" x="890.91" y="108.01" width="2.45" height="3.23"/><rect class="cls-4" x="873.06" y="113.14" width="2.45" height="3.23"/><rect class="cls-4" x="879.01" y="113.14" width="2.45" height="3.23"/><rect class="cls-4" x="884.96" y="113.14" width="2.45" height="3.23"/><rect class="cls-4" x="890.91" y="113.14" width="2.45" height="3.23"/><rect class="cls-4" x="873.06" y="119.72" width="2.45" height="3.23"/><rect class="cls-4" x="879.01" y="119.72" width="2.45" height="3.23"/><rect class="cls-4" x="884.96" y="119.72" width="2.45" height="3.23"/><rect class="cls-17" x="890.91" y="119.72" width="2.45" height="3.23"/><rect class="cls-4" x="872.95" y="96.44" width="2.45" height="3.23"/><rect class="cls-4" x="878.9" y="96.44" width="2.45" height="3.23"/><rect class="cls-16" x="884.85" y="96.44" width="2.45" height="3.23"/><rect class="cls-4" x="890.79" y="96.44" width="2.45" height="3.23"/><path class="cls-2" d="M897.39,130.23H869l1.13,1.13V94.65L869,95.77h28.35l-1.12-1.12v36.71a1.13,1.13,0,0,0,2.25,0V94.65a1.14,1.14,0,0,0-1.12-1.12H869a1.14,1.14,0,0,0-1.12,1.13v36.71a1.14,1.14,0,0,0,1.13,1.13h28.35A1.13,1.13,0,0,0,897.39,130.23Z"/><path class="cls-2" d="M867.58,95.77h31a1.13,1.13,0,0,0,0-2.25h-31a1.13,1.13,0,0,0,0,2.25Z"/><path class="cls-2" d="M868.3,102.35H897.9a1.13,1.13,0,0,0,0-2.25H868.3a1.13,1.13,0,0,0,0,2.25Z"/><path class="cls-2" d="M868.3,125.77H897.9a1.13,1.13,0,0,0,0-2.25H868.3a1.13,1.13,0,0,0,0,2.25Z"/><path class="cls-2" d="M868.3,119.15H897.9a1.13,1.13,0,0,0,0-2.25H868.3a1.13,1.13,0,0,0,0,2.25Z"/><rect class="cls-4" x="873.06" y="126.38" width="6.72" height="3.23"/><rect class="cls-4" x="881.3" y="126.38" width="6.72" height="3.23"/><rect class="cls-4" x="890.54" y="126.08" width="2.53" height="0.62"/><line class="cls-16" x1="869.08" y1="163.61" x2="896.8" y2="163.61"/><path class="cls-2" d="M869.08,165.11H896.8a1.5,1.5,0,0,0,0-3H869.08a1.5,1.5,0,0,0,0,3Z"/><line class="cls-16" x1="874.36" y1="147.28" x2="871.52" y2="163.4"/><path class="cls-2" d="M873.15,146.94l-2.83,16.13c-.28,1.57,2.13,2.24,2.4.66l2.83-16.12c.28-1.57-2.13-2.24-2.4-.66Z"/><line class="cls-16" x1="891.52" y1="147.28" x2="894.36" y2="163.4"/><path class="cls-2" d="M890.32,147.61l2.83,16.13c.28,1.58,2.68.91,2.4-.66l-2.83-16.12c-.28-1.58-2.68-.91-2.4.66Z"/><rect class="cls-5" x="844.68" y="84.86" width="76.84" height="61.38" rx="4" ry="4"/><rect class="cls-5" x="848.66" y="88.75" width="68.88" height="43.16" rx="2" ry="2"/><circle class="cls-22" cx="882.94" cy="138.9" r="2.5"/><rect class="cls-3" x="678.95" y="410.75" width="100" height="100"/><rect class="cls-15" x="712.35" y="493.67" width="31" height="1.31"/><rect class="cls-15" x="713.41" y="489.17" width="28.81" height="1.31"/><path d="M701.93,539a3.1,3.1,0,0,1-2.24-.91c-.84-.84-.83-1.79-.83-3.43s0-2.59.83-3.43a3.1,3.1,0,0,1,2.24-.91,2.94,2.94,0,0,1,3,2.63h-1.32a1.77,1.77,0,0,0-3-.95c-.42.46-.52.95-.52,2.66s.1,2.21.52,2.66a1.71,1.71,0,0,0,1.26.52,1.73,1.73,0,0,0,1.74-1.46H705A3,3,0,0,1,701.93,539Z"/><path d="M709.63,539a2.9,2.9,0,0,1-3.06-3v-5.66h1.29V536a1.77,1.77,0,1,0,3.54,0v-5.6h1.3v5.66A2.91,2.91,0,0,1,709.63,539Z"/><path d="M717.07,539a3.87,3.87,0,0,1-3-1.13l.86-.85a2.81,2.81,0,0,0,2.18.82c1.12,0,1.76-.48,1.76-1.31a1.15,1.15,0,0,0-.34-.89,1.48,1.48,0,0,0-.94-.36l-1-.14a2.92,2.92,0,0,1-1.62-.68,2.12,2.12,0,0,1-.62-1.63c0-1.49,1.08-2.51,2.85-2.51a3.55,3.55,0,0,1,2.65,1l-.83.82a2.51,2.51,0,0,0-1.86-.66c-1,0-1.56.58-1.56,1.33a1,1,0,0,0,.32.79,1.91,1.91,0,0,0,1,.4l1,.14a2.82,2.82,0,0,1,1.59.64,2.23,2.23,0,0,1,.7,1.75C720.14,538.1,718.86,539,717.07,539Z"/><path d="M724.77,531.59V539h-1.29v-7.38h-2.35v-1.16h6v1.16Z"/><path d="M733.38,538.13a3.23,3.23,0,0,1-4.5,0c-.84-.84-.83-1.79-.83-3.43s0-2.59.83-3.43a3.23,3.23,0,0,1,4.5,0c.84.84.82,1.79.82,3.43S734.21,537.29,733.38,538.13Zm-1-6.08a1.79,1.79,0,0,0-2.54,0c-.42.46-.5.94-.5,2.65s.08,2.19.5,2.65a1.8,1.8,0,0,0,2.54,0c.42-.46.5-.94.5-2.65S732.81,532.5,732.39,532Z"/><path d="M742.35,539v-5.71l-2,4.16h-1l-2-4.16V539h-1.3v-8.54h1.3l2.49,5.31,2.45-5.31h1.3V539Z"/><path d="M745.87,539v-8.54h5.46v1.16h-4.16v2.5h3.55v1.15h-3.55v2.57h4.16V539Z"/><path d="M757.82,539l-1.8-3.6H754.4V539h-1.3v-8.54h3.31a2.44,2.44,0,0,1,2.65,2.49,2.24,2.24,0,0,1-1.7,2.27l2,3.78Zm-1.5-7.38H754.4v2.67h1.92a1.34,1.34,0,1,0,0-2.67Z"/><path class="cls-15" d="M729.28,429.32v-8.46a1.32,1.32,0,0,0-2.64,0v8.46a1.32,1.32,0,0,0,2.64,0Z"/><line class="cls-15" x1="709.15" y1="436.75" x2="703.17" y2="430.77"/><path class="cls-16" d="M710.21,435.69l-6-6a1.5,1.5,0,0,0-2.12,2.12l6,6a1.5,1.5,0,0,0,2.12-2.12Z"/><line class="cls-15" x1="752.75" y1="430.77" x2="746.77" y2="436.75"/><path class="cls-17" d="M751.69,429.71l-6,6a1.5,1.5,0,0,0,2.12,2.12l6-6a1.5,1.5,0,0,0-2.12-2.12Z"/><rect class="cls-15" x="713.71" y="484.67" width="28.81" height="1.31"/><polygon class="cls-15" points="726.21 480.18 727.26 481.49 714.09 481.49 714.09 480.18 726.21 480.18"/><path class="cls-15" d="M741.32,481.49H728.47l.93-1.31h11.89C741.29,480.6,741.3,481,741.32,481.49Z"/><polygon class="cls-15" points="741.32 476.99 731.66 476.99 732.59 475.68 741.37 475.68 741.32 476.99"/><polyline class="cls-5" points="719.15 471.3 722.63 475.68 723.68 476.99 726.21 480.18 727.26 481.49 727.9 482.3 728.47 481.49 729.4 480.18 731.66 476.99 732.59 475.68 735.86 471.06"/><path class="cls-5" d="M713.9,472.92A62.45,62.45,0,0,1,712,495.8"/><path class="cls-5" d="M743.48,495.8a59.52,59.52,0,0,1-2.16-14.31c0-.45,0-.89,0-1.31,0-1.19,0-2.26,0-3.19l.05-1.31c.1-1.74.24-2.76.24-2.76"/><path class="cls-4" d="M726.12,464.6c8.42-6.75,11.25-22.75,11.25-22.75s2.64,10.77.08,15.83C733,466.6,726.12,464.6,726.12,464.6Z"/><path class="cls-5" d="M738.67,449.07c0,8.94-4.85,16.19-10.83,16.19S717,458,717,449.07,721.86,435,727.84,435,738.67,440.13,738.67,449.07Z"/><path class="cls-4" d="M736.5,498.89c11.63-5,11.88-22.87,11.88-22.87s5.38,9,4.13,15.13Z"/><path class="cls-5" d="M728.46,499.91h1c6.73-.11,14.43-2.09,23.27-9.26-.11-9.47-2.64-15.77-8.57-17.49-3.46-1-6.76-1.41-8.51-2.09-4.69-1.8-3-7.41-3-7.41s-3,1.83-5,1.77a7.89,7.89,0,0,1-3.77-1.24c.13.41,1.43,5.08-3.26,6.88-1.75.68-5.05,1.09-8.51,2.09-5.93,1.72-8.85,8.26-9,17.73,8.84,7.17,16.93,8.91,23.66,9,.34,0,2.41,0,2.76,0"/><path class="cls-23" d="M144.44,559"/><path class="cls-20" d="M552.84,497.56l-.06.2-2.81.08C551,497.75,552,497.66,552.84,497.56Z"/><path class="cls-20" d="M518.74,498.41c13-.1,25.63-.41,31.15-.57C542.63,498.41,530.55,498.5,518.74,498.41Z"/><path d="M548.21,541.41a3.1,3.1,0,0,1-2.24-.91c-.84-.84-.83-1.79-.83-3.43s0-2.59.83-3.43a3.1,3.1,0,0,1,2.24-.91,2.94,2.94,0,0,1,3,2.63h-1.32a1.77,1.77,0,0,0-3-.95c-.42.46-.52.95-.52,2.66s.1,2.21.52,2.66a1.71,1.71,0,0,0,1.26.52,1.73,1.73,0,0,0,1.74-1.46h1.31A3,3,0,0,1,548.21,541.41Z"/><path d="M557.77,541.33l-.59-1.71h-3.37l-.59,1.71h-1.38l3.13-8.54h1l3.13,8.54Zm-2.24-6.61-1.33,3.79h2.63Z"/><path d="M560.37,541.33v-8.54h1.3v7.38h4.11v1.16Z"/><path d="M567.25,541.33v-8.54h5.46V534h-4.16v2.5h3.55v1.15h-3.55v2.57h4.16v1.16Z"/><path d="M579.73,541.33l-3.95-6v6h-1.3v-8.54h1.19l3.95,6v-6h1.29v8.54Z"/><path d="M588.36,540.53a3,3,0,0,1-2.21.8h-3v-8.54h3a3,3,0,0,1,2.21.8c.92.92.86,2.17.86,3.41S589.28,539.61,588.36,540.53Zm-.89-6A1.84,1.84,0,0,0,586,534h-1.57v6.21H586a1.85,1.85,0,0,0,1.45-.58c.44-.49.46-1.42.46-2.59S587.91,535,587.47,534.53Z"/><path d="M595.93,541.33l-.59-1.71H592l-.59,1.71H590l3.13-8.54h1l3.13,8.54Zm-2.24-6.61-1.33,3.79H595Z"/><path d="M603.24,541.33l-1.8-3.6h-1.62v3.6h-1.3v-8.54h3.31a2.44,2.44,0,0,1,2.65,2.49,2.24,2.24,0,0,1-1.7,2.27l2,3.78Zm-1.5-7.38h-1.92v2.67h1.92a1.34,1.34,0,1,0,0-2.67Z"/><rect class="cls-3" x="524.8" y="415.01" width="100" height="100"/><path class="cls-8" d="M542.76,434.67H612a4.29,4.29,0,0,1,4.29,4.29v11.79a0,0,0,0,1,0,0H538.47a0,0,0,0,1,0,0V439A4.29,4.29,0,0,1,542.76,434.67Z"/><circle class="cls-24" cx="554.05" cy="465.61" r="6.18"/><circle class="cls-22" cx="554.05" cy="484.85" r="6.18"/><circle class="cls-25" cx="577.37" cy="465.61" r="6.18"/><circle class="cls-22" cx="577.37" cy="484.85" r="6.18"/><circle class="cls-26" cx="600.69" cy="465.61" r="6.18"/><rect class="cls-8" x="552.59" y="427.72" width="6.5" height="18.95" rx="3.25" ry="3.25"/><rect class="cls-8" x="594.19" y="426.45" width="6.5" height="18.95" rx="3.25" ry="3.25"/><path class="cls-5" d="M538.44,450.71h77.85a0,0,0,0,1,0,0v43a4,4,0,0,1-4,4H542.44a4,4,0,0,1-4-4v-43A0,0,0,0,1,538.44,450.71Z"/><path class="cls-19" d="M549.77,467.21l2.17,1.5a1.53,1.53,0,0,0,1.82-.23l4.33-3.67c1.48-1.25-.66-3.36-2.12-2.12l-4.33,3.67,1.82-.23-2.17-1.5c-1.59-1.1-3.09,1.5-1.51,2.59Z"/><path class="cls-19" d="M573.27,467.37l2.17,1.5a1.53,1.53,0,0,0,1.82-.23l4.33-3.67c1.48-1.25-.66-3.36-2.12-2.12l-4.33,3.67,1.82-.23-2.17-1.5c-1.59-1.1-3.09,1.5-1.51,2.59Z"/><path class="cls-19" d="M596.69,467.37l2.17,1.5a1.53,1.53,0,0,0,1.82-.23L605,465c1.48-1.25-.66-3.36-2.12-2.12l-4.33,3.67,1.82-.23-2.17-1.5c-1.59-1.1-3.09,1.5-1.51,2.59Z"/><path class="cls-4" d="M579.2,497.08c26.5-5.17,36-45.17,36-45.17s4.38,43.32-.33,44.5C609.53,497.74,579.2,497.08,579.2,497.08Z"/><circle class="cls-22" cx="600.69" cy="484.85" r="6.18"/><path class="cls-5" d="M538.44,450.71h77.85a0,0,0,0,1,0,0v43a4,4,0,0,1-4,4H542.44a4,4,0,0,1-4-4v-43A0,0,0,0,1,538.44,450.71Z"/><rect class="cls-3" x="216.5" y="407.36" width="100" height="100"/><path d="M246.59,533.68V528l-2,4.16h-1l-2-4.16v5.71h-1.3v-8.54h1.3l2.49,5.31,2.45-5.31h1.3v8.54Z"/><path d="M253,533.75a2.9,2.9,0,0,1-3.06-3v-5.66h1.29v5.6a1.77,1.77,0,1,0,3.54,0v-5.6h1.3v5.66A2.91,2.91,0,0,1,253,533.75Z"/><path d="M258.21,533.68v-8.54h1.3v7.38h4.11v1.16Z"/><path d="M267,526.3v7.38h-1.29V526.3h-2.35v-1.16h6v1.16Z"/><path d="M270.86,533.68v-8.54h1.3v8.54Z"/><path d="M277.62,530.32h-1.94v3.36h-1.3v-8.54h3.24a2.59,2.59,0,1,1,0,5.18Zm-.07-4h-1.87v2.84h1.87a1.42,1.42,0,1,0,0-2.84Z"/><path d="M281.93,533.68v-8.54h1.3v7.38h4.11v1.16Z"/><path d="M288.82,533.68v-8.54h5.46v1.16h-4.16v2.5h3.55v1.15h-3.55v2.57h4.16v1.16Z"/><path d="M240,551.75a3.1,3.1,0,0,1-2.24-.91C237,550,237,549,237,547.41s0-2.59.83-3.43a3.1,3.1,0,0,1,2.24-.91,2.94,2.94,0,0,1,3,2.63h-1.32a1.77,1.77,0,0,0-3-.95c-.42.46-.52.95-.52,2.66s.1,2.21.52,2.66a1.71,1.71,0,0,0,1.26.52,1.73,1.73,0,0,0,1.74-1.46h1.31A3,3,0,0,1,240,551.75Z"/><path d="M249.57,551.68v-3.73h-3.47v3.73h-1.3v-8.54h1.3v3.65h3.47v-3.65h1.29v8.54Z"/><path d="M258,551.68l-.59-1.71h-3.37l-.59,1.71h-1.38l3.13-8.54h1l3.13,8.54Zm-2.24-6.61-1.33,3.79h2.63Z"/><path d="M265.85,551.68l-3.95-6v6h-1.3v-8.54h1.19l3.95,6v-6H267v8.54Z"/><path d="M274.51,551.68l-3.95-6v6h-1.3v-8.54h1.19l3.95,6v-6h1.29v8.54Z"/><path d="M277.93,551.68v-8.54h5.46v1.16h-4.16v2.5h3.55v1.15h-3.55v2.57h4.16v1.16Z"/><path d="M285.17,551.68v-8.54h1.3v7.38h4.11v1.16Z"/><path d="M294.32,551.75a3.87,3.87,0,0,1-3-1.13l.86-.85a2.81,2.81,0,0,0,2.18.82c1.12,0,1.76-.48,1.76-1.31a1.15,1.15,0,0,0-.34-.89,1.48,1.48,0,0,0-.94-.36l-1-.14a2.92,2.92,0,0,1-1.62-.68,2.12,2.12,0,0,1-.62-1.63c0-1.49,1.08-2.51,2.85-2.51a3.55,3.55,0,0,1,2.65,1l-.83.82a2.51,2.51,0,0,0-1.86-.66c-1,0-1.56.58-1.56,1.33a1,1,0,0,0,.32.79,1.91,1.91,0,0,0,1,.4l1,.14a2.82,2.82,0,0,1,1.59.64,2.23,2.23,0,0,1,.7,1.75C297.39,550.81,296.11,551.75,294.32,551.75Z"/><path class="cls-4" d="M286.38,440c5.25-1.12,11-8.12,11-8.12s10.13-.25,10,3.88C307.13,443.59,286.38,440,286.38,440Z"/><path class="cls-4" d="M286.51,458.34c5.25-1.12,11-8.12,11-8.12s10.13-.25,10,3.88C307.26,462,286.51,458.34,286.51,458.34Z"/><path class="cls-4" d="M285.88,477.46c5.25-1.12,11-8.12,11-8.12s10.13-.25,10,3.88C306.63,481.09,285.88,477.46,285.88,477.46Z"/><rect class="cls-27" x="227.63" y="431.75" width="79.83" height="8.83" rx="4.42" ry="4.42"/><circle class="cls-7" cx="276.63" cy="436.25" r="7.17"/><rect class="cls-27" x="227.8" y="450.42" width="79.83" height="8.83" rx="4.42" ry="4.42"/><circle class="cls-9" cx="258.21" cy="454.92" r="7.17"/><rect class="cls-27" x="227.63" y="469.25" width="79.83" height="8.83" rx="4.42" ry="4.42"/><circle class="cls-10" cx="271.88" cy="473.75" r="7.17"/><rect class="cls-3" x="62.36" y="402.22" width="100" height="100"/><path d="M86.68,530.61a3.1,3.1,0,0,1-2.24-.91c-.84-.84-.83-1.79-.83-3.43s0-2.59.83-3.43a3.1,3.1,0,0,1,2.24-.91,2.94,2.94,0,0,1,3,2.63H88.41a1.77,1.77,0,0,0-3-.95c-.42.46-.52.95-.52,2.66s.1,2.21.52,2.66a1.71,1.71,0,0,0,1.26.52A1.73,1.73,0,0,0,88.42,528h1.31A3,3,0,0,1,86.68,530.61Z"/><path d="M96.24,530.54l-.59-1.71H92.29l-.59,1.71H90.32L93.45,522h1l3.13,8.54ZM94,523.93l-1.33,3.79H95.3Z"/><path d="M105.07,530.54v-5.71l-2,4.16h-1l-2-4.16v5.71h-1.3V522h1.3l2.49,5.31,2.45-5.31h1.3v8.54Z"/><path d="M111.83,527.18h-1.94v3.36h-1.3V522h3.24a2.59,2.59,0,1,1,0,5.18Zm-.07-4h-1.87V526h1.87a1.42,1.42,0,1,0,0-2.84Z"/><path d="M120.45,530.54l-.59-1.71h-3.37l-.59,1.71h-1.38l3.13-8.54h1l3.13,8.54Zm-2.24-6.61-1.33,3.79h2.63Z"/><path d="M123,530.54V522h1.3v8.54Z"/><path d="M131.68,529.64a3.27,3.27,0,0,1-4.59.06c-.84-.84-.83-1.79-.83-3.43s0-2.59.83-3.43a3.06,3.06,0,0,1,2.24-.91,3,3,0,0,1,3.11,2.65h-1.31a1.74,1.74,0,0,0-1.8-1.49,1.72,1.72,0,0,0-1.26.53c-.42.46-.52.94-.52,2.65s.1,2.21.52,2.66a1.71,1.71,0,0,0,1.26.52,1.81,1.81,0,0,0,1.39-.6,1.92,1.92,0,0,0,.43-1.34V527h-1.82v-1.1h3.12v1.31A3.2,3.2,0,0,1,131.68,529.64Z"/><path d="M139.6,530.54l-3.95-6v6h-1.3V522h1.19l3.95,6v-6h1.29v8.54Z"/><path d="M101.39,548.54V540h1.3v7.38h4.11v1.16Z"/><path d="M108.28,548.54V540h1.3v8.54Z"/><path d="M113.1,541.16v2.6h3.55v1.16H113.1v3.61h-1.3V540h5.46v1.16Z"/><path d="M121.72,541.16v7.38h-1.29v-7.38h-2.35V540h6v1.16Z"/><path class="cls-21" d="M76.65,412.5c3.65-.92,71.32-1.44,73.83.25,3.58,2.42.88,60.13.88,60.13-15.75.63-76.54,4.68-76.54-2.28C74.82,448,73,413.42,76.65,412.5Z"/><polyline class="cls-28" points="90.72 449.6 107.54 432.58 119.52 444.76 135.29 428.99"/><circle class="cls-29" cx="90.97" cy="449.45" r="1.7"/><circle class="cls-30" cx="107.36" cy="432.7" r="1.7"/><circle class="cls-31" cx="119.69" cy="444.54" r="1.7"/><polygon class="cls-2" points="130.96 433.17 127.95 430.21 133.02 428.06 138.09 425.9 136.03 431.01 133.97 436.13 130.96 433.17"/><path class="cls-4" d="M115.49,474.25c29-9.83,33.83-59.67,33.83-59.67s3.33,6.83,1.33,32c-1.54,19.36,5.83,27.5-8.67,27.67S115.49,474.25,115.49,474.25Z"/><line class="cls-16" x1="98.34" y1="491.59" x2="126.05" y2="491.59"/><path class="cls-2" d="M98.34,493.09h27.72a1.5,1.5,0,0,0,0-3H98.34a1.5,1.5,0,0,0,0,3Z"/><line class="cls-16" x1="103.61" y1="475.26" x2="100.78" y2="491.39"/><path class="cls-2" d="M102.41,474.93l-2.83,16.13c-.28,1.57,2.13,2.24,2.4.66l2.83-16.12c.28-1.57-2.13-2.24-2.4-.66Z"/><line class="cls-16" x1="120.78" y1="475.26" x2="123.61" y2="491.39"/><path class="cls-2" d="M119.58,475.6l2.83,16.13c.28,1.58,2.68.91,2.4-.66L122,474.93c-.28-1.58-2.68-.91-2.4.66Z"/><rect class="cls-5" x="73.93" y="412.84" width="76.84" height="61.38" rx="4" ry="4"/><rect class="cls-5" x="77.92" y="416.73" width="68.88" height="43.16" rx="2" ry="2"/><circle class="cls-22" cx="112.2" cy="466.88" r="2.5"/><path d="M852.95,536.87h-3.45v-8.54h3.32a2.29,2.29,0,0,1,2.58,2.34,1.93,1.93,0,0,1-1.15,1.81,2,2,0,0,1,1.28,2A2.31,2.31,0,0,1,852.95,536.87Zm-.24-7.38h-1.92v2.45h1.92c.83,0,1.39-.43,1.39-1.22S853.53,529.49,852.71,529.49Zm.12,3.61h-2v2.6h2a1.3,1.3,0,1,0,0-2.6Z"/><path d="M862.16,536.87l-1.8-3.6h-1.62v3.6h-1.3v-8.54h3.31a2.44,2.44,0,0,1,2.65,2.49,2.24,2.24,0,0,1-1.7,2.27l2,3.78Zm-1.5-7.38h-1.92v2.67h1.92a1.34,1.34,0,1,0,0-2.67Z"/><path d="M865.31,536.87v-8.54h1.3v8.54Z"/><path d="M874.08,536.87l-3.95-6v6h-1.3v-8.54H870l3.95,6v-6h1.29v8.54Z"/><path d="M882.61,536A3.27,3.27,0,0,1,878,536c-.84-.84-.83-1.79-.83-3.43s0-2.59.83-3.43a3.06,3.06,0,0,1,2.24-.91,3,3,0,0,1,3.11,2.65h-1.31a1.74,1.74,0,0,0-1.8-1.49,1.72,1.72,0,0,0-1.26.53c-.42.46-.52.94-.52,2.65s.1,2.21.52,2.66a1.71,1.71,0,0,0,1.26.52,1.81,1.81,0,0,0,1.39-.6,1.92,1.92,0,0,0,.43-1.34v-.48h-1.82v-1.1h3.12v1.31A3.2,3.2,0,0,1,882.61,536Z"/><path d="M891.62,536.87h-3.45v-8.54h3.32a2.29,2.29,0,0,1,2.58,2.34,1.93,1.93,0,0,1-1.15,1.81,2,2,0,0,1,1.28,2A2.31,2.31,0,0,1,891.62,536.87Zm-.24-7.38h-1.92v2.45h1.92c.83,0,1.39-.43,1.39-1.22S892.21,529.49,891.38,529.49Zm.12,3.61h-2v2.6h2a1.3,1.3,0,1,0,0-2.6Z"/><path d="M901,536.87l-.59-1.71h-3.37l-.59,1.71H895.1l3.13-8.54h1l3.13,8.54Zm-2.24-6.61L897.45,534h2.63Z"/><path d="M906.26,536.94A3.1,3.1,0,0,1,904,536c-.84-.84-.83-1.79-.83-3.43s0-2.59.83-3.43a3.1,3.1,0,0,1,2.24-.91,2.94,2.94,0,0,1,3,2.63H908a1.77,1.77,0,0,0-3-.95c-.42.46-.52.95-.52,2.66s.1,2.21.52,2.66a1.71,1.71,0,0,0,1.26.52,1.73,1.73,0,0,0,1.74-1.46h1.31A3,3,0,0,1,906.26,536.94Z"/><path d="M916.17,536.87l-2.4-4.21-1.44,1.73v2.48H911v-8.54h1.3v4.29l3.49-4.29h1.58l-2.77,3.35,3.06,5.19Z"/><path d="M831.15,554.87v-8.54h1.3v7.38h4.11v1.16Z"/><path d="M842.94,554.87l-.59-1.71H839l-.59,1.71H837l3.13-8.54h1l3.13,8.54Zm-2.24-6.61L839.37,552H842Z"/><path d="M848.78,551.51h-1.94v3.36h-1.3v-8.54h3.24a2.59,2.59,0,1,1,0,5.18Zm-.07-4h-1.87v2.84h1.87a1.42,1.42,0,1,0,0-2.84Z"/><path d="M855.35,554.94a3.87,3.87,0,0,1-3-1.13l.86-.85a2.81,2.81,0,0,0,2.18.82c1.12,0,1.76-.48,1.76-1.31a1.15,1.15,0,0,0-.34-.89,1.48,1.48,0,0,0-.94-.36l-1-.14a2.92,2.92,0,0,1-1.62-.68,2.12,2.12,0,0,1-.62-1.63c0-1.49,1.08-2.51,2.85-2.51a3.55,3.55,0,0,1,2.65,1l-.83.82a2.51,2.51,0,0,0-1.86-.66c-1,0-1.56.58-1.56,1.33a1,1,0,0,0,.32.79,1.91,1.91,0,0,0,1,.4l1,.14a2.82,2.82,0,0,1,1.59.64,2.23,2.23,0,0,1,.7,1.75C858.42,554,857.14,554.94,855.35,554.94Z"/><path d="M860.17,554.87v-8.54h5.46v1.16h-4.16V550H865v1.15h-3.55v2.57h4.16v1.16Z"/><path d="M872.61,554.06a3,3,0,0,1-2.21.8h-3v-8.54h3a3,3,0,0,1,2.21.8c.92.92.86,2.17.86,3.41S873.53,553.14,872.61,554.06Zm-.89-6a1.84,1.84,0,0,0-1.45-.58H868.7v6.21h1.57a1.85,1.85,0,0,0,1.45-.58c.44-.49.46-1.42.46-2.59S872.17,548.56,871.72,548.07Z"/><path d="M878.27,554.87v-8.54h1.3v7.38h4.11v1.16Z"/><path d="M889.82,554a3.23,3.23,0,0,1-4.5,0c-.84-.84-.83-1.79-.83-3.43s0-2.59.83-3.43a3.23,3.23,0,0,1,4.5,0c.84.84.82,1.79.82,3.43S890.66,553.19,889.82,554Zm-1-6.08a1.79,1.79,0,0,0-2.54,0c-.42.46-.5.94-.5,2.65s.08,2.19.5,2.65a1.8,1.8,0,0,0,2.54,0c.42-.46.5-.94.5-2.65S889.25,548.4,888.83,547.95Z"/><path d="M895.23,551.35v3.51h-1.3v-3.51l-2.55-5h1.42l1.79,3.75,1.79-3.75h1.42Z"/><path d="M903.39,554.87l-.59-1.71h-3.37l-.59,1.71h-1.38l3.13-8.54h1l3.13,8.54Zm-2.24-6.61L899.81,552h2.63Z"/><path d="M906,554.87v-8.54h1.3v7.38h4.11v1.16Z"/><path d="M912.87,554.87v-8.54h1.3v8.54Z"/><path d="M918.66,554.94a3.87,3.87,0,0,1-3-1.13l.86-.85a2.81,2.81,0,0,0,2.18.82c1.12,0,1.76-.48,1.76-1.31a1.15,1.15,0,0,0-.34-.89,1.48,1.48,0,0,0-.94-.36l-1-.14a2.92,2.92,0,0,1-1.62-.68,2.12,2.12,0,0,1-.62-1.63c0-1.49,1.08-2.51,2.85-2.51a3.55,3.55,0,0,1,2.65,1l-.83.82a2.51,2.51,0,0,0-1.86-.66c-1,0-1.56.58-1.56,1.33a1,1,0,0,0,.32.79,1.91,1.91,0,0,0,1,.4l1,.14a2.82,2.82,0,0,1,1.59.64,2.23,2.23,0,0,1,.7,1.75C921.73,554,920.45,554.94,918.66,554.94Z"/><path d="M926.37,547.49v7.38h-1.29v-7.38h-2.35v-1.16h6v1.16Z"/><path d="M932.46,554.94a3.87,3.87,0,0,1-3-1.13l.86-.85a2.81,2.81,0,0,0,2.18.82c1.12,0,1.76-.48,1.76-1.31a1.15,1.15,0,0,0-.34-.89,1.48,1.48,0,0,0-.94-.36l-1-.14a2.92,2.92,0,0,1-1.62-.68,2.12,2.12,0,0,1-.62-1.63c0-1.49,1.08-2.51,2.85-2.51a3.55,3.55,0,0,1,2.65,1l-.83.82a2.51,2.51,0,0,0-1.86-.66c-1,0-1.56.58-1.56,1.33a1,1,0,0,0,.32.79,1.91,1.91,0,0,0,1,.4l1,.14a2.82,2.82,0,0,1,1.59.64,2.23,2.23,0,0,1,.7,1.75C935.53,554,934.25,554.94,932.46,554.94Z"/><rect class="cls-3" x="833.1" y="410.75" width="100" height="100"/><path class="cls-21" d="M846,422.71c3.65-.92,71.32-1.44,73.83.25,3.58,2.42.88,60.13.88,60.13-15.75.63-76.54,4.68-76.54-2.28C844.17,458.2,842.35,423.63,846,422.71Z"/><path class="cls-4" d="M886.67,483.63c29-9.83,33.83-59.67,33.83-59.67s3.33,6.83,1.33,32c-1.54,19.36,5.83,27.5-8.67,27.67S886.67,483.63,886.67,483.63Z"/><line class="cls-16" x1="869.72" y1="500.12" x2="897.44" y2="500.12"/><path class="cls-2" d="M869.72,501.62h27.72a1.5,1.5,0,0,0,0-3H869.72a1.5,1.5,0,0,0,0,3Z"/><line class="cls-16" x1="875" y1="483.79" x2="872.16" y2="499.92"/><path class="cls-2" d="M873.8,483.46,871,499.59c-.28,1.57,2.13,2.24,2.4.66l2.83-16.12c.28-1.57-2.13-2.24-2.4-.66Z"/><line class="cls-16" x1="892.16" y1="483.79" x2="895" y2="499.92"/><path class="cls-2" d="M891,484.13l2.83,16.13c.28,1.58,2.68.91,2.4-.66l-2.83-16.12c-.28-1.58-2.68-.91-2.4.66Z"/><rect class="cls-5" x="845.32" y="421.37" width="76.84" height="61.38" rx="4" ry="4"/><circle class="cls-22" cx="883.58" cy="475.41" r="2.5"/><rect class="cls-5" x="849.3" y="425.26" width="68.88" height="43.16" rx="2" ry="2"/><path class="cls-17" d="M859.86,446.17a32.23,32.23,0,0,1,47.77,0c1.31,1.43,3.42-.7,2.12-2.12a35.24,35.24,0,0,0-52,0c-1.3,1.42.82,3.55,2.12,2.12Z"/><path class="cls-15" d="M866.58,452.68a22.47,22.47,0,0,1,34.32,0c1.12,1.29,3-.59,1.87-1.87a25.09,25.09,0,0,0-38.05,0c-1.11,1.28.75,3.15,1.87,1.87Z"/><path class="cls-16" d="M873.83,459.18a12.3,12.3,0,0,1,19.72-.13c1.16,1.51,3.77,0,2.59-1.51a15.35,15.35,0,0,0-24.91.13c-1.16,1.54,1.44,3,2.59,1.51Z"/><rect class="cls-3" x="370.65" y="418.36" width="100" height="100"/><path d="M400.87,544.68l-.59-1.71h-3.37l-.59,1.71h-1.38l3.13-8.54h1l3.13,8.54Zm-2.24-6.61-1.33,3.79h2.63Z"/><path d="M406.39,544.75a2.9,2.9,0,0,1-3.06-3v-5.66h1.29v5.6a1.77,1.77,0,1,0,3.54,0v-5.6h1.3v5.66A2.91,2.91,0,0,1,406.39,544.75Z"/><path d="M416.77,543.87a3,3,0,0,1-2.21.8h-3v-8.54h3a3,3,0,0,1,2.21.8c.92.92.86,2.17.86,3.41S417.69,542.95,416.77,543.87Zm-.89-6a1.84,1.84,0,0,0-1.45-.58h-1.57v6.21h1.57a1.85,1.85,0,0,0,1.45-.58c.44-.49.46-1.42.46-2.59S416.32,538.37,415.88,537.88Z"/><path d="M419.55,544.68v-8.54h1.3v8.54Z"/><path d="M423.08,544.68v-8.54h5.46v1.16h-4.16v2.5h3.55v1.15h-3.55v2.57h4.16v1.16Z"/><path d="M435.56,544.68l-3.95-6v6h-1.3v-8.54h1.19l3.95,6v-6h1.29v8.54Z"/><path d="M441.74,544.75a3.1,3.1,0,0,1-2.24-.91c-.84-.84-.83-1.79-.83-3.43s0-2.59.83-3.43a3.1,3.1,0,0,1,2.24-.91,2.94,2.94,0,0,1,3,2.63h-1.32a1.77,1.77,0,0,0-3-.95c-.42.46-.52.95-.52,2.66s.1,2.21.52,2.66a1.71,1.71,0,0,0,1.26.52,1.73,1.73,0,0,0,1.74-1.46h1.31A3,3,0,0,1,441.74,544.75Z"/><path d="M446.52,544.68v-8.54H452v1.16h-4.16v2.5h3.55v1.15h-3.55v2.57H452v1.16Z"/><rect class="cls-15" x="405.91" y="502.75" width="31" height="1.31"/><rect class="cls-15" x="406.97" y="498.25" width="28.81" height="1.31"/><rect class="cls-15" x="407.29" y="493.75" width="28.81" height="1.31"/><polygon class="cls-15" points="419.78 489.25 420.83 490.56 407.66 490.56 407.66 489.25 419.78 489.25"/><path class="cls-15" d="M434.89,490.56H422l.93-1.31h11.89C434.86,489.67,434.87,490.11,434.89,490.56Z"/><polygon class="cls-15" points="434.89 486.12 425.23 486.12 426.16 484.81 434.94 484.81 434.89 486.12"/><polygon class="cls-15" points="417.27 486.12 407.61 486.12 408.54 484.81 417.32 484.81 417.27 486.12"/><path class="cls-5" d="M437.05,504.87a59.52,59.52,0,0,1-2.16-14.31c0-.45,0-.89,0-1.31,0-1.19,0-2.26,0-3.19l.05-1.31c.1-1.74.24-2.76.24-2.76"/><path class="cls-4" d="M430.07,508c11.63-5,11.88-22.87,11.88-22.87s5.38,9,4.13,15.13Z"/><polyline class="cls-5" points="412.72 480.37 416.2 484.75 417.25 486.06 419.78 489.25 420.83 490.56 421.47 491.37 422.04 490.56 422.97 489.25 425.23 486.06 426.16 484.75 429.43 480.13"/><path class="cls-4" d="M419.7,473.67c8.42-6.75,11.25-22.75,11.25-22.75s2.64,10.77.08,15.83C426.53,475.67,419.7,473.67,419.7,473.67Z"/><path class="cls-5" d="M432.24,458.15c0,8.94-4.85,16.19-10.83,16.19s-10.83-7.25-10.83-16.19S415.43,444,421.41,444,432.24,449.21,432.24,458.15Z"/><path class="cls-5" d="M422,509h1c6.73-.11,14.43-2.09,23.27-9.26-.11-9.47-2.64-15.77-8.57-17.49-3.46-1-6.76-1.41-8.51-2.09-4.69-1.8-3-7.41-3-7.41s-3,1.83-5,1.77a7.89,7.89,0,0,1-3.77-1.24c.13.41,1.43,5.08-3.26,6.88-1.75.68-5.05,1.09-8.51,2.09-5.93,1.72-8.85,8.26-9,17.73,8.84,7.17,16.93,8.91,23.66,9,.34,0,2.41,0,2.76,0"/><polyline class="cls-28" points="395.07 447.46 416.99 432.41 435.7 444.5 448.75 431.12"/><circle class="cls-29" cx="395.49" cy="446.86" r="1.7"/><circle class="cls-30" cx="416.99" cy="432.41" r="1.7"/><circle class="cls-31" cx="435.82" cy="444.26" r="1.7"/><polygon class="cls-2" points="444.42 435.29 441.41 432.34 446.48 430.18 451.56 428.03 449.49 433.14 447.43 438.25 444.42 435.29"/><path class="cls-5" d="M407.47,482a62.45,62.45,0,0,1-1.87,22.88"/><path d="M224.2,356.85h-1.94v3.36H221v-8.54h3.24a2.59,2.59,0,1,1,0,5.18Zm-.07-4h-1.87v2.84h1.87a1.42,1.42,0,1,0,0-2.84Z"/><path d="M233.53,359.37a3.23,3.23,0,0,1-4.5,0c-.84-.84-.83-1.79-.83-3.43s0-2.59.83-3.43a3.23,3.23,0,0,1,4.5,0c.84.84.82,1.79.82,3.43S234.36,358.53,233.53,359.37Zm-1-6.08a1.79,1.79,0,0,0-2.54,0c-.42.46-.5.94-.5,2.65s.08,2.19.5,2.65a1.8,1.8,0,0,0,2.54,0c.42-.46.5-.94.5-2.65S233,353.75,232.54,353.29Z"/><path d="M238.53,360.29a3.87,3.87,0,0,1-3-1.13l.86-.85a2.81,2.81,0,0,0,2.18.82c1.12,0,1.76-.48,1.76-1.31a1.15,1.15,0,0,0-.34-.89,1.48,1.48,0,0,0-.94-.36l-1-.14a2.92,2.92,0,0,1-1.62-.68,2.12,2.12,0,0,1-.62-1.63c0-1.49,1.08-2.51,2.85-2.51a3.55,3.55,0,0,1,2.65,1l-.83.82a2.51,2.51,0,0,0-1.86-.66c-1,0-1.56.58-1.56,1.33a1,1,0,0,0,.32.79,1.91,1.91,0,0,0,1,.4l1,.14a2.82,2.82,0,0,1,1.59.64,2.23,2.23,0,0,1,.7,1.75C241.6,359.35,240.32,360.29,238.53,360.29Z"/><path d="M246.23,352.84v7.38h-1.29v-7.38h-2.35v-1.16h6v1.16Z"/><path d="M249.75,357.45v-1.14h3.5v1.14Z"/><path d="M257.93,360.29a3.1,3.1,0,0,1-2.24-.91c-.84-.84-.83-1.79-.83-3.43s0-2.59.83-3.43a3.1,3.1,0,0,1,2.24-.91,2.94,2.94,0,0,1,3,2.63h-1.32a1.77,1.77,0,0,0-3-.95c-.42.46-.52.95-.52,2.66s.1,2.21.52,2.66a1.71,1.71,0,0,0,1.26.52,1.73,1.73,0,0,0,1.74-1.46H261A3,3,0,0,1,257.93,360.29Z"/><path d="M267.5,360.21l-.59-1.71h-3.37l-.59,1.71h-1.38l3.13-8.54h1l3.13,8.54Zm-2.24-6.61-1.33,3.79h2.63Z"/><path d="M276.33,360.21V354.5l-2,4.16h-1l-2-4.16v5.71h-1.3v-8.54h1.3l2.49,5.31,2.45-5.31h1.3v8.54Z"/><path d="M283.09,356.85h-1.94v3.36h-1.3v-8.54h3.24a2.59,2.59,0,1,1,0,5.18Zm-.07-4h-1.87v2.84H283a1.42,1.42,0,1,0,0-2.84Z"/><path d="M291.7,360.21l-.59-1.71h-3.37l-.59,1.71h-1.38l3.13-8.54h1l3.13,8.54Zm-2.24-6.61-1.33,3.79h2.63Z"/><path d="M294.3,360.21v-8.54h1.3v8.54Z"/><path d="M302.93,359.31a3.27,3.27,0,0,1-4.59.06c-.84-.84-.83-1.79-.83-3.43s0-2.59.83-3.43a3.06,3.06,0,0,1,2.24-.91,3,3,0,0,1,3.11,2.65h-1.31a1.74,1.74,0,0,0-1.8-1.49,1.72,1.72,0,0,0-1.26.53c-.42.46-.52.94-.52,2.65s.1,2.21.52,2.66a1.71,1.71,0,0,0,1.26.52,1.81,1.81,0,0,0,1.39-.6,1.92,1.92,0,0,0,.43-1.34v-.48h-1.82v-1.1h3.12v1.31A3.2,3.2,0,0,1,302.93,359.31Z"/><path d="M310.85,360.21l-3.95-6v6h-1.3v-8.54h1.19l3.95,6v-6H312v8.54Z"/><path d="M242,378.21l-.59-1.71h-3.37l-.59,1.71h-1.38l3.13-8.54h1l3.13,8.54Zm-2.24-6.61-1.33,3.79h2.63Z"/><path d="M249.87,378.21l-3.95-6v6h-1.3v-8.54h1.19l3.95,6v-6h1.29v8.54Z"/><path d="M258.2,378.21l-.59-1.71h-3.37l-.59,1.71h-1.38l3.13-8.54h1l3.13,8.54ZM256,371.6l-1.33,3.79h2.63Z"/><path d="M260.79,378.21v-8.54h1.3v7.38h4.11v1.16Z"/><path d="M269.51,374.7v3.51h-1.3V374.7l-2.55-5h1.42l1.79,3.75,1.79-3.75h1.42Z"/><path d="M276.14,370.84v7.38h-1.29v-7.38h-2.35v-1.16h6v1.16Z"/><path d="M280,378.21v-8.54h1.3v8.54Z"/><path d="M286.25,378.29a3.1,3.1,0,0,1-2.24-.91c-.84-.84-.83-1.79-.83-3.43s0-2.59.83-3.43a3.1,3.1,0,0,1,2.24-.91,2.94,2.94,0,0,1,3,2.63H288a1.77,1.77,0,0,0-3-.95c-.42.46-.52.95-.52,2.66s.1,2.21.52,2.66a1.71,1.71,0,0,0,1.26.52,1.73,1.73,0,0,0,1.74-1.46h1.31A3,3,0,0,1,286.25,378.29Z"/><path d="M293.3,378.29a3.87,3.87,0,0,1-3-1.13l.86-.85a2.81,2.81,0,0,0,2.18.82c1.12,0,1.76-.48,1.76-1.31a1.15,1.15,0,0,0-.34-.89,1.48,1.48,0,0,0-.94-.36l-1-.14a2.92,2.92,0,0,1-1.62-.68,2.12,2.12,0,0,1-.62-1.63c0-1.49,1.08-2.51,2.85-2.51a3.55,3.55,0,0,1,2.65,1l-.83.82a2.51,2.51,0,0,0-1.86-.66c-1,0-1.56.58-1.56,1.33a1,1,0,0,0,.32.79,1.91,1.91,0,0,0,1,.4l1,.14a2.82,2.82,0,0,1,1.59.64,2.23,2.23,0,0,1,.7,1.75C296.37,377.35,295.08,378.29,293.3,378.29Z"/><rect class="cls-3" x="216.5" y="235.32" width="100" height="100"/><path class="cls-4" d="M269.89,306.83c29-9.83,33.83-59.67,33.83-59.67s3.33,6.83,1.33,32c-1.54,19.36,5.83,27.5-8.67,27.67S269.89,306.83,269.89,306.83Z"/><line class="cls-16" x1="252.35" y1="324.52" x2="280.07" y2="324.52"/><path class="cls-2" d="M252.35,326h27.72a1.5,1.5,0,0,0,0-3H252.35a1.5,1.5,0,0,0,0,3Z"/><line class="cls-16" x1="257.63" y1="308.19" x2="254.79" y2="324.32"/><path class="cls-2" d="M256.42,307.86,253.59,324c-.28,1.57,2.13,2.24,2.4.66l2.83-16.12c.28-1.57-2.13-2.24-2.4-.66Z"/><line class="cls-16" x1="274.79" y1="308.19" x2="277.63" y2="324.32"/><path class="cls-2" d="M273.59,308.53l2.83,16.13c.28,1.58,2.68.91,2.4-.66L276,307.86c-.28-1.58-2.68-.91-2.4.66Z"/><rect class="cls-5" x="227.31" y="246.11" width="77.8" height="61.38" rx="4.3" ry="4.3"/><rect class="cls-5" x="231.77" y="252.16" width="68.88" height="41.4"/><polyline class="cls-6" points="241.78 280.24 256.53 279.65 271.64 269.55 290.45 265.49"/><circle class="cls-9" cx="239.62" cy="280.54" r="1.71" transform="translate(-99.11 134.3) rotate(-26.15)"/><circle class="cls-10" cx="258.01" cy="278.79" r="1.71" transform="translate(-104.83 166.35) rotate(-30)"/><circle class="cls-9" cx="271.64" cy="269.55" r="1.71" transform="translate(-98.38 171.93) rotate(-30)"/><circle class="cls-7" cx="291.71" cy="264.49" r="2.8" transform="translate(-93.16 181.29) rotate(-30)"/><circle class="cls-22" cx="266.21" cy="300.4" r="2.5"/><path d="M77.36,360.29a3.1,3.1,0,0,1-2.24-.91c-.84-.84-.83-1.79-.83-3.43s0-2.59.83-3.43a3.1,3.1,0,0,1,2.24-.91,2.94,2.94,0,0,1,3,2.63H79.09a1.77,1.77,0,0,0-3-.95c-.42.46-.52.95-.52,2.66s.1,2.21.52,2.66a1.71,1.71,0,0,0,1.26.52,1.73,1.73,0,0,0,1.74-1.46h1.31A3,3,0,0,1,77.36,360.29Z"/><path d="M85.07,360.29a2.9,2.9,0,0,1-3.06-3v-5.66H83.3v5.6a1.77,1.77,0,1,0,3.54,0v-5.6h1.3v5.66A2.91,2.91,0,0,1,85.07,360.29Z"/><path d="M92.51,360.29a3.87,3.87,0,0,1-3-1.13l.86-.85a2.81,2.81,0,0,0,2.18.82c1.12,0,1.76-.48,1.76-1.31a1.15,1.15,0,0,0-.34-.89,1.48,1.48,0,0,0-.94-.36l-1-.14a2.92,2.92,0,0,1-1.62-.68,2.12,2.12,0,0,1-.62-1.63c0-1.49,1.08-2.51,2.85-2.51a3.55,3.55,0,0,1,2.65,1l-.83.82a2.51,2.51,0,0,0-1.86-.66c-1,0-1.56.58-1.56,1.33a1,1,0,0,0,.32.79,1.91,1.91,0,0,0,1,.4l1,.14a2.82,2.82,0,0,1,1.59.64,2.23,2.23,0,0,1,.7,1.75C95.58,359.35,94.29,360.29,92.51,360.29Z"/><path d="M100.21,352.84v7.38H98.91v-7.38H96.56v-1.16h6v1.16Z"/><path d="M108.81,359.37a3.23,3.23,0,0,1-4.5,0c-.84-.84-.83-1.79-.83-3.43s0-2.59.83-3.43a3.23,3.23,0,0,1,4.5,0c.84.84.82,1.79.82,3.43S109.65,358.53,108.81,359.37Zm-1-6.08a1.79,1.79,0,0,0-2.54,0c-.42.46-.5.94-.5,2.65s.08,2.19.5,2.65a1.8,1.8,0,0,0,2.54,0c.42-.46.5-.94.5-2.65S108.25,353.75,107.83,353.29Z"/><path d="M117.79,360.21V354.5l-2,4.16h-1l-2-4.16v5.71h-1.3v-8.54h1.3l2.49,5.31,2.45-5.31h1.3v8.54Z"/><path d="M129.39,359.41a3,3,0,0,1-2.21.8h-3v-8.54h3a3,3,0,0,1,2.21.8c.92.92.86,2.17.86,3.41S130.32,358.49,129.39,359.41Zm-.89-6a1.84,1.84,0,0,0-1.45-.58h-1.57v6.21h1.57a1.85,1.85,0,0,0,1.45-.58c.44-.49.46-1.42.46-2.59S128.95,353.9,128.5,353.41Z"/><path d="M137,360.21l-.59-1.71H133l-.59,1.71H131l3.13-8.54h1l3.13,8.54Zm-2.24-6.61-1.33,3.79H136Z"/><path d="M141.73,352.84v7.38h-1.29v-7.38h-2.35v-1.16h6v1.16Z"/><path d="M149.74,360.21l-.59-1.71h-3.37l-.59,1.71h-1.38l3.13-8.54h1l3.13,8.54Zm-2.24-6.61-1.33,3.79h2.63Z"/><path d="M87.13,378.21v-8.54h1.3v8.54Z"/><path d="M95.9,378.21l-3.95-6v6h-1.3v-8.54h1.19l3.95,6v-6h1.29v8.54Z"/><path d="M101.59,378.29a3.87,3.87,0,0,1-3-1.13l.86-.85a2.81,2.81,0,0,0,2.18.82c1.12,0,1.76-.48,1.76-1.31a1.15,1.15,0,0,0-.34-.89,1.48,1.48,0,0,0-.94-.36l-1-.14a2.92,2.92,0,0,1-1.62-.68,2.12,2.12,0,0,1-.62-1.63c0-1.49,1.08-2.51,2.85-2.51a3.55,3.55,0,0,1,2.65,1l-.83.82a2.51,2.51,0,0,0-1.86-.66c-1,0-1.56.58-1.56,1.33a1,1,0,0,0,.32.79,1.91,1.91,0,0,0,1,.4l1,.14A2.82,2.82,0,0,1,104,374a2.23,2.23,0,0,1,.7,1.75C104.66,377.35,103.38,378.29,101.59,378.29Z"/><path d="M106.4,378.21v-8.54h1.3v8.54Z"/><path d="M115,377.31a3.27,3.27,0,0,1-4.59.06c-.84-.84-.83-1.79-.83-3.43s0-2.59.83-3.43a3.06,3.06,0,0,1,2.24-.91,3,3,0,0,1,3.11,2.65h-1.31a1.74,1.74,0,0,0-1.8-1.49,1.72,1.72,0,0,0-1.26.53c-.42.46-.52.94-.52,2.65s.1,2.21.52,2.66a1.71,1.71,0,0,0,1.26.52,1.81,1.81,0,0,0,1.39-.6,1.92,1.92,0,0,0,.43-1.34v-.48h-1.82v-1.1h3.12v1.31A3.2,3.2,0,0,1,115,377.31Z"/><path d="M122.48,378.21v-3.73H119v3.73h-1.3v-8.54H119v3.65h3.47v-3.65h1.29v8.54Z"/><path d="M128.9,370.84v7.38h-1.29v-7.38h-2.35v-1.16h6v1.16Z"/><path d="M135,378.29a3.87,3.87,0,0,1-3-1.13l.86-.85a2.81,2.81,0,0,0,2.18.82c1.12,0,1.76-.48,1.76-1.31a1.15,1.15,0,0,0-.34-.89,1.48,1.48,0,0,0-.94-.36l-1-.14a2.92,2.92,0,0,1-1.62-.68,2.12,2.12,0,0,1-.62-1.63c0-1.49,1.08-2.51,2.85-2.51a3.55,3.55,0,0,1,2.65,1l-.83.82a2.51,2.51,0,0,0-1.86-.66c-1,0-1.56.58-1.56,1.33a1,1,0,0,0,.32.79,1.91,1.91,0,0,0,1,.4l1,.14a2.82,2.82,0,0,1,1.59.64,2.23,2.23,0,0,1,.7,1.75C138.07,377.35,136.78,378.29,135,378.29Z"/><rect class="cls-3" x="62.36" y="235.32" width="100" height="100"/><line class="cls-16" x1="98.18" y1="324.52" x2="125.9" y2="324.52"/><path class="cls-2" d="M98.18,326H125.9a1.5,1.5,0,0,0,0-3H98.18a1.5,1.5,0,0,0,0,3Z"/><line class="cls-16" x1="103.46" y1="308.19" x2="100.62" y2="324.32"/><path class="cls-2" d="M102.25,307.86,99.42,324c-.28,1.57,2.13,2.24,2.4.66l2.83-16.12c.28-1.57-2.13-2.24-2.4-.66Z"/><line class="cls-16" x1="120.62" y1="308.19" x2="123.46" y2="324.32"/><path class="cls-2" d="M119.42,308.53l2.83,16.13c.28,1.58,2.68.91,2.4-.66l-2.83-16.12c-.28-1.58-2.68-.91-2.4.66Z"/><circle class="cls-22" cx="112.04" cy="300.4" r="2.5"/><path class="cls-4" d="M115.76,307.51c29-9.83,33.83-59.67,33.83-59.67s3.33,6.83,1.33,32c-1.54,19.36,5.83,27.5-8.67,27.67S115.76,307.51,115.76,307.51Z"/><rect class="cls-5" x="73.14" y="246.11" width="77.8" height="61.38" rx="4.3" ry="4.3"/><line class="cls-22" x1="84.6" y1="271.84" x2="139.76" y2="271.84"/><polyline class="cls-6" points="84.72 291.8 91.58 283.81 102.93 279.51 114.93 283.68 129.6 280.93 139.1 292.18"/><circle class="cls-9" cx="91.58" cy="283.81" r="1.71" transform="translate(-115.7 69.4) rotate(-26.15)"/><circle class="cls-10" cx="102.93" cy="279.51" r="1.71" transform="translate(-125.96 88.91) rotate(-30)"/><circle class="cls-9" cx="114.93" cy="283.68" r="1.71" transform="translate(-126.44 95.47) rotate(-30)"/><circle class="cls-7" cx="129.47" cy="280.31" r="2.8" transform="translate(-122.81 102.29) rotate(-30)"/><path class="cls-5" d="M88.29,263h47.5a4,4,0,0,1,4,4v26.17a0,0,0,0,1,0,0H84.29a0,0,0,0,1,0,0V267A4,4,0,0,1,88.29,263Z"/><circle class="cls-16" cx="89.85" cy="267.47" r="1.21"/><circle class="cls-15" cx="93.81" cy="267.47" r="1.21"/><circle class="cls-17" cx="97.48" cy="267.47" r="1.21"/><rect class="cls-5" x="77.6" y="252.16" width="68.88" height="41.4"/><path d="M398.26,360.29a3.1,3.1,0,0,1-2.24-.91c-.84-.84-.83-1.79-.83-3.43s0-2.59.83-3.43a3.1,3.1,0,0,1,2.24-.91,2.94,2.94,0,0,1,3,2.63H400a1.77,1.77,0,0,0-3-.95c-.42.46-.52.95-.52,2.66s.1,2.21.52,2.66a1.71,1.71,0,0,0,1.26.52,1.73,1.73,0,0,0,1.74-1.46h1.31A3,3,0,0,1,398.26,360.29Z"/><path d="M408.05,359.37a3.23,3.23,0,0,1-4.5,0c-.84-.84-.83-1.79-.83-3.43s0-2.59.83-3.43a3.23,3.23,0,0,1,4.5,0c.84.84.82,1.79.82,3.43S408.89,358.53,408.05,359.37Zm-1-6.08a1.79,1.79,0,0,0-2.54,0c-.42.46-.5.94-.5,2.65s.08,2.19.5,2.65a1.8,1.8,0,0,0,2.54,0c.42-.46.5-.94.5-2.65S407.49,353.75,407.07,353.29Z"/><path d="M416,360.21l-3.95-6v6h-1.3v-8.54H412l3.95,6v-6h1.29v8.54Z"/><path d="M422.21,360.21h-1l-2.81-8.54h1.34l2,6.21,2-6.21H425Z"/><path d="M426.22,360.21v-8.54h5.46v1.16h-4.16v2.5h3.55v1.15h-3.55v2.57h4.16v1.16Z"/><path d="M438.17,360.21l-1.8-3.6h-1.62v3.6h-1.3v-8.54h3.31a2.44,2.44,0,0,1,2.65,2.49,2.24,2.24,0,0,1-1.7,2.27l2,3.78Zm-1.5-7.38h-1.92v2.67h1.92a1.34,1.34,0,1,0,0-2.67Z"/><path d="M444.21,352.84v7.38h-1.29v-7.38h-2.35v-1.16h6v1.16Z"/><path d="M385.28,378.29a3.87,3.87,0,0,1-3-1.13l.86-.85a2.81,2.81,0,0,0,2.18.82c1.12,0,1.76-.48,1.76-1.31a1.15,1.15,0,0,0-.34-.89,1.48,1.48,0,0,0-.94-.36l-1-.14a2.92,2.92,0,0,1-1.62-.68,2.12,2.12,0,0,1-.62-1.63c0-1.49,1.08-2.51,2.85-2.51a3.55,3.55,0,0,1,2.65,1l-.83.82a2.51,2.51,0,0,0-1.86-.66c-1,0-1.56.58-1.56,1.33a1,1,0,0,0,.32.79,1.91,1.91,0,0,0,1,.4l1,.14a2.82,2.82,0,0,1,1.59.64,2.23,2.23,0,0,1,.7,1.75C388.35,377.35,387.06,378.29,385.28,378.29Z"/><path d="M390.09,378.21v-8.54h1.3v8.54Z"/><path d="M396.51,370.84v7.38h-1.29v-7.38h-2.35v-1.16h6v1.16Z"/><path d="M400.34,378.21v-8.54h5.46v1.16h-4.16v2.5h3.55v1.15h-3.55v2.57h4.16v1.16Z"/><path d="M413.21,378.21h-1l-2.81-8.54h1.34l2,6.21,2-6.21H416Z"/><path d="M417.22,378.21v-8.54h1.3v8.54Z"/><path d="M423,378.29a3.87,3.87,0,0,1-3-1.13l.86-.85a2.81,2.81,0,0,0,2.18.82c1.12,0,1.76-.48,1.76-1.31a1.15,1.15,0,0,0-.34-.89,1.48,1.48,0,0,0-.94-.36l-1-.14a2.92,2.92,0,0,1-1.62-.68,2.12,2.12,0,0,1-.62-1.63c0-1.49,1.08-2.51,2.85-2.51a3.55,3.55,0,0,1,2.65,1l-.83.82a2.51,2.51,0,0,0-1.86-.66c-1,0-1.56.58-1.56,1.33a1,1,0,0,0,.32.79,1.91,1.91,0,0,0,1,.4l1,.14a2.82,2.82,0,0,1,1.59.64,2.23,2.23,0,0,1,.7,1.75C426.08,377.35,424.8,378.29,423,378.29Z"/><path d="M427.83,378.21v-8.54h1.3v8.54Z"/><path d="M434.25,370.84v7.38H433v-7.38H430.6v-1.16h6v1.16Z"/><path d="M442.85,377.37a3.23,3.23,0,0,1-4.5,0c-.84-.84-.83-1.79-.83-3.43s0-2.59.83-3.43a3.23,3.23,0,0,1,4.5,0c.84.84.82,1.79.82,3.43S443.69,376.53,442.85,377.37Zm-1-6.08a1.79,1.79,0,0,0-2.54,0c-.42.46-.5.94-.5,2.65s.08,2.19.5,2.65a1.8,1.8,0,0,0,2.54,0c.42-.46.5-.94.5-2.65S442.29,371.75,441.87,371.29Z"/><path d="M450.3,378.21l-1.8-3.6h-1.62v3.6h-1.3v-8.54h3.31a2.44,2.44,0,0,1,2.65,2.49,2.24,2.24,0,0,1-1.7,2.27l2,3.78Zm-1.5-7.38h-1.92v2.67h1.92a1.34,1.34,0,1,0,0-2.67Z"/><path d="M455.71,378.29a3.87,3.87,0,0,1-3-1.13l.86-.85a2.81,2.81,0,0,0,2.18.82c1.12,0,1.76-.48,1.76-1.31a1.15,1.15,0,0,0-.34-.89,1.48,1.48,0,0,0-.94-.36l-1-.14a2.92,2.92,0,0,1-1.62-.68,2.12,2.12,0,0,1-.62-1.63c0-1.49,1.08-2.51,2.85-2.51a3.55,3.55,0,0,1,2.65,1l-.83.82a2.51,2.51,0,0,0-1.86-.66c-1,0-1.56.58-1.56,1.33a1,1,0,0,0,.32.79,1.91,1.91,0,0,0,1,.4l1,.14a2.82,2.82,0,0,1,1.59.64,2.23,2.23,0,0,1,.7,1.75C458.79,377.35,457.5,378.29,455.71,378.29Z"/><rect class="cls-3" x="370.65" y="235.32" width="100" height="100"/><circle class="cls-15" cx="392.71" cy="252.88" r="1.67"/><circle class="cls-17" cx="398.26" cy="252.88" r="1.67"/><rect class="cls-20" x="385.54" y="261.27" width="13.83" height="1.72"/><rect class="cls-20" x="385.54" y="266.44" width="13.83" height="1.72"/><rect class="cls-20" x="385.54" y="271.61" width="13.83" height="1.72"/><rect class="cls-20" x="385.54" y="276.78" width="13.83" height="1.72"/><rect class="cls-20" x="385.54" y="281.94" width="13.83" height="1.72"/><rect class="cls-20" x="385.54" y="287.11" width="13.83" height="1.72"/><path class="cls-4" d="M413.85,295.18c22.12-7.5,25.81-45.51,25.81-45.51s2.54,5.21,1,24.41c-1.17,14.77,4.45,21-6.61,21.1S413.85,295.18,413.85,295.18Z"/><line class="cls-5" x1="381.9" y1="257.14" x2="441.58" y2="257.14"/><rect class="cls-20" x="402.51" y="261.27" width="34.58" height="14.45"/><rect class="cls-17" x="402.51" y="279.49" width="34.58" height="1.72"/><rect class="cls-15" x="402.51" y="283.4" width="25.52" height="1.72"/><rect class="cls-16" x="402.51" y="287.11" width="34.58" height="1.72"/><rect class="cls-5" x="381.57" y="248.28" width="59.34" height="46.83" rx="3.05" ry="3.05"/><rect class="cls-20" x="385.54" y="261.27" width="13.83" height="1.72"/><rect class="cls-20" x="385.54" y="266.44" width="13.83" height="1.72"/><rect class="cls-20" x="385.54" y="271.61" width="13.83" height="1.72"/><rect class="cls-20" x="385.54" y="276.78" width="13.83" height="1.72"/><rect class="cls-20" x="385.54" y="281.94" width="13.83" height="1.72"/><rect class="cls-20" x="385.54" y="287.11" width="13.83" height="1.72"/><rect class="cls-5" x="447.98" y="298.81" width="4.1" height="23.05" rx="2.05" ry="2.05" transform="translate(-85.21 421.49) rotate(-46.32)"/><circle class="cls-8" cx="433.65" cy="294.08" r="14.5"/><path class="cls-17" d="M425.56,287.31h14v3.33H423.81S425.56,287.14,425.56,287.31Z"/><path class="cls-15" d="M423.56,293h12.33v3.33H424S423.56,292.81,423.56,293Z"/><path class="cls-16" d="M425.06,298.64h14.33V302H426.81S425.06,298.48,425.06,298.64Z"/><circle class="cls-5" cx="433.65" cy="294.08" r="9.98"/><path d="M696.57,363.64V355.1h1.3v7.38H702v1.16Z"/><path d="M703.46,363.64V355.1h1.3v8.54Z"/><path d="M712.09,362.74a3.27,3.27,0,0,1-4.59.06c-.84-.84-.83-1.79-.83-3.43s0-2.59.83-3.43a3.06,3.06,0,0,1,2.24-.91,3,3,0,0,1,3.11,2.65h-1.31a1.74,1.74,0,0,0-1.8-1.49,1.72,1.72,0,0,0-1.26.53c-.42.46-.52.94-.52,2.65s.1,2.21.52,2.66a1.71,1.71,0,0,0,1.26.52,1.81,1.81,0,0,0,1.39-.6,1.92,1.92,0,0,0,.43-1.34v-.48h-1.82V359h3.12v1.31A3.2,3.2,0,0,1,712.09,362.74Z"/><path d="M719.53,363.64v-3.73h-3.47v3.73h-1.3V355.1h1.3v3.65h3.47V355.1h1.29v8.54Z"/><path d="M726,356.26v7.38h-1.29v-7.38h-2.35V355.1h6v1.16Z"/><path d="M736.12,363.64h-3.45V355.1H736a2.29,2.29,0,0,1,2.58,2.34,1.93,1.93,0,0,1-1.15,1.81,2,2,0,0,1,1.28,2A2.31,2.31,0,0,1,736.12,363.64Zm-.24-7.38H734v2.45h1.92c.83,0,1.39-.43,1.39-1.22S736.71,356.26,735.88,356.26Zm.12,3.61h-2v2.6h2a1.3,1.3,0,1,0,0-2.6Z"/><path d="M743.55,363.71a2.9,2.9,0,0,1-3.06-3V355.1h1.29v5.6a1.77,1.77,0,1,0,3.54,0v-5.6h1.3v5.66A2.91,2.91,0,0,1,743.55,363.71Z"/><path d="M748.72,363.64V355.1H750v7.38h4.11v1.16Z"/><path d="M759.06,363.64h-3.45V355.1h3.32a2.29,2.29,0,0,1,2.58,2.34,1.93,1.93,0,0,1-1.15,1.81,2,2,0,0,1,1.28,2A2.31,2.31,0,0,1,759.06,363.64Zm-.24-7.38H756.9v2.45h1.92c.83,0,1.39-.43,1.39-1.22S759.65,356.26,758.82,356.26Zm.12,3.61h-2v2.6h2a1.3,1.3,0,1,0,0-2.6Z"/><path class="cls-4" d="M731.52,304.92l-.17,4.5s4.92,6.25,6.75,4.83-.33-3.08-2.33-5.33A36.18,36.18,0,0,0,731.52,304.92Z"/><rect class="cls-3" x="678.95" y="235.32" width="100" height="100"/><path class="cls-32" d="M718.84,310.41"/><path class="cls-32" d="M735.71,315.84"/><path class="cls-32" d="M735.71,315.84"/><path class="cls-32" d="M718.84,311.84"/><path class="cls-32" d="M718.84,311.84"/><path class="cls-32" d="M736.45,306"/><path class="cls-32" d="M736.45,306"/><path class="cls-32" d="M717.8,303.95"/><path class="cls-2" d="M719.88,317.13h15.82a1.28,1.28,0,0,0,0-2.57H719.88a1.28,1.28,0,0,0,0,2.57Z"/><path class="cls-2" d="M719.88,321.08h15.82a1.28,1.28,0,0,0,0-2.57H719.88a1.28,1.28,0,0,0,0,2.57Z"/><path class="cls-2" d="M719.88,324.72h15.82a1.28,1.28,0,0,0,0-2.57H719.88a1.28,1.28,0,0,0,0,2.57Z"/><path class="cls-15" d="M728.75,261V249.13a1.32,1.32,0,0,0-2.64,0V261a1.32,1.32,0,0,0,2.64,0Z"/><line class="cls-15" x1="706.92" y1="266.69" x2="698.52" y2="259.3"/><path class="cls-16" d="M708,265.63l-8.4-7.4c-1.44-1.27-3.57.84-2.12,2.12l8.4,7.4c1.44,1.27,3.57-.84,2.12-2.12Z"/><line class="cls-15" x1="748.98" y1="266.69" x2="757.38" y2="259.29"/><path class="cls-17" d="M750,267.75l8.4-7.4c1.45-1.28-.68-3.39-2.12-2.12l-8.4,7.4c-1.45,1.28.68,3.39,2.12,2.12Z"/><path class="cls-4" d="M726.69,311.56c12.25-5.62,15.75-38.37,15.75-38.37s6.75,7.5,6.38,12.88-6.12,16-11.87,18.38c0,0-1.25,5.63-1,6.5S726.69,311.56,726.69,311.56Z"/><g class="cls-33"><path class="cls-34" d="M722.77,311.29V278c0-4.6-5.24-4.49-5.24,0,0,3.8,3.31,4.49,7.59,4.49h3.8"/><path class="cls-34" d="M732.84,311.29V278c0-4.6,5.24-4.49,5.24,0,0,3.8-3.31,4.49-7.59,4.49h-3.8"/></g><path class="cls-5" d="M720.32,311.89h14.24a1.48,1.48,0,0,0,1.48-1.48V308a5.28,5.28,0,0,1,2.59-4.49,20.12,20.12,0,1,0-22-.74,5.27,5.27,0,0,1,2.23,4.32c0,4.1,0,.22,0,3.32a1.48,1.48,0,0,0,1.48,1.48h14.24"/><path d="M559.39,363.64h-3.45V355.1h3.32a2.29,2.29,0,0,1,2.58,2.34,1.93,1.93,0,0,1-1.15,1.81,2,2,0,0,1,1.28,2A2.31,2.31,0,0,1,559.39,363.64Zm-.24-7.38h-1.92v2.45h1.92c.83,0,1.39-.43,1.39-1.22S560,356.26,559.15,356.26Zm.12,3.61h-2v2.6h2a1.3,1.3,0,1,0,0-2.6Z"/><path d="M568.6,363.64l-1.8-3.6h-1.62v3.6h-1.3V355.1h3.31a2.44,2.44,0,0,1,2.65,2.49,2.24,2.24,0,0,1-1.7,2.27l2,3.78Zm-1.5-7.38h-1.92v2.68h1.92a1.34,1.34,0,1,0,0-2.68Z"/><path d="M576.65,363.64l-.59-1.71H572.7l-.59,1.71h-1.38l3.13-8.54h1l3.13,8.54ZM574.41,357l-1.33,3.79h2.63Z"/><path d="M584.49,363.64l-3.95-6v6h-1.3V355.1h1.19l3.95,6v-6h1.29v8.54Z"/><path d="M593.12,362.83a3,3,0,0,1-2.21.8h-3V355.1h3a3,3,0,0,1,2.21.8c.92.92.86,2.17.86,3.41S594,361.91,593.12,362.83Zm-.89-6a1.84,1.84,0,0,0-1.45-.58h-1.57v6.21h1.57a1.84,1.84,0,0,0,1.45-.58c.44-.49.46-1.41.46-2.59S592.67,357.33,592.23,356.84Z"/><path d="M545.79,381.64l-.59-1.71h-3.37l-.59,1.71h-1.38L543,373.1h1l3.13,8.54ZM543.55,375l-1.33,3.79h2.63Z"/><path d="M555.1,381.64H554l-1.74-6-1.73,6h-1.13l-2.23-8.54h1.37l1.49,6.1,1.71-6.1h1l1.71,6.1,1.49-6.1h1.37Z"/><path d="M563.32,381.64l-.59-1.71h-3.37l-.59,1.71H557.4l3.13-8.54h1l3.13,8.54ZM561.08,375l-1.33,3.79h2.63Z"/><path d="M570.63,381.64l-1.8-3.6h-1.62v3.6h-1.3V373.1h3.31a2.44,2.44,0,0,1,2.65,2.49,2.24,2.24,0,0,1-1.7,2.27l2,3.78Zm-1.5-7.38h-1.92v2.68h1.92a1.34,1.34,0,1,0,0-2.68Z"/><path d="M573.77,381.64V373.1h5.46v1.16h-4.16v2.5h3.55v1.15h-3.55v2.57h4.16v1.16Z"/><path d="M586.25,381.64l-3.95-6v6H581V373.1h1.19l3.95,6v-6h1.29v8.54Z"/><path d="M589.67,381.64V373.1h5.46v1.16H591v2.5h3.55v1.15H591v2.57h4.16v1.16Z"/><path d="M599.18,381.71a3.87,3.87,0,0,1-3-1.13l.86-.85a2.81,2.81,0,0,0,2.18.82c1.12,0,1.76-.48,1.76-1.31a1.15,1.15,0,0,0-.34-.89,1.49,1.49,0,0,0-.94-.36l-1-.14a2.92,2.92,0,0,1-1.62-.68,2.12,2.12,0,0,1-.62-1.63c0-1.49,1.08-2.51,2.85-2.51a3.55,3.55,0,0,1,2.65,1l-.83.82a2.51,2.51,0,0,0-1.86-.66c-1,0-1.56.58-1.56,1.33a1,1,0,0,0,.32.79,1.92,1.92,0,0,0,1,.4l1,.14a2.83,2.83,0,0,1,1.59.64,2.23,2.23,0,0,1,.7,1.75C602.25,380.77,601,381.71,599.18,381.71Z"/><path d="M606.14,381.71a3.87,3.87,0,0,1-3-1.13l.86-.85a2.81,2.81,0,0,0,2.18.82c1.12,0,1.76-.48,1.76-1.31a1.15,1.15,0,0,0-.34-.89,1.49,1.49,0,0,0-.94-.36l-1-.14a2.92,2.92,0,0,1-1.62-.68,2.12,2.12,0,0,1-.62-1.63c0-1.49,1.08-2.51,2.85-2.51a3.55,3.55,0,0,1,2.65,1l-.83.82a2.51,2.51,0,0,0-1.86-.66c-1,0-1.56.58-1.56,1.33a1,1,0,0,0,.32.79,1.92,1.92,0,0,0,1,.4l1,.14a2.83,2.83,0,0,1,1.59.64,2.23,2.23,0,0,1,.7,1.75C609.21,380.77,607.92,381.71,606.14,381.71Z"/><rect class="cls-3" x="524.8" y="235.32" width="100" height="100"/><path class="cls-4" d="M578.53,307.47c29-9.83,33.83-59.67,33.83-59.67s3.33,6.83,1.33,32c-1.54,19.36,5.83,27.5-8.67,27.67S578.53,307.47,578.53,307.47Z"/><path class="cls-8" d="M593.73,272.72s-8.25,9-18.42,9-18.42-9-18.42-9,8.25-9,18.42-9S593.73,272.72,593.73,272.72Z"/><circle class="cls-35" cx="575.2" cy="272.65" r="8.13"/><circle class="cls-36" cx="574.93" cy="272.54" r="2.37"/><circle class="cls-19" cx="579.72" cy="269.44" r="0.93" transform="translate(-0.61 537.57) rotate(-49.73)"/><circle class="cls-19" cx="577.77" cy="267.58" r="0.93" transform="translate(0.13 535.43) rotate(-49.73)"/><circle class="cls-16" cx="548.12" cy="255.85" r="2.25"/><circle class="cls-15" cx="555.5" cy="255.85" r="2.25"/><circle class="cls-17" cx="562.32" cy="255.85" r="2.25"/><line class="cls-16" x1="560.78" y1="324.14" x2="588.5" y2="324.14"/><path class="cls-2" d="M560.78,325.64H588.5a1.5,1.5,0,0,0,0-3H560.78a1.5,1.5,0,0,0,0,3Z"/><line class="cls-16" x1="566.06" y1="307.81" x2="563.23" y2="323.94"/><path class="cls-2" d="M564.86,307.48,562,323.61c-.28,1.57,2.13,2.24,2.4.66l2.83-16.12c.28-1.57-2.13-2.24-2.4-.66Z"/><line class="cls-16" x1="583.23" y1="307.81" x2="586.06" y2="323.94"/><path class="cls-2" d="M582,308.15l2.83,16.13c.28,1.58,2.68.91,2.4-.66l-2.83-16.12c-.28-1.58-2.68-.91-2.4.66Z"/><rect class="cls-5" x="536.38" y="245.39" width="76.84" height="61.38" rx="4" ry="4"/><rect class="cls-5" x="540.36" y="249.28" width="68.88" height="43.16" rx="2" ry="2"/><circle class="cls-22" cx="574.64" cy="299.43" r="2.5"/><path d="M859.57,360.72a3.27,3.27,0,0,1-4.59.06c-.84-.84-.83-1.79-.83-3.43s0-2.59.83-3.43a3.06,3.06,0,0,1,2.24-.91,3,3,0,0,1,3.11,2.65H859a1.74,1.74,0,0,0-1.8-1.49,1.72,1.72,0,0,0-1.26.53c-.42.46-.52.94-.52,2.65s.1,2.21.52,2.66a1.71,1.71,0,0,0,1.26.52,1.81,1.81,0,0,0,1.39-.6,1.92,1.92,0,0,0,.43-1.34v-.48h-1.82V357h3.12v1.31A3.2,3.2,0,0,1,859.57,360.72Z"/><path d="M862.24,361.62v-8.54h5.46v1.16h-4.16v2.5h3.55v1.15h-3.55v2.57h4.16v1.16Z"/><path d="M874.72,361.62l-3.95-6v6h-1.3v-8.54h1.19l3.95,6v-6h1.29v8.54Z"/><path d="M878.14,361.62v-8.54h5.46v1.16h-4.16v2.5H883v1.15h-3.55v2.57h4.16v1.16Z"/><path d="M890.09,361.62l-1.8-3.6h-1.62v3.6h-1.3v-8.54h3.31a2.44,2.44,0,0,1,2.65,2.49,2.24,2.24,0,0,1-1.7,2.27l2,3.78Zm-1.5-7.38h-1.92v2.67h1.92a1.34,1.34,0,1,0,0-2.67Z"/><path d="M898.14,361.62l-.59-1.71h-3.37l-.59,1.71h-1.38l3.13-8.54h1l3.13,8.54ZM895.9,355l-1.33,3.79h2.63Z"/><path d="M902.91,354.24v7.38h-1.29v-7.38h-2.35v-1.16h6v1.16Z"/><path d="M906.74,361.62v-8.54h5.46v1.16H908v2.5h3.55v1.15H908v2.57h4.16v1.16Z"/><path d="M854.09,379.62l-.59-1.71h-3.37l-.59,1.71h-1.38l3.13-8.54h1l3.13,8.54ZM851.85,373l-1.33,3.79h2.63Z"/><path d="M863.4,379.62h-1.13l-1.74-6-1.73,6h-1.13l-2.23-8.54h1.37l1.49,6.1,1.71-6.1h1l1.71,6.1,1.49-6.1h1.37Z"/><path d="M871.62,379.62l-.59-1.71h-3.37l-.59,1.71h-1.38l3.13-8.54h1l3.13,8.54ZM869.38,373,868,376.8h2.63Z"/><path d="M878.93,379.62l-1.8-3.6h-1.62v3.6h-1.3v-8.54h3.31a2.44,2.44,0,0,1,2.65,2.49,2.24,2.24,0,0,1-1.7,2.27l2,3.78Zm-1.5-7.38h-1.92v2.67h1.92a1.34,1.34,0,1,0,0-2.67Z"/><path d="M882.07,379.62v-8.54h5.46v1.16h-4.16v2.5h3.55v1.15h-3.55v2.57h4.16v1.16Z"/><path d="M894.55,379.62l-3.95-6v6h-1.3v-8.54h1.19l3.95,6v-6h1.29v8.54Z"/><path d="M898,379.62v-8.54h5.46v1.16h-4.16v2.5h3.55v1.15h-3.55v2.57h4.16v1.16Z"/><path d="M907.47,379.69a3.87,3.87,0,0,1-3-1.13l.86-.85a2.81,2.81,0,0,0,2.18.82c1.12,0,1.76-.48,1.76-1.31a1.15,1.15,0,0,0-.34-.89A1.48,1.48,0,0,0,908,376l-1-.14a2.92,2.92,0,0,1-1.62-.68,2.12,2.12,0,0,1-.62-1.63c0-1.49,1.08-2.51,2.85-2.51a3.55,3.55,0,0,1,2.65,1l-.83.82a2.51,2.51,0,0,0-1.86-.66c-1,0-1.56.58-1.56,1.33a1,1,0,0,0,.32.79,1.91,1.91,0,0,0,1,.4l1,.14a2.82,2.82,0,0,1,1.59.64,2.23,2.23,0,0,1,.7,1.75C910.54,378.76,909.26,379.69,907.47,379.69Z"/><path d="M914.43,379.69a3.87,3.87,0,0,1-3-1.13l.86-.85a2.81,2.81,0,0,0,2.18.82c1.12,0,1.76-.48,1.76-1.31a1.15,1.15,0,0,0-.34-.89A1.48,1.48,0,0,0,915,376l-1-.14a2.92,2.92,0,0,1-1.62-.68,2.12,2.12,0,0,1-.62-1.63c0-1.49,1.08-2.51,2.85-2.51a3.55,3.55,0,0,1,2.65,1l-.83.82a2.51,2.51,0,0,0-1.86-.66c-1,0-1.56.58-1.56,1.33a1,1,0,0,0,.32.79,1.91,1.91,0,0,0,1,.4l1,.14a2.82,2.82,0,0,1,1.59.64,2.23,2.23,0,0,1,.7,1.75C917.5,378.76,916.22,379.69,914.43,379.69Z"/><rect class="cls-3" x="833.1" y="235.32" width="100" height="100"/><path class="cls-5" d="M846.07,271.9h12.46a0,0,0,0,1,0,0V297a0,0,0,0,1,0,0H846.07a2,2,0,0,1-2-2V273.9A2,2,0,0,1,846.07,271.9Z"/><path class="cls-4" d="M867.74,301.73c16.5-6.67,22.33-26.83,22.33-26.83l.17,39.67Z"/><polyline class="cls-5" points="858.17 272.44 874.51 263.01 890.85 253.58 890.85 278.33 890.85 272.44"/><polyline class="cls-5" points="858.17 297.19 874.51 306.62 890.85 316.06 890.85 297.19 890.85 278.33"/><ellipse class="cls-37" cx="891.6" cy="284.86" rx="4.74" ry="31.93"/><path class="cls-4" d="M895.82,279.27s-4.75,20.13-7.62,22.88c0,0,1,13.25,3.38,13.63S896.69,282.77,895.82,279.27Z"/><ellipse class="cls-38" cx="891.6" cy="284.86" rx="4.74" ry="31.93"/><path class="cls-17" d="M913.9,260.18a32.23,32.23,0,0,1,0,47.77c-1.43,1.31.7,3.42,2.12,2.12a35.24,35.24,0,0,0,0-52c-1.42-1.3-3.55.82-2.12,2.12Z"/><path class="cls-15" d="M907.39,266.91a22.47,22.47,0,0,1,0,34.32c-1.29,1.12.59,3,1.87,1.87a25.09,25.09,0,0,0,0-38.05c-1.28-1.11-3.15.75-1.87,1.87Z"/><path class="cls-16" d="M900.9,274.16a12.3,12.3,0,0,1,.13,19.72c-1.51,1.16,0,3.77,1.51,2.59a15.35,15.35,0,0,0-.13-24.91c-1.54-1.16-3,1.44-1.51,2.59Z"/></g></g></svg>